<svg width="50" height="50" viewBox="0 0 50 50" fill="none" xmlns="http://www.w3.org/2000/svg">
<g clip-path="url(#clip0_29_1165)">
<path d="M7.12082 26.1465H4.72427C4.3119 26.1472 3.95779 26.4399 3.87944 26.8448L0.103582 46.2241C0.00560946 46.7303 0.139356 47.2538 0.46814 47.651C0.796924 48.0482 1.28623 48.2775 1.80186 48.2758H20.3967C20.3967 49.2241 22.3277 49.9999 24.707 49.9999C27.0863 49.9999 29.0174 49.2241 29.0174 48.2758H47.6122C48.1278 48.2775 48.6171 48.0482 48.9459 47.651C49.2747 47.2538 49.4085 46.7303 49.3105 46.2241L45.5346 26.8448C45.4563 26.4399 45.1022 26.1472 44.6898 26.1465H7.12082Z" fill="#E64C3C"/>
<path d="M24.707 28.6551V44.8275C23.4458 44.2797 22.1314 43.8637 20.7846 43.5861C15.6654 42.4732 10.3421 42.7439 5.3622 44.3706C5.07596 44.4579 4.76493 44.3918 4.53896 44.1956C4.31298 43.9994 4.20386 43.7007 4.25014 43.4051L7.12083 26.1465L7.3622 24.6896C7.42399 24.3198 7.7159 24.0314 8.08634 23.974C8.67255 23.8878 9.276 23.8016 9.87945 23.7327C10.9329 25.7804 13.0422 27.0679 15.345 27.0689C15.5001 27.0689 15.6467 27.0603 15.7932 27.0516C16.3673 27.0068 16.9327 26.8851 17.4743 26.6896C17.4761 26.7079 17.482 26.7256 17.4915 26.7413C18.1366 28.5479 19.849 29.7529 21.7674 29.7499C22.8476 29.7535 23.8923 29.3644 24.707 28.6551Z" fill="#F5EFCA"/>
<path d="M44.0519 44.3707C39.072 42.744 33.7487 42.4733 28.6294 43.5862C27.2827 43.8638 25.9682 44.2798 24.707 44.8276V28.6552C24.8883 28.507 25.0557 28.3425 25.207 28.1638C26.0683 28.5064 26.987 28.6819 27.9139 28.6811H27.9657C28.0104 29.2975 28.2454 29.8848 28.6381 30.3621C29.4748 31.1893 30.5208 31.7733 31.6639 32.0517C32.4934 32.3166 33.2334 32.8059 33.8019 33.4655C34.3086 34.0933 35.1672 34.3141 35.9139 34.0086C36.5713 33.7247 36.9978 33.0781 37.0001 32.3621C37.001 32.1748 36.9719 31.9885 36.9139 31.8104C36.8277 31.5431 36.7329 31.2759 36.6208 31.0173C36.4046 30.4831 36.1207 29.979 35.776 29.5173C37.4857 28.5926 38.6864 26.9452 39.0432 25.0345C39.0691 25 39.1036 24.9655 39.1294 24.9311C39.4245 24.584 39.6657 24.1946 39.845 23.7759C40.345 23.8362 40.8363 23.8966 41.3277 23.9742C41.6982 24.0315 41.9901 24.3199 42.0519 24.6897L42.2932 26.1466L45.1639 43.4052C45.2102 43.7009 45.1011 43.9995 44.8751 44.1957C44.6491 44.3919 44.3381 44.458 44.0519 44.3707Z" fill="#F9EAB0"/>
<path d="M29.0174 48.2758C29.0174 49.2241 27.0863 50 24.707 50C22.3277 50 20.3967 49.2241 20.3967 48.2758L20.7846 43.5862C22.1314 43.8637 23.4458 44.2797 24.707 44.8276C25.9682 44.2797 27.2827 43.8637 28.6294 43.5862L29.0174 48.2758Z" fill="#C03A2B"/>
<path d="M40.2243 21.9741C40.2235 22.5944 40.0943 23.2078 39.845 23.7758C39.6657 24.1945 39.4245 24.584 39.1294 24.931C39.1036 24.9655 39.0691 25 39.0432 25.0344C38.6864 26.9452 37.4857 28.5925 35.776 29.5172C36.1207 29.9789 36.4047 30.4831 36.6208 31.0172C36.7329 31.2758 36.8277 31.5431 36.9139 31.8103C36.9719 31.9884 37.001 32.1747 37.0001 32.362C36.9978 33.0781 36.5713 33.7246 35.9139 34.0086C35.1672 34.314 34.3086 34.0932 33.8019 33.4655C33.2334 32.8059 32.4934 32.3165 31.6639 32.0517C30.5208 31.7733 29.4748 31.1892 28.6381 30.362C28.2454 29.8848 28.0104 29.2974 27.9657 28.681H27.9139C26.987 28.6819 26.0683 28.5063 25.207 28.1637C25.0557 28.3424 24.8883 28.5069 24.707 28.6551C23.8923 29.3645 22.8476 29.7535 21.7674 29.75C19.849 29.7529 18.1366 28.548 17.4915 26.7413C17.482 26.7256 17.4761 26.7079 17.4743 26.6896C16.9327 26.8851 16.3673 27.0069 15.7932 27.0517C15.6467 27.0603 15.5001 27.0689 15.345 27.0689C13.015 27.0673 10.8854 25.7511 9.84198 23.6679C8.79854 21.5847 9.01988 19.091 10.4139 17.2241C10.3102 16.9426 10.2577 16.6448 10.2588 16.3448C10.2536 15.0708 11.1484 13.9703 12.3967 13.7155C12.4013 13.7108 12.4074 13.7078 12.4139 13.7069C12.4053 13.6034 12.3967 13.5 12.3967 13.3879C12.3955 12.9098 12.4954 12.4368 12.6898 12C13.2398 10.7278 14.4935 9.90448 15.8795 9.90513C16.4021 9.90264 16.9184 10.0206 17.3881 10.25C18.3058 8.70479 19.9702 7.75792 21.7674 7.75858C23.0004 7.7541 24.1917 8.20542 25.1122 9.02582C25.6407 8.1734 26.6019 7.68863 27.6015 7.77041C28.6011 7.8522 29.4707 8.48677 29.8536 9.41375C30.0998 9.38626 30.3473 9.37187 30.595 9.37065C33.9351 9.37618 36.7147 11.9385 36.9915 15.2672H37.0174C37.7276 15.2672 38.4087 15.5499 38.9101 16.053C39.4115 16.556 39.6921 17.238 39.6898 17.9482C39.6881 18.4127 39.5695 18.8693 39.345 19.2758C39.9171 20.0591 40.225 21.0041 40.2243 21.9741Z" fill="#FB7B76"/>
<path d="M24.707 2.58621C24.2309 2.58621 23.845 2.20025 23.845 1.72414V0.862069C23.845 0.385961 24.2309 0 24.707 0C25.1831 0 25.5691 0.385961 25.5691 0.862069V1.72414C25.5691 2.20025 25.1831 2.58621 24.707 2.58621Z" fill="#F0C419"/>
<path d="M38.601 8.51992C38.2524 8.51984 37.9381 8.30981 37.8047 7.98772C37.6713 7.66564 37.745 7.29491 37.9915 7.04837L38.8536 6.1863C39.07 5.9622 39.3906 5.87232 39.692 5.95121C39.9934 6.03011 40.2287 6.26549 40.3076 6.56689C40.3865 6.8683 40.2967 7.18882 40.0726 7.40526L39.2105 8.26733C39.0489 8.42901 38.8296 8.51987 38.601 8.51992Z" fill="#F0C419"/>
<path d="M10.8131 8.51992C10.5844 8.51987 10.3652 8.42901 10.2036 8.26733L9.34151 7.40526C9.11741 7.18882 9.02753 6.8683 9.10643 6.56689C9.18532 6.26549 9.4207 6.03011 9.72211 5.95121C10.0235 5.87232 10.344 5.9622 10.5605 6.1863L11.4225 7.04837C11.669 7.29491 11.7427 7.66564 11.6093 7.98772C11.4759 8.30981 11.1617 8.51984 10.8131 8.51992Z" fill="#F0C419"/>
<path d="M17.4493 4.89234C17.1006 4.89243 16.7863 4.6825 16.6527 4.36044L15.6631 1.97079C15.5372 1.68486 15.5759 1.35323 15.7642 1.10396C15.9525 0.854694 16.2609 0.72679 16.5704 0.76964C16.8798 0.81249 17.1418 1.01939 17.2553 1.31044L18.2458 3.7001C18.3337 3.91145 18.3339 4.14908 18.2465 4.3606C18.159 4.57212 17.991 4.74017 17.7795 4.82768C17.6746 4.87041 17.5625 4.89237 17.4493 4.89234Z" fill="#F0C419"/>
<path d="M31.9648 4.89234C31.8515 4.8921 31.7394 4.86985 31.6346 4.82682C31.4233 4.7393 31.2555 4.5714 31.168 4.36008C31.0805 4.14877 31.0806 3.91135 31.1682 3.7001L32.1588 1.31044C32.2722 1.01939 32.5343 0.81249 32.8437 0.76964C33.1531 0.72679 33.4615 0.854694 33.6498 1.10396C33.8381 1.35323 33.8768 1.68486 33.751 1.97079L32.7613 4.36044C32.6278 4.6825 32.3134 4.89243 31.9648 4.89234Z" fill="#F0C419"/>
<path d="M42.2286 15.1568C41.8163 15.1581 41.4609 14.8673 41.3805 14.463C41.3 14.0587 41.5171 13.654 41.8984 13.4974L44.2881 12.5077C44.5726 12.3899 44.8985 12.4329 45.1428 12.6204C45.3871 12.808 45.5128 13.1116 45.4725 13.417C45.4322 13.7223 45.2321 13.983 44.9475 14.1008L42.5588 15.0905C42.4541 15.1341 42.3419 15.1566 42.2286 15.1568Z" fill="#F0C419"/>
<path d="M7.18547 15.1568C7.07212 15.1566 6.95992 15.1341 6.8553 15.0905L4.46651 14.1008C4.18192 13.983 3.98181 13.7223 3.94154 13.417C3.90127 13.1116 4.02697 12.808 4.27128 12.6204C4.5156 12.4329 4.84141 12.3899 5.12599 12.5077L7.51564 13.4974C7.89697 13.654 8.11404 14.0587 8.03359 14.463C7.95315 14.8673 7.59771 15.1581 7.18547 15.1568Z" fill="#F0C419"/>
<path d="M39.1295 24.9312C39.1036 24.9657 39.0691 25.0002 39.0433 25.0347C38.8914 25.8649 38.5748 26.6563 38.1122 27.3622C37.6608 27.4903 37.1935 27.5542 36.7243 27.5519C35.87 27.5495 35.0282 27.3457 34.2674 26.9571C33.9072 26.7643 33.569 26.5331 33.2588 26.2674C32.9149 26.4006 32.5499 26.4707 32.1812 26.4743C31.0425 26.4802 29.9994 25.8383 29.4915 24.8191C29.3529 24.5435 29.3719 24.2148 29.5413 23.957C29.7108 23.6991 30.0049 23.5513 30.3129 23.5691C30.6209 23.5869 30.896 23.7676 31.0346 24.0433C31.2049 24.3701 31.5065 24.6088 31.8638 24.6994C32.221 24.7899 32.5999 24.7237 32.9053 24.5174C33.2501 24.2821 33.4566 23.8918 33.457 23.4743C33.4583 23.2745 33.4141 23.0769 33.3277 22.8967C33.1542 22.4799 33.3316 21.9997 33.7346 21.796C34.1375 21.5923 34.6294 21.734 34.8622 22.1209C35.0718 22.5412 35.181 23.0046 35.1812 23.4743C35.1742 24.0767 34.9849 24.6628 34.6381 25.1553C34.776 25.2502 34.9139 25.345 35.0519 25.4226C35.5691 25.6888 36.1425 25.8277 36.7243 25.8278C37.6086 25.8327 38.4641 25.5137 39.1295 24.9312Z" fill="#FF5364"/>
<path d="M28.5863 21.5467C29.7031 20.7772 30.4711 19.5982 30.7234 18.2657C30.7876 17.9606 30.6821 17.6447 30.4475 17.4394C30.2129 17.2341 29.8857 17.1715 29.5919 17.2756C29.2981 17.3797 29.0833 17.6343 29.0303 17.9415C28.8613 18.8306 28.3483 19.6172 27.6027 20.1303C26.1685 21.0963 24.2449 20.877 23.0648 19.6131C22.7437 19.2607 22.1977 19.2355 21.8454 19.5566C21.4931 19.8777 21.4678 20.4237 21.7889 20.776C22.5202 21.5834 23.4867 22.1407 24.5519 22.3691C24.0689 23.0479 23.2867 23.4503 22.4536 23.4484C21.9775 23.4484 21.5915 23.8344 21.5915 24.3105C21.5915 24.7866 21.9775 25.1726 22.4536 25.1726C24.2382 25.1797 25.8395 24.0774 26.47 22.4079C27.2306 22.2815 27.9536 21.9873 28.5863 21.5467Z" fill="#FF5364"/>
<path d="M36.6208 31.0173C35.9872 31.3407 35.3063 31.5618 34.6036 31.6725C34.558 31.6797 34.5118 31.6826 34.4657 31.6811C34.0116 31.6853 33.6322 31.3366 33.5981 30.8839C33.5639 30.4311 33.8868 30.0295 34.3363 29.9656C34.8362 29.89 35.3216 29.7388 35.776 29.5173C36.1207 29.9791 36.4047 30.4832 36.6208 31.0173Z" fill="#FF5364"/>
<path d="M17.4139 25.0001C17.3704 25.242 17.3473 25.4871 17.345 25.7329C17.3432 26.0563 17.3867 26.3784 17.4743 26.6898C16.9327 26.8853 16.3673 27.0071 15.7932 27.0518C15.6829 26.6295 15.625 26.1952 15.6208 25.7587C14.1023 25.5931 12.9513 24.3121 12.9484 22.7846C12.9455 22.3045 13.3304 21.9119 13.8105 21.9053C14.038 21.9039 14.2568 21.9931 14.4185 22.1532C14.5802 22.3133 14.6716 22.5312 14.6725 22.7587V22.7846C14.6854 23.4658 15.2247 24.0202 15.9053 24.0518C16.0245 23.663 16.1894 23.2897 16.3967 22.9398C16.5124 22.7421 16.7031 22.5995 16.9254 22.5443C17.1478 22.4892 17.383 22.5261 17.5777 22.6467C17.9831 22.8972 18.1134 23.4261 17.8708 23.8363C17.6519 24.1947 17.4973 24.5885 17.4139 25.0001Z" fill="#FF5364"/>
<path d="M30.2329 30.0431C29.7149 30.2088 29.1799 30.3158 28.6381 30.362C28.2454 29.8848 28.0104 29.2974 27.9657 28.681C28.0491 28.6826 28.1325 28.6797 28.2157 28.6724C28.7276 28.6399 29.234 28.5473 29.7243 28.3965C30.0216 28.2945 30.3509 28.3625 30.5835 28.5738C30.8162 28.7851 30.9155 29.1063 30.8425 29.4121C30.7695 29.7178 30.5359 29.9596 30.2329 30.0431Z" fill="#FF5364"/>
<path d="M22.8105 14.6553C22.8105 14.1792 22.4245 13.7932 21.9484 13.7932C19.7593 13.7956 17.9853 15.5696 17.9829 17.7587C17.9829 18.2348 18.3689 18.6208 18.845 18.6208C19.3211 18.6208 19.707 18.2348 19.707 17.7587C19.707 17.1643 19.9432 16.5942 20.3635 16.1738C20.7839 15.7535 21.354 15.5174 21.9484 15.5174C22.4245 15.5174 22.8105 15.1314 22.8105 14.6553Z" fill="#FF5364"/>
<path d="M11.5588 19.5026C11.4022 19.5028 11.2486 19.4598 11.1148 19.3785C10.4039 18.9495 9.86609 18.2847 9.59497 17.5C9.46383 17.1269 9.39707 16.7343 9.39756 16.3388C9.39755 14.3851 10.9783 12.7997 12.932 12.794C14.0515 12.7897 15.1055 13.3213 15.7674 14.2241C15.9511 14.4715 15.9889 14.798 15.8666 15.0808C15.7443 15.3635 15.4804 15.5595 15.1744 15.595C14.8683 15.6304 14.5666 15.4999 14.3829 15.2526C14.045 14.7916 13.5071 14.5199 12.9355 14.5216C12.1195 14.5261 11.4062 15.0728 11.1895 15.8595C10.9729 16.6462 11.3059 17.4809 12.0045 17.9026C12.3366 18.1023 12.4947 18.4992 12.3907 18.8726C12.2867 19.246 11.9464 19.5041 11.5588 19.5035V19.5026Z" fill="#FF5364"/>
<path d="M30.0579 11.3026C29.5818 11.3026 29.1958 10.9167 29.1958 10.4406C29.1958 9.43908 28.384 8.62721 27.3825 8.62721C26.381 8.62721 25.5691 9.43908 25.5691 10.4406C25.5691 10.9167 25.1831 11.3026 24.707 11.3026C24.2309 11.3026 23.845 10.9167 23.845 10.4406C23.845 8.48687 25.4288 6.90308 27.3825 6.90308C29.3362 6.90308 30.92 8.48687 30.92 10.4406C30.92 10.6692 30.8291 10.8885 30.6675 11.0502C30.5058 11.2118 30.2865 11.3026 30.0579 11.3026Z" fill="#FF5364"/>
<path d="M38.1441 21.2424C37.7438 21.2385 37.3989 20.9596 37.3114 20.569C37.2238 20.1784 37.4166 19.7789 37.7769 19.6045C38.1204 19.443 38.4056 19.1792 38.5932 18.8493C39.0318 18.1019 38.8792 17.1485 38.2293 16.5753C37.5794 16.0022 36.6145 15.9699 35.9277 16.4984C35.5468 16.7841 35.0065 16.7069 34.7208 16.326C34.4352 15.9451 34.5124 15.4048 34.8932 15.1191C35.4965 14.6624 36.2314 14.4132 36.9881 14.4088C38.6536 14.3975 40.1023 15.5475 40.4691 17.1721C40.8359 18.7968 40.0219 20.4577 38.5131 21.1631C38.3976 21.2168 38.2715 21.2439 38.1441 21.2424Z" fill="#FF5364"/>
</g>
<defs>
<clipPath id="clip0_29_1165">
<rect width="49.4141" height="50" fill="white"/>
</clipPath>
</defs>
</svg>
