<svg width="50" height="50" viewBox="0 0 50 50" fill="none" xmlns="http://www.w3.org/2000/svg">
<g clip-path="url(#clip0_29_1119)">
<path d="M50 25C50 24.6963 49.9945 24.3938 49.9839 24.0927C49.5062 10.7059 38.5034 0 25 0C11.4966 0 0.49375 10.7059 0.0162109 24.0927C0.00546875 24.3938 0 24.6963 0 25C0 38.8071 12.842 49.0928 25 49.0928C37.3783 49.0928 50 38.8071 50 25Z" fill="#FF5876"/>
<path d="M25 48.1855C11.4968 48.1855 0.495898 37.4794 0.0181641 24.0928C0.00732422 24.3941 0 24.6962 0 25.0001C0 38.8072 11.1929 50.0001 25 50.0001C38.8071 50.0001 50 38.8072 50 25.0001C50 24.6962 49.9927 24.3941 49.9819 24.0929C49.5041 37.4795 38.5032 48.1855 25 48.1855Z" fill="#E6485D"/>
<path d="M45.8417 24.0927C45.3667 12.9924 36.2173 4.13892 25 4.13892C13.7827 4.13892 4.6333 12.9924 4.1583 24.0927C4.14541 24.3936 4.1582 44.5342 25 44.5342C45.8418 44.5342 45.8546 24.3936 45.8417 24.0927Z" fill="#E4EEF9"/>
<path d="M25 44.0467C13.7828 44.0467 4.63487 35.193 4.15967 24.0928C4.14678 24.3937 4.13887 24.6959 4.13887 25C4.13887 36.5213 13.4787 45.8611 25 45.8611C36.5213 45.8611 45.8611 36.5214 45.8611 25.0001C45.8611 24.696 45.8531 24.3938 45.8403 24.0929C45.3651 35.1931 36.2172 44.0467 25 44.0467Z" fill="#D5E0F2"/>
<path d="M32.5776 17.6807C31.983 17.0943 31.0256 17.1008 30.4393 17.6953L26.891 21.2927L27.2476 23.0053L28.905 23.5574L32.5924 19.8191C33.1787 19.2245 33.1722 18.2671 32.5776 17.6807Z" fill="#405B6C"/>
<path d="M22.8596 21.4303L14.8125 14.2592C14.189 13.7036 13.2332 13.7586 12.6776 14.3822C12.1221 15.0056 12.1771 15.9615 12.8006 16.517L21.0062 23.8293L22.716 23.259L22.8596 21.4303Z" fill="#405B6C"/>
<path d="M35.7066 34.7498C35.535 34.7498 35.3625 34.6917 35.2207 34.5726L25.6433 26.5279C25.3236 26.2593 25.282 25.7824 25.5506 25.4628C25.8191 25.1429 26.296 25.1014 26.6158 25.3701L36.1933 33.4149C36.5129 33.6835 36.5545 34.1604 36.2859 34.48C36.1364 34.6581 35.9223 34.7498 35.7066 34.7498Z" fill="#86DCFF"/>
<path d="M21.0061 23.8294L22.4183 25.0878L24.2317 24.4716L24.1334 22.5655L22.8597 21.4304C21.9734 21.9629 21.3026 22.8162 21.0061 23.8294Z" fill="#2D4456"/>
<path d="M26.8909 21.2927L25.6903 22.5099V24.8992H27.5815L28.905 23.5575C28.5413 22.5735 27.816 21.7656 26.8909 21.2927Z" fill="#2D4456"/>
<path d="M27.4202 24.0927C27.0528 23.1132 26.1078 22.416 25 22.416C23.8922 22.416 22.9472 23.1132 22.5798 24.0927C22.4739 24.375 22.5728 26.6769 25 26.6769C27.4272 26.6769 27.5261 24.375 27.4202 24.0927Z" fill="#FF5876"/>
<path d="M25 25.7695C23.8922 25.7695 22.9476 25.0723 22.5802 24.0928C22.4742 24.3751 22.4159 24.6807 22.4159 25C22.4159 26.4271 23.5729 27.584 24.9999 27.584C26.4271 27.584 27.5839 26.4271 27.5839 25C27.5839 24.6807 27.5256 24.3751 27.4197 24.0928C27.0524 25.0722 26.1078 25.7695 25 25.7695Z" fill="#E6485D"/>
<path d="M25.7575 9.13809V6.7917C25.7575 6.37334 25.4184 6.03418 25 6.03418C24.5817 6.03418 24.2425 6.37334 24.2425 6.7917V9.13809C24.2425 9.55644 24.5816 9.89561 25 9.89561C25.4185 9.89561 25.7575 9.55644 25.7575 9.13809Z" fill="#405B6C"/>
<path d="M24.2425 40.862V43.2084C24.2425 43.6268 24.5816 43.9659 25 43.9659C25.4185 43.9659 25.7575 43.6268 25.7575 43.2084V40.862C25.7575 40.4437 25.4184 40.1045 25 40.1045C24.5817 40.1045 24.2425 40.4437 24.2425 40.862Z" fill="#405B6C"/>
<path d="M43.2084 25.7577C43.6269 25.7577 43.9659 25.4186 43.9659 25.0002C43.9659 24.5818 43.6268 24.2427 43.2084 24.2427H40.862C40.4437 24.2427 40.1045 24.5818 40.1045 25.0002C40.1045 25.4186 40.4437 25.7577 40.862 25.7577H43.2084Z" fill="#405B6C"/>
<path d="M6.79161 24.2427C6.37315 24.2427 6.03409 24.5818 6.03409 25.0002C6.03409 25.4186 6.37315 25.7577 6.79161 25.7577H9.13799C9.55645 25.7577 9.89551 25.4186 9.89551 25.0002C9.89551 24.5818 9.55635 24.2427 9.13799 24.2427H6.79161Z" fill="#405B6C"/>
</g>
<defs>
<clipPath id="clip0_29_1119">
<rect width="50" height="50" fill="white"/>
</clipPath>
</defs>
</svg>
