<svg width="64" height="50" viewBox="0 0 64 50" fill="none" xmlns="http://www.w3.org/2000/svg">
<g clip-path="url(#clip0_29_1203)">
<path d="M53.5371 33.9634V40.2681C53.5371 41.9703 52.6664 43.5654 51.2064 44.5072C47.905 46.6381 41.1893 49.9974 31.6667 49.9974C22.144 49.9974 15.4283 46.6384 12.127 44.5072C10.667 43.5653 9.79625 41.9702 9.79625 40.2681V33.9634H53.5371Z" fill="#FFCE1C"/>
<path d="M53.5371 21.1787V33.9633C53.5371 35.6656 52.6664 37.2607 51.2064 38.2025C47.905 40.3334 41.1893 43.6927 31.6667 43.6927C22.144 43.6927 15.4283 40.3335 12.127 38.2025C10.667 37.2606 9.79625 35.6655 9.79625 33.9633V21.1787H53.5371Z" fill="#465759"/>
<path d="M45.1172 15.723L31.6667 28.1389L28.1327 30.743L31.6667 35.7045L63.3333 21.123V13.5574L45.1172 15.723Z" fill="#313D40"/>
<path d="M18.2161 15.723L0 13.5574V21.123L31.6667 35.7045V28.1389L18.2161 15.723Z" fill="#3A484A"/>
<path d="M35.9102 0.93018C33.2244 -0.306479 30.1089 -0.306479 27.4231 0.93018L0 13.5575L31.6667 28.1387L63.3333 13.5575L35.9102 0.93018Z" fill="#465759"/>
<path d="M59.7018 30.4692C59.174 30.4692 58.7461 30.0534 58.7461 29.5406V23.0777C58.7461 19.5278 56.0035 16.5957 52.3665 16.2576L33.2626 14.482C32.7373 14.4331 32.352 13.9798 32.4023 13.4692C32.4526 12.9587 32.9181 12.5841 33.4447 12.6332L52.5486 14.4088C57.1714 14.8386 60.6576 18.5653 60.6576 23.0777V29.5406C60.6575 30.0534 60.2296 30.4692 59.7018 30.4692Z" fill="#ECB000"/>
<path d="M62.958 36.3336C62.7949 32.0249 61.8567 30.1519 61.8567 30.1519H57.547C57.547 30.1519 56.6089 32.0249 56.4457 36.3336C56.4128 37.2029 56.8982 38.0147 57.6976 38.4064C58.2879 38.6958 59.0103 38.9555 59.702 38.9555C60.3938 38.9555 61.1162 38.6958 61.7064 38.4064C62.5055 38.0147 62.9909 37.2029 62.958 36.3336Z" fill="#ECB000"/>
<path d="M59.7016 31.7219C60.9414 31.7219 61.9464 30.7453 61.9464 29.5406C61.9464 28.336 60.9414 27.3594 59.7016 27.3594C58.4618 27.3594 57.4567 28.336 57.4567 29.5406C57.4567 30.7453 58.4618 31.7219 59.7016 31.7219Z" fill="#FFCE1C"/>
<path d="M31.6667 16.007C33.5866 16.007 35.1429 14.9105 35.1429 13.5579C35.1429 12.2054 33.5866 11.1089 31.6667 11.1089C29.7468 11.1089 28.1904 12.2054 28.1904 13.5579C28.1904 14.9105 29.7468 16.007 31.6667 16.007Z" fill="#FFCE1C"/>
</g>
<defs>
<clipPath id="clip0_29_1203">
<rect width="63.3333" height="50" fill="white"/>
</clipPath>
</defs>
</svg>
