<svg width="50" height="50" viewBox="0 0 50 50" fill="none" xmlns="http://www.w3.org/2000/svg">
<g clip-path="url(#clip0_29_1058)">
<path d="M24.0459 41.6666H4.99916C3.15824 41.6666 1.66595 40.1742 1.66595 38.3334V35H27.2477L24.0459 41.6666Z" fill="#D3DCFB"/>
<path d="M45.0025 14.9999V29.0036V38.3331H4.99916C3.15824 38.3331 1.66595 36.8407 1.66595 34.9998V14.9999L25.0009 6.6665L45.0025 14.9999Z" fill="#EBF5FC"/>
<path d="M7.55236 21.6668H5.78156C5.35011 21.6668 5.00031 21.317 5.00031 20.8855V19.1147C5.00031 18.6833 5.35011 18.3335 5.78156 18.3335H7.55236C7.9838 18.3335 8.33361 18.6833 8.33361 19.1147V20.8855C8.33361 21.317 7.9838 21.6668 7.55236 21.6668Z" fill="#3C58A0"/>
<path d="M14.219 21.6668H12.4482C12.0168 21.6668 11.667 21.317 11.667 20.8855V19.1147C11.667 18.6833 12.0168 18.3335 12.4482 18.3335H14.219C14.6505 18.3335 15.0003 18.6833 15.0003 19.1147V20.8855C15.0003 21.317 14.6505 21.6668 14.219 21.6668Z" fill="#3C58A0"/>
<path d="M20.8857 21.6668H19.1149C18.6834 21.6668 18.3336 21.317 18.3336 20.8855V19.1147C18.3336 18.6833 18.6834 18.3335 19.1149 18.3335H20.8857C21.3171 18.3335 21.6669 18.6833 21.6669 19.1147V20.8855C21.6669 21.317 21.3172 21.6668 20.8857 21.6668Z" fill="#3C58A0"/>
<path d="M27.5524 21.6668H25.7816C25.3501 21.6668 25.0003 21.317 25.0003 20.8855V19.1147C25.0003 18.6833 25.3501 18.3335 25.7816 18.3335H27.5524C27.9838 18.3335 28.3336 18.6833 28.3336 19.1147V20.8855C28.3336 21.317 27.9838 21.6668 27.5524 21.6668Z" fill="#3C58A0"/>
<path d="M34.2179 21.6668H32.4471C32.0156 21.6668 31.6658 21.317 31.6658 20.8855V19.1147C31.6658 18.6833 32.0156 18.3335 32.4471 18.3335H34.2179C34.6493 18.3335 34.9991 18.6833 34.9991 19.1147V20.8855C34.9991 21.317 34.6494 21.6668 34.2179 21.6668Z" fill="#3C58A0"/>
<path d="M40.8846 21.6668H39.1138C38.6823 21.6668 38.3325 21.317 38.3325 20.8855V19.1147C38.3325 18.6833 38.6823 18.3335 39.1138 18.3335H40.8846C41.316 18.3335 41.6658 18.6833 41.6658 19.1147V20.8855C41.6658 21.317 41.316 21.6668 40.8846 21.6668Z" fill="#3C58A0"/>
<path d="M7.55236 28.3333H5.78156C5.35011 28.3333 5.00031 27.9835 5.00031 27.5521V25.7812C5.00031 25.3498 5.35011 25 5.78156 25H7.55236C7.9838 25 8.33361 25.3498 8.33361 25.7812V27.5521C8.33361 27.9836 7.9838 28.3333 7.55236 28.3333Z" fill="#3C58A0"/>
<path d="M14.219 28.3333H12.4482C12.0168 28.3333 11.667 27.9835 11.667 27.5521V25.7812C11.667 25.3498 12.0168 25 12.4482 25H14.219C14.6505 25 15.0003 25.3498 15.0003 25.7812V27.5521C15.0003 27.9836 14.6505 28.3333 14.219 28.3333Z" fill="#3C58A0"/>
<path d="M20.8857 28.3333H19.1149C18.6834 28.3333 18.3336 27.9835 18.3336 27.5521V25.7812C18.3336 25.3498 18.6834 25 19.1149 25H20.8857C21.3171 25 21.6669 25.3498 21.6669 25.7812V27.5521C21.6669 27.9836 21.3172 28.3333 20.8857 28.3333Z" fill="#3C58A0"/>
<path d="M28.3336 28.3333V25.8333C28.3336 25.373 27.9606 25 27.5003 25H25.8336C25.3734 25 25.0003 25.373 25.0003 25.8333V27.5C25.0003 27.9603 25.3735 28.3333 25.8336 28.3333H28.3336Z" fill="#3C58A0"/>
<path d="M7.55236 35H5.78156C5.35011 35 5.00031 34.6502 5.00031 34.2188V32.448C5.00031 32.0166 5.35011 31.6667 5.78156 31.6667H7.55236C7.9838 31.6667 8.33361 32.0166 8.33361 32.448V34.2188C8.33361 34.6502 7.9838 35 7.55236 35Z" fill="#3C58A0"/>
<path d="M14.219 35H12.4482C12.0168 35 11.667 34.6502 11.667 34.2188V32.448C11.667 32.0166 12.0168 31.6667 12.4482 31.6667H14.219C14.6505 31.6667 15.0003 32.0166 15.0003 32.448V34.2188C15.0003 34.6502 14.6505 35 14.219 35Z" fill="#3C58A0"/>
<path d="M20.8857 35H19.1149C18.6834 35 18.3336 34.6502 18.3336 34.2188V32.448C18.3336 32.0166 18.6834 31.6667 19.1149 31.6667H20.8857C21.3171 31.6667 21.6669 32.0166 21.6669 32.448V34.2188C21.6669 34.6502 21.3172 35 20.8857 35Z" fill="#3C58A0"/>
<path d="M40.861 18.3333H39.1374C39.0331 18.3333 38.9338 18.3538 38.8423 18.3898C39.1406 18.5076 39.352 18.7978 39.352 19.138V20.8617C39.352 21.2019 39.1405 21.4921 38.8423 21.6099C38.9338 21.646 39.0331 21.6666 39.1374 21.6666H40.861C41.3056 21.6666 41.6659 21.3062 41.6659 20.8618V19.1381C41.6658 18.6936 41.3055 18.3333 40.861 18.3333Z" fill="#2A428C"/>
<path d="M34.1943 18.3333H32.4707C32.3664 18.3333 32.2671 18.3538 32.1756 18.3898C32.4739 18.5076 32.6853 18.7978 32.6853 19.138V20.8617C32.6853 21.2019 32.4738 21.4921 32.1756 21.6099C32.2671 21.646 32.3664 21.6666 32.4707 21.6666H34.1943C34.6389 21.6666 34.9991 21.3062 34.9991 20.8618V19.1381C34.9991 18.6936 34.6389 18.3333 34.1943 18.3333Z" fill="#2A428C"/>
<path d="M27.5288 18.3333H25.8052C25.7009 18.3333 25.6016 18.3538 25.5101 18.3898C25.8084 18.5076 26.0198 18.7978 26.0198 19.138V20.8617C26.0198 21.2019 25.8084 21.4921 25.5101 21.6099C25.6016 21.646 25.7009 21.6666 25.8052 21.6666H27.5288C27.9734 21.6666 28.3337 21.3062 28.3337 20.8618V19.1381C28.3336 18.6936 27.9733 18.3333 27.5288 18.3333Z" fill="#2A428C"/>
<path d="M20.8621 18.3333H19.1385C19.0342 18.3333 18.9349 18.3538 18.8434 18.3898C19.1417 18.5076 19.3531 18.7978 19.3531 19.138V20.8617C19.3531 21.2019 19.1417 21.4921 18.8434 21.6099C18.9349 21.646 19.0342 21.6666 19.1385 21.6666H20.8621C21.3067 21.6666 21.667 21.3062 21.667 20.8618V19.1381C21.6669 18.6936 21.3067 18.3333 20.8621 18.3333Z" fill="#2A428C"/>
<path d="M14.1954 18.3333H12.4718C12.3675 18.3333 12.2682 18.3538 12.1767 18.3898C12.475 18.5076 12.6864 18.7978 12.6864 19.138V20.8617C12.6864 21.2019 12.4749 21.4921 12.1767 21.6099C12.2682 21.646 12.3675 21.6666 12.4718 21.6666H14.1954C14.64 21.6666 15.0003 21.3062 15.0003 20.8618V19.1381C15.0003 18.6936 14.64 18.3333 14.1954 18.3333Z" fill="#2A428C"/>
<path d="M7.52882 18.3333H5.80519C5.70089 18.3333 5.60157 18.3538 5.51007 18.3898C5.80841 18.5076 6.01984 18.7978 6.01984 19.138V20.8617C6.01984 21.2019 5.80841 21.4921 5.51007 21.6099C5.60157 21.646 5.70089 21.6666 5.80519 21.6666H7.52882C7.97335 21.6666 8.3337 21.3062 8.3337 20.8618V19.1381C8.33361 18.6936 7.97325 18.3333 7.52882 18.3333Z" fill="#2A428C"/>
<path d="M7.52882 25H5.80519C5.70089 25 5.60157 25.0205 5.51007 25.0565C5.80841 25.1743 6.01984 25.4646 6.01984 25.8048V27.5285C6.01984 27.8687 5.80841 28.159 5.51007 28.2768C5.60157 28.3129 5.70089 28.3334 5.80519 28.3334H7.52882C7.97335 28.3334 8.3337 27.973 8.3337 27.5286V25.8049C8.33361 25.3604 7.97325 25 7.52882 25Z" fill="#2A428C"/>
<path d="M7.52882 31.6667H5.80519C5.70089 31.6667 5.60157 31.6873 5.51007 31.7233C5.80841 31.8411 6.01984 32.1313 6.01984 32.4715V34.1953C6.01984 34.5355 5.80841 34.8257 5.51007 34.9435C5.60157 34.9796 5.70089 35.0001 5.80519 35.0001H7.52882C7.97335 35.0001 8.3337 34.6398 8.3337 34.1954V32.4716C8.33361 32.027 7.97325 31.6667 7.52882 31.6667Z" fill="#2A428C"/>
<path d="M14.1954 25H12.4718C12.3675 25 12.2682 25.0205 12.1767 25.0565C12.475 25.1743 12.6864 25.4646 12.6864 25.8048V27.5285C12.6864 27.8687 12.4749 28.159 12.1767 28.2768C12.2682 28.3129 12.3675 28.3334 12.4718 28.3334H14.1954C14.64 28.3334 15.0003 27.973 15.0003 27.5286V25.8049C15.0003 25.3604 14.64 25 14.1954 25Z" fill="#2A428C"/>
<path d="M14.1954 31.6667H12.4718C12.3675 31.6667 12.2682 31.6873 12.1767 31.7233C12.475 31.8411 12.6864 32.1313 12.6864 32.4715V34.1953C12.6864 34.5355 12.4749 34.8257 12.1767 34.9435C12.2682 34.9796 12.3675 35.0001 12.4718 35.0001H14.1954C14.64 35.0001 15.0003 34.6398 15.0003 34.1954V32.4716C15.0003 32.027 14.64 31.6667 14.1954 31.6667Z" fill="#2A428C"/>
<path d="M20.8621 25H19.1385C19.0342 25 18.9349 25.0205 18.8434 25.0565C19.1417 25.1743 19.3531 25.4646 19.3531 25.8048V27.5285C19.3531 27.8687 19.1417 28.159 18.8434 28.2768C18.9349 28.3129 19.0342 28.3334 19.1385 28.3334H20.8621C21.3067 28.3334 21.667 27.973 21.667 27.5286V25.8049C21.6669 25.3604 21.3067 25 20.8621 25Z" fill="#2A428C"/>
<path d="M28.3336 28.3333V25.8048C28.3336 25.3603 27.9732 25 27.5287 25H25.8051C25.7008 25 25.6015 25.0205 25.5099 25.0565C25.8083 25.1743 26.0197 25.4646 26.0197 25.8048V27.5285C26.0197 27.8687 25.8083 28.159 25.5099 28.2768C25.6015 28.3129 25.7008 28.3334 25.8051 28.3334H28.3336V28.3333Z" fill="#2A428C"/>
<path d="M20.8621 31.6667H19.1385C19.0342 31.6667 18.9349 31.6873 18.8434 31.7233C19.1417 31.8411 19.3531 32.1313 19.3531 32.4715V34.1953C19.3531 34.5355 19.1417 34.8257 18.8434 34.9435C18.9349 34.9796 19.0342 35.0001 19.1385 35.0001H20.8621C21.3067 35.0001 21.667 34.6398 21.667 34.1954V32.4716C21.6669 32.027 21.3067 31.6667 20.8621 31.6667Z" fill="#2A428C"/>
<path d="M42.687 14.0352V29.0036V38.3332H45.0025V29.0036V14.9999L42.687 14.0352Z" fill="#D3DCFB"/>
<path d="M45.0025 15.0001V6.6667C45.0025 4.82578 43.5101 3.3335 41.6693 3.3335H4.99916C3.15824 3.3335 1.66595 4.82578 1.66595 6.6667V15.0001H45.0025Z" fill="#FF4155"/>
<path d="M12.1689 7.42109H9.99924C9.58245 7.42109 9.24475 7.0833 9.24475 6.6666C9.24475 6.2499 9.58254 5.91211 9.99924 5.91211H12.1689C12.5857 5.91211 12.9234 6.2499 12.9234 6.6666C12.9234 7.0833 12.5856 7.42109 12.1689 7.42109Z" fill="#E80054"/>
<path d="M17.4991 7.42109H15.3295C14.9127 7.42109 14.575 7.0833 14.575 6.6666C14.575 6.2499 14.9128 5.91211 15.3295 5.91211H17.4991C17.9159 5.91211 18.2536 6.2499 18.2536 6.6666C18.2536 7.0833 17.9159 7.42109 17.4991 7.42109Z" fill="#E80054"/>
<path d="M31.3366 7.42109H29.1669C28.7501 7.42109 28.4124 7.0833 28.4124 6.6666C28.4124 6.2499 28.7502 5.91211 29.1669 5.91211H31.3366C31.7534 5.91211 32.0911 6.2499 32.0911 6.6666C32.0911 7.0833 31.7534 7.42109 31.3366 7.42109Z" fill="#E80054"/>
<path d="M36.667 7.42109H34.4973C34.0805 7.42109 33.7428 7.0833 33.7428 6.6666C33.7428 6.2499 34.0806 5.91211 34.4973 5.91211H36.667C37.0838 5.91211 37.4215 6.2499 37.4215 6.6666C37.4215 7.0833 37.0837 7.42109 36.667 7.42109Z" fill="#E80054"/>
<path d="M15.8326 6.25C15.8326 7.40059 14.8998 8.3333 13.7493 8.3333C12.5987 8.3333 11.666 7.40059 11.666 6.25V2.0833C11.6659 0.932715 12.5986 0 13.7492 0C14.8997 0 15.8325 0.932715 15.8325 2.0833V6.25H15.8326Z" fill="#EBF5FC"/>
<path d="M35.0003 6.25C35.0003 7.40059 34.0676 8.3333 32.917 8.3333C31.7664 8.3333 30.8336 7.40059 30.8336 6.25V2.0833C30.8336 0.932715 31.7663 0 32.9169 0C34.0675 0 35.0002 0.932715 35.0002 2.0833V6.25H35.0003Z" fill="#EBF5FC"/>
<path d="M32.9169 0C32.4892 0 32.0919 0.129297 31.761 0.350391C32.3201 0.724024 32.6886 1.36045 32.6886 2.0834V6.25C32.6886 6.97285 32.3201 7.60938 31.761 7.98301C32.0918 8.204 32.4892 8.3334 32.9169 8.3334C34.0675 8.3334 35.0002 7.40068 35.0002 6.2501V2.0833C35.0003 0.932715 34.0676 0 32.9169 0Z" fill="#D3DCFB"/>
<path d="M13.7491 0C13.3214 0 12.9241 0.129297 12.5933 0.350391C13.1523 0.724024 13.5208 1.36045 13.5208 2.0834V6.25C13.5208 6.97285 13.1523 7.60938 12.5933 7.98301C12.924 8.204 13.3214 8.3334 13.7491 8.3334C14.8997 8.3334 15.8324 7.40068 15.8324 6.2501V2.0833C15.8325 0.932715 14.8998 0 13.7491 0Z" fill="#D3DCFB"/>
<path d="M41.6692 3.33325H39.3545C41.1954 3.33325 42.6877 4.82554 42.6877 6.66646V15H45.0023V6.66655C45.0024 4.82563 43.5101 3.33325 41.6692 3.33325Z" fill="#E80054"/>
<path d="M1.66583 10.9121H45.0025V12.4212H1.66583V10.9121Z" fill="#E80054"/>
<path d="M35.8342 50C42.7377 50 48.3342 44.4036 48.3342 37.5C48.3342 30.5964 42.7377 25 35.8342 25C28.9306 25 23.3342 30.5964 23.3342 37.5C23.3342 44.4036 28.9306 50 35.8342 50Z" fill="#4FABF7"/>
<path d="M35.8342 46.6667C40.8968 46.6667 45.0009 42.5626 45.0009 37.5C45.0009 32.4373 40.8968 28.3333 35.8342 28.3333C30.7715 28.3333 26.6675 32.4373 26.6675 37.5C26.6675 42.5626 30.7715 46.6667 35.8342 46.6667Z" fill="#EBF5FC"/>
<path d="M35.8342 36.5878C35.4174 36.5878 35.0797 36.25 35.0797 35.8333V31.6666C35.0797 31.2499 35.4175 30.9121 35.8342 30.9121C36.251 30.9121 36.5887 31.2499 36.5887 31.6666V35.8333C36.5887 36.25 36.2509 36.5878 35.8342 36.5878Z" fill="#3C58A0"/>
<path d="M40.0009 38.2546H37.5008C37.084 38.2546 36.7463 37.9168 36.7463 37.5001C36.7463 37.0834 37.0841 36.7456 37.5008 36.7456H40.0009C40.4177 36.7456 40.7554 37.0834 40.7554 37.5001C40.7554 37.9168 40.4176 38.2546 40.0009 38.2546Z" fill="#3C58A0"/>
<path d="M35.8342 25C35.4441 25 35.0583 25.0188 34.6773 25.0538C41.0383 25.6377 46.0203 30.9866 46.0203 37.5C46.0203 44.0134 41.0382 49.3623 34.6772 49.9462C35.0582 49.9812 35.444 50 35.8341 50C42.7376 50 48.3341 44.4035 48.3341 37.5C48.3341 30.5965 42.7377 25 35.8342 25Z" fill="#1886EA"/>
<path d="M35.8342 28.3333C35.4426 28.3333 35.0568 28.358 34.678 28.4056C39.1948 28.9741 42.6886 32.829 42.6886 37.5C42.6886 42.1709 39.1948 46.0258 34.678 46.5943C35.0568 46.6419 35.4426 46.6667 35.8342 46.6667C40.8968 46.6667 45.0009 42.5625 45.0009 37.5C45.0009 32.4374 40.8968 28.3333 35.8342 28.3333Z" fill="#D3DCFB"/>
<path d="M35.8342 39.1666C36.7547 39.1666 37.5009 38.4204 37.5009 37.4999C37.5009 36.5795 36.7547 35.8333 35.8342 35.8333C34.9137 35.8333 34.1675 36.5795 34.1675 37.4999C34.1675 38.4204 34.9137 39.1666 35.8342 39.1666Z" fill="#FFDD40"/>
</g>
<defs>
<clipPath id="clip0_29_1058">
<rect width="50" height="50" fill="white"/>
</clipPath>
</defs>
</svg>
