<svg width="130" height="101" viewBox="0 0 130 101" fill="none" xmlns="http://www.w3.org/2000/svg">
<mask id="mask0_34_1691" style="mask-type:luminance" maskUnits="userSpaceOnUse" x="0" y="0" width="130" height="101">
<path d="M0 0H130V100.625H0V0Z" fill="white"/>
</mask>
<g mask="url(#mask0_34_1691)">
<path d="M80.4885 20.243C80.5269 20.243 80.5679 20.2456 80.6063 20.243C82.829 20.1941 85.0568 20.243 87.2795 20.243C89.5483 20.243 91.8146 20.2379 94.0834 20.243C95.8221 20.2481 97.2433 21.5304 97.2791 23.3121C97.2919 23.8657 97.2791 24.4218 97.2791 24.9754C97.2791 27.7536 97.2791 30.5292 97.2791 33.3074C97.2791 35.102 97.2791 36.8966 97.2791 38.6912C97.2791 39.698 95.7248 39.6954 95.7248 38.6912C95.7248 38.6552 95.7248 38.6217 95.7248 38.5857C95.6787 36.5361 95.7248 34.484 95.7248 32.4345C95.7248 29.798 95.7248 27.1588 95.7248 24.5223C95.7248 23.979 95.8272 23.2632 95.6198 22.7457C95.3842 22.1612 94.8234 21.8136 94.2011 21.8033C93.986 21.8007 93.7709 21.8033 93.5558 21.8033C91.0412 21.8033 88.524 21.8033 86.0094 21.8033C84.1682 21.8033 82.3271 21.8033 80.4885 21.8033C79.4847 21.8033 79.4873 20.243 80.4885 20.243ZM95.7248 62.7061C95.7248 64.426 95.7248 66.1486 95.7248 67.8685C95.7248 70.9711 95.7248 74.0711 95.7248 77.1737C95.7248 78.2937 95.7248 79.4138 95.7248 80.5364C95.7248 81.1723 95.8272 81.9242 95.42 82.4623C95.0231 82.9875 94.4521 83.0519 93.8503 83.0519C93.3074 83.0519 92.7646 83.0519 92.2217 83.0519C90.104 83.0519 87.9863 83.0519 85.8686 83.0519C82.9109 83.0519 79.9507 83.0519 76.9931 83.0519C73.7845 83.0519 70.576 83.0519 67.3674 83.0519C64.5455 83.0519 61.7235 83.0519 58.9016 83.0519C57.0605 83.0519 55.2193 83.0519 53.3782 83.0519C53.0222 83.0519 52.6663 83.0545 52.3129 83.0519C51.8878 83.0493 51.5012 82.9129 51.199 82.6116C50.7099 82.1224 50.7586 81.4942 50.7586 80.8582C50.7586 80.2763 50.7586 79.6944 50.7586 79.1125C50.7586 78.1084 49.2042 78.1058 49.2042 79.1125C49.2042 79.7279 49.2042 80.3458 49.2042 80.9612C49.2042 81.8083 49.258 82.6142 49.7804 83.33C50.4461 84.2466 51.4499 84.6122 52.5408 84.6122C53.9671 84.6122 55.396 84.6122 56.8223 84.6122C59.4804 84.6122 62.1384 84.6122 64.7939 84.6122C68.0127 84.6122 71.2289 84.6122 74.4452 84.6122C77.5846 84.6122 80.7215 84.6122 83.8584 84.6122C86.2706 84.6122 88.6828 84.6122 91.095 84.6122C92.1346 84.6122 93.1743 84.6328 94.2139 84.6122C95.9501 84.5813 97.2689 83.1961 97.2791 81.4659C97.2842 80.7475 97.2791 80.0291 97.2791 79.3108C97.2791 76.3086 97.2791 73.309 97.2791 70.3068C97.2791 67.902 97.2791 65.4971 97.2791 63.0949C97.2791 62.9636 97.2791 62.8348 97.2791 62.7061C97.2791 61.7019 95.7248 61.6994 95.7248 62.7061ZM97.7657 59.4207C96.5442 59.3692 95.3586 59.0473 94.2856 58.4577C92.9233 57.7059 91.8606 56.5498 91.1821 55.1878C90.9234 55.4015 90.6648 55.6126 90.4138 55.8263C89.6251 56.5035 88.8518 57.2012 88.1399 57.9582C87.4639 58.6766 86.9364 59.5803 86.1502 60.1802C84.7854 61.2204 82.9724 60.8703 82.0172 59.467C81.4769 58.674 81.2977 57.6415 81.3259 56.6966C81.3566 55.5997 81.5333 54.4848 81.7842 53.4189C82.2426 51.4775 83.0467 49.5876 84.1939 47.9552C86.4473 44.7471 89.9196 42.5843 93.8324 42.1955C97.1972 41.8608 100.652 43.2074 103.23 45.3161C104.278 46.1761 105.251 47.2137 106.037 48.3646C106.234 48.241 106.436 48.1277 106.646 48.0248C108.108 47.3064 109.75 47.1442 111.355 47.0644C113.371 46.9614 115.389 46.9691 117.401 46.7992C119.934 46.5829 122.425 46.0834 124.835 45.2672C125.788 44.9453 126.192 46.4541 125.247 46.7734C124.11 47.1571 122.955 47.4763 121.783 47.7261C119.688 48.1689 117.552 48.3904 115.417 48.4856C113.734 48.5603 112.044 48.5449 110.364 48.6916C109.115 48.7998 107.914 49.0572 106.838 49.7087C107.002 50.0254 107.156 50.3446 107.286 50.6716C108.172 52.8859 108.154 55.4375 107.512 57.7136C107.204 58.8079 106.777 60.0541 105.975 60.8883C105.053 61.8538 103.645 61.8358 102.859 60.7184C102.539 60.2626 102.378 59.7013 102.255 59.1632C102.101 58.4989 102.001 57.8166 101.952 57.1369C101.858 55.8083 101.993 54.4334 102.401 53.164C102.861 51.7247 103.683 50.3678 104.79 49.325C104.715 49.2169 104.641 49.1113 104.564 49.0057C103.525 47.5484 102.18 46.3048 100.644 45.3933C98.2368 43.9669 95.4892 43.3438 92.7313 43.9412C89.4792 44.6441 86.7238 46.7116 85.0056 49.5567C84.0914 51.0733 83.482 52.7443 83.144 54.4823C82.9724 55.368 82.8316 56.3026 82.8879 57.2064C82.9109 57.5668 82.9852 57.9402 83.1312 58.2826C83.2233 58.5015 83.3872 58.7358 83.5767 58.9212C83.6049 58.9495 83.6356 58.9752 83.6638 58.9984C83.6663 59.001 83.6638 58.9984 83.6663 59.001C83.7227 59.0396 83.779 59.0757 83.8405 59.1091C83.8584 59.1194 83.9275 59.1529 83.9608 59.1684C83.9967 59.1787 84.0684 59.2018 84.0863 59.207C84.1222 59.2173 84.2092 59.2327 84.2297 59.2379C84.2758 59.2404 84.3219 59.2456 84.3705 59.2456C84.4218 59.2456 84.473 59.2404 84.5242 59.2379C84.5498 59.2327 84.6036 59.225 84.6317 59.2173C84.8878 59.1478 85.0645 59.0705 85.2873 58.8903C85.5408 58.6869 85.7764 58.3573 86.0068 58.0586C87.1592 56.5781 88.5752 55.3371 90.0067 54.1373C90.2064 53.9699 90.4062 53.8051 90.6059 53.6378C90.5163 53.2979 90.4497 52.9503 90.4062 52.5975C90.2679 51.4749 90.3985 50.2004 91.0566 49.2478C91.7941 48.1792 93.2357 47.4557 94.342 48.4547C94.8849 48.9439 95.2126 49.7215 95.1384 50.4528C95.0641 51.184 94.6954 51.7942 94.2472 52.3555C93.712 53.0275 93.077 53.6172 92.4138 54.1785C92.5188 54.4231 92.6391 54.6574 92.7723 54.8865C93.817 56.6528 95.7248 57.7728 97.7657 57.8604C98.7643 57.9041 98.7643 59.4645 97.7657 59.4207ZM105.607 50.7077C104.521 51.838 103.845 53.3391 103.586 54.8788C103.399 56.0117 103.448 57.209 103.666 58.3341C103.737 58.6972 103.968 60.2781 104.567 60.0283C104.928 59.8764 105.164 59.4284 105.33 59.0988C105.553 58.656 105.732 58.1925 105.886 57.7213C106.206 56.7249 106.395 55.695 106.416 54.6496C106.436 53.6352 106.306 52.6336 105.996 51.6681C105.891 51.3359 105.758 51.0192 105.607 50.7077ZM91.9503 52.4817C92.1987 52.2577 92.4419 52.0285 92.675 51.7865C92.7902 51.6681 92.9003 51.5445 93.0079 51.4183C93.0488 51.372 93.0872 51.3256 93.1231 51.2793C93.1384 51.2587 93.1769 51.2097 93.1922 51.1891C93.2716 51.0733 93.3484 50.9574 93.4176 50.8338C93.4457 50.7798 93.4713 50.7257 93.4995 50.6716C93.5021 50.6665 93.5046 50.6665 93.5046 50.6665C93.5072 50.6587 93.5072 50.6536 93.5123 50.6433C93.5405 50.5532 93.5635 50.4631 93.584 50.3704C93.5789 50.3601 93.5917 50.1979 93.5917 50.1361C93.5917 50.1361 93.5917 50.1361 93.5917 50.1335C93.5891 50.1258 93.5866 50.1206 93.5815 50.1077C93.5635 50.0588 93.5507 50.0022 93.5354 49.9507C93.5328 49.9481 93.5328 49.9481 93.5354 49.9481C93.5302 49.943 93.5277 49.9378 93.5226 49.9275C93.4893 49.876 93.4662 49.8219 93.4304 49.7704C93.2229 49.4641 93.0207 49.4743 92.7159 49.7061C92.0092 50.2519 91.8786 51.2741 91.917 52.1083C91.9247 52.2319 91.9349 52.3581 91.9503 52.4817ZM129.81 68.9242C129.575 68.5225 129.134 68.4787 128.745 68.6435C124.735 70.3609 120.359 71.3187 115.99 70.9582C114.582 70.8424 113.135 70.5669 111.714 70.1266C111.176 69.9566 110.646 69.7635 110.126 69.5498C110.116 69.5472 110.113 69.5447 110.108 69.5421C110.101 69.5395 110.096 69.5369 110.085 69.5318C110.037 69.5112 109.988 69.4906 109.939 69.47C109.832 69.4211 109.724 69.3722 109.619 69.3232C109.432 69.2357 109.245 69.143 109.061 69.0477C108.677 68.8469 108.288 68.6358 107.939 68.3783C107.586 68.1182 107.089 68.3371 106.877 68.659C105.801 70.2682 104.111 71.5272 102.429 72.189C101.814 72.4336 101.179 72.6267 100.534 72.7631C100.349 72.7992 100.168 72.8249 99.9832 72.861C99.9679 72.861 99.9525 72.8635 99.9371 72.8661C99.5172 72.9022 99.1587 73.1983 99.1587 73.6463C99.1587 74.0376 99.5146 74.4625 99.9371 74.4264C102.949 74.1561 105.865 72.4876 107.732 70.1111C108.728 70.7188 109.865 71.1565 110.946 71.5169C114.246 72.6164 117.806 72.8224 121.24 72.3615C124.11 71.9753 126.871 71.1307 129.531 69.9927C129.918 69.8279 130.003 69.2563 129.81 68.9242ZM5.48761 15.8813C6.75517 16.3088 8.04577 16.6589 9.35942 16.919C11.5693 17.3541 13.8125 17.5112 16.0608 17.5807C17.8456 17.6373 19.6484 17.6245 21.4153 17.9257C22.4473 18.1034 23.4203 18.4716 24.2935 19.0071C24.4753 18.7445 24.6648 18.4896 24.8594 18.2373C26.1091 16.628 27.6916 15.2685 29.4943 14.3236C32.5032 12.7478 35.9448 12.3204 39.1943 13.3684C42.9381 14.5759 45.9367 17.4597 47.5244 21.0463C48.3796 22.98 48.8944 25.0758 48.9917 27.1923C49.071 28.871 48.3668 31.0133 46.4873 31.3634C45.696 31.5102 44.8843 31.3222 44.2338 30.8433C43.4298 30.2486 42.8997 29.3397 42.2211 28.6136C41.2711 27.5991 40.2135 26.7005 39.1534 25.8097C39.0202 26.0697 38.8794 26.3195 38.7283 26.5512C37.3609 28.6496 35.046 29.9293 32.557 30.0348C31.5557 30.0786 31.5608 28.5157 32.557 28.4745C33.5428 28.4308 34.5057 28.1527 35.361 27.6609C36.5005 27.0043 37.4018 25.9719 37.9217 24.7694C37.8679 24.7231 37.8141 24.6768 37.7603 24.6304C36.7207 23.7318 35.3891 22.6247 35.1971 21.1699C35.0998 20.4258 35.3763 19.6791 35.8987 19.1436C36.9486 18.0699 38.4261 18.7239 39.1995 19.7692C40.1213 21.018 40.1521 22.7225 39.7347 24.2725C40.6079 25.0063 41.4913 25.7298 42.3235 26.5151C43.0226 27.1717 43.6884 27.8695 44.2799 28.6264C44.536 28.956 44.7153 29.2341 45.0353 29.5019C45.0456 29.507 45.1557 29.5894 45.1787 29.6049C45.2428 29.6461 45.3093 29.6821 45.3734 29.7181C45.399 29.7336 45.4246 29.7465 45.4527 29.7568C45.4527 29.7568 45.4527 29.7568 45.4553 29.7593C45.5193 29.7825 45.5885 29.8031 45.655 29.8211C45.6909 29.8314 45.7882 29.8469 45.8036 29.852C45.8548 29.8546 45.9034 29.8598 45.9521 29.8598C46.0033 29.8598 46.052 29.8546 46.1032 29.8495C46.1262 29.8469 46.1723 29.8366 46.203 29.8289C46.2286 29.8211 46.3234 29.7928 46.3592 29.7825C46.3925 29.7671 46.4642 29.7336 46.4822 29.7233C46.541 29.6898 46.5999 29.6538 46.6563 29.6152C46.6563 29.6126 46.6563 29.6126 46.6588 29.6126C46.6793 29.5946 46.6998 29.5791 46.7177 29.5585C46.938 29.3397 47.066 29.18 47.1966 28.8813C47.3118 28.6161 47.4066 28.2016 47.4296 27.8746C47.5577 26.1032 47.0711 24.1772 46.4617 22.532C45.8829 20.9665 45.0123 19.4886 43.901 18.2476C41.8268 15.9354 38.8102 14.3597 35.6734 14.3262C35.3661 14.3236 35.0588 14.3339 34.7515 14.3571C34.5825 14.37 34.416 14.388 34.2496 14.4086C34.2214 14.4111 34.1958 14.4137 34.1702 14.4189C34.1625 14.4189 34.1574 14.4189 34.1395 14.4214C34.0575 14.4343 33.9782 14.4472 33.8988 14.4601C33.1895 14.5811 32.4904 14.7639 31.8144 15.0008C30.3394 15.5209 28.8977 16.3783 27.7018 17.4545C26.9055 18.1729 26.1398 19.0123 25.5124 19.9315C25.7634 20.1658 26.0066 20.4104 26.2269 20.6807C27.8376 22.6375 28.5392 25.1608 28.3753 27.6789C28.3292 28.3612 28.2319 29.0436 28.0834 29.7078C27.9605 30.2511 27.8068 30.8253 27.4919 31.2913C26.7416 32.4062 25.3818 32.486 24.4241 31.5823C23.5893 30.7944 23.1591 29.5225 22.8442 28.4488C22.5061 27.3004 22.332 26.0851 22.3499 24.8879C22.3679 23.7061 22.565 22.5036 22.9901 21.3991C23.1335 21.0283 23.3025 20.6678 23.4869 20.3202C23.3922 20.261 23.2974 20.2018 23.2001 20.1477C23.0593 20.0679 22.752 19.9186 22.6931 19.8928C22.5343 19.8233 22.1374 19.6894 21.8788 19.6199C20.5062 19.2517 19.1106 19.2311 17.6152 19.1873C15.7407 19.1307 13.8663 19.0869 12.0021 18.8835C9.64366 18.626 7.32365 18.1471 5.07277 17.385C4.12787 17.0657 4.53758 15.5595 5.48761 15.8813ZM37.6246 20.3357C37.3404 20.1091 37.1202 20.0602 36.9076 20.3589C36.8641 20.4155 36.8359 20.4825 36.8001 20.5417C36.795 20.5494 36.7924 20.5545 36.7873 20.5623C36.7873 20.5623 36.7873 20.5623 36.7873 20.5648C36.7719 20.6163 36.7591 20.673 36.7412 20.7219C36.7386 20.7296 36.7361 20.7348 36.7335 20.7399C36.7335 20.8172 36.7463 20.9871 36.7361 20.982C36.754 21.0644 36.7745 21.1493 36.8001 21.2317C36.8052 21.2472 36.8129 21.2652 36.8206 21.2832C36.8206 21.2832 36.8206 21.2832 36.8231 21.2858C36.8487 21.3399 36.8769 21.3939 36.9051 21.448C36.9665 21.5613 37.0382 21.6694 37.1099 21.775C37.1278 21.7982 37.1919 21.8831 37.2021 21.896C37.238 21.9423 37.2738 21.9887 37.3122 22.0325C37.4121 22.1483 37.5145 22.2616 37.6195 22.3723C37.8602 22.6247 38.1137 22.8641 38.3724 23.0958C38.3852 22.9903 38.3954 22.8847 38.4005 22.7791C38.4492 21.9398 38.3314 20.897 37.6246 20.3357ZM24.4164 28.2763C24.5675 28.7475 24.7468 29.2109 24.9644 29.6564C25.136 30.0039 25.3562 30.4236 25.7096 30.6167C26.3293 30.9515 26.5674 29.3912 26.6417 29.0152C27.0719 26.8679 26.8491 24.5377 25.7147 22.635C25.433 22.1638 25.095 21.7209 24.7109 21.3218C24.5726 21.6154 24.4446 21.9166 24.3447 22.223C23.6994 24.185 23.7967 26.3195 24.4164 28.2763ZM0.975625 40.6841C0.00255197 40.4498 0.417389 38.9461 1.39046 39.1804C3.87948 39.7803 6.42739 40.0352 8.98811 39.9735C12.6013 39.8859 16.1837 39.1675 19.5895 37.9626C20.1913 37.7514 20.7853 37.5223 21.3717 37.2777C21.4076 37.2648 21.4972 37.2236 21.5075 37.221C21.5484 37.203 21.5868 37.185 21.6278 37.1695C21.7379 37.1206 21.8455 37.0743 21.953 37.0253C22.1579 36.9327 22.3627 36.84 22.5676 36.7421C22.9415 36.5645 23.3179 36.3816 23.679 36.1757C24.0631 35.9542 24.5086 36.1036 24.7442 36.4537C25.3204 37.3214 26.0527 38.099 26.8927 38.7118C27.5969 39.2216 28.4829 39.7083 29.1896 39.9863C29.8042 40.2284 30.4393 40.4215 31.0871 40.5579C31.2664 40.5965 31.4507 40.6223 31.6325 40.6558C31.6479 40.6583 31.6607 40.6583 31.6812 40.6609C32.1012 40.6995 32.4597 40.9879 32.4597 41.4411C32.4597 41.8376 32.1012 42.2598 31.6812 42.2212C28.6467 41.9509 25.7096 40.2567 23.8428 37.8518C23.5612 37.9935 23.2744 38.1299 22.9901 38.2612C20.2502 39.5151 17.3489 40.4266 14.3861 40.9673C9.9407 41.7758 5.3775 41.7449 0.975625 40.6841ZM31.63 40.6558C31.5378 40.6403 31.5378 40.6455 31.63 40.6558V40.6558ZM44.1519 12.4466C44.4131 11.4193 44.6717 10.3894 44.9329 9.36203C45.0533 8.89342 45.1659 8.41966 45.2914 7.95105C45.381 7.61376 45.6192 7.43867 45.9521 7.49789C46.9994 7.6807 48.0442 8.03087 49.0736 8.2935C51.3834 8.88312 53.6931 9.47274 56.0003 10.0624C58.7992 10.7756 61.5981 11.4914 64.3969 12.2046C66.9039 12.8457 69.4134 13.4868 71.9229 14.1279C73.362 14.4935 74.8037 14.8617 76.2428 15.2299C76.6372 15.3303 77.0546 15.4462 76.9675 15.9534C76.924 16.2161 76.8344 16.4761 76.7703 16.7336C76.3683 18.3171 75.9688 19.9006 75.5668 21.484C74.9369 23.9738 74.3044 26.4636 73.6744 28.9534C72.96 31.7754 72.243 34.5973 71.5285 37.4193C70.8858 39.9606 70.2405 42.5045 69.5952 45.0457C69.1752 46.709 68.7527 48.3723 68.3328 50.0356C68.2534 50.3472 68.1868 50.669 68.0921 50.978C67.9563 51.4286 67.626 51.4621 67.2445 51.3642C65.9026 51.0218 64.5608 50.6793 63.219 50.3369C60.7556 49.7087 58.2947 49.0778 55.8313 48.4496C53.0274 47.7338 50.2259 47.018 47.4219 46.3022C45.0558 45.6997 42.6923 45.0947 40.3262 44.4922C39.1764 44.1986 38.0241 43.918 36.8795 43.6116C36.2982 43.4545 36.4083 43.004 36.5235 42.5559C36.7642 41.6007 37.0049 40.648 37.2482 39.6954C37.9063 37.0871 38.567 34.4815 39.2276 31.8732C39.3608 31.3557 39.4914 30.8382 39.622 30.3181C39.8704 29.3448 38.3698 28.9303 38.124 29.9035C37.6528 31.7599 37.1816 33.6163 36.713 35.4728C36.1343 37.7514 35.5581 40.0301 34.9794 42.3088C34.8693 42.7465 34.8027 43.1816 34.9256 43.6322C35.1279 44.3686 35.7169 44.9067 36.439 45.1101C36.7873 45.208 37.1432 45.2904 37.494 45.3779C39.3685 45.8568 41.2429 46.3357 43.1174 46.8146C45.8497 47.5124 48.5794 48.2101 51.3091 48.9053C54.0875 49.616 56.8684 50.3266 59.6494 51.0347C61.6314 51.5419 63.6134 52.0465 65.5954 52.5538C66.0384 52.6671 66.4788 52.7829 66.9218 52.8936C68.0921 53.1846 69.2495 52.6104 69.5875 51.4106C69.8666 50.4296 70.0894 49.4306 70.3404 48.4419C70.9012 46.2276 71.462 44.0107 72.0253 41.7964C72.7398 38.9744 73.4542 36.1525 74.1686 33.328C74.8754 30.5472 75.5796 27.7665 76.2838 24.9883C76.8139 22.895 77.3439 20.8043 77.874 18.7136C78.0251 18.1188 78.1736 17.524 78.3247 16.9318C78.4271 16.5225 78.5603 16.1105 78.5295 15.6857C78.4604 14.7793 77.8279 14.0507 76.9649 13.8035C76.8651 13.7752 76.7601 13.752 76.6577 13.7263C76.1071 13.5846 75.554 13.443 75.0034 13.304C72.8652 12.7581 70.727 12.2123 68.5914 11.6664C65.7797 10.9481 62.9706 10.2297 60.1615 9.51394C57.4856 8.82905 54.807 8.14674 52.1311 7.46442C50.4308 7.02929 48.7279 6.59415 47.0276 6.16159C46.6537 6.06632 46.2696 5.94016 45.8829 5.92214C44.8791 5.87579 44.0392 6.60445 43.7883 7.54682C43.6628 8.02315 43.545 8.50463 43.4247 8.98354C43.166 9.998 42.91 11.015 42.6513 12.0321C42.4055 13.0053 43.9035 13.4224 44.1519 12.4466ZM42.5105 33.364C42.6539 32.7976 42.7973 32.2285 42.9407 31.6595C43.1891 30.6863 41.6885 30.2691 41.4427 31.245C41.0611 32.7435 40.6821 34.2446 40.3006 35.7457C40.2033 36.1345 40.1393 36.5181 40.2135 36.9224C40.3595 37.7154 40.9715 38.3204 41.7295 38.5419C41.901 38.5934 42.0803 38.632 42.257 38.6758C45.253 39.4431 48.2516 40.2078 51.2477 40.9725C54.9965 41.9303 58.7454 42.8855 62.4943 43.8433C63.4341 44.0828 64.3765 44.3248 65.3162 44.5643C66.0819 44.7599 66.8834 44.6621 67.4724 44.0802C67.836 43.7223 67.9896 43.2769 68.11 42.8031C68.8295 39.9683 69.5465 37.1309 70.2661 34.2961C71.2366 30.4674 72.2071 26.6387 73.1776 22.81C73.4465 21.7467 73.7154 20.6833 73.9868 19.6173C74.0944 19.1899 74.184 18.7831 74.0995 18.3299C73.9407 17.4622 73.2545 16.8855 72.4376 16.6744C69.8154 15.9921 67.1881 15.3329 64.5634 14.6635C60.6941 13.6748 56.8275 12.6886 52.9582 11.6999C51.7752 11.3987 50.5895 11.0948 49.4065 10.7936C49.2144 10.7447 49.0249 10.688 48.8303 10.6468C48.1159 10.4898 47.3784 10.6546 46.8432 11.1721C46.4822 11.5223 46.326 11.9703 46.2056 12.4415C46.0187 13.1856 45.8292 13.9297 45.6422 14.6738C45.3938 15.647 46.8944 16.0616 47.1403 15.0883C47.3298 14.3442 47.5167 13.6001 47.7062 12.856C47.8163 12.4209 47.9725 12.0578 48.4795 12.1685C49.2708 12.3385 50.0518 12.5676 50.8328 12.7684C54.3769 13.6722 57.9183 14.5785 61.4598 15.4823C64.6479 16.2959 67.836 17.1095 71.0215 17.9231C71.3493 18.0055 71.6771 18.0905 72.0048 18.1729C72.3582 18.263 72.6399 18.4432 72.5759 18.8526C72.4734 19.4757 72.2583 20.0988 72.1047 20.709C71.2341 24.1412 70.366 27.5708 69.4953 31.003C68.6452 34.3656 67.7924 37.7283 66.9397 41.0909C66.8373 41.4977 66.7349 41.902 66.6324 42.3062C66.5864 42.489 66.5556 42.7491 66.443 42.9035C66.2279 43.1971 65.9385 43.1121 65.644 43.0374C65.2727 42.9422 64.9014 42.8469 64.5301 42.7542C61.2652 41.92 58.0003 41.0858 54.7353 40.2515C51.2579 39.3632 47.7804 38.4775 44.303 37.5892C43.5937 37.4064 42.8613 37.2622 42.1648 37.0434C41.6142 36.8709 41.732 36.4383 41.8421 36.0006C42.0649 35.1226 42.2877 34.2446 42.5105 33.364ZM51.7777 72.8944C50.8968 73.2369 50.0134 73.5819 49.1325 73.9244C48.3489 74.2308 47.5397 74.5063 46.8279 74.9646C46.6665 75.0676 46.5206 75.1783 46.3797 75.3096C46.3567 75.3302 46.3362 75.3508 46.3208 75.3688C46.2414 75.4847 46.1723 75.6083 46.1109 75.737C46.1032 75.7499 46.0955 75.7653 46.0904 75.7782C46.0724 75.822 46.0571 75.8657 46.0417 75.9095C46.0084 76.0022 45.9777 76.0949 45.947 76.1876C45.8829 76.391 45.8292 76.5995 45.778 76.8055C45.2248 79.0456 44.9457 81.4221 43.6295 83.3815C42.8178 84.5865 41.6706 85.4387 40.4056 86.1236C40.3031 86.1777 40.1982 86.2266 40.0957 86.2807C41.2045 88.4589 41.0381 91.0131 40.2903 93.3149C39.4376 95.9386 37.8986 98.5005 35.7912 100.295C35.4685 100.571 35.0076 100.614 34.69 100.295C34.4109 100.014 34.37 99.4661 34.69 99.1931C35.1202 98.8275 35.5223 98.4284 35.8961 98.0036C37.4915 96.191 38.6668 93.8943 39.1585 91.5229C39.3787 90.4595 39.4376 89.3086 39.202 88.2787C39.0894 87.7869 38.9024 87.3286 38.6668 86.8909C37.7194 87.2205 36.7233 87.4136 35.7195 87.3878C33.0153 87.3209 30.091 85.4284 29.1128 82.8434C28.7825 81.9731 28.7953 80.8968 29.5891 80.2866C30.5391 79.5554 32.0167 79.8927 33.0512 80.2428C35.4916 81.0693 37.7245 82.8691 39.266 84.9701C40.1521 84.5556 41.0073 84.0097 41.6629 83.348C42.3594 82.6451 42.8511 81.713 43.1788 80.7938C43.5296 79.8129 43.7575 78.7932 43.9726 77.7762C44.1468 76.9523 44.2953 76.1078 44.6077 75.3225C45.0277 74.2668 45.8292 73.6514 46.8535 73.1802C48.3873 72.4696 50.0057 71.9186 51.578 71.3032C52.2489 71.0432 53.0402 70.8449 53.6394 70.433C54.0516 70.1472 54.0644 69.7764 53.8519 69.3644C53.2527 68.1929 51.7111 67.9586 50.5332 68.0101C49.0224 68.0745 47.5474 68.6126 46.1467 69.1482C44.6897 69.7069 43.2787 70.3686 41.9062 71.1076C41.6834 71.3882 41.33 71.4938 40.9894 71.3573C40.6642 71.226 40.403 70.7934 40.5413 70.4355C41.2506 68.5946 42.3031 66.9081 43.8036 65.6104C44.1212 65.3349 44.5872 65.2937 44.9022 65.6104C45.1839 65.8937 45.2223 66.4395 44.9022 66.715C44.2108 67.3123 43.6167 68.0024 43.1199 68.7568C44.5821 68.0693 46.0904 67.4462 47.637 66.9828C49.2426 66.4987 51.0197 66.2052 52.6637 66.6841C54.0798 67.0961 55.6239 68.2959 55.542 69.9412C55.4498 71.8542 53.2194 72.3306 51.7777 72.8944ZM30.5238 81.5276C30.5724 81.4942 30.5289 81.5148 30.534 81.5173C30.5314 81.5173 30.5289 81.5225 30.5238 81.5276ZM37.745 85.5494C36.2162 83.6853 34.0345 81.8752 31.5941 81.4813C31.3483 81.4401 31.0974 81.4272 30.849 81.4324C30.8208 81.4324 30.7926 81.4375 30.7645 81.4401C30.7491 81.4427 30.7312 81.4453 30.7209 81.4478C30.6672 81.4659 30.5519 81.5148 30.575 81.4967C30.557 81.5096 30.5391 81.5199 30.5186 81.5302C30.5135 81.5354 30.5084 81.5431 30.5007 81.5482C30.5007 81.5508 30.5007 81.5508 30.5007 81.5508C30.5033 81.556 30.493 81.574 30.4802 81.5946C30.4725 81.6512 30.4649 81.7233 30.4623 81.7208C30.4597 81.7722 30.4597 81.8237 30.4623 81.8727C30.4674 81.9061 30.4777 81.9911 30.4879 82.0323C30.5084 82.1198 30.5366 82.2048 30.5622 82.2924C30.575 82.3335 30.5903 82.3747 30.6057 82.4134C30.6134 82.4262 30.6185 82.4417 30.6211 82.4468C30.8157 82.8691 31.0743 83.2579 31.3509 83.5746C32.1088 84.45 33.1229 85.1993 34.2266 85.5649C35.384 85.9485 36.5927 85.8764 37.745 85.5494ZM46.0878 75.7833C46.0622 75.8529 46.0673 75.8297 46.0878 75.7833V75.7833ZM52.0184 57.2502C51.0172 57.2012 51.0197 58.7641 52.0184 58.8105C53.7546 58.8929 55.5317 59.2404 57.0426 60.1468C58.223 60.8523 59.1039 61.8822 59.465 63.1592C59.7364 64.1248 61.237 63.7154 60.9656 62.7447C59.8696 58.8594 55.6444 57.4201 52.0184 57.2502ZM31.3278 66.9493C32.4161 64.4647 33.8168 62.2452 35.722 60.3347C36.4313 59.6241 35.3302 58.5221 34.6209 59.2327C31.0666 62.7962 29.1871 67.4823 27.8606 72.2688C27.4791 73.6411 27.1436 75.0264 26.8363 76.4193C26.6776 77.148 26.5239 77.8766 26.378 78.6079C26.3037 78.9838 26.2294 79.3597 26.1577 79.7356C26.1219 79.9236 26.0963 80.1218 26.0476 80.3072C26.0476 80.3098 26.1091 80.2351 26.0912 80.2789C25.9682 80.5673 25.6917 80.8505 25.5073 81.0977C25.4612 81.1595 25.4177 81.2187 25.3716 81.2779C25.3562 81.2985 25.305 81.3654 25.282 81.3963C25.177 81.5328 25.0694 81.6667 24.9619 81.8031C24.6751 82.161 24.3806 82.5164 24.0835 82.8665C22.1067 85.1735 19.8865 87.29 17.482 89.1438C17.1491 89.3987 16.9724 89.8133 17.2029 90.2098C17.3924 90.5393 17.9301 90.7479 18.2656 90.4904C21.6739 87.8642 24.8748 84.7796 27.3305 81.2187C27.392 81.1311 27.4407 81.0565 27.4816 80.9612C27.6301 80.611 27.6532 80.1682 27.7249 79.7948C27.8017 79.3983 27.8811 79.0018 27.9605 78.6053C28.255 77.1608 28.5751 75.7241 28.9335 74.2951C29.5609 71.8002 30.2959 69.3078 31.3278 66.9493ZM61.4342 58.4938C60.2127 54.4025 55.3166 53.0275 51.5524 52.9297C49.8162 52.8833 48.08 53.0816 46.3746 53.4034C45.9623 53.4833 45.7267 53.9828 45.8317 54.3638C45.9521 54.799 46.3746 54.9869 46.7894 54.9097C49.2836 54.4359 51.916 54.2686 54.4127 54.8247C56.1207 55.2058 57.7365 55.9087 58.8812 57.1291C58.9529 57.2038 59.022 57.281 59.0886 57.3583C59.1193 57.3943 59.1475 57.4304 59.1756 57.4639C59.1859 57.4742 59.191 57.4819 59.1961 57.487C59.1987 57.4896 59.1987 57.4896 59.1987 57.4922C59.3165 57.6492 59.4266 57.8115 59.5265 57.9814C59.6238 58.1462 59.7083 58.3161 59.7902 58.4886C59.7902 58.4886 59.7902 58.4886 59.7902 58.4912C59.8056 58.5324 59.8235 58.5762 59.8389 58.6174C59.8747 58.7152 59.9054 58.8105 59.9336 58.9083C60.2204 59.8687 61.7235 59.4593 61.4342 58.4938ZM29.0565 51.3411C29.0565 51.3411 29.059 51.3411 29.059 51.3436H29.0616C29.0718 51.3462 29.0795 51.3488 29.0872 51.3514C29.0898 51.3514 29.0898 51.3514 29.0898 51.3488C29.0846 51.3488 29.0821 51.3488 29.077 51.3462C29.0872 51.3462 29.0974 51.3462 29.1102 51.3436C29.1128 51.3436 29.1128 51.3436 29.1154 51.3436C29.1179 51.3411 29.1205 51.3411 29.1256 51.3411C29.0974 51.3411 29.077 51.3411 29.0667 51.3436C29.0641 51.3436 29.059 51.3411 29.0565 51.3411ZM57.5803 70.8449C59.1219 71.038 60.6634 71.2286 62.205 71.4191C61.301 69.9103 60.3971 68.3989 59.4932 66.8875C59.4676 66.8695 59.4394 66.8515 59.4138 66.836C57.611 65.6593 55.8109 64.4827 54.0081 63.3086C51.0607 61.3852 48.1133 59.4619 45.1659 57.5385C42.5975 55.8624 40.0317 54.1888 37.4633 52.5126C36.4646 51.8586 35.4634 51.2072 34.4621 50.5532C33.6914 50.0511 32.8386 49.325 31.945 49.0778C31.927 49.5027 31.8502 49.9249 31.7247 50.3189C31.4021 51.3359 30.7414 52.4302 29.6838 52.801C29.6301 52.819 29.5763 52.8344 29.5225 52.8473C30.9642 53.7897 32.4084 54.7295 33.8527 55.6718C36.7693 57.5771 39.6886 59.4799 42.6078 61.3852C44.0136 62.3044 45.4195 63.221 46.8279 64.1402C47.6652 64.6861 46.8842 66.0353 46.0417 65.4868C45.9188 65.407 45.7933 65.3246 45.6678 65.2422C43.23 63.651 40.7922 62.0624 38.3544 60.4712C35.0127 58.2904 31.671 56.1095 28.3267 53.9287C27.2332 53.2129 26.1398 52.4997 25.0438 51.7839C24.8031 51.6269 24.5598 51.4724 24.3217 51.3127C23.4382 50.7257 23.026 49.6726 23.4997 48.671C23.8121 48.0145 24.2986 47.4068 24.693 46.7966C25.1232 46.1349 25.5713 45.1513 26.2602 44.7239C26.9183 44.3171 27.7377 44.3377 28.3907 44.7316C28.6903 44.9119 28.9796 45.1153 29.2716 45.3058C30.0193 45.795 30.9207 46.243 31.4277 47.0077C31.5224 47.1493 31.5993 47.2987 31.6658 47.4532C31.863 47.4712 32.0602 47.4969 32.2574 47.5433C33.0486 47.7287 33.7042 48.1973 34.3725 48.635C34.813 48.9234 35.256 49.2117 35.6964 49.5001C36.0139 49.7061 36.3289 49.9121 36.6464 50.118C39.097 51.7195 41.5502 53.3185 44.0008 54.92C47.4091 57.142 50.8175 59.3666 54.2258 61.5886C56.2615 62.9172 58.3076 64.2278 60.3331 65.5744C60.5482 65.7186 60.7121 65.8937 60.8478 66.1177C61.2447 66.7819 61.6416 67.4437 62.0385 68.108C62.8119 69.4031 63.5878 70.6956 64.3611 71.9907C64.6376 72.4516 64.292 73.2395 63.6902 73.1648C63.4008 73.1288 63.1115 73.0927 62.8221 73.0567C60.7838 72.8043 58.748 72.552 56.7097 72.2997C56.2923 72.2482 55.9338 71.983 55.9338 71.5195C55.9338 71.1333 56.2923 70.6853 56.7097 70.7394C56.999 70.7754 57.2909 70.8089 57.5803 70.8449ZM28.4957 48.4856C28.9412 48.1226 29.4431 47.8471 29.9732 47.6694C29.9578 47.6514 29.9374 47.6308 29.9143 47.6102C29.7965 47.4918 29.8349 47.533 29.7043 47.448C29.584 47.3733 29.4662 47.2935 29.3484 47.2163C28.7697 46.8378 28.2012 46.4181 27.5994 46.0757C27.0489 45.7615 26.8005 46.4052 26.529 46.8249C26.0758 47.5252 25.6225 48.223 25.1693 48.9234C24.9516 49.2606 24.6623 49.6057 25.0361 49.9198C25.4535 50.27 25.9836 50.5377 26.4394 50.8364C26.698 51.0038 26.9541 51.1711 27.2127 51.3411C26.9951 50.2468 27.6814 49.1525 28.4957 48.4856ZM30.3829 49.1602C29.8887 49.343 29.4457 49.6623 29.0872 50.0871C29.0744 50.1 29.0718 50.1052 29.0718 50.1052C29.0667 50.1129 29.059 50.1232 29.0488 50.1386C29.0129 50.1901 28.9796 50.2391 28.9489 50.2906C28.8977 50.3729 28.8542 50.4553 28.8132 50.5403C28.8106 50.5455 28.8081 50.548 28.8055 50.5506C28.8055 50.5583 28.803 50.5609 28.8004 50.5712C28.7876 50.6124 28.7722 50.6536 28.762 50.6974C28.7492 50.7386 28.7364 50.8235 28.7313 50.8544C28.7338 50.9214 28.7389 51.0063 28.7338 51.0141C28.7415 51.0475 28.7517 51.081 28.762 51.1145C28.7671 51.1016 28.8183 51.1866 28.7927 51.1685C28.8439 51.2149 28.9438 51.2947 28.9182 51.2818C28.9412 51.2973 28.9668 51.3153 28.9924 51.3282C28.9976 51.3282 29.0001 51.3282 29.0053 51.3308C29.0232 51.3359 29.0411 51.3385 29.059 51.3436H29.0616C29.0385 51.3488 29.0616 51.3539 29.0872 51.3514C29.0949 51.3514 29.1026 51.3539 29.1102 51.3565C29.1 51.3539 29.0974 51.3514 29.0898 51.3514C29.0974 51.3488 29.1051 51.3462 29.1102 51.3436C29.1333 51.3436 29.1563 51.3411 29.164 51.3411C29.1487 51.3411 29.1384 51.3411 29.1256 51.3411C29.1512 51.3308 29.1896 51.3205 29.2178 51.3153C29.4611 51.1737 29.6634 50.9857 29.8272 50.736C30.1064 50.3086 30.1934 50.0871 30.3112 49.6031C30.3368 49.4872 30.3599 49.3714 30.3778 49.2529C30.3778 49.24 30.3804 49.2014 30.3829 49.1602ZM29.0565 51.3411C29.0232 51.3282 29.0437 51.3282 29.0565 51.3411V51.3411ZM91.8555 16.6332C94.5699 15.7346 97.5941 16.144 100.014 17.6631C102.401 19.1616 103.95 21.7776 104.237 24.5815C104.403 26.183 104.214 27.8437 103.571 29.3319C103.404 29.7181 103.458 30.1687 103.85 30.3979C104.224 30.6167 104.69 30.4777 104.915 30.1198C106.861 26.9992 109.96 24.1824 113.873 24.4733C115.555 24.5969 117.373 25.4827 118.07 27.1073C118.735 28.6625 118.333 30.5344 117.506 31.9427C116.492 33.6704 114.882 34.9424 113.296 36.1293C113.107 36.2529 112.923 36.3868 112.751 36.5413C112.103 37.1206 112.979 38.2999 113.693 37.7669C113.862 37.6407 114.031 37.512 114.203 37.3858C115.527 36.549 117.573 36.8451 118.479 38.1814C119.468 39.6362 118.925 41.8608 117.378 42.7259C116.505 43.2151 117.289 44.5643 118.164 44.0751C119.975 43.0606 120.83 40.8334 120.415 38.8303C120.029 36.9558 118.415 35.6968 116.6 35.4213C117.319 34.757 117.983 34.036 118.541 33.2147C119.708 31.4973 120.297 29.2367 119.737 27.1949C119.143 25.0321 117.214 23.5567 115.086 23.0855C112.91 22.6041 110.6 23.0598 108.669 24.1463C107.599 24.7463 106.651 25.5238 105.806 26.407C105.947 24.3498 105.53 22.2616 104.567 20.3949C103.061 17.4725 100.183 15.4256 96.977 14.8128C95.1384 14.4601 93.2255 14.5373 91.4407 15.1269C90.4958 15.4411 90.9004 16.9473 91.8555 16.6332ZM8.67314 69.936C8.19941 67.9251 8.39403 65.8061 9.24162 63.9214C9.54891 63.2416 9.95606 62.6057 10.4375 62.0315C10.376 61.9903 10.312 61.9517 10.2505 61.9105C8.71412 60.8574 7.61557 59.1529 7.31852 57.3068C6.99843 55.3217 7.55411 53.4472 8.84727 51.923C10.1328 50.4013 11.9509 49.4203 13.6947 48.5294C14.5858 48.0737 15.372 49.4203 14.4809 49.876C12.8471 50.7128 11.1519 51.6011 9.94582 53.025C8.878 54.2892 8.52462 55.9319 8.95482 57.5282C9.34149 58.9598 10.2787 60.1905 11.5821 60.8935C12.0968 60.466 12.6525 60.0901 13.2389 59.7889C14.0839 59.3512 14.993 59.0293 15.9328 58.8748C16.8649 58.7229 18.0863 58.5607 18.9647 58.9984C19.528 59.2791 19.8532 59.879 19.7431 60.5047C19.6586 60.9836 19.3565 61.3827 18.9877 61.6839C18.1888 62.3353 17.1158 62.7396 16.1172 62.9481C14.7344 63.2365 13.2543 63.1824 11.9099 62.7318C9.88949 64.9384 9.37222 68.2959 10.6936 71.0303C12.0738 73.8806 15.3592 75.6263 18.4935 75.1319C18.9083 75.0676 19.3283 75.2349 19.4486 75.6778C19.5511 76.0511 19.3206 76.5738 18.9058 76.6382C14.3631 77.354 9.74865 74.4985 8.67314 69.936ZM18.2605 60.3656C18.2656 60.3759 18.2656 60.3811 18.263 60.3836C18.2451 60.4068 18.642 60.3965 18.2605 60.3656ZM18.2016 60.2549C18.2246 60.2292 18.2374 60.2086 18.2323 60.2086C18.1913 60.2008 18.1888 60.224 18.2016 60.2549ZM13.39 61.4934C14.3528 61.6453 15.3566 61.5706 16.2887 61.2951C16.6856 61.1767 17.0697 61.0273 17.4359 60.8317C17.6101 60.739 17.7944 60.6488 17.9506 60.5278C17.9506 60.5278 18.0377 60.4377 18.1171 60.3527C17.9967 60.3399 17.8738 60.3167 17.7458 60.3116C17.3617 60.2935 16.9776 60.3064 16.596 60.3476C15.4693 60.4686 14.3579 60.878 13.39 61.4934ZM28.278 6.42679C30.1294 7.36916 31.8963 8.47116 33.5582 9.71992C33.8937 9.97225 34.4263 9.77399 34.6209 9.43927C34.8539 9.04018 34.6798 8.62307 34.3443 8.37074C32.6799 7.12198 30.913 6.02255 29.0616 5.08019C28.6877 4.88708 28.2191 4.97977 27.9989 5.35826C27.7966 5.70586 27.9016 6.23626 28.278 6.42679ZM37.9498 10.4949C38.1291 10.876 38.6745 10.9738 39.0125 10.7756C39.4018 10.5464 39.4735 10.0907 39.2917 9.70705C37.7757 6.47571 35.9448 3.39886 33.8271 0.525421C33.5787 0.188126 33.1536 0.0156162 32.7644 0.24477C32.4315 0.440454 32.2343 0.97343 32.4853 1.3133C34.603 4.18674 36.4339 7.26359 37.9498 10.4949ZM108.59 82.1507C106.434 81.6255 104.418 80.732 102.49 79.6429C101.617 79.1486 100.833 80.4977 101.707 80.9895C103.742 82.143 105.899 83.1008 108.175 83.6544C109.148 83.8913 109.563 82.385 108.59 82.1507ZM100.511 83.7626C99.8168 83.0339 98.7182 84.1385 99.4096 84.8671C101.975 87.5603 104.759 90.0115 107.568 92.4447C107.886 92.7202 108.354 92.7588 108.667 92.4447C108.948 92.164 108.987 91.6182 108.667 91.3401C105.858 88.9095 103.074 86.4583 100.511 83.7626ZM90.7006 62.5645C87.9427 62.5645 85.1874 62.5645 82.4321 62.5645C78.0737 62.5645 73.7154 62.5645 69.357 62.5645C68.3584 62.5645 67.3623 62.5645 66.3636 62.5645C65.3623 62.5645 65.3598 64.1248 66.3636 64.1248C69.1189 64.1248 71.8768 64.1248 74.6321 64.1248C78.9905 64.1248 83.3488 64.1248 87.7072 64.1248C88.7033 64.1248 89.702 64.1248 90.7006 64.1248C91.7019 64.1248 91.7019 62.5645 90.7006 62.5645ZM66.3636 57.9222C65.3623 57.9222 65.3598 59.4825 66.3636 59.4825C69.6234 59.4825 72.8857 59.4825 76.1481 59.4825C76.609 59.4825 77.0699 59.4825 77.5309 59.4825C78.5295 59.4825 78.5321 57.9222 77.5309 57.9222C74.2685 57.9222 71.0062 57.9222 67.7464 57.9222C67.2854 57.9222 66.8245 57.9222 66.3636 57.9222ZM77.1442 51.6552C77.2722 51.6552 77.4028 51.6552 77.5309 51.6552C77.938 51.6552 78.3272 51.2973 78.3068 50.875C78.2888 50.4528 77.9662 50.0949 77.5309 50.0949C76.6218 50.0949 75.7128 50.0949 74.8063 50.0949C74.6782 50.0949 74.5476 50.0949 74.4196 50.0949C74.0124 50.0949 73.6232 50.4528 73.6437 50.875C73.6616 51.2973 73.9843 51.6552 74.4196 51.6552C75.3286 51.6552 76.2377 51.6552 77.1442 51.6552ZM80.13 44.8758C78.7651 44.8758 77.4028 44.8758 76.038 44.8758C75.8459 44.8758 75.6539 44.8758 75.4592 44.8758C75.0521 44.8758 74.6629 45.2363 74.6833 45.6585C74.7013 46.0808 75.0239 46.4387 75.4592 46.4387C76.8241 46.4387 78.1864 46.4387 79.5513 46.4387C79.7433 46.4387 79.9354 46.4387 80.13 46.4387C80.5371 46.4387 80.9264 46.0782 80.9059 45.6585C80.888 45.2337 80.5653 44.8758 80.13 44.8758ZM85.3283 41.2196C86.3269 41.2196 86.3295 39.6593 85.3283 39.6593C82.7573 39.6593 80.1838 39.6593 77.6128 39.6593C77.2415 39.6593 76.8702 39.6593 76.4989 39.6593C75.4977 39.6593 75.4977 41.2196 76.4989 41.2196C79.0699 41.2196 81.6434 41.2196 84.2143 41.2196C84.5856 41.2196 84.9569 41.2196 85.3283 41.2196ZM90.5265 36.0032C91.5252 36.0032 91.5278 34.4403 90.5265 34.4403C86.8058 34.4403 83.0876 34.4403 79.3695 34.4403C78.8471 34.4403 78.3221 34.4403 77.7997 34.4403C76.7985 34.4403 76.7959 36.0032 77.7997 36.0032C81.5179 36.0032 85.2361 36.0032 88.9542 36.0032C89.4792 36.0032 90.0016 36.0032 90.5265 36.0032ZM79.3592 30.7841C82.619 30.7841 85.8814 30.7841 89.1437 30.7841C89.6047 30.7841 90.0656 30.7841 90.5265 30.7841C91.5252 30.7841 91.5278 29.2238 90.5265 29.2238C87.2642 29.2238 84.0018 29.2238 80.742 29.2238C80.2811 29.2238 79.8201 29.2238 79.3592 29.2238C78.358 29.2238 78.3554 30.7841 79.3592 30.7841ZM90.7006 67.2068C87.9427 67.2068 85.1874 67.2068 82.4321 67.2068C78.0737 67.2068 73.7154 67.2068 69.357 67.2068C68.3584 67.2068 67.3623 67.2068 66.3636 67.2068C65.3623 67.2068 65.3598 68.7697 66.3636 68.7697C69.1189 68.7697 71.8768 68.7697 74.6321 68.7697C78.9905 68.7697 83.3488 68.7697 87.7072 68.7697C88.7033 68.7697 89.702 68.7697 90.7006 68.7697C91.7019 68.7697 91.7019 67.2068 90.7006 67.2068ZM82.4321 71.8517C78.0737 71.8517 73.7154 71.8517 69.357 71.8517C68.3584 71.8517 67.3623 71.8517 66.3636 71.8517C65.3623 71.8517 65.3598 73.412 66.3636 73.412C69.1189 73.412 71.8768 73.412 74.6321 73.412C78.9905 73.412 83.3488 73.412 87.7072 73.412C88.7033 73.412 89.702 73.412 90.7006 73.412C91.7019 73.412 91.7019 71.8517 90.7006 71.8517C87.9427 71.8517 85.1874 71.8517 82.4321 71.8517Z" fill="white"/>
</g>
<mask id="mask1_34_1691" style="mask-type:luminance" maskUnits="userSpaceOnUse" x="34" y="5" width="96" height="70">
<path d="M34.5185 5.49194H130V74.7017H34.5185V5.49194Z" fill="white"/>
</mask>
<g mask="url(#mask1_34_1691)">
<path d="M97.7657 57.86C95.7248 57.7725 93.8171 56.6524 92.7723 54.8862C92.6391 54.657 92.5188 54.4227 92.4138 54.1781C93.077 53.6168 93.7121 53.0272 94.2473 52.3552C94.6954 51.7939 95.0641 51.1836 95.1384 50.4524C95.2126 49.7212 94.8849 48.9436 94.342 48.4544C93.2358 47.4554 91.7915 48.1789 91.0566 49.2474C90.3985 50.2001 90.2679 51.4746 90.4062 52.5972C90.4497 52.9499 90.5163 53.2975 90.6059 53.6374C90.4062 53.8047 90.2064 53.9695 90.0067 54.1369C88.5753 55.3367 87.1592 56.5752 86.0069 58.0583C85.7764 58.3569 85.5408 58.6865 85.2873 58.8899C85.0645 59.0702 84.8878 59.1474 84.6318 59.2169C84.6036 59.2246 84.5498 59.2324 84.5242 59.2375C84.473 59.2401 84.4218 59.2452 84.3706 59.2452C84.3219 59.2452 84.2758 59.2401 84.2297 59.2375C84.2092 59.2324 84.1222 59.2169 84.0863 59.2066C84.0684 59.2015 83.9967 59.1783 83.9608 59.168C83.9276 59.1525 83.8584 59.1191 83.8405 59.1088C83.779 59.0753 83.7227 59.0393 83.6664 59.0006C83.6638 58.9981 83.6664 59.0006 83.6638 58.9981C83.6356 58.9749 83.6049 58.9491 83.5767 58.9208C83.3872 58.7354 83.2234 58.5011 83.1312 58.2823C82.9852 57.9398 82.911 57.5665 82.8879 57.206C82.8316 56.3023 82.9724 55.3676 83.144 54.4819C83.482 52.7439 84.0889 51.0729 85.0056 49.5564C86.7239 46.7113 89.4792 44.6437 92.7313 43.9382C95.4892 43.3435 98.2369 43.9666 100.644 45.393C102.18 46.3045 103.525 47.5481 104.564 49.0054C104.641 49.1109 104.715 49.2165 104.79 49.3247C103.684 50.3674 102.862 51.7243 102.401 53.1636C101.993 54.433 101.858 55.8079 101.952 57.1365C102.001 57.8162 102.101 58.4986 102.255 59.1628C102.378 59.701 102.539 60.2623 102.859 60.718C103.645 61.8355 105.053 61.8535 105.975 60.8879C106.777 60.0511 107.204 58.8075 107.512 57.7132C108.155 55.4372 108.172 52.8856 107.286 50.6713C107.156 50.3443 107.002 50.025 106.838 49.7083C107.914 49.0543 109.115 48.7994 110.364 48.6913C112.044 48.5445 113.734 48.5599 115.417 48.4853C117.552 48.3874 119.688 48.1686 121.78 47.7257C122.955 47.476 124.11 47.1567 125.247 46.7705C126.192 46.4538 125.788 44.945 124.835 45.2668C122.425 46.0804 119.934 46.5825 117.401 46.7988C115.389 46.9687 113.371 46.961 111.355 47.064C109.75 47.1438 108.108 47.306 106.646 48.0244C106.436 48.1274 106.234 48.2407 106.037 48.3643C105.248 47.2133 104.278 46.1757 103.23 45.3157C100.652 43.207 97.1972 41.8604 93.8324 42.1951C89.9196 42.5839 86.4473 44.7467 84.1939 47.9549C83.0467 49.5873 82.24 51.4772 81.7842 53.4185C81.5333 54.4845 81.354 55.5994 81.3259 56.6962C81.2977 57.6412 81.477 58.6736 82.0173 59.4667C82.9724 60.8699 84.7854 61.2201 86.1503 60.1799C86.9364 59.58 87.4639 58.6762 88.1399 57.9579C88.8518 57.2009 89.6252 56.5031 90.4139 55.8259C90.6648 55.6122 90.9234 55.4011 91.1821 55.1874C91.8607 56.5495 92.9234 57.7055 94.2857 58.4574C95.3586 59.047 96.5442 59.3688 97.7657 59.4203C98.7644 59.4641 98.7644 57.9038 97.7657 57.86ZM105.996 51.6677C106.306 52.6332 106.436 53.6348 106.416 54.6493C106.393 55.6946 106.206 56.7245 105.886 57.721C105.732 58.1922 105.553 58.6556 105.33 59.0985C105.164 59.428 104.928 59.8761 104.567 60.028C103.968 60.2777 103.737 58.6968 103.666 58.3338C103.448 57.2086 103.399 56.0113 103.586 54.8784C103.845 53.3387 104.521 51.8376 105.607 50.7073C105.758 51.0188 105.891 51.3355 105.996 51.6677ZM91.917 52.108C91.8786 51.2738 92.0092 50.2516 92.7185 49.7057C93.0207 49.474 93.223 49.4637 93.4329 49.7701C93.4662 49.8216 93.4893 49.8757 93.5226 49.9271C93.5277 49.9374 93.5303 49.9426 93.5354 49.9477C93.5354 49.9477 93.5328 49.9477 93.5354 49.9503C93.5507 50.0018 93.5635 50.0585 93.5815 50.1074C93.5866 50.1203 93.5891 50.1254 93.5917 50.1331C93.5917 50.1357 93.5917 50.1357 93.5917 50.1357C93.5917 50.1975 93.5789 50.3597 93.584 50.37C93.5635 50.4627 93.5405 50.5528 93.5123 50.6429C93.5072 50.6532 93.5072 50.6584 93.5046 50.6661C93.5046 50.6661 93.5021 50.6661 93.4995 50.6713C93.4714 50.7253 93.4458 50.7794 93.4176 50.8335C93.3484 50.9571 93.2716 51.0729 93.1922 51.1888C93.1769 51.2094 93.1385 51.2583 93.1231 51.2789C93.0872 51.3252 93.0488 51.3742 93.0104 51.4179C92.9003 51.5441 92.7902 51.6677 92.675 51.7861C92.4419 52.0282 92.1987 52.2573 91.9503 52.4813C91.9349 52.3577 91.9247 52.2316 91.917 52.108ZM129.531 69.9923C126.871 71.1304 124.11 71.9749 121.24 72.3611C117.806 72.822 114.246 72.616 110.946 71.5166C109.865 71.1561 108.728 70.7184 107.732 70.1108C105.865 72.4873 102.949 74.1583 99.9372 74.4261C99.5147 74.4647 99.1587 74.0399 99.1587 73.6459C99.1587 73.1979 99.5172 72.9018 99.9372 72.8658C99.9525 72.8632 99.9679 72.8606 99.9833 72.8606C100.168 72.8271 100.349 72.7988 100.534 72.7628C101.179 72.6263 101.814 72.4332 102.429 72.1912C104.111 71.5269 105.801 70.2678 106.874 68.6586C107.089 68.3393 107.586 68.1205 107.939 68.3779C108.288 68.6354 108.677 68.8465 109.061 69.0474C109.245 69.1427 109.432 69.2353 109.619 69.3229C109.724 69.3718 109.832 69.4207 109.939 69.4696C109.988 69.4902 110.037 69.5108 110.085 69.534C110.096 69.5366 110.098 69.5392 110.106 69.5417C110.113 69.5443 110.116 69.5469 110.126 69.5495C110.646 69.7632 111.176 69.9589 111.714 70.1262C113.135 70.5691 114.582 70.842 115.99 70.9579C120.359 71.3183 124.735 70.3605 128.745 68.6431C129.134 68.4784 129.575 68.5221 129.811 68.9238C130.003 69.2559 129.918 69.8275 129.531 69.9923ZM78.527 15.6853C78.5603 16.1101 78.4271 16.5221 78.3247 16.9315C78.1736 17.5237 78.0251 18.1185 77.874 18.7132C77.344 20.8039 76.8139 22.8946 76.2838 24.9879C75.5796 27.7687 74.8754 30.5469 74.1687 33.3276C73.4542 36.1521 72.7398 38.9741 72.0253 41.796C71.462 44.0103 70.9012 46.2272 70.3404 48.4415C70.0894 49.4302 69.8667 50.4292 69.5875 51.4102C69.247 52.6101 68.0921 53.1842 66.9218 52.8933C66.4788 52.7826 66.0384 52.6667 65.5954 52.5534C63.6134 52.0462 61.6314 51.5415 59.6494 51.0343C56.8685 50.3262 54.0875 49.6156 51.3091 48.905C48.5794 48.2098 45.8497 47.512 43.1174 46.8143C41.243 46.3353 39.3685 45.8564 37.4941 45.3775C37.1432 45.29 36.7873 45.2076 36.439 45.1098C35.7169 44.9063 35.128 44.3682 34.9257 43.6318C34.8027 43.1813 34.8693 42.7461 34.9794 42.3084C35.5582 40.0297 36.1343 37.7511 36.713 35.4724C37.1817 33.616 37.6528 31.7596 38.124 29.9032C38.3698 28.9299 39.8704 29.3444 39.622 30.3177C39.4914 30.8378 39.3608 31.3553 39.2277 31.8729C38.567 34.4811 37.9063 37.0868 37.2457 39.695C37.005 40.6477 36.7643 41.6003 36.5236 42.5556C36.4083 43.0036 36.2982 43.4542 36.8795 43.6112C38.0241 43.9176 39.1765 44.1983 40.3262 44.4918C42.6923 45.0943 45.0559 45.6994 47.422 46.3019C50.226 47.0177 53.0274 47.7334 55.8314 48.4492C58.2948 49.0775 60.7556 49.7083 63.219 50.3365C64.5609 50.679 65.9027 51.0214 67.2445 51.3639C67.626 51.4617 67.9564 51.4282 68.0921 50.9777C68.1868 50.6687 68.2534 50.3468 68.3328 50.0353C68.7527 48.372 69.1753 46.7087 69.5952 45.0454C70.2405 42.5041 70.8858 39.9602 71.5286 37.4189C72.243 34.597 72.9574 31.775 73.6744 28.9531C74.3044 26.4633 74.9369 23.9735 75.5668 21.4837C75.9688 19.9002 76.3683 18.3167 76.7704 16.7332C76.8344 16.4757 76.924 16.2157 76.9675 15.9531C77.0546 15.4458 76.6372 15.33 76.2428 15.2296C74.8037 14.8614 73.362 14.4932 71.9229 14.1276C69.4134 13.4864 66.9039 12.8453 64.397 12.2042C61.5981 11.491 58.7992 10.7752 56.0004 10.062C53.6932 9.47238 51.3834 8.88276 49.0736 8.29313C48.0442 8.03051 46.9994 7.68034 45.9521 7.49753C45.6192 7.43831 45.3811 7.61339 45.2914 7.95069C45.166 8.4193 45.0533 8.89305 44.9329 9.36166C44.6718 10.3916 44.4131 11.4189 44.1519 12.4462C43.9035 13.4221 42.4055 13.005 42.6513 12.0317C42.91 11.0147 43.1661 9.99763 43.4247 8.98317C43.545 8.50426 43.6628 8.02278 43.7883 7.54645C44.0393 6.60409 44.8792 5.87543 45.883 5.92177C46.2696 5.9398 46.6538 6.06596 47.0276 6.16123C48.7279 6.59379 50.4308 7.02892 52.1311 7.46406C54.8071 8.14637 57.4856 8.82869 60.1615 9.51357C62.9706 10.2319 65.7798 10.9477 68.5914 11.6661C70.7271 12.2119 72.8653 12.7578 75.0035 13.3036C75.554 13.4427 76.1071 13.5843 76.6577 13.7259C76.7601 13.7516 76.8651 13.7748 76.965 13.8031C77.8279 14.0503 78.4604 14.779 78.527 15.6853ZM40.2135 36.922C40.1393 36.5178 40.2033 36.1341 40.3006 35.7453C40.6822 34.2442 41.0611 32.7431 41.4427 31.2446C41.6885 30.2688 43.1891 30.6859 42.9407 31.6592C42.7973 32.2282 42.6539 32.7972 42.5105 33.3637C42.2877 34.2442 42.0649 35.1222 41.8422 36.0002C41.7321 36.4379 41.6143 36.8705 42.1648 37.043C42.8639 37.2619 43.5937 37.406 44.303 37.5889C47.7805 38.4772 51.2579 39.3629 54.7354 40.2512C58.0003 41.0854 61.2652 41.9196 64.5301 42.7538C64.9014 42.8465 65.2727 42.9418 65.644 43.0371C65.9385 43.1117 66.2279 43.1967 66.443 42.9032C66.5557 42.7487 66.5864 42.4886 66.6325 42.3058C66.7349 41.9016 66.8373 41.4948 66.9398 41.0905C67.7925 37.7279 68.6452 34.3652 69.4954 31.0026C70.366 27.5704 71.2341 24.1408 72.1047 20.7087C72.2584 20.0985 72.4735 19.4754 72.5759 18.8523C72.6399 18.4429 72.3582 18.2626 72.0049 18.1725C71.6771 18.0901 71.3493 18.0052 71.0215 17.9228C67.836 17.1091 64.6479 16.2955 61.4598 15.4819C57.9183 14.5756 54.3769 13.6718 50.8328 12.7681C50.0518 12.5673 49.2708 12.3381 48.4795 12.1682C47.9725 12.0574 47.8163 12.4205 47.7062 12.8556C47.5167 13.5997 47.3298 14.3438 47.1403 15.0879C46.8945 16.0612 45.3939 15.6467 45.6423 14.6708C45.8292 13.9293 46.0187 13.1852 46.2056 12.4411C46.326 11.9699 46.4822 11.5219 46.8432 11.1717C47.3784 10.6542 48.1159 10.4894 48.8304 10.6465C49.025 10.6877 49.2145 10.7443 49.4065 10.7932C50.5921 11.0945 51.7752 11.3983 52.9582 11.6996C56.8275 12.6883 60.6942 13.6744 64.5634 14.6631C67.1881 15.3326 69.8154 15.9917 72.4376 16.674C73.257 16.8851 73.9408 17.4619 74.0995 18.3296C74.184 18.7827 74.0944 19.1896 73.9869 19.617C73.7154 20.6829 73.4465 21.7463 73.1777 22.8097C72.2072 26.6384 71.2366 30.467 70.2661 34.2957C69.5466 37.1305 68.8296 39.9679 68.11 42.8028C67.9897 43.2765 67.836 43.7194 67.4724 44.0798C66.8834 44.6617 66.0819 44.7596 65.3163 44.5639C64.3765 44.3245 63.4341 44.0824 62.4944 43.843C58.7455 42.8852 54.9966 41.9299 51.2477 40.9721C48.2516 40.2074 45.253 39.4427 42.257 38.6754C42.0803 38.6316 41.9011 38.593 41.7295 38.5415C40.9715 38.3201 40.3595 37.715 40.2135 36.922Z" fill="#F8AC7A"/>
</g>
<mask id="mask2_34_1691" style="mask-type:luminance" maskUnits="userSpaceOnUse" x="16" y="14" width="106" height="87">
<path d="M16.8188 14.0605H121.05V100.624H16.8188V14.0605Z" fill="white"/>
</mask>
<g mask="url(#mask2_34_1691)">
<path d="M60.9656 62.7444C61.237 63.7151 59.7365 64.1245 59.465 63.1589C59.104 61.8818 58.2231 60.8519 57.0426 60.1464C55.5318 59.2401 53.7546 58.8925 52.0185 58.8101C51.0198 58.7638 51.0172 57.2009 52.0185 57.2498C55.6444 57.4198 59.8696 58.8591 60.9656 62.7444ZM120.415 38.8299C120.029 36.9555 118.415 35.6964 116.6 35.4209C117.319 34.7566 117.983 34.0357 118.541 33.2144C119.708 31.497 120.297 29.2363 119.737 27.1946C119.143 25.0317 117.214 23.5564 115.086 23.0852C112.91 22.6037 110.6 23.0595 108.669 24.146C107.599 24.7459 106.651 25.5235 105.806 26.4067C105.947 24.3494 105.53 22.2613 104.567 20.3946C103.061 17.4722 100.183 15.4253 96.977 14.8125C95.1384 14.4597 93.2255 14.537 91.4407 15.1266C90.4958 15.4407 90.9004 16.947 91.8555 16.6328C94.5699 15.7343 97.5941 16.1436 100.014 17.6628C102.401 19.1613 103.95 21.7772 104.237 24.5812C104.403 26.1852 104.214 27.8434 103.571 29.3316C103.404 29.7178 103.458 30.1684 103.85 30.3976C104.224 30.6164 104.69 30.4774 104.915 30.1195C106.861 26.9989 109.96 24.1821 113.873 24.473C115.555 24.5966 117.373 25.4823 118.07 27.107C118.735 28.6622 118.333 30.534 117.506 31.9424C116.492 33.6701 114.882 34.942 113.296 36.129C113.107 36.2526 112.923 36.3865 112.751 36.541C112.103 37.1203 112.979 38.2995 113.693 37.7666C113.862 37.6404 114.031 37.5116 114.203 37.3855C115.527 36.5487 117.573 36.8448 118.479 38.1811C119.468 39.6358 118.925 41.8604 117.378 42.7256C116.505 43.2148 117.289 44.5639 118.164 44.0747C119.975 43.0603 120.83 40.8331 120.415 38.8299ZM31.3279 66.949C32.4162 64.4643 33.8169 62.2449 35.722 60.3344C36.4314 59.6238 35.3303 58.5218 34.6209 59.2324C31.0667 62.7959 29.1871 67.482 27.8606 72.2685C27.4791 73.6408 27.1436 75.026 26.8364 76.419C26.6776 77.1476 26.5239 77.8763 26.378 78.6075C26.3037 78.9835 26.2295 79.3594 26.1578 79.7353C26.1219 79.9232 26.0963 80.1215 26.0477 80.3069C26.0477 80.3095 26.1091 80.2348 26.0912 80.2786C25.9683 80.5669 25.6917 80.8502 25.5073 81.0973C25.4612 81.1591 25.4177 81.2184 25.3716 81.2776C25.3563 81.2982 25.305 81.3651 25.282 81.396C25.177 81.5325 25.0695 81.6664 24.9619 81.8028C24.6751 82.1607 24.3806 82.516 24.0836 82.8662C22.1067 85.1732 19.8866 87.2897 17.4821 89.1435C17.1492 89.3984 16.9725 89.8129 17.2029 90.2094C17.3924 90.539 17.9302 90.7476 18.2656 90.4901C21.6739 87.8638 24.8748 84.7793 27.3306 81.2184C27.392 81.1308 27.4407 81.0561 27.4817 80.9609C27.6302 80.6107 27.6532 80.1678 27.7249 79.7945C27.8017 79.398 27.8811 79.0015 27.9605 78.605C28.255 77.1605 28.5751 75.7238 28.9336 74.2948C29.561 71.7998 30.2959 69.3075 31.3279 66.949ZM55.542 69.9409C55.4498 71.8539 53.2194 72.3302 51.7777 72.8941C50.8969 73.2366 50.0134 73.5816 49.1325 73.924C48.3489 74.2304 47.5398 74.5059 46.8279 74.9642C46.6666 75.0672 46.5206 75.1779 46.3798 75.3093C46.3567 75.3299 46.3362 75.3505 46.3209 75.3685C46.2415 75.4843 46.1723 75.6079 46.1109 75.7367C46.1032 75.7495 46.0955 75.765 46.0904 75.7779C46.0725 75.8216 46.0571 75.8654 46.0417 75.9092C46.0084 76.0019 45.9777 76.0946 45.947 76.1873C45.883 76.3907 45.8292 76.5992 45.778 76.8052C45.2249 79.0452 44.9458 81.4218 43.6295 83.3812C42.8178 84.5862 41.6706 85.4384 40.4056 86.1233C40.3032 86.1774 40.1982 86.2263 40.0958 86.2803C41.2045 88.4586 41.0381 91.0128 40.2904 93.3146C39.4376 95.9383 37.8987 98.5002 35.7912 100.295C35.4685 100.57 35.0076 100.614 34.6901 100.295C34.411 100.014 34.37 99.4657 34.6901 99.1928C35.1203 98.8272 35.5223 98.4281 35.8962 98.0033C37.4915 96.1906 38.6669 93.8939 39.1585 91.5226C39.3787 90.4592 39.4376 89.3083 39.2021 88.2784C39.0894 87.7866 38.9025 87.3283 38.6669 86.8906C37.7194 87.2201 36.7233 87.4132 35.7195 87.3875C33.0154 87.3206 30.091 85.4281 29.1128 82.843C28.7825 81.9728 28.7953 80.8965 29.5891 80.2863C30.5392 79.5551 32.0167 79.8923 33.0512 80.2425C35.4916 81.069 37.7245 82.8688 39.2661 84.9698C40.1521 84.5553 41.0074 84.0094 41.6629 83.3477C42.3594 82.6448 42.8511 81.7127 43.1789 80.7935C43.5297 79.8125 43.7576 78.7929 43.9727 77.7759C44.1468 76.952 44.2953 76.1074 44.6077 75.3221C45.0277 74.2665 45.8292 73.6511 46.8535 73.1799C48.3874 72.4693 50.0057 71.9183 51.578 71.3029C52.2489 71.0429 53.0402 70.8446 53.6394 70.4326C54.0517 70.1468 54.0645 69.7761 53.8519 69.3641C53.2527 68.1926 51.7112 67.9583 50.5332 68.0098C49.0224 68.0742 47.5474 68.6123 46.1467 69.1478C44.6897 69.7066 43.2787 70.3683 41.9062 71.1072C41.6834 71.3879 41.33 71.4935 40.9894 71.357C40.6642 71.2257 40.403 70.7931 40.5413 70.4352C41.2506 68.5943 42.3031 66.9078 43.8037 65.6101C44.1212 65.3346 44.5872 65.2934 44.9022 65.6101C45.1839 65.8933 45.2223 66.4392 44.9022 66.7147C44.2108 67.312 43.6167 68.0021 43.12 68.7565C44.5821 68.069 46.0904 67.4459 47.6371 66.9825C49.2426 66.4984 51.0198 66.2049 52.6638 66.6838C54.0798 67.0957 55.6239 68.2956 55.542 69.9409ZM30.5238 81.5273C30.5724 81.4939 30.5289 81.5145 30.534 81.517C30.5315 81.517 30.5289 81.5222 30.5238 81.5273ZM37.745 85.5491C36.2163 83.685 34.0345 81.8749 31.5942 81.481C31.3483 81.4398 31.0974 81.4269 30.849 81.4321C30.8208 81.4321 30.7927 81.4372 30.7645 81.4398C30.7491 81.4424 30.7312 81.4449 30.721 81.4475C30.6672 81.4655 30.552 81.5145 30.575 81.4964C30.5571 81.5093 30.5392 81.5196 30.5187 81.5299C30.5135 81.535 30.5084 81.5428 30.5007 81.5479C30.5007 81.5505 30.5007 81.5505 30.5007 81.5505C30.5033 81.5556 30.4931 81.5737 30.4803 81.5943C30.4726 81.6509 30.4649 81.723 30.4623 81.7204C30.4598 81.7719 30.4598 81.8234 30.4623 81.8723C30.4675 81.9058 30.4777 81.9908 30.4879 82.032C30.5084 82.1195 30.5366 82.2045 30.5622 82.292C30.575 82.3332 30.5904 82.3744 30.6057 82.413C30.6134 82.4259 30.6185 82.4414 30.6211 82.4465C30.8157 82.8688 31.0743 83.2576 31.3509 83.5743C32.1089 84.4497 33.1229 85.1989 34.2266 85.5646C35.384 85.9482 36.5927 85.8761 37.745 85.5491ZM46.0878 75.783C46.0622 75.8525 46.0673 75.8294 46.0878 75.783V75.783ZM51.5524 52.9294C49.8162 52.883 48.0801 53.0813 46.3746 53.4031C45.9624 53.4829 45.7268 53.9824 45.8318 54.3635C45.9521 54.7986 46.3746 54.9866 46.7895 54.9094C49.2836 54.4356 51.916 54.2682 54.4127 54.8244C56.1207 55.2055 57.7365 55.9084 58.8812 57.1288C58.9529 57.2035 59.022 57.2807 59.0886 57.358C59.1193 57.394 59.1475 57.4301 59.1757 57.4635C59.1859 57.4738 59.191 57.4816 59.1961 57.4867C59.1987 57.4893 59.1987 57.4893 59.1987 57.4919C59.3165 57.6489 59.4266 57.8111 59.5265 57.9811C59.6238 58.1458 59.7083 58.3158 59.7902 58.4883C59.7902 58.4883 59.7902 58.4883 59.7902 58.4909C59.8056 58.5321 59.8235 58.5758 59.8389 58.617C59.8747 58.7149 59.9055 58.8101 59.9336 58.908C60.2204 59.8684 61.7236 59.459 61.4342 58.4934C60.2127 54.4021 55.3167 53.0272 51.5524 52.9294Z" fill="white"/>
</g>
<path d="M97.2792 62.7057C97.2792 62.8344 97.2792 62.9632 97.2792 63.0945C97.2792 65.4993 97.2792 67.9016 97.2792 70.3064C97.2792 73.3086 97.2792 76.3082 97.2792 79.3104C97.2792 80.0287 97.2843 80.7471 97.2792 81.4655C97.2689 83.1957 95.9501 84.5809 94.214 84.6118C93.1743 84.6324 92.1347 84.6118 91.095 84.6118C88.6828 84.6118 86.2706 84.6118 83.8584 84.6118C80.7215 84.6118 77.5847 84.6118 74.4452 84.6118C71.229 84.6118 68.0127 84.6118 64.7939 84.6118C62.1384 84.6118 59.4804 84.6118 56.8224 84.6118C55.396 84.6118 53.9672 84.6118 52.5408 84.6118C51.45 84.6118 50.4462 84.2462 49.7804 83.3296C49.258 82.6138 49.2042 81.8079 49.2042 80.9608C49.2042 80.3454 49.2042 79.7275 49.2042 79.1121C49.2042 78.1054 50.7586 78.108 50.7586 79.1121C50.7586 79.694 50.7586 80.2759 50.7586 80.8578C50.7586 81.4938 50.7074 82.122 51.199 82.6112C51.5012 82.9125 51.8853 83.049 52.3129 83.0515C52.6663 83.0541 53.0223 83.0515 53.3782 83.0515C55.2194 83.0515 57.0605 83.0515 58.9017 83.0515C61.7236 83.0515 64.5455 83.0515 67.3674 83.0515C70.576 83.0515 73.7846 83.0515 76.9931 83.0515C79.9508 83.0515 82.911 83.0515 85.8686 83.0515C87.9863 83.0515 90.104 83.0515 92.2217 83.0515C92.7646 83.0515 93.3075 83.0515 93.8504 83.0515C94.4521 83.0515 95.0232 82.9872 95.4201 82.4619C95.8272 81.9238 95.7248 81.1719 95.7248 80.536C95.7248 79.4134 95.7248 78.2934 95.7248 77.1733C95.7248 74.0707 95.7248 70.9707 95.7248 67.8681C95.7248 66.1482 95.7248 64.4256 95.7248 62.7057C95.7248 61.699 97.2792 61.7015 97.2792 62.7057ZM29.0565 51.3407C29.0232 51.3278 29.0437 51.3278 29.0565 51.3407V51.3407ZM29.0667 51.3432C29.0642 51.3432 29.0591 51.3407 29.0565 51.3407C29.0565 51.3407 29.0591 51.3407 29.0591 51.3432H29.0616C29.0719 51.3458 29.0795 51.3484 29.0872 51.351C29.0898 51.351 29.0898 51.351 29.0898 51.3484C29.0847 51.3484 29.0821 51.3484 29.077 51.3458C29.0872 51.3458 29.0975 51.3458 29.1103 51.3432C29.1128 51.3432 29.1128 51.3432 29.1154 51.3432C29.1179 51.3407 29.1205 51.3407 29.1256 51.3407C29.0975 51.3407 29.077 51.3407 29.0667 51.3432ZM46.0417 65.4865C45.9188 65.4066 45.7933 65.3242 45.6679 65.2418C43.2301 63.6506 40.7923 62.062 38.3545 60.4708C35.0127 58.29 31.671 56.1091 28.3267 53.9283C27.2333 53.2125 26.1398 52.4993 25.0438 51.7835C24.8031 51.6265 24.5599 51.472 24.3192 51.3123C23.4383 50.7253 23.026 49.6722 23.4997 48.6706C23.8121 48.0141 24.2987 47.4064 24.693 46.7962C25.1232 46.1345 25.5714 45.1509 26.2602 44.7235C26.9183 44.3167 27.7377 44.3373 28.3907 44.7312C28.6903 44.9115 28.9797 45.1149 29.2716 45.3054C30.0193 45.7946 30.9207 46.2426 31.4277 47.0073C31.5225 47.1489 31.5967 47.2983 31.6659 47.4528C31.863 47.4708 32.0602 47.4965 32.2574 47.5429C33.0487 47.7283 33.7016 48.1969 34.3725 48.6346C34.813 48.923 35.256 49.2113 35.6964 49.4997C36.0114 49.7057 36.3289 49.9117 36.6439 50.1177C39.0971 51.7192 41.5502 53.3181 44.0008 54.9196C47.4092 57.1416 50.8175 59.3662 54.2258 61.5883C56.2616 62.9168 58.3076 64.2274 60.3331 65.574C60.5482 65.7182 60.7121 65.8933 60.8478 66.1173C61.2447 66.7816 61.6416 67.4433 62.0385 68.1076C62.8119 69.4027 63.5878 70.6952 64.3611 71.9903C64.6377 72.4512 64.292 73.2391 63.6902 73.1644C63.4009 73.1284 63.1115 73.0923 62.8196 73.0563C60.7838 72.8039 58.748 72.5516 56.7097 72.2993C56.2923 72.2478 55.9338 71.9826 55.9338 71.5191C55.9338 71.1329 56.2923 70.6849 56.7097 70.739C56.9991 70.775 57.291 70.8085 57.5803 70.8445C59.1219 71.0377 60.6634 71.2282 62.205 71.4187C61.3011 69.9099 60.3971 68.3985 59.4932 66.8871C59.4676 66.8691 59.4394 66.8511 59.4113 66.8356C57.6111 65.659 55.8083 64.4823 54.0081 63.3082C51.0607 61.3848 48.1134 59.4615 45.166 57.5381C42.5976 55.862 40.0317 54.1884 37.4633 52.5122C36.4646 51.8608 35.4634 51.2068 34.4622 50.5554C33.6914 50.0507 32.8361 49.3246 31.945 49.0774C31.9271 49.5023 31.8502 49.9245 31.7248 50.3185C31.4021 51.3355 30.7414 52.4298 29.6839 52.8006C29.6301 52.8186 29.5763 52.834 29.5225 52.8469C30.9642 53.7893 32.4085 54.7291 33.8527 55.6714C36.7694 57.5768 39.6886 59.4795 42.6078 61.3848C44.0136 62.304 45.4195 63.2207 46.8279 64.1398C47.6652 64.6857 46.8842 66.0349 46.0417 65.4865ZM30.3087 49.6027C30.3369 49.4868 30.3599 49.371 30.3778 49.2525C30.3778 49.2397 30.3804 49.201 30.3829 49.1598C29.8887 49.3427 29.4457 49.6619 29.0872 50.0868C29.0744 50.0996 29.0719 50.1048 29.0719 50.1048C29.0667 50.1125 29.0591 50.1228 29.0488 50.1383C29.013 50.1898 28.9797 50.2387 28.9489 50.2902C28.8977 50.3726 28.8542 50.455 28.8132 50.5399C28.8107 50.5451 28.8081 50.5476 28.8055 50.5502C28.8055 50.5579 28.803 50.5605 28.8004 50.5708C28.7876 50.612 28.7723 50.6532 28.762 50.697C28.7492 50.7382 28.7364 50.8231 28.7313 50.854C28.7338 50.921 28.739 51.006 28.7338 51.0137C28.7415 51.0471 28.7518 51.0806 28.762 51.1141C28.7671 51.0986 28.8363 51.2197 28.7748 51.1476C28.8132 51.1939 29.0104 51.3432 28.8798 51.2583C28.9157 51.2815 28.9541 51.3072 28.9925 51.3278C28.9976 51.3278 29.0002 51.3278 29.0053 51.3304C29.0232 51.3355 29.0411 51.3381 29.0591 51.3432H29.0616C29.0386 51.3484 29.0616 51.3535 29.0872 51.351C29.0949 51.351 29.1026 51.3535 29.1103 51.3561C29.1 51.3535 29.0975 51.351 29.0898 51.351C29.0975 51.3484 29.1051 51.3458 29.1103 51.3432C29.1333 51.3432 29.1564 51.3407 29.164 51.3407C29.1487 51.3407 29.1384 51.3407 29.1256 51.3407C29.1512 51.3304 29.1896 51.3201 29.2178 51.3149C29.4611 51.1733 29.6634 50.9854 29.8273 50.7356C30.1064 50.3082 30.1934 50.0868 30.3087 49.6027ZM26.4394 50.836C26.6981 51.0034 26.9541 51.1707 27.2128 51.3407C26.9951 50.2464 27.6814 49.1521 28.4957 48.4853C28.9413 48.1222 29.4432 47.8467 29.9732 47.6691C29.9579 47.651 29.9374 47.6304 29.9143 47.6098C29.7965 47.4914 29.8349 47.5326 29.7044 47.4476C29.584 47.373 29.4662 47.2931 29.3484 47.2159C28.7697 46.8374 28.2012 46.4177 27.5994 46.0753C27.0489 45.7611 26.8005 46.4048 26.5291 46.8245C26.0758 47.5249 25.6226 48.2226 25.1693 48.923C24.9517 49.2603 24.6623 49.6053 25.0362 49.9194C25.4536 50.2696 25.9836 50.5373 26.4394 50.836ZM108.667 91.3397C105.858 88.9091 103.074 86.4579 100.511 83.7622C99.8168 83.0335 98.7183 84.1381 99.4097 84.8667C101.976 87.5599 104.759 90.0111 107.568 92.4443C107.886 92.7198 108.354 92.7584 108.667 92.4443C108.948 92.1636 108.987 91.6178 108.667 91.3397Z" fill="white"/>
<mask id="mask3_34_1691" style="mask-type:luminance" maskUnits="userSpaceOnUse" x="0" y="12" width="92" height="63">
<path d="M0 12.7424H91.5508V74.0425H0V12.7424Z" fill="white"/>
</mask>
<g mask="url(#mask3_34_1691)">
<path d="M73.6437 50.8747C73.6232 50.4524 74.0124 50.0945 74.4196 50.0945C74.5476 50.0945 74.6782 50.0945 74.8063 50.0945C75.7128 50.0945 76.6218 50.0945 77.5309 50.0945C77.9662 50.0945 78.2888 50.4524 78.3068 50.8747C78.3272 51.297 77.938 51.6548 77.5309 51.6548C77.4028 51.6548 77.2722 51.6548 77.1442 51.6548C76.2377 51.6548 75.3286 51.6548 74.4196 51.6548C73.9843 51.6548 73.6616 51.297 73.6437 50.8747ZM75.4592 46.4384C76.8241 46.4384 78.1864 46.4384 79.5513 46.4384C79.7433 46.4384 79.9354 46.4384 80.13 46.4384C80.5371 46.4384 80.9264 46.0779 80.9059 45.6582C80.888 45.2334 80.5653 44.8755 80.13 44.8755C78.7651 44.8755 77.4028 44.8755 76.038 44.8755C75.8459 44.8755 75.6539 44.8755 75.4592 44.8755C75.0521 44.8755 74.6629 45.2359 74.6833 45.6582C74.7013 46.0805 75.0239 46.4384 75.4592 46.4384ZM76.4989 41.2193C79.0699 41.2193 81.6408 41.2193 84.2143 41.2193C84.5856 41.2193 84.9569 41.2193 85.3283 41.2193C86.3269 41.2193 86.3295 39.659 85.3283 39.659C82.7573 39.659 80.1838 39.659 77.6128 39.659C77.2415 39.659 76.8702 39.659 76.4989 39.659C75.4977 39.659 75.4977 41.2193 76.4989 41.2193ZM79.3592 30.7838C82.619 30.7838 85.8814 30.7838 89.1437 30.7838C89.6047 30.7838 90.0656 30.7838 90.5265 30.7838C91.5252 30.7838 91.5278 29.2235 90.5265 29.2235C87.2642 29.2235 84.0018 29.2235 80.742 29.2235C80.2811 29.2235 79.8201 29.2235 79.3592 29.2235C78.358 29.2235 78.3554 30.7838 79.3592 30.7838ZM77.7997 36.0028C81.5179 36.0028 85.2361 36.0028 88.9542 36.0028C89.4792 36.0028 90.0016 36.0028 90.5265 36.0028C91.5252 36.0028 91.5278 34.4399 90.5265 34.4399C86.8058 34.4399 83.0876 34.4399 79.3695 34.4399C78.8471 34.4399 78.3221 34.4399 77.7997 34.4399C76.7985 34.4399 76.7959 36.0028 77.7997 36.0028ZM66.3636 64.1245C69.1189 64.1245 71.8768 64.1245 74.6321 64.1245C78.9905 64.1245 83.3488 64.1245 87.7072 64.1245C88.7033 64.1245 89.702 64.1245 90.7006 64.1245C91.7019 64.1245 91.7019 62.5641 90.7006 62.5641C87.9427 62.5641 85.1874 62.5641 82.4321 62.5641C78.0737 62.5641 73.7154 62.5641 69.357 62.5641C68.3584 62.5641 67.3623 62.5641 66.3636 62.5641C65.3623 62.5641 65.3598 64.1245 66.3636 64.1245ZM90.7006 67.2065C87.9427 67.2065 85.1874 67.2065 82.4321 67.2065C78.0737 67.2065 73.7154 67.2065 69.357 67.2065C68.3584 67.2065 67.3623 67.2065 66.3636 67.2065C65.3623 67.2065 65.3598 68.7693 66.3636 68.7693C69.1189 68.7693 71.8768 68.7693 74.6321 68.7693C78.9905 68.7693 83.3488 68.7693 87.7072 68.7693C88.7033 68.7693 89.702 68.7693 90.7006 68.7693C91.7019 68.7693 91.7019 67.2065 90.7006 67.2065ZM90.7006 71.8513C87.9427 71.8513 85.1874 71.8513 82.4321 71.8513C78.0737 71.8513 73.7154 71.8513 69.357 71.8513C68.3584 71.8513 67.3623 71.8513 66.3636 71.8513C65.3623 71.8513 65.3598 73.4116 66.3636 73.4116C69.1189 73.4116 71.8768 73.4116 74.6321 73.4116C78.9905 73.4116 83.3488 73.4116 87.7072 73.4116C88.7033 73.4116 89.702 73.4116 90.7006 73.4116C91.7019 73.4116 91.7019 71.8513 90.7006 71.8513ZM32.4597 41.4407C32.4597 41.8373 32.1012 42.2595 31.6812 42.2209C28.6467 41.9505 25.7096 40.2563 23.8428 37.8515C23.5612 37.9931 23.2744 38.1296 22.9876 38.2609C20.2502 39.5148 17.3489 40.4263 14.3861 40.967C9.9407 41.7755 5.3775 41.7446 0.975625 40.6838C0.00255197 40.4495 0.417389 38.9458 1.39046 39.1801C3.87948 39.78 6.42739 40.0349 8.98811 39.9731C12.6013 39.8856 16.1837 39.1672 19.5895 37.9622C20.1913 37.7511 20.7853 37.5219 21.3717 37.2773C21.4076 37.2645 21.4972 37.2233 21.5075 37.2207C21.5484 37.2027 21.5868 37.1846 21.6278 37.1692C21.7379 37.1203 21.8455 37.0739 21.953 37.025C22.1579 36.9323 22.3627 36.8396 22.5676 36.7418C22.9415 36.5641 23.3179 36.3813 23.679 36.1753C24.0631 35.9539 24.5086 36.1032 24.7442 36.4534C25.3204 37.3211 26.0527 38.0987 26.8927 38.7115C27.5969 39.2239 28.4829 39.7079 29.1896 39.986C29.8042 40.228 30.4393 40.4211 31.0871 40.5576C31.2664 40.5962 31.4507 40.622 31.6325 40.6554C31.6479 40.658 31.6607 40.658 31.6812 40.6606C32.1012 40.6992 32.4597 40.9876 32.4597 41.4407ZM31.63 40.6554C31.5378 40.64 31.5378 40.6451 31.63 40.6554V40.6554ZM48.9917 27.192C49.071 28.8707 48.3668 31.0129 46.4873 31.3631C45.696 31.5099 44.8843 31.3219 44.2338 30.8404C43.4298 30.2482 42.8997 29.3393 42.2211 28.6132C41.2711 27.5988 40.2135 26.7002 39.1534 25.8067C39.0202 26.0694 38.8794 26.3191 38.7283 26.5508C37.3609 28.6493 35.046 29.9289 32.557 30.0345C31.5557 30.0783 31.5608 28.5154 32.557 28.4742C33.5428 28.4304 34.5057 28.1524 35.361 27.6606C36.5005 27.004 37.4018 25.9715 37.9217 24.7691C37.8679 24.7228 37.8141 24.6764 37.7603 24.6301C36.7207 23.7315 35.3891 22.6243 35.1971 21.1696C35.0998 20.4255 35.3763 19.6788 35.8987 19.1432C36.9486 18.0696 38.4261 18.7236 39.1995 19.7689C40.1213 21.0177 40.1521 22.7222 39.7347 24.2722C40.6079 25.006 41.4913 25.7295 42.3235 26.5122C43.0226 27.1714 43.6884 27.8691 44.2799 28.6261C44.536 28.9557 44.7153 29.2338 45.0353 29.5015C45.0456 29.5067 45.1557 29.5891 45.1787 29.6045C45.2428 29.6457 45.3093 29.6818 45.3759 29.7178C45.399 29.7333 45.4246 29.7436 45.4527 29.7564C45.4527 29.7564 45.4527 29.7564 45.4553 29.7564C45.5219 29.7822 45.5885 29.8028 45.655 29.8208C45.6909 29.8311 45.7882 29.8466 45.8036 29.8517C45.8548 29.8543 45.9034 29.8594 45.9521 29.8594C46.0033 29.8569 46.052 29.8543 46.1032 29.8491C46.1262 29.8466 46.1723 29.8363 46.203 29.8285C46.2286 29.8208 46.3234 29.7925 46.3592 29.7822C46.3925 29.7667 46.4642 29.7333 46.4822 29.723C46.541 29.6895 46.5999 29.6534 46.6563 29.6122C46.6563 29.6122 46.6563 29.6122 46.6588 29.6122C46.6793 29.5942 46.6998 29.5788 46.7177 29.5582C46.938 29.3393 47.066 29.1797 47.1966 28.881C47.3118 28.6158 47.4066 28.2013 47.4296 27.8743C47.5602 26.1028 47.0711 24.1769 46.4617 22.5316C45.8829 20.9662 45.0123 19.4883 43.901 18.2472C41.8268 15.9351 38.8102 14.3593 35.6734 14.3258C35.3661 14.3233 35.0588 14.3336 34.7515 14.3567C34.5851 14.3696 34.416 14.3876 34.2496 14.4082C34.2214 14.4108 34.1958 14.4134 34.1702 14.416C34.1651 14.4185 34.1574 14.4185 34.1395 14.4211C34.0575 14.434 33.9782 14.4469 33.8988 14.4597C33.1895 14.5807 32.4904 14.761 31.8144 15.0004C30.3394 15.5205 28.8977 16.3779 27.7018 17.4542C26.9055 18.1726 26.1398 19.0119 25.5124 19.9311C25.7634 20.1654 26.0066 20.41 26.2269 20.6804C27.8376 22.6372 28.5392 25.1605 28.3753 27.6786C28.3292 28.3609 28.2319 29.0432 28.0834 29.7075C27.9605 30.2508 27.8068 30.825 27.4919 31.291C26.7416 32.4059 25.3818 32.4857 24.4241 31.5819C23.5893 30.7941 23.1591 29.5221 22.8442 28.4485C22.5061 27.3001 22.332 26.0848 22.3499 24.8875C22.3679 23.7057 22.565 22.5033 22.9901 21.3987C23.1335 21.028 23.3025 20.6675 23.4869 20.3199C23.3947 20.2607 23.2974 20.2015 23.2001 20.1474C23.0593 20.0676 22.752 19.9182 22.6931 19.8925C22.5369 19.823 22.1374 19.6891 21.8788 19.6196C20.5062 19.2514 19.1106 19.2308 17.6177 19.187C15.7407 19.1304 13.8688 19.0866 12.0021 18.8832C9.64366 18.6257 7.32365 18.1468 5.07277 17.3847C4.12787 17.0654 4.53758 15.5592 5.48761 15.881C6.75517 16.3084 8.04577 16.6586 9.35942 16.9161C11.5693 17.3538 13.8125 17.5108 16.0608 17.5804C17.8456 17.637 19.6484 17.6241 21.4153 17.9254C22.4473 18.103 23.4203 18.4712 24.2935 19.0068C24.4753 18.7442 24.6648 18.4892 24.8594 18.2369C26.1091 16.6277 27.6916 15.2682 29.4943 14.3233C32.5032 12.7475 35.9448 12.3201 39.1943 13.368C42.9381 14.573 45.9367 17.4593 47.5244 21.046C48.3796 22.9796 48.8944 25.0755 48.9917 27.192ZM24.7109 21.3215C24.5726 21.615 24.4446 21.9163 24.3447 22.2227C23.6994 24.1846 23.7967 26.3191 24.4164 28.2759C24.5675 28.7471 24.7468 29.2106 24.9644 29.656C25.136 30.0036 25.3562 30.4233 25.7096 30.6164C26.3293 30.9511 26.5674 29.3908 26.6417 29.0149C27.0719 26.8675 26.8491 24.5374 25.7147 22.6346C25.433 22.1634 25.095 21.7206 24.7109 21.3215ZM37.6246 20.3354C37.3404 20.1088 37.1202 20.0599 36.9076 20.3585C36.8641 20.4152 36.8359 20.4821 36.8001 20.5413C36.795 20.5491 36.7924 20.5542 36.7873 20.5619C36.7873 20.5619 36.7873 20.5619 36.7873 20.5645C36.7719 20.616 36.7591 20.6727 36.7412 20.7216C36.7386 20.7293 36.7361 20.7344 36.7335 20.7396C36.7335 20.8168 36.7463 20.9868 36.7361 20.9816C36.754 21.064 36.7745 21.149 36.8001 21.2314C36.8052 21.2468 36.8129 21.2648 36.8206 21.2829C36.8206 21.2829 36.8206 21.2829 36.8231 21.2854C36.8487 21.3395 36.8769 21.3936 36.9051 21.4477C36.9665 21.5609 37.0382 21.6691 37.1099 21.7747C37.1278 21.7978 37.1919 21.8828 37.2021 21.8957C37.238 21.942 37.2738 21.9884 37.3122 22.0321C37.4121 22.148 37.5145 22.2613 37.6195 22.372C37.8602 22.6243 38.1137 22.8638 38.3724 23.0955C38.3852 22.9899 38.3954 22.8844 38.4005 22.7788C38.4492 21.9394 38.3314 20.8967 37.6246 20.3354ZM66.3636 59.4821C69.6234 59.4821 72.8857 59.4821 76.1481 59.4821C76.609 59.4821 77.0699 59.4821 77.5309 59.4821C78.5295 59.4821 78.5321 57.9218 77.5309 57.9218C74.2685 57.9218 71.0062 57.9218 67.7464 57.9218C67.2854 57.9218 66.8245 57.9218 66.3636 57.9218C65.3623 57.9218 65.3598 59.4821 66.3636 59.4821Z" fill="#9AD4EA"/>
</g>
</svg>
