<svg width="107" height="100" viewBox="0 0 107 100" fill="none" xmlns="http://www.w3.org/2000/svg">
<mask id="mask0_34_1626" style="mask-type:luminance" maskUnits="userSpaceOnUse" x="0" y="0" width="107" height="100">
<path d="M0 0H106.969V99.9997H0V0Z" fill="white"/>
</mask>
<g mask="url(#mask0_34_1626)">
<path d="M67.2736 70.366C67.2682 70.8044 67.2627 71.24 67.2573 71.6784C67.2273 74.5004 67.1973 77.3251 67.1646 80.1498C67.1265 83.6047 67.0883 87.0623 67.0502 90.52C67.0311 92.2433 67.0257 93.9694 66.9957 95.6954C66.9494 98.0654 65.0747 99.9723 62.7068 99.9996C62.3825 100.005 62.0583 99.9996 61.7313 99.9996C59.7585 99.9996 57.7857 99.9996 55.8129 99.9996C52.6821 99.9996 49.554 99.9996 46.4231 99.9996C42.8726 99.9996 39.3249 99.9996 35.7744 99.9996C32.5046 99.9996 29.2321 99.9996 25.9623 99.9996C23.7088 99.9996 21.4554 99.9996 19.2019 99.9996C18.6842 99.9996 18.1638 99.9996 17.646 99.9996C17.6025 99.9996 17.5616 99.9942 17.518 99.9942C17.4935 99.9969 17.4689 99.9996 17.4444 99.9996C16.2809 99.9832 15.1555 99.512 14.3572 98.6654C14.289 98.5914 14.2209 98.5229 14.1582 98.4462C14.1228 98.4051 14.0956 98.3613 14.0629 98.3174C14.0465 98.2955 14.0247 98.2763 14.0084 98.2517C13.7168 97.8653 13.5261 97.4599 13.4007 97.0434C13.4007 97.0407 13.398 97.0352 13.398 97.0324C13.3898 97.0105 13.3871 96.9886 13.3817 96.9694C13.2345 96.4872 13.1664 95.9776 13.1664 95.4516C13.1664 95.3749 13.1664 95.3009 13.1664 95.2242C13.161 94.8543 13.1664 94.479 13.1664 94.1009C13.1664 92.2597 13.1664 90.4158 13.1664 88.572C13.1664 88.5555 13.1664 88.5391 13.1664 88.5227C13.1664 85.7171 13.1664 82.9116 13.1664 80.106C13.1664 80.0841 13.1664 80.0594 13.1664 80.0375C13.1664 76.6539 13.1664 73.2702 13.1664 69.8866C13.1664 69.8592 13.1664 69.8345 13.1664 69.8099C13.1664 66.2317 13.1664 62.6535 13.1664 59.0726C13.1664 59.048 13.1664 59.0233 13.1664 58.9986C13.1664 55.6095 13.1664 52.2204 13.1664 48.8313C13.1664 48.8066 13.1664 48.7847 13.1664 48.7628C13.1664 45.938 13.1664 43.1133 13.1664 40.2886C13.1664 40.2804 13.1664 40.2721 13.1664 40.2612C13.1664 38.3981 13.1664 36.5351 13.1664 34.672C13.1664 34.0419 13.1446 33.4117 13.1964 32.798C13.1991 32.7761 13.2018 32.7514 13.2046 32.7295C13.21 32.6665 13.2155 32.6035 13.2236 32.5405C13.2291 32.4994 13.2345 32.461 13.24 32.4199C13.2482 32.3733 13.2536 32.3267 13.2591 32.2829C13.27 32.2281 13.2809 32.1733 13.2917 32.1185C13.2972 32.0884 13.3026 32.0582 13.3081 32.0281C13.3244 31.9624 13.3408 31.8966 13.3571 31.8336C13.3626 31.8144 13.3653 31.7925 13.3735 31.7733C13.3926 31.7021 13.4144 31.6308 13.4389 31.5623C13.4416 31.5486 13.4471 31.5349 13.4498 31.524C13.4743 31.4582 13.4988 31.3925 13.5261 31.3267C13.5343 31.3103 13.5397 31.2938 13.5452 31.2774C13.5724 31.2144 13.6024 31.1514 13.6324 31.0884C13.6433 31.0719 13.6514 31.0527 13.6596 31.0336C13.6923 30.9678 13.7305 30.9021 13.7686 30.8363C13.7795 30.8226 13.7849 30.8062 13.7931 30.7925C13.8422 30.713 13.8939 30.6363 13.9512 30.5568C14.0465 30.4226 14.1501 30.2938 14.2591 30.1733C14.2809 30.1514 14.3027 30.1322 14.3217 30.1103C15.082 29.2993 16.112 28.8006 17.24 28.7376C18.5616 28.6636 19.9104 28.7376 21.2374 28.7404C24.6107 28.7486 27.9868 28.7541 31.3629 28.7568C32.3439 28.7568 32.3411 30.2883 31.3629 30.2883C29.6708 30.2856 27.9787 30.2829 26.2865 30.2801C25.9514 30.2801 25.6189 30.2774 25.2838 30.2774C24.0631 30.2746 22.8396 30.2746 21.6161 30.2719C20.2919 30.2692 18.9676 30.2664 17.6433 30.2637C17.2673 30.2637 16.9022 30.3185 16.5643 30.4308C16.5234 30.4445 16.4825 30.4582 16.4444 30.4746C16.428 30.4801 16.4117 30.4883 16.3953 30.4938C15.5915 30.8336 14.9893 31.5212 14.7741 32.3952C14.7059 32.7158 14.6869 33.0473 14.6869 33.387C14.6869 34.2336 14.6869 35.0802 14.6869 35.9268C14.6869 36.3597 14.6869 36.7926 14.6869 37.2255C14.6869 38.9461 14.6869 40.6667 14.6869 42.3845C14.6869 43.0695 14.6869 43.7517 14.6869 44.4339C14.6869 46.7271 14.6869 49.0176 14.6869 51.308C14.6869 52.1546 14.6869 52.9985 14.6869 53.8451C14.6869 56.4479 14.6869 59.0507 14.6869 61.6535C14.6869 62.5713 14.6869 63.4892 14.6869 64.4043C14.6869 67.0317 14.6869 69.6564 14.6869 72.2812C14.6869 73.1634 14.6869 74.0428 14.6869 74.9251C14.6869 77.2977 14.6869 79.6731 14.6869 82.0458C14.6869 82.8074 14.6869 83.5691 14.6869 84.328C14.6869 86.1829 14.6869 88.035 14.6869 89.8898C14.6869 90.435 14.6869 90.9802 14.6869 91.5255C14.6869 92.5912 14.6869 93.6543 14.6869 94.7173C14.6869 94.9283 14.6869 95.1393 14.6869 95.353C14.6869 95.7256 14.7114 96.0845 14.7986 96.4324C14.9921 97.1092 15.4226 97.679 16.003 98.0434C16.4962 98.3366 17.0766 98.4708 17.6815 98.4708C19.1583 98.4708 20.6352 98.4708 22.1121 98.4708C24.9268 98.4708 27.7389 98.4708 30.5536 98.4708C34.0196 98.4708 37.4856 98.4708 40.9544 98.4708C44.3522 98.4708 47.7501 98.4708 51.148 98.4708C53.802 98.4708 56.4533 98.4708 59.1073 98.4708C60.298 98.4708 61.4888 98.4818 62.6795 98.4708C64.2272 98.4544 65.448 97.2434 65.4725 95.6872C65.4834 95.1584 65.4861 94.6297 65.4916 94.1009C65.5215 91.2241 65.5542 88.3446 65.5869 85.465C65.6224 82.0759 65.6605 78.6841 65.6987 75.2949C65.715 73.6511 65.7341 72.0099 65.7532 70.366C65.764 69.3797 67.2845 69.3825 67.2736 70.366ZM32.3602 23.2471C33.0414 23.2471 33.7226 23.2471 34.4038 23.2498C35.3821 23.2498 35.3848 21.721 34.4038 21.7183C30.6572 21.7155 26.9132 21.7128 23.1666 21.71C19.3845 21.7046 15.6051 21.7018 11.8231 21.6963C11.2508 21.6963 10.6568 21.6552 10.0873 21.7128C8.82028 21.8416 7.7031 22.4772 6.95377 23.5183C6.37065 24.332 6.16901 25.2964 6.16901 26.2773C6.16901 27.5951 6.16901 28.9102 6.16901 30.2281C6.16901 32.724 6.16901 35.2227 6.16901 37.7187C6.16901 40.9187 6.16901 44.1161 6.16901 47.3162C6.16901 50.7491 6.16901 54.1821 6.16901 57.615C6.16901 60.785 6.16901 63.9577 6.16901 67.1303C6.16901 69.5468 6.16901 71.9661 6.16901 74.3853C6.16901 75.5853 6.16901 76.7854 6.16901 77.9827C6.16901 78.0375 6.16901 78.0895 6.16901 78.1443C6.16901 79.1279 7.6922 79.1306 7.6922 78.1443C7.6922 77.3279 7.6922 76.5114 7.6922 75.6922C7.6922 73.5552 7.6922 71.4181 7.6922 69.2811C7.6922 66.292 7.6922 63.3028 7.6922 60.3137C7.6922 56.9438 7.6922 53.5711 7.6922 50.1984C7.6922 46.9107 7.6922 43.6257 7.6922 40.3379C7.6922 37.6063 7.6922 34.8748 7.6922 32.1432C7.6922 30.4335 7.6922 28.7267 7.6922 27.017C7.6922 26.6937 7.68947 26.3704 7.6922 26.0444C7.70037 24.4937 8.90203 23.2416 10.4552 23.2252C13.6678 23.1868 16.8831 23.2334 20.0984 23.2361C24.1857 23.2389 28.2729 23.2443 32.3602 23.2471ZM27.5618 42.4147C27.8451 42.4147 28.1285 42.4147 28.4119 42.4147C29.3901 42.4147 29.3928 40.8859 28.4119 40.8859C26.4091 40.8859 24.4091 40.8859 22.4063 40.8859C22.123 40.8859 21.8396 40.8859 21.5562 40.8859C20.578 40.8859 20.5753 42.4147 21.5562 42.4147C23.559 42.4147 25.5617 42.4147 27.5618 42.4147ZM21.5562 48.5354C23.559 48.5354 25.5617 48.5354 27.5618 48.5354C27.8451 48.5354 28.1285 48.5354 28.4119 48.5354C29.3901 48.5354 29.3928 47.0066 28.4119 47.0066C26.4091 47.0066 24.4091 47.0066 22.4063 47.0066C22.123 47.0066 21.8396 47.0066 21.5562 47.0066C20.578 47.0066 20.5753 48.5354 21.5562 48.5354ZM21.5562 54.6561C23.8233 54.6561 26.0903 54.6561 28.3547 54.6561C28.6789 54.6561 29.0005 54.6561 29.3247 54.6561C30.3029 54.6561 30.3057 53.1273 29.3247 53.1273C27.0577 53.1273 24.7906 53.1273 22.5262 53.1273C22.202 53.1273 21.8805 53.1273 21.5562 53.1273C20.578 53.1273 20.5753 54.6561 21.5562 54.6561ZM37.7118 65.3659C35.8916 65.3659 34.0714 65.3659 32.2512 65.3659C29.3492 65.3659 26.45 65.3659 23.5481 65.3659C22.8859 65.3659 22.2211 65.3659 21.5562 65.3659C20.578 65.3659 20.578 66.8975 21.5562 66.8975C23.3764 66.8975 25.1966 66.8975 27.0195 66.8975C29.9187 66.8975 32.818 66.8975 35.7199 66.8975C36.3821 66.8975 37.0469 66.8975 37.7118 66.8975C38.69 66.8975 38.6927 65.3659 37.7118 65.3659ZM60.4261 71.4866C59.1345 71.4866 57.8402 71.4866 56.5486 71.4866C53.4559 71.4866 50.366 71.4866 47.276 71.4866C43.5375 71.4866 39.799 71.4866 36.0605 71.4866C32.818 71.4866 29.5754 71.4866 26.3356 71.4866C24.7688 71.4866 23.1911 71.4346 21.6243 71.4866C21.6025 71.4866 21.578 71.4866 21.5562 71.4866C20.578 71.4866 20.578 73.0154 21.5562 73.0154C22.8505 73.0154 24.1421 73.0154 25.4364 73.0154C28.5263 73.0154 31.6163 73.0154 34.709 73.0154C38.4475 73.0154 42.1833 73.0154 45.9217 73.0154C49.1643 73.0154 52.4069 73.0154 55.6494 73.0154C57.2162 73.0154 58.7939 73.0702 60.3607 73.0154C60.3825 73.0154 60.4043 73.0154 60.4261 73.0154C61.4043 73.0182 61.407 71.4866 60.4261 71.4866ZM60.4261 77.6073C59.1345 77.6073 57.8402 77.6073 56.5486 77.6073C53.4559 77.6073 50.366 77.6073 47.276 77.6073C43.5375 77.6073 39.799 77.6073 36.0605 77.6073C32.818 77.6073 29.5754 77.6073 26.3356 77.6073C24.7688 77.6073 23.1911 77.5553 21.6243 77.6073C21.6025 77.6073 21.578 77.6073 21.5562 77.6073C20.578 77.6073 20.578 79.1361 21.5562 79.1361C22.8505 79.1361 24.1421 79.1361 25.4364 79.1361C28.5263 79.1361 31.6163 79.1361 34.709 79.1361C38.4475 79.1361 42.1833 79.1361 45.9217 79.1361C49.1643 79.1361 52.4069 79.1361 55.6494 79.1361C57.2162 79.1361 58.7939 79.1909 60.3607 79.1361C60.3825 79.1361 60.4043 79.1361 60.4261 79.1361C61.4043 79.1361 61.407 77.6073 60.4261 77.6073ZM60.4261 83.728C59.1345 83.728 57.8402 83.728 56.5486 83.728C53.4559 83.728 50.366 83.728 47.276 83.728C43.5375 83.728 39.799 83.728 36.0605 83.728C32.818 83.728 29.5754 83.728 26.3356 83.728C24.7688 83.728 23.1911 83.6732 21.6243 83.728C21.6025 83.728 21.578 83.728 21.5562 83.728C20.578 83.728 20.578 85.2568 21.5562 85.2568C22.8505 85.2568 24.1421 85.2568 25.4364 85.2568C28.5263 85.2568 31.6163 85.2568 34.709 85.2568C38.4475 85.2568 42.1833 85.2568 45.9217 85.2568C49.1643 85.2568 52.4069 85.2568 55.6494 85.2568C57.2162 85.2568 58.7939 85.3089 60.3607 85.2568C60.3825 85.2568 60.4043 85.2568 60.4261 85.2568C61.4043 85.2568 61.407 83.728 60.4261 83.728ZM56.5486 89.846C53.4559 89.846 50.366 89.846 47.276 89.846C43.5375 89.846 39.799 89.846 36.0605 89.846C32.818 89.846 29.5754 89.846 26.3356 89.846C24.7688 89.846 23.1911 89.7939 21.6243 89.846C21.6025 89.8487 21.578 89.846 21.5562 89.846C20.578 89.846 20.578 91.3775 21.5562 91.3775C22.8505 91.3775 24.1421 91.3775 25.4364 91.3775C28.5263 91.3775 31.6163 91.3775 34.709 91.3775C38.4475 91.3775 42.1833 91.3775 45.9217 91.3775C49.1643 91.3775 52.4069 91.3775 55.6494 91.3775C57.2162 91.3775 58.7939 91.4296 60.3607 91.3775C60.3825 91.3775 60.4043 91.3775 60.4261 91.3775C61.4043 91.3775 61.407 89.846 60.4261 89.846C59.1345 89.846 57.8402 89.846 56.5486 89.846ZM106.658 88.2925C106.375 87.7391 105.827 87.3363 105.372 86.9308C103.397 85.1609 101.421 83.391 99.4458 81.6211C99.0453 81.2649 98.6475 80.906 98.2469 80.5499C98.2142 80.5197 98.1788 80.4896 98.1461 80.4594C95.9853 78.5251 93.8272 76.5909 91.6664 74.6566C91.4212 74.4374 91.1759 74.2154 90.928 73.9963C90.7972 73.8785 90.6637 73.7606 90.5329 73.6401C90.0669 73.2236 89.601 72.8072 89.135 72.388C87.8189 71.2126 86.5028 70.0345 85.1895 68.8564C84.7399 68.4564 84.293 68.0564 83.8461 67.6536C83.2085 67.0838 82.5709 66.5111 81.9333 65.9413C80.9333 65.0454 79.9332 64.1494 78.9305 63.2535C78.3147 62.7001 77.6961 62.1494 77.0803 61.596C76.4536 61.0343 76.0858 60.2726 76.3446 59.4123C76.4618 59.0233 76.6879 58.6562 76.8623 58.2918C77.0749 57.8479 77.282 57.4041 77.4836 56.9575C77.9523 55.9273 78.3964 54.8889 78.8133 53.8369C79.6199 51.793 80.3638 49.6696 80.6771 47.4833C80.9823 45.338 80.9523 43.1161 80.7098 40.9681C80.2439 36.8337 78.9114 32.809 76.7043 29.2828C74.5953 25.9129 71.7206 23.0169 68.2982 21.0032C64.8376 18.9648 60.8948 17.9072 56.8892 17.8634C52.9573 17.8223 49.0417 18.7374 45.5321 20.5237C42.047 22.2991 39.0361 24.9403 36.7581 28.1266C34.3521 31.4911 32.8289 35.472 32.2539 39.5653C31.6763 43.6832 31.946 47.9244 33.243 51.8861C34.4474 55.5575 36.5047 58.9521 39.3113 61.6042C42.1751 64.3111 45.7528 66.1988 49.5867 67.0564C53.475 67.9276 57.7121 67.9276 61.5242 66.6892C64.6305 65.681 67.4044 63.8316 69.5707 61.3823C71.5571 59.1356 73.0285 56.4972 74.1102 53.7054C74.9849 51.4532 75.6007 49.0943 75.9495 46.7024C76.5626 42.4996 75.9713 38.242 74.132 34.409C72.3881 30.7733 69.5407 27.6609 66.0611 25.6471C62.5515 23.6142 58.4206 22.7621 54.3987 23.2553C50.4995 23.7348 46.8455 25.3896 43.9054 28.0143C40.8944 30.6993 38.7745 34.3268 37.739 38.2255C37.4093 39.4721 37.1886 40.7516 37.0715 42.0393C37.0687 42.064 37.0633 42.0886 37.0606 42.1133C37.0333 42.3927 37.017 42.6722 37.0033 42.9517C36.9979 43.0585 36.9952 43.1681 36.9924 43.275C36.9843 43.4695 36.9815 43.6668 36.9815 43.8613C36.9788 43.9517 36.9788 44.0421 36.9815 44.1325C36.9815 44.349 36.9897 44.5654 36.9979 44.7818C37.0715 46.6997 37.4121 48.6039 38.066 50.4176C38.4121 51.3793 38.8426 52.2998 39.3412 53.1793C39.453 53.3793 39.5674 53.5766 39.6873 53.7711C39.7581 53.8889 39.8317 54.004 39.9053 54.1191C39.9462 54.1821 39.987 54.2424 40.0279 54.3054C40.4721 54.9766 40.9598 55.6259 41.4993 56.2342C42.0061 56.8068 42.5511 57.3356 43.1233 57.826C43.1588 57.8561 43.1942 57.8863 43.2269 57.9164C43.3631 58.0287 43.4966 58.1438 43.6329 58.2534C44.0225 58.563 44.4231 58.8589 44.8373 59.1384C46.6357 60.3411 48.6548 61.1713 50.7556 61.6398C50.7611 61.6398 50.7665 61.6425 50.772 61.6425C50.9028 61.6727 51.0336 61.6973 51.1616 61.7247C51.4041 61.774 51.6466 61.8206 51.8891 61.859C51.8946 61.859 51.8973 61.859 51.9 61.8617C52.1753 61.9056 52.4505 61.9412 52.7257 61.9713C52.772 61.9768 52.8183 61.985 52.8646 61.9878C53.1508 62.0206 53.4396 62.0453 53.7311 62.0617C53.7611 62.0645 53.7938 62.0645 53.8238 62.0645C54.0717 62.0782 54.3197 62.0864 54.5677 62.0919C54.6031 62.0919 54.6385 62.0946 54.6712 62.0946C54.7284 62.0946 54.7857 62.0919 54.8429 62.0919C55.0827 62.0919 55.3225 62.0864 55.5622 62.0782C55.6413 62.0754 55.7203 62.0727 55.7993 62.0699C55.8374 62.0672 55.8756 62.0672 55.9137 62.0645C57.4369 61.9795 59.001 61.7686 60.4615 61.2754C60.6195 61.2233 60.7776 61.1686 60.9356 61.1083C60.9819 61.0918 61.031 61.0699 61.0773 61.0507C61.2599 60.9795 61.4397 60.9028 61.6168 60.8179C61.6332 60.8096 61.6495 60.8042 61.6659 60.7959C61.6713 60.7932 61.6768 60.7905 61.685 60.7877C61.8239 60.7192 61.9602 60.6507 62.0991 60.5768C62.1128 60.5685 62.1237 60.5603 62.1373 60.5521C62.3498 60.4343 62.5596 60.311 62.7613 60.1795C62.7885 60.1603 62.8158 60.1411 62.843 60.122C63.0229 60.0014 63.1972 59.8781 63.3716 59.7466C63.4098 59.7165 63.4479 59.6863 63.4861 59.6562C63.6659 59.5137 63.843 59.3685 64.0147 59.2151C64.0229 59.2069 64.0338 59.1986 64.0419 59.1904C64.4125 58.8562 64.7613 58.5 65.0828 58.1219C65.1401 58.0561 65.1946 57.9904 65.2518 57.9219C65.2899 57.8753 65.3308 57.8287 65.3689 57.7822C65.3989 57.7438 65.4289 57.7027 65.4589 57.6644C65.8458 57.1685 66.2028 56.6506 66.5188 56.1109C67.5515 54.3465 68.2437 52.3683 68.6306 50.3628C68.8676 49.1244 69.0148 47.8477 69.0039 46.5764C69.0012 46.5353 69.0039 46.4915 69.0012 46.4476C69.0012 46.349 68.9957 46.2504 68.993 46.1517C68.9875 46.0339 68.9821 45.9161 68.9766 45.7983C68.9712 45.7271 68.9657 45.6558 68.9603 45.5846C68.9467 45.3928 68.9276 45.2038 68.9058 45.0147C68.9031 45.0065 68.9031 45.001 68.9031 44.9955C68.9003 44.9928 68.9003 44.9873 68.9003 44.9846C68.8949 44.9325 68.8867 44.8805 68.8785 44.8284C68.8676 44.7435 68.854 44.6586 68.8404 44.5736C68.7587 44.0366 68.6388 43.5078 68.4317 43.001C68.102 42.19 67.5434 41.5105 66.884 40.9461C66.8703 40.9379 66.8594 40.927 66.8458 40.916C66.7123 40.8009 66.5733 40.6913 66.4316 40.5845C66.4044 40.5653 66.3744 40.5489 66.3472 40.5297C66.3308 40.5187 66.3117 40.5078 66.2954 40.4968C65.1292 39.6831 63.7095 39.2283 62.2817 39.0612C62.2163 39.0529 62.1536 39.0447 62.0882 39.0392C62.5542 38.2913 62.8975 37.4502 63.0637 36.6282C63.5406 34.2693 62.655 31.7267 60.6659 30.3431C59.0446 29.2143 56.7993 29.0308 54.9737 29.7376C52.821 30.5733 51.2951 32.4857 51.1616 34.8419C51.0799 36.2885 51.5322 37.7899 52.2706 39.0776C51.1507 39.2338 50.039 39.5735 49.0362 40.0393C47.8346 40.5982 46.7882 41.4393 46.0117 42.516C45.2678 43.5544 44.9217 44.7764 44.7446 46.0285C44.4749 47.9436 44.4231 49.8861 44.2405 51.8094C44.1996 52.2204 44.6165 52.5738 45.0007 52.5738C45.4449 52.5738 45.7201 52.2231 45.761 51.8094C45.9163 50.1792 45.9844 48.5408 46.1561 46.9107C46.2705 45.8284 46.4858 44.675 47.0062 43.7791C48.1152 41.8777 50.1616 40.9982 52.2434 40.6393C52.3496 40.6228 52.4559 40.6064 52.5595 40.59C52.6112 40.5845 52.6603 40.579 52.7121 40.5735C52.8701 40.5543 53.0309 40.5406 53.1889 40.5297C53.336 40.5187 53.4859 40.5105 53.633 40.5105C54.3034 40.516 54.5404 39.7845 54.2298 39.2913C54.238 39.2995 54.238 39.2968 54.2189 39.2694C54.1671 39.1927 54.1099 39.1214 54.0581 39.0475C53.8837 38.7927 53.7202 38.5296 53.5731 38.2584C53.1562 37.5077 52.8456 36.7269 52.7202 35.8501C52.5731 34.8282 52.7611 33.7953 53.3061 32.9213C53.7148 32.261 54.287 31.7624 54.9927 31.3925C55.6331 31.0582 56.4369 30.8664 57.1617 30.8555C57.9111 30.8418 58.6931 30.9979 59.3307 31.324C60.0555 31.6939 60.6086 32.198 61.0174 32.8966C61.5378 33.7843 61.7613 34.8254 61.655 35.8501C61.5651 36.7543 61.2136 37.557 60.7176 38.3214C60.6277 38.4611 60.5324 38.5954 60.4343 38.7269C60.4125 38.7543 60.3934 38.7817 60.3716 38.8064C60.3334 38.8529 60.2953 38.8995 60.2571 38.9433C60.1754 39.0392 60.0909 39.1324 60.001 39.2201C59.5487 39.6557 59.8729 40.5763 60.5405 40.5242C60.8021 40.505 61.0691 40.5105 61.3335 40.5215C61.4724 40.5269 61.6087 40.5352 61.7449 40.5461H61.7476C61.873 40.5571 61.9983 40.568 62.1237 40.5845C62.1754 40.59 62.2327 40.5982 62.2572 40.6009C62.2599 40.6009 62.2626 40.6009 62.2654 40.6009C62.3471 40.6146 62.4316 40.6256 62.5133 40.642C62.6659 40.6667 62.8158 40.6996 62.9629 40.7324C63.1373 40.7708 63.3117 40.8174 63.4834 40.8639C63.5351 40.8804 63.5842 40.8913 63.6359 40.905C63.8267 40.9653 64.0174 41.0311 64.2027 41.105C64.4997 41.2201 64.7886 41.3571 65.0665 41.5133C65.6605 41.8612 66.2245 42.3325 66.6387 42.8941C66.7041 42.9818 66.7668 43.0695 66.824 43.1654C66.8513 43.2092 66.8785 43.253 66.903 43.2996C66.9248 43.3435 66.9494 43.3873 66.9712 43.4311C66.9821 43.4558 66.993 43.4804 67.0039 43.5024C67.0148 43.527 67.0229 43.5517 67.0338 43.5763C67.1237 43.8284 67.1973 44.0859 67.2573 44.3462C67.2736 44.4175 67.2872 44.486 67.3009 44.5572C67.3118 44.6065 67.3227 44.6586 67.3308 44.7106C67.3472 44.7955 67.3608 44.8832 67.3744 44.9682C67.3799 44.9928 67.3826 45.0147 67.3853 45.0312C67.3908 45.075 67.4044 45.1956 67.4099 45.2504C67.4153 45.286 67.4153 45.3216 67.4208 45.3572C67.4317 45.486 67.4426 45.6147 67.4507 45.7435C67.4671 46.0093 67.4753 46.2778 67.478 46.5463C67.478 46.6175 67.478 46.6887 67.478 46.76C67.478 47.0011 67.4698 47.2394 67.4589 47.4805C67.4562 47.5216 67.4562 47.56 67.4535 47.5984C67.4371 47.9025 67.4126 48.2038 67.3799 48.508C67.3663 48.6477 67.3499 48.7902 67.3336 48.9299C67.3308 48.9409 67.3308 48.9436 67.3308 48.9491C67.3281 48.96 67.3281 48.9683 67.3254 48.9847C67.3009 49.1491 67.2763 49.3135 67.2491 49.4779C67.2382 49.5409 67.2246 49.6039 67.2137 49.6669C67.1646 49.9464 67.1074 50.2258 67.0474 50.5025C67.0311 50.5738 67.0175 50.6423 67.0011 50.7108C66.9276 51.0231 66.8485 51.3354 66.7586 51.6423C66.745 51.6971 66.7259 51.7491 66.7096 51.8039C66.6169 52.119 66.5188 52.4231 66.4153 52.7218C66.3989 52.7683 66.3826 52.8149 66.3662 52.8615C66.3553 52.8916 66.3444 52.9245 66.3335 52.9547C66.1891 53.341 66.0338 53.7163 65.8649 54.0752C65.8458 54.1163 65.8267 54.1574 65.8076 54.1985C65.7123 54.4013 65.6115 54.6013 65.5052 54.8013C65.4888 54.8341 65.467 54.8698 65.4507 54.9054C65.3662 55.0561 65.2818 55.2095 65.1946 55.3602C65.1455 55.4396 65.0992 55.5164 65.0501 55.5958C64.9929 55.689 64.933 55.7821 64.873 55.8753C64.8049 55.9794 64.7368 56.0835 64.6659 56.1849C64.6469 56.2123 64.6278 56.2369 64.6087 56.2643C64.3662 56.6068 64.1073 56.9328 63.8321 57.2424C63.7313 57.3548 63.6278 57.4644 63.5242 57.5739C63.0692 58.0397 62.576 58.4562 62.0501 58.8123C60.3307 59.9302 58.3825 60.3521 56.2816 60.511C51.9627 60.837 47.622 59.6069 44.3059 56.8397C44.2814 56.8178 44.2569 56.7958 44.2323 56.7739C44.0716 56.6397 43.9163 56.4999 43.7637 56.3602C43.6901 56.2917 43.6138 56.2232 43.543 56.1547C43.434 56.0506 43.3304 55.9465 43.2269 55.8397C43.0825 55.6944 42.9408 55.5438 42.8018 55.3931C42.7119 55.2944 42.622 55.1958 42.5348 55.0944C42.4503 55.0013 42.3713 54.9026 42.2895 54.8068C42.2023 54.6972 42.1124 54.5903 42.0279 54.4807C41.9625 54.3958 41.8972 54.3136 41.8345 54.2287C41.7037 54.056 41.5783 53.8807 41.4557 53.7054C41.4394 53.6807 41.423 53.6588 41.4067 53.6341C39.6682 51.0834 38.6846 48.0559 38.5183 44.9325C38.5156 44.886 38.5129 44.8394 38.5129 44.7955C38.502 44.5517 38.4938 44.3079 38.4938 44.0613C38.4938 44.0339 38.4938 44.0037 38.4938 43.9736C38.4938 43.3517 38.5238 42.7325 38.581 42.1133C38.581 42.1105 38.581 42.1078 38.581 42.1051C38.7581 40.2091 39.2023 38.3324 39.8699 36.5652C41.1778 33.0966 43.5103 29.9842 46.5348 27.8609C49.573 25.7266 53.1943 24.6033 56.892 24.6498C60.6849 24.6992 64.3826 26.0225 67.3772 28.3677C70.3799 30.7185 72.6416 34.0008 73.7887 37.6502C74.8351 40.9735 74.8895 44.4339 74.2192 47.8367C73.9876 49.0039 73.6961 50.1601 73.3418 51.2971C73.1484 51.9163 72.9386 52.53 72.7069 53.1355C72.6497 53.2889 72.5898 53.4396 72.5271 53.593C72.4971 53.6697 72.4672 53.7437 72.4345 53.8204C72.4208 53.8533 72.4072 53.8862 72.3963 53.9191C72.3881 53.9328 72.3881 53.9382 72.3854 53.941C72.3827 53.9465 72.38 53.9547 72.3745 53.9656C72.241 54.2862 72.0993 54.6013 71.9522 54.9163C71.3554 56.1903 70.6606 57.4178 69.8568 58.5712C69.0747 59.6918 68.121 60.7959 67.0284 61.785C64.7068 63.8892 61.7994 65.2673 58.6413 65.8289C54.8838 66.4975 50.7801 66.0865 47.1724 64.7495C43.7473 63.4809 40.7391 61.2617 38.4393 58.4178C36.1341 55.5602 34.63 52.0779 33.9297 48.4669C33.1668 44.5462 33.3629 40.4119 34.4256 36.5652C35.4474 32.861 37.3303 29.4116 39.9543 26.6115C42.4557 23.943 45.5839 21.8827 49.0226 20.6826C52.5513 19.4497 56.3933 19.0579 60.0937 19.6497C63.7667 20.236 67.2654 21.7922 70.1647 24.1375C73.1375 26.5458 75.4727 29.6637 77.0503 33.1569C78.7016 36.8063 79.4591 40.853 79.3556 44.8558C79.331 45.8421 79.2738 46.8257 79.0913 47.7847C78.8951 48.8313 78.6035 49.8614 78.2738 50.8751C77.6089 52.9108 76.7779 54.8917 75.8732 56.8315C75.4863 57.6644 74.9222 58.5274 74.786 59.4452C74.6198 60.5658 74.9904 61.7192 75.8133 62.5028C75.816 62.5056 75.8187 62.5083 75.8214 62.5111C76.925 63.5029 78.0313 64.4919 79.1376 65.481C81.7344 67.8071 84.3339 70.1359 86.9334 72.462C89.947 75.1607 92.9607 77.8594 95.9744 80.5581C96.9826 81.4595 97.988 82.3609 98.9935 83.2622C100.173 84.3198 101.353 85.3746 102.53 86.4295C103.348 87.161 104.168 87.8898 104.983 88.624C104.983 88.6268 104.983 88.6268 104.985 88.6268C105.015 88.6542 105.048 88.6816 105.078 88.7117C105.28 88.9007 105.402 89.1418 105.416 89.3939C105.416 89.4049 105.419 89.4158 105.416 89.4268C105.416 89.4323 105.416 89.4377 105.416 89.4432C105.391 89.7446 105.201 90.0268 104.983 90.2789C104.699 90.6076 104.413 90.9364 104.13 91.2652C104.013 91.3994 103.896 91.5364 103.778 91.6707C103.754 91.7008 103.729 91.7282 103.705 91.7556C103.44 92.0625 103.152 92.3474 102.792 92.3748C102.77 92.3775 102.751 92.3775 102.729 92.3775C102.721 92.3775 102.713 92.3748 102.705 92.3748C102.479 92.3556 102.266 92.2488 102.078 92.0871C101.994 92.0131 101.909 91.9392 101.827 91.8625C101.811 91.8488 101.795 91.8323 101.778 91.8186C101.38 91.4624 100.98 91.1035 100.579 90.7474C100.015 90.2432 99.454 89.7391 98.89 89.235C97.3068 87.8213 95.7264 86.4075 94.146 84.9938C91.165 82.328 88.1813 79.6622 85.2004 76.9963C84.7998 76.6374 84.3993 76.2785 83.996 75.9196C82.6308 74.6977 81.2657 73.4784 79.9005 72.2565C79.2493 71.6729 78.5981 71.0921 77.9468 70.5085C77.6062 70.2044 77.2683 69.9003 76.9277 69.5989C76.9196 69.5907 76.9087 69.5797 76.8978 69.5715C75.3609 68.1989 73.8241 66.8235 72.2873 65.4481C72.2192 65.3878 72.1484 65.3248 72.0775 65.2618C71.35 64.6097 70.2709 65.6865 71.0039 66.344C71.6007 66.8783 72.1974 67.4125 72.7941 67.9468C73.0339 68.1578 73.271 68.3715 73.5108 68.5852C73.7914 68.8372 74.0721 69.0893 74.3555 69.3414C76.9686 71.6784 79.5844 74.0182 82.2003 76.3552C82.5055 76.6292 82.8134 76.9032 83.1186 77.1772C83.2575 77.3005 83.3965 77.4265 83.5355 77.5498C83.8216 77.8046 84.1077 78.0621 84.3938 78.3169C86.729 80.4046 89.0642 82.4924 91.3967 84.5801C91.4375 84.6157 91.4757 84.6513 91.5165 84.6842C93.0316 86.0404 94.5466 87.3966 96.0643 88.7528C96.7155 89.3364 97.3695 89.9199 98.0207 90.5035C98.2578 90.7145 98.4921 90.9227 98.7265 91.1337C99.048 91.4214 99.3723 91.709 99.6938 91.9967C99.8164 92.109 99.9418 92.2186 100.064 92.331C100.274 92.5173 100.484 92.7063 100.694 92.8926C100.822 93.0077 100.945 93.12 101.073 93.2324C101.917 93.9639 103.127 94.1474 104.086 93.5036C104.119 93.4817 104.146 93.4543 104.179 93.4324C104.225 93.3967 104.274 93.3611 104.321 93.3228C104.737 92.9748 105.075 92.4981 105.427 92.0899C105.743 91.7255 106.097 91.3666 106.391 90.9748C106.435 90.9172 106.476 90.8624 106.514 90.8022C106.528 90.783 106.544 90.7665 106.555 90.7446C106.566 90.7309 106.574 90.7145 106.582 90.7008C106.593 90.6843 106.604 90.6706 106.612 90.6542C106.62 90.6432 106.623 90.6296 106.631 90.6159C106.827 90.2679 106.923 89.8953 106.928 89.5227C106.945 89.1035 106.857 88.6761 106.658 88.2925ZM1.55585 29.4965C1.55585 28.513 0.0353903 28.5102 0.0353903 29.4965C0.0353903 30.7705 0.0353903 32.0445 0.0353903 33.3186C0.0353903 36.3762 0.0353903 39.4338 0.0353903 42.4886C0.0353903 46.1737 0.0353903 49.8559 0.0353903 53.541C0.0353903 56.7246 0.0353903 59.9082 0.0353903 63.0946C0.0353903 64.6453 -0.0191066 66.2043 0.0353903 67.755C0.0353903 67.7769 0.0353903 67.7961 0.0353903 67.818C0.0353903 68.8044 1.55585 68.8044 1.55585 67.818C1.55585 66.5468 1.55585 65.2728 1.55585 63.9988C1.55585 60.9411 1.55585 57.8835 1.55585 54.8259C1.55585 51.1436 1.55585 47.4586 1.55585 43.7763C1.55585 40.5927 1.55585 37.4063 1.55585 34.2227C1.55585 32.672 1.60762 31.113 1.55585 29.5623C1.55585 29.5404 1.55585 29.5185 1.55585 29.4965ZM36.3085 9.70975C38.0388 10.8111 40.0225 11.4797 42.0634 11.6687C45.7828 12.0167 49.4477 10.9372 52.4941 8.78644C55.4478 6.69872 57.6985 3.70138 59.1945 0.419109C59.4996 -0.2494 60.7095 0.0574567 60.6114 0.802681C60.546 1.31228 60.5269 1.83558 60.5977 2.34244C60.9057 4.53976 62.5133 6.36446 64.2354 7.62751C66.3172 9.15357 68.7914 10.1152 71.2955 10.6605C73.8759 11.2194 76.5953 11.2331 79.124 10.4248C79.3665 10.3454 79.6063 10.2577 79.8433 10.1673C79.9605 8.56452 80.2493 6.98366 80.6798 5.48499C81.0668 4.14249 81.5518 2.65752 82.669 1.74243C83.7698 0.843777 85.4238 0.594456 86.5655 1.55886C87.5655 2.40546 87.62 3.86577 87.2712 5.04114C86.8952 6.30419 86.0805 7.43572 85.1949 8.38643C84.1022 9.5618 82.7643 10.5043 81.312 11.1947C81.2139 15.1839 82.342 19.3018 85.2331 22.1155C88.1677 24.9759 92.8626 26.4663 96.7183 24.6553C97.4949 24.2882 98.236 25.1923 97.6393 25.8554C95.7428 27.965 93.8436 30.0883 92.274 32.4583C90.9253 34.4939 89.8244 36.7132 89.3067 39.116C88.8707 41.1324 88.8843 43.2558 89.2849 45.2777C90.1078 49.4148 92.4811 53.256 96.0153 55.5794C96.8327 56.1164 96.0698 57.4397 95.2496 56.9C93.0861 55.478 91.2849 53.5519 89.9688 51.3163C87.6554 47.3819 86.8271 42.516 87.9933 38.0694C89.1241 33.7514 91.8381 30.1623 94.7291 26.8389C90.2004 27.565 85.4783 25.2362 82.7725 21.6005C80.6798 18.7922 79.797 15.3071 79.7861 11.8084C79.3147 11.9673 78.8378 12.1098 78.3555 12.2167C75.3364 12.8934 72.1647 12.5948 69.2246 11.7016C66.5543 10.8879 63.9684 9.63304 61.9384 7.67682C60.7394 6.52063 59.7558 5.07676 59.3062 3.48494C58.6222 4.63291 57.8429 5.72061 56.971 6.73433C54.4342 9.68509 51.039 11.9619 47.2324 12.8331C43.2895 13.74 38.9897 13.2276 35.5401 11.0303C34.7145 10.5043 35.4774 9.18097 36.3085 9.70975ZM81.4373 9.41385C82.688 8.70698 83.8134 7.7782 84.6908 6.63844C85.3093 5.83568 85.9252 4.85484 85.9497 3.80275C85.9715 2.89588 85.3557 2.26299 84.3938 2.52601C83.2603 2.83013 82.7398 4.0466 82.4019 5.0658C82.0041 6.26309 81.7126 7.50148 81.5218 8.75082C81.4891 8.97001 81.4646 9.19193 81.4373 9.41385Z" fill="#F8AC7A"/>
</g>
<mask id="mask1_34_1626" style="mask-type:luminance" maskUnits="userSpaceOnUse" x="12" y="17" width="95" height="83">
<path d="M12.5561 17.5349H106.969V100H12.5561V17.5349Z" fill="white"/>
</mask>
<g mask="url(#mask1_34_1626)">
<path d="M31.363 30.2856C29.6708 30.2856 27.9787 30.2829 26.2866 30.2801C25.9514 30.2801 25.619 30.2774 25.2838 30.2774C22.7061 30.2719 20.1257 30.2582 17.5453 30.2637C17.1992 30.2637 16.8695 30.324 16.5643 30.4308C16.5235 30.4445 16.4826 30.4582 16.4417 30.4719C16.4254 30.4801 16.4117 30.4884 16.3954 30.4938C15.5916 30.8336 14.9894 31.5213 14.7741 32.3925C14.7196 32.6144 14.6896 32.8446 14.6869 33.0857C14.6869 33.1843 14.6869 33.2857 14.6869 33.3871C14.6869 34.2337 14.6869 35.0803 14.6869 35.9268C14.6869 36.3597 14.6869 36.7926 14.6869 37.2255C14.6869 38.9461 14.6869 40.6667 14.6869 42.3845C14.6869 43.0695 14.6869 43.7517 14.6869 44.4339C14.6869 46.7271 14.6869 49.0176 14.6869 51.3081C14.6869 52.1546 14.6869 52.9985 14.6869 53.8451C14.6869 56.4479 14.6869 59.0507 14.6869 61.6535C14.6869 62.5713 14.6869 63.4864 14.6869 64.4043C14.6869 67.029 14.6869 69.6565 14.6869 72.2812C14.6869 73.1634 14.6869 74.0429 14.6869 74.9251C14.6869 77.2977 14.6869 79.6731 14.6869 82.0458C14.6869 82.8075 14.6869 83.5691 14.6869 84.328C14.6869 86.1829 14.6869 88.035 14.6869 89.8871C14.6869 90.4351 14.6869 90.9803 14.6869 91.5255C14.6869 92.5913 14.6869 93.6543 14.6869 94.7174C14.6869 94.9283 14.6869 95.1393 14.6869 95.3502C14.6869 95.4489 14.6869 95.5448 14.6869 95.6434C14.6896 95.9174 14.7278 96.1804 14.7986 96.4325C14.9921 97.1092 15.4226 97.6791 16.003 98.0435C16.4172 98.3065 16.9077 98.4626 17.4445 98.4709C18.3954 98.4846 18.4199 99.9284 17.518 99.9942C17.4935 99.9942 17.469 99.9997 17.4445 99.9997C16.2809 99.9832 15.1556 99.512 14.3572 98.6654C14.3572 98.6654 14.3572 98.6654 14.3572 98.6627C14.2891 98.5914 14.221 98.5229 14.1583 98.4462C14.1229 98.4024 14.0956 98.3613 14.0629 98.3174C13.7659 97.9202 13.5452 97.4955 13.4008 97.0434C13.4008 97.038 13.3981 97.0352 13.3981 97.0325C13.3899 97.0106 13.3872 96.9886 13.3817 96.9695C13.2346 96.4845 13.1665 95.9777 13.1665 95.4516C13.1665 95.3749 13.1665 95.3009 13.1665 95.2242C13.1665 94.8598 13.1665 94.4927 13.1665 94.1283C13.1665 94.1201 13.1665 94.1119 13.1665 94.1009C13.1665 92.2598 13.1665 90.4159 13.1665 88.572C13.1665 88.5556 13.1665 88.5391 13.1665 88.5227C13.1665 85.7171 13.1665 82.9116 13.1665 80.106C13.1665 80.0814 13.1665 80.0595 13.1665 80.0375C13.1665 76.6539 13.1665 73.2702 13.1665 69.8866C13.1665 69.8592 13.1665 69.8345 13.1665 69.8099C13.1665 66.2317 13.1665 62.6535 13.1665 59.0726C13.1665 59.048 13.1665 59.0233 13.1665 58.9987C13.1665 55.6095 13.1665 52.2204 13.1665 48.8285C13.1665 48.8066 13.1665 48.7847 13.1665 48.7628C13.1665 45.9381 13.1665 43.1133 13.1665 40.2886C13.1665 40.2776 13.1665 40.2694 13.1665 40.2612C13.1665 38.3981 13.1665 36.5351 13.1665 34.6693C13.1665 34.0419 13.1447 33.4117 13.1964 32.798C13.1991 32.7761 13.2019 32.7514 13.2046 32.7295C13.21 32.6665 13.2155 32.6035 13.2237 32.5405C13.2291 32.4994 13.2346 32.4583 13.24 32.4199C13.2482 32.3733 13.2536 32.3268 13.2591 32.2829C13.27 32.2281 13.2809 32.1733 13.2918 32.1185C13.2972 32.0884 13.3027 32.0583 13.3081 32.0254C13.3245 31.9624 13.3408 31.8966 13.3572 31.8336C13.3626 31.8117 13.3654 31.7925 13.3708 31.7733C13.3926 31.7021 13.4144 31.6309 13.4389 31.5596C13.4417 31.5487 13.4471 31.535 13.4498 31.524C13.4744 31.4582 13.4989 31.3925 13.5261 31.3267C13.5343 31.3103 13.5398 31.2939 13.5452 31.2747C13.5725 31.2144 13.6024 31.1514 13.6324 31.0884C13.6433 31.0692 13.6515 31.05 13.6596 31.0308C13.6923 30.9651 13.7305 30.9021 13.7686 30.8363C13.7795 30.8226 13.785 30.8062 13.7932 30.7925C13.8422 30.713 13.894 30.6336 13.9512 30.5569C14.0466 30.4226 14.1501 30.2938 14.2591 30.1733C14.2782 30.1514 14.3027 30.1322 14.3218 30.1103C15.082 29.2993 16.112 28.8006 17.2401 28.7376C18.5644 28.6637 19.9104 28.7376 21.2347 28.7404C24.6108 28.7486 27.9869 28.7541 31.363 28.7568C32.3439 28.7568 32.3412 30.2884 31.363 30.2856ZM61.6823 60.7877C61.6605 60.7987 61.6387 60.8069 61.6169 60.8179C61.6332 60.8097 61.6496 60.8042 61.6659 60.796C61.6714 60.7932 61.6768 60.7905 61.6823 60.7877ZM77.9469 70.5085C78.5981 71.0921 79.2493 71.6757 79.9006 72.2565C78.9087 71.3716 77.9196 70.4839 76.9278 69.5989C77.2684 69.903 77.6063 70.2044 77.9469 70.5085ZM72.7942 67.9468C73.034 68.1605 73.271 68.3715 73.5108 68.5852C72.6743 67.8372 71.8378 67.092 71.004 66.344C71.6007 66.8783 72.1974 67.4126 72.7942 67.9468ZM106.555 90.7474C106.566 90.7309 106.574 90.7145 106.582 90.7008C106.56 90.7364 106.539 90.7693 106.514 90.8049C106.528 90.7857 106.544 90.7666 106.555 90.7474ZM96.0643 88.7528C96.7156 89.3364 97.3695 89.92 98.0208 90.5035C95.8518 88.5638 93.6828 86.624 91.5166 84.687C93.0316 86.0432 94.5466 87.3966 96.0643 88.7528ZM83.1186 77.1772C83.5437 77.558 83.9688 77.9389 84.3938 78.3197C84.1077 78.0621 83.8216 77.8073 83.5355 77.5498C83.3966 77.4265 83.2576 77.3032 83.1186 77.1772ZM76.7043 29.2828C74.5953 25.9129 71.7206 23.0169 68.2982 21.0032C64.8376 18.9648 60.8948 17.9072 56.8893 17.8634C52.9573 17.8223 49.0417 18.7374 45.5321 20.5237C42.0471 22.2991 39.0361 24.9403 36.7581 28.1267C34.3521 31.4911 32.8289 35.472 32.254 39.5653C31.6763 43.6832 31.9461 47.9244 33.2431 51.8861C34.4475 55.5575 36.5047 58.9521 39.3113 61.6042C42.1751 64.3111 45.7528 66.1988 49.5867 67.0564C53.4751 67.9276 57.7122 67.9276 61.5242 66.6893C64.6306 65.681 67.4044 63.8316 69.5707 61.3823C71.5571 59.1356 73.0285 56.4972 74.1103 53.7054C74.985 51.4533 75.6008 49.0943 75.9496 46.7025C76.5626 42.4996 75.9714 38.242 74.1321 34.409C72.3882 30.7733 69.5407 27.6609 66.0611 25.6471C62.5515 23.6142 58.4206 22.7621 54.3988 23.2553C50.4995 23.7348 46.8455 25.3896 43.9054 28.0143C40.8945 30.6993 38.7745 34.3268 37.7391 38.2255C37.4094 39.4721 37.1887 40.7516 37.0715 42.0421C37.1342 41.6612 37.4039 41.3489 37.8208 41.3489C38.2023 41.3489 38.611 41.6969 38.5811 42.1051C38.7582 40.2091 39.2023 38.3351 39.8699 36.5652C41.1778 33.0966 43.5103 29.9842 46.5349 27.8609C49.5731 25.7266 53.1944 24.6033 56.892 24.6499C60.685 24.6992 64.3826 26.0225 67.3772 28.3678C70.38 30.7212 72.6416 34.0008 73.7888 37.6502C74.8351 40.9735 74.8896 44.4366 74.2193 47.8367C73.9877 49.0039 73.6961 50.1628 73.3419 51.2971C73.1484 51.9163 72.9386 52.53 72.707 53.1355C72.647 53.2889 72.5898 53.4396 72.5272 53.593C72.4972 53.6698 72.4672 53.7465 72.4345 53.8204C72.4209 53.8533 72.4073 53.8862 72.3936 53.9191C72.3882 53.9328 72.3882 53.9383 72.3855 53.941C72.3827 53.9465 72.38 53.9547 72.3746 53.9657C72.241 54.2862 72.0994 54.6013 71.9522 54.9164C71.3555 56.1904 70.6606 57.4178 69.8568 58.5712C69.0748 59.6918 68.1211 60.796 67.0284 61.7878C64.7069 63.8892 61.7994 65.27 58.6414 65.829C54.8838 66.5002 50.7802 66.0865 47.1725 64.7495C43.7474 63.481 40.7391 61.2617 38.4394 58.4178C36.1342 55.5602 34.63 52.0779 33.9298 48.4669C33.1668 44.5462 33.363 40.4119 34.4257 36.5652C35.4475 32.861 37.3304 29.4116 39.9544 26.6115C42.4558 23.9457 45.5839 21.8827 49.0227 20.6826C52.5513 19.4497 56.3934 19.0579 60.0937 19.6497C63.7668 20.236 67.2655 21.7923 70.1647 24.1375C73.1375 26.5485 75.4727 29.6637 77.0504 33.1569C78.7016 36.8091 79.4592 40.853 79.3556 44.8558C79.3311 45.8422 79.2739 46.8257 79.0913 47.7847C78.8951 48.8313 78.6036 49.8614 78.2738 50.8752C77.609 52.9108 76.7779 54.8917 75.8733 56.8315C75.4863 57.6644 74.9223 58.5274 74.786 59.4452C74.6198 60.5658 74.9904 61.7193 75.8133 62.5056C75.0967 61.848 76.1703 60.7795 76.8951 61.4289C76.9714 61.4973 77.0477 61.5658 77.1212 61.6343C77.7262 62.1741 78.3283 62.7138 78.9333 63.2536C78.3147 62.7001 77.6962 62.1467 77.0804 61.596C76.4537 61.0343 76.0858 60.2727 76.3447 59.4124C76.4618 59.0233 76.688 58.6562 76.8624 58.2918C77.0749 57.8479 77.282 57.4041 77.4836 56.9575C77.9523 55.9273 78.3992 54.889 78.8134 53.8369C79.6226 51.793 80.3638 49.6697 80.6772 47.4833C80.9823 45.338 80.9524 43.1161 80.7099 40.9653C80.2439 36.8337 78.9115 32.809 76.7043 29.2828ZM100.579 90.7474C100.015 90.2433 99.454 89.7391 98.89 89.2378C99.484 89.7693 100.078 90.3008 100.675 90.8323C101.059 91.1748 101.44 91.5228 101.825 91.8652C101.811 91.8488 101.795 91.8324 101.778 91.8186C101.378 91.4625 100.98 91.1063 100.579 90.7474ZM102.792 92.3776C102.906 92.3748 103.024 92.3502 103.141 92.2954C103.4 92.1721 103.593 91.8871 103.778 91.6734C103.754 91.7008 103.729 91.7282 103.705 91.7584C103.44 92.0625 103.152 92.3474 102.792 92.3776ZM99.6938 91.9995C99.8165 92.1091 99.9418 92.2214 100.064 92.331C100.274 92.52 100.484 92.7063 100.694 92.8954C100.694 92.8926 100.691 92.8899 100.688 92.8899C100.356 92.5913 100.024 92.2954 99.6938 91.9995ZM104.934 92.6598C104.694 92.9365 104.468 93.2132 104.176 93.4324C104.225 93.3968 104.274 93.3639 104.321 93.3228C104.738 92.9748 105.075 92.4981 105.427 92.0899C105.74 91.7255 106.097 91.3666 106.392 90.9748C106.228 91.1803 106.045 91.3748 105.879 91.5666C105.563 91.931 105.25 92.2954 104.934 92.6598ZM105.299 89.8844C105.381 89.7391 105.416 89.5912 105.416 89.4432C105.391 89.7446 105.201 90.0268 104.983 90.2789C104.699 90.6077 104.413 90.9364 104.13 91.2652C104.332 91.0296 104.536 90.7967 104.738 90.5611C104.923 90.3474 105.157 90.1337 105.299 89.8844ZM104.983 88.6268C104.168 87.8898 103.348 87.161 102.53 86.4295C101.353 85.3747 100.173 84.3198 98.9936 83.265C100.345 84.4733 101.697 85.6842 103.048 86.8925C103.637 87.4185 104.225 87.9473 104.811 88.4734C104.868 88.5254 104.926 88.5747 104.983 88.6268ZM106.631 90.6159C106.827 90.2679 106.923 89.8953 106.928 89.5254C106.915 89.9035 106.817 90.2789 106.631 90.6159ZM83.8462 67.6537C85.6091 69.2318 87.3721 70.8099 89.1351 72.388C87.819 71.2127 86.5029 70.0345 85.1895 68.8564C84.7399 68.4564 84.293 68.0564 83.8462 67.6537ZM91.6665 74.6566C91.4212 74.4374 91.176 74.2155 90.928 73.9963C93.3695 76.1799 95.8082 78.3663 98.2469 80.5499C98.2142 80.5197 98.1788 80.4896 98.1461 80.4595C95.9853 78.5252 93.8272 76.5909 91.6665 74.6566Z" fill="#9AD4EA"/>
</g>
<mask id="mask2_34_1626" style="mask-type:luminance" maskUnits="userSpaceOnUse" x="5" y="21" width="102" height="73">
<path d="M5.58047 21.042H106.969V93.9863H5.58047V21.042Z" fill="white"/>
</mask>
<g mask="url(#mask2_34_1626)">
<path d="M34.4039 23.2503C33.7226 23.2476 33.0414 23.2476 32.3602 23.2476C28.273 23.2448 24.1857 23.2393 20.0984 23.2366C16.8831 23.2339 13.6678 23.1873 10.4552 23.2256C8.90205 23.2421 7.7004 24.4942 7.69222 26.0449C7.6895 26.3709 7.69222 26.6942 7.69222 27.0175C7.69222 28.7271 7.69222 30.434 7.69222 32.1437C7.69222 34.8752 7.69222 37.6068 7.69222 40.3384C7.69222 43.6261 7.69222 46.9112 7.69222 50.1989C7.69222 53.5716 7.69222 56.9443 7.69222 60.3142C7.69222 63.3033 7.69222 66.2925 7.69222 69.2816C7.69222 71.4186 7.69222 73.5557 7.69222 75.6927C7.69222 76.5092 7.69222 77.3284 7.69222 78.1448C7.69222 79.1284 6.16904 79.1284 6.16904 78.1448C6.16904 78.09 6.16904 78.038 6.16904 77.9832C6.16904 76.7859 6.16904 75.5858 6.16904 74.3858C6.16904 71.9666 6.16904 69.5473 6.16904 67.1308C6.16904 63.9582 6.16904 60.7855 6.16904 57.6155C6.16904 54.1826 6.16904 50.7496 6.16904 47.3167C6.16904 44.1166 6.16904 40.9192 6.16904 37.7192C6.16904 35.2232 6.16904 32.7245 6.16904 30.2286C6.16904 28.9107 6.16904 27.5956 6.16904 26.2778C6.16904 25.2969 6.37067 24.3325 6.95379 23.5188C7.70312 22.4777 8.82031 21.842 10.0874 21.7133C10.6569 21.6557 11.2509 21.6968 11.8231 21.6968C15.6052 21.7023 19.3845 21.7051 23.1666 21.7105C26.9133 21.7133 30.6572 21.716 34.4039 21.7188C35.3848 21.7215 35.3821 23.2503 34.4039 23.2503ZM106.659 88.293C106.375 87.7396 105.827 87.3368 105.372 86.9313C103.397 85.1614 101.421 83.3915 99.4458 81.6216C99.0453 81.2654 98.6475 80.9065 98.2469 80.5503C95.8082 78.3667 93.3695 76.1804 90.928 73.9968C90.7972 73.8789 90.6637 73.7611 90.5329 73.6406C90.0669 73.2241 89.601 72.8077 89.135 72.3885C87.3721 70.8104 85.6091 69.2323 83.8461 67.6541C83.2085 67.0843 82.5709 66.5116 81.9333 65.9418C80.9333 65.0459 79.9333 64.1499 78.9305 63.254C78.3283 62.7143 77.7261 62.1746 77.1212 61.6348C77.0476 61.5663 76.9714 61.4978 76.8951 61.4293C76.1702 60.78 75.0967 61.8485 75.8133 62.5061C75.816 62.5061 75.816 62.5088 75.8187 62.5115C76.925 63.5034 78.0313 64.4924 79.1376 65.4815C81.7344 67.8103 84.3339 70.1364 86.9306 72.4625C89.947 75.1612 92.9607 77.8599 95.9744 80.5613C96.9799 81.4627 97.9881 82.3641 98.9935 83.2655C100.345 84.4737 101.697 85.6847 103.048 86.893C103.637 87.419 104.222 87.9478 104.811 88.4738C104.868 88.5259 104.926 88.5752 104.983 88.6273C105.015 88.6547 105.048 88.6821 105.078 88.7122C105.28 88.9012 105.402 89.1423 105.416 89.3944C105.416 89.4054 105.416 89.4163 105.416 89.4273C105.416 89.4328 105.416 89.4382 105.416 89.4437C105.416 89.5917 105.381 89.7396 105.299 89.8848C105.157 90.1341 104.923 90.3478 104.737 90.5643C104.536 90.7972 104.331 91.0301 104.13 91.2657C104.013 91.3999 103.896 91.5369 103.778 91.6739C103.593 91.8876 103.4 92.1726 103.141 92.2958C103.024 92.3506 102.906 92.3753 102.792 92.378C102.77 92.378 102.751 92.378 102.729 92.378C102.721 92.378 102.713 92.3753 102.705 92.3753C102.479 92.3561 102.266 92.2493 102.078 92.0876C101.994 92.0136 101.909 91.9397 101.825 91.8657C101.44 91.5232 101.059 91.1753 100.675 90.8328C100.078 90.3013 99.484 89.7698 98.89 89.2382C97.3068 87.8218 95.7264 86.408 94.146 84.9943C91.1623 82.3285 88.1814 79.6627 85.2004 76.9968C84.7998 76.6379 84.3993 76.279 83.996 75.9201C82.6308 74.6981 81.2657 73.4789 79.9006 72.257C78.9087 71.372 77.9196 70.4843 76.9277 69.5994C76.9168 69.5912 76.9087 69.583 76.8978 69.572C75.361 68.1994 73.8242 66.824 72.2873 65.4513C72.2192 65.3883 72.1484 65.3253 72.0775 65.2623C71.35 64.6102 70.2682 65.6897 71.0039 66.3445C71.8377 67.0925 72.6743 67.8377 73.5081 68.5857C73.7915 68.8377 74.0721 69.0898 74.3528 69.3419C76.9686 71.6789 79.5845 74.0187 82.2003 76.3557C82.5055 76.6297 82.8134 76.9037 83.1186 77.1777C83.5437 77.5585 83.9687 77.9393 84.3938 78.3174C86.729 80.4051 89.0642 82.4929 91.3967 84.5806C91.4375 84.6162 91.4757 84.6518 91.5166 84.6874C93.6828 86.6245 95.8518 88.5642 98.0208 90.504C98.2578 90.715 98.4922 90.9259 98.7265 91.1342C99.048 91.4219 99.3696 91.7123 99.6938 91.9999C100.024 92.2958 100.356 92.5917 100.688 92.8876C100.691 92.8904 100.694 92.8931 100.694 92.8959C100.822 93.0082 100.945 93.1233 101.073 93.2328C101.915 93.9644 103.127 94.1507 104.084 93.5041C104.119 93.4822 104.146 93.4575 104.176 93.4329C104.468 93.2137 104.694 92.937 104.934 92.6602C105.25 92.2958 105.563 91.9314 105.879 91.5671C106.045 91.3753 106.228 91.1807 106.391 90.9753C106.435 90.9205 106.476 90.8629 106.514 90.8054C106.539 90.7698 106.56 90.7369 106.582 90.7013C106.59 90.6848 106.604 90.6711 106.612 90.6547C106.618 90.6437 106.623 90.6301 106.631 90.6163C106.817 90.2766 106.915 89.904 106.928 89.5259C106.945 89.104 106.857 88.6766 106.659 88.293Z" fill="#F8AC7A"/>
</g>
<mask id="mask3_34_1626" style="mask-type:luminance" maskUnits="userSpaceOnUse" x="0" y="28" width="68" height="72">
<path d="M0 28.7573H67.6633V100H0V28.7573Z" fill="white"/>
</mask>
<g mask="url(#mask3_34_1626)">
<path d="M65.753 70.3665C65.7339 72.0104 65.7148 73.6515 65.6985 75.2954C65.6603 78.6845 65.6222 82.0764 65.5868 85.4655C65.5541 88.345 65.5214 91.2246 65.4914 94.1013C65.4859 94.6301 65.4832 95.1589 65.4723 95.6877C65.4478 97.2439 64.2271 98.4576 62.6793 98.4713C61.4886 98.4823 60.2978 98.4713 59.1071 98.4713C56.4531 98.4713 53.8018 98.4713 51.1478 98.4713C47.7499 98.4713 44.3521 98.4713 40.9542 98.4713C37.4855 98.4713 34.0195 98.4713 30.5534 98.4713C27.7387 98.4713 24.9266 98.4713 22.1119 98.4713C20.635 98.4713 19.1582 98.4713 17.6813 98.4713C17.0764 98.4713 16.496 98.3371 16.0028 98.0439C16.417 98.3069 16.9074 98.4631 17.4442 98.4713C18.3952 98.485 18.4197 99.9289 17.5178 99.9946C17.5614 99.9946 17.6023 100 17.6459 100C18.1636 100 18.684 100 19.2018 100C21.4552 100 23.7086 100 25.9621 100C29.2319 100 32.5044 100 35.7743 100C39.3247 100 42.8725 100 46.4229 100C49.5538 100 52.6819 100 55.8127 100C57.7855 100 59.7583 100 61.7311 100C62.0581 100 62.3823 100.006 62.7066 100C65.0745 99.9727 66.9492 98.0658 66.9955 95.6959C67.0255 93.9698 67.0309 92.2438 67.05 90.5204C67.0881 87.0628 67.1263 83.6052 67.1644 80.1503C67.1971 77.3256 67.2271 74.5009 67.2571 71.6789C67.2625 71.2405 67.268 70.8049 67.2734 70.3665C67.2843 69.3829 65.7639 69.3802 65.753 70.3665ZM1.55567 29.497C1.55567 28.5134 0.0352072 28.5107 0.0352072 29.497C0.0352072 30.771 0.0352072 32.045 0.0352072 33.319C0.0352072 36.3766 0.0352072 39.4342 0.0352072 42.4891C0.0352072 46.1741 0.0352072 49.8564 0.0352072 53.5414C0.0352072 56.7251 0.0352072 59.9087 0.0352072 63.0951C0.0352072 64.6458 -0.0192897 66.2048 0.0352072 67.7555C0.0352072 67.7774 0.0352072 67.7966 0.0352072 67.8185C0.0352072 68.8048 1.55567 68.8048 1.55567 67.8185C1.55567 66.5472 1.55567 65.2732 1.55567 63.9992C1.55567 60.9416 1.55567 57.884 1.55567 54.8264C1.55567 51.1441 1.55567 47.4591 1.55567 43.7768C1.55567 40.5932 1.55567 37.4068 1.55567 34.2232C1.55567 32.6724 1.60744 31.1135 1.55567 29.5628C1.55567 29.5409 1.55567 29.5189 1.55567 29.497Z" fill="white"/>
</g>
<path d="M23.5481 65.3664C26.45 65.3664 29.3493 65.3664 32.2512 65.3664C34.0714 65.3664 35.8916 65.3664 37.7118 65.3664C38.6928 65.3664 38.69 66.8979 37.7118 66.8979C37.0469 66.8979 36.3821 66.8979 35.72 66.8979C32.818 66.8979 29.9188 66.8979 27.0168 66.8979C25.1966 66.8979 23.3764 66.8979 21.5562 66.8979C20.578 66.8979 20.578 65.3664 21.5562 65.3664C22.2211 65.3664 22.8859 65.3664 23.5481 65.3664ZM21.5562 54.6566C23.8233 54.6566 26.0904 54.6566 28.3547 54.6566C28.679 54.6566 29.0005 54.6566 29.3247 54.6566C30.303 54.6566 30.3057 53.1277 29.3247 53.1277C27.0577 53.1277 24.7906 53.1277 22.5263 53.1277C22.202 53.1277 21.8805 53.1277 21.5562 53.1277C20.578 53.1277 20.5753 54.6566 21.5562 54.6566ZM21.5562 42.4152C23.559 42.4152 25.5617 42.4152 27.5618 42.4152C27.8452 42.4152 28.1285 42.4152 28.4119 42.4152C29.3901 42.4152 29.3929 40.8863 28.4119 40.8863C26.4092 40.8863 24.4091 40.8863 22.4064 40.8863C22.123 40.8863 21.8396 40.8863 21.5562 40.8863C20.578 40.8863 20.5753 42.4152 21.5562 42.4152ZM21.5562 48.5359C23.559 48.5359 25.5617 48.5359 27.5618 48.5359C27.8452 48.5359 28.1285 48.5359 28.4119 48.5359C29.3901 48.5359 29.3929 47.007 28.4119 47.007C26.4092 47.007 24.4091 47.007 22.4064 47.007C22.123 47.007 21.8396 47.007 21.5562 47.007C20.578 47.007 20.5753 48.5359 21.5562 48.5359ZM60.4261 83.7285C59.1345 83.7285 57.8402 83.7285 56.5486 83.7285C53.456 83.7285 50.366 83.7285 47.276 83.7285C43.5375 83.7285 39.799 83.7285 36.0606 83.7285C32.818 83.7285 29.5754 83.7285 26.3356 83.7285C24.7688 83.7285 23.1911 83.6737 21.6243 83.7285C21.6025 83.7285 21.578 83.7285 21.5562 83.7285C20.578 83.7285 20.578 85.2573 21.5562 85.2573C22.8505 85.2573 24.1421 85.2573 25.4364 85.2573C28.5264 85.2573 31.6163 85.2573 34.709 85.2573C38.4475 85.2573 42.1833 85.2573 45.9218 85.2573C49.1643 85.2573 52.4069 85.2573 55.6494 85.2573C57.2162 85.2573 58.7939 85.3094 60.3607 85.2573C60.3825 85.2573 60.4043 85.2573 60.4261 85.2573C61.4043 85.2573 61.407 83.7285 60.4261 83.7285ZM89.3067 39.1164C88.8707 41.1329 88.8844 43.2563 89.2849 45.2782C90.1078 49.4153 92.4811 53.2565 96.0153 55.5799C96.8327 56.1169 96.0698 57.4402 95.2496 56.9004C93.0861 55.4785 91.2849 53.5524 89.9688 51.3167C87.6554 47.3824 86.8271 42.5165 87.9933 38.0698C89.1241 33.7519 91.8381 30.1628 94.7291 26.8394C90.2005 27.5655 85.4783 25.2366 82.7725 21.6009C80.6799 18.7927 79.797 15.3076 79.7861 11.8089C79.3147 11.9678 78.8379 12.1103 78.3556 12.2171C75.3364 12.8939 72.1647 12.5952 69.2246 11.7021C66.5543 10.8883 63.9684 9.63352 61.9384 7.67731C60.7395 6.52112 59.7558 5.07725 59.3062 3.48543C58.6223 4.6334 57.8429 5.7211 56.971 6.73482C54.4342 9.68558 51.039 11.9623 47.2324 12.8336C43.2896 13.7405 38.9898 13.2281 35.5401 11.0308C34.7145 10.5048 35.4774 9.18146 36.3085 9.71024C38.0388 10.8116 40.0225 11.4801 42.0634 11.6692C45.7828 12.0171 49.4477 10.9377 52.4941 8.78693C55.4478 6.69647 57.6985 3.70187 59.1945 0.419598C59.4997 -0.248912 60.7095 0.057945 60.6114 0.803169C60.546 1.31277 60.5269 1.83607 60.5978 2.34293C60.9057 4.54025 62.5133 6.36495 64.2354 7.628C66.3172 9.15406 68.7914 10.1157 71.2955 10.6609C73.8759 11.2199 76.5953 11.2336 79.124 10.4253C79.3665 10.3459 79.6063 10.2582 79.8433 10.1678C79.9605 8.565 80.2493 6.98414 80.6799 5.48548C81.0668 4.14298 81.5518 2.65801 82.669 1.74292C83.7698 0.844266 85.4238 0.594944 86.5655 1.55935C87.5655 2.40595 87.62 3.86626 87.2712 5.04163C86.8952 6.30467 86.0805 7.43621 85.1949 8.38692C84.1023 9.56229 82.7644 10.5048 81.312 11.1952C81.2139 15.1843 82.342 19.3023 85.2331 22.116C88.1677 24.9764 92.8626 26.4668 96.7183 24.6558C97.4949 24.2887 98.236 25.1928 97.6393 25.8558C95.7428 27.9655 93.8436 30.0888 92.2741 32.4587C90.9253 34.4944 89.8244 36.7136 89.3067 39.1164ZM81.4374 9.41434C82.6881 8.70747 83.8134 7.77868 84.6908 6.63893C85.3094 5.83617 85.9252 4.85532 85.9497 3.80324C85.9715 2.89637 85.3557 2.26348 84.3938 2.5265C83.2603 2.83062 82.7398 4.04708 82.402 5.06629C82.0041 6.26358 81.7126 7.50196 81.5218 8.75131C81.4891 8.97049 81.4646 9.19242 81.4374 9.41434ZM60.4261 71.4871C59.1345 71.4871 57.8402 71.4871 56.5486 71.4871C53.456 71.4871 50.366 71.4871 47.276 71.4871C43.5375 71.4871 39.799 71.4871 36.0606 71.4871C32.818 71.4871 29.5754 71.4871 26.3356 71.4871C24.7688 71.4871 23.1911 71.435 21.6243 71.4871C21.6025 71.4871 21.578 71.4871 21.5562 71.4871C20.578 71.4871 20.578 73.0159 21.5562 73.0159C22.8505 73.0159 24.1421 73.0159 25.4364 73.0159C28.5264 73.0159 31.6163 73.0159 34.709 73.0159C38.4475 73.0159 42.1833 73.0159 45.9218 73.0159C49.1643 73.0159 52.4069 73.0159 55.6494 73.0159C57.2162 73.0159 58.7939 73.0707 60.3607 73.0159C60.3825 73.0159 60.4043 73.0159 60.4261 73.0159C61.4043 73.0186 61.407 71.4871 60.4261 71.4871ZM60.4261 77.6078C59.1345 77.6078 57.8402 77.6078 56.5486 77.6078C53.456 77.6078 50.366 77.6078 47.276 77.6078C43.5375 77.6078 39.799 77.6078 36.0606 77.6078C32.818 77.6078 29.5754 77.6078 26.3356 77.6078C24.7688 77.6078 23.1911 77.5557 21.6243 77.6078C21.6025 77.6078 21.578 77.6078 21.5562 77.6078C20.578 77.6078 20.578 79.1366 21.5562 79.1366C22.8505 79.1366 24.1421 79.1366 25.4364 79.1366C28.5264 79.1366 31.6163 79.1366 34.709 79.1366C38.4475 79.1366 42.1833 79.1366 45.9218 79.1366C49.1643 79.1366 52.4069 79.1366 55.6494 79.1366C57.2162 79.1366 58.7939 79.1914 60.3607 79.1366C60.3825 79.1366 60.4043 79.1366 60.4261 79.1366C61.4043 79.1366 61.407 77.6078 60.4261 77.6078ZM60.4261 89.8465C59.1345 89.8465 57.8402 89.8465 56.5486 89.8465C53.456 89.8465 50.366 89.8465 47.276 89.8465C43.5375 89.8465 39.799 89.8465 36.0606 89.8465C32.818 89.8465 29.5754 89.8465 26.3356 89.8465C24.7688 89.8465 23.1911 89.7944 21.6243 89.8465C21.6025 89.8492 21.578 89.8465 21.5562 89.8465C20.578 89.8465 20.578 91.378 21.5562 91.378C22.8505 91.378 24.1421 91.378 25.4364 91.378C28.5264 91.378 31.6163 91.378 34.709 91.378C38.4475 91.378 42.1833 91.378 45.9218 91.378C49.1643 91.378 52.4069 91.378 55.6494 91.378C57.2162 91.378 58.7939 91.4301 60.3607 91.378C60.3825 91.378 60.4043 91.378 60.4261 91.378C61.4043 91.378 61.407 89.8465 60.4261 89.8465Z" fill="white"/>
</svg>
