<svg width="107" height="100" viewBox="0 0 107 100" fill="none" xmlns="http://www.w3.org/2000/svg">
<mask id="mask0_34_1727" style="mask-type:luminance" maskUnits="userSpaceOnUse" x="0" y="0" width="107" height="100">
<path d="M0 0H106.749V100H0V0Z" fill="white"/>
</mask>
<g mask="url(#mask0_34_1727)">
<path d="M43.4004 70.314C43.5464 69.5933 43.6114 68.9786 43.6059 68.1736C43.5978 66.7865 43.3057 65.3994 42.6132 64.1756C41.7936 62.7259 40.4845 61.7033 38.9589 61.0424C38.5991 60.8874 38.5234 60.357 38.7019 60.0497C38.9156 59.6825 39.3295 59.6363 39.6865 59.7913C40.7144 60.2373 41.6746 60.852 42.478 61.6435C44.8529 63.9825 45.4399 67.5181 44.788 70.7002C44.7068 71.0837 44.2578 71.304 43.9008 71.2061C43.5113 71.0973 43.3219 70.6975 43.4004 70.314ZM36.96 65.4212C36.0782 65.1275 35.6995 66.5281 36.5759 66.8219C38.0582 67.3142 38.9454 68.5979 39.3214 70.1101C39.7866 71.984 39.5269 73.9884 38.9995 75.8161C38.7425 76.7164 40.1301 77.0998 40.3871 76.2023C41.4718 72.4382 41.3825 66.8953 36.96 65.4212ZM33.0865 68.9514C32.7268 68.8046 32.2967 69.1119 32.202 69.4573C32.0884 69.8734 32.3427 70.2053 32.7051 70.3521C32.5185 70.276 32.816 70.4147 32.881 70.4528C32.9323 70.4854 32.9837 70.5207 33.0351 70.5561C33.0514 70.567 33.0622 70.5724 33.0703 70.5779C33.0784 70.586 33.0892 70.5942 33.1082 70.6105C33.3246 70.8063 33.5247 71.0103 33.706 71.236C33.7114 71.2415 33.7141 71.2442 33.7168 71.2469C33.7168 71.2496 33.7168 71.2496 33.7168 71.2496C33.7384 71.2768 33.7573 71.304 33.779 71.334C33.825 71.3992 33.8737 71.4672 33.9169 71.5352C34.0197 71.6902 34.1117 71.848 34.201 72.0085C34.3849 72.343 34.5039 72.6095 34.6175 72.925C35.2288 74.6031 35.2856 76.4226 34.7933 78.1524C34.4471 79.3654 33.8385 80.4968 33.0622 81.4841C32.8214 81.7914 32.7646 82.2103 33.0622 82.5094C33.3137 82.7624 33.8358 82.8195 34.0792 82.5094C35.6156 80.5594 36.5894 78.2204 36.5623 75.7046C36.5434 73.8824 36.0322 71.9622 34.9394 70.4881C34.4444 69.8245 33.8601 69.2642 33.0865 68.9514ZM39.3782 52.0971C39.5026 51.9394 39.5891 51.7952 39.5891 51.5858C39.5891 51.4063 39.5107 51.1942 39.3782 51.0718C39.2429 50.9439 39.0617 50.8515 38.8696 50.8596C38.6938 50.8678 38.4747 50.9249 38.3611 51.0718C37.8364 51.749 37.3143 52.4262 36.7896 53.1034C36.7165 53.1986 36.6408 53.2965 36.5678 53.3917C36.446 53.5495 36.3568 53.6936 36.3568 53.903C36.3568 54.0825 36.4352 54.2947 36.5678 54.4171C36.7057 54.5449 36.8842 54.6374 37.0763 54.6292C37.2548 54.621 37.4712 54.5639 37.5848 54.4171C38.1096 53.7398 38.6343 53.0626 39.1564 52.3854C39.2321 52.2902 39.3051 52.1923 39.3782 52.0971ZM27.5387 85.2809C27.2412 85.5365 26.8111 85.5746 26.519 85.2809C26.2593 85.017 26.2242 84.5085 26.519 84.2528C28.2772 82.7297 29.5783 80.3527 29.9056 78.0327C30.057 76.953 29.9732 75.6828 29.4944 74.7309C29.067 73.8796 28.361 73.265 27.5063 72.838C26.6624 72.4191 25.7021 72.2505 24.7527 72.3484C24.3875 72.3865 23.8709 72.5225 23.5219 72.6911C23.0242 72.9359 22.7213 73.2405 22.5698 73.779C22.5644 73.798 22.559 73.8252 22.5563 73.8443C22.5536 73.8769 22.5509 73.9096 22.5482 73.9449C22.5455 74.0265 22.5455 74.1054 22.5482 74.187C22.5482 74.2196 22.5482 74.2387 22.5482 74.2523C22.5509 74.255 22.5536 74.2604 22.559 74.2822C22.5806 74.361 22.6023 74.4399 22.6266 74.5215C22.6266 74.5215 22.6266 74.5215 22.6266 74.5242C22.6456 74.5541 22.6591 74.5868 22.678 74.6194C22.7105 74.6793 22.7483 74.7364 22.7862 74.7962C22.8133 74.8261 22.8376 74.856 22.8674 74.886C22.9188 74.9403 22.9701 74.9893 23.0242 75.041C23.054 75.0709 23.0865 75.0954 23.1189 75.1226C23.192 75.1742 23.2623 75.2232 23.3353 75.2694C23.4706 75.3538 23.6112 75.4272 23.7546 75.4979C23.7979 75.5169 23.8438 75.5387 23.8871 75.5577H23.8898C23.9764 75.5931 24.0629 75.6257 24.1495 75.6584C24.3064 75.7128 24.4633 75.7617 24.6229 75.808C24.9501 75.9004 25.2829 75.9739 25.6183 76.0337C25.7102 76.05 25.8022 76.0663 25.8942 76.0799C25.9104 76.0826 25.9969 76.0935 26.0402 76.1017C26.0835 76.1071 26.1538 76.1153 26.1674 76.118C26.2377 76.1262 26.3053 76.1316 26.3756 76.1398C26.6569 76.1697 26.9383 76.1914 27.2196 76.1969C27.4333 76.1996 27.601 76.2785 27.7173 76.4009C27.72 76.4036 27.7254 76.4063 27.7281 76.409C27.9986 76.681 27.9742 77.0454 27.793 77.3392C27.7714 77.3718 27.7524 77.4044 27.7281 77.4344C27.701 77.4697 27.674 77.5051 27.6469 77.5404C26.143 79.4878 24.6364 81.4324 23.1324 83.3798C21.4311 85.58 19.7297 87.7803 18.0256 89.9806C17.9174 90.122 17.8119 90.2662 17.6983 90.4049C16.8895 91.3922 15.5046 91.3976 14.5497 90.6497C14.025 90.239 13.5057 89.8283 12.9836 89.4176C12.4751 89.0151 11.8232 88.6234 11.5013 88.0414C11.0144 87.1602 11.2011 86.1947 11.7907 85.4277C12.0017 85.1558 12.21 84.8865 12.4183 84.6172C13.3136 83.4613 14.2062 82.3055 15.1016 81.1496C16.5568 79.2648 18.0147 77.3827 19.4727 75.4979C19.7107 75.1879 20.2409 75.2477 20.4897 75.4979C20.7873 75.7971 20.7278 76.2159 20.4897 76.5232C20.4573 76.564 20.4275 76.6021 20.3951 76.6429C18.7911 78.7208 17.1843 80.7987 15.5776 82.8739C14.7878 83.8965 13.9979 84.9191 13.2081 85.939C13.0648 86.124 12.9106 86.3035 12.778 86.4966C12.7699 86.5075 12.7645 86.5238 12.7564 86.5428C12.7212 86.6435 12.6698 86.7223 12.6563 86.8338C12.632 87.0134 12.6698 87.1983 12.7699 87.3506C12.8889 87.5383 13.0864 87.6715 13.2595 87.8075C13.8384 88.2617 14.4172 88.7186 14.9988 89.1756C15.1773 89.317 15.3558 89.4666 15.5425 89.6026C15.5506 89.6053 15.5587 89.6107 15.5722 89.6161C15.675 89.6651 15.7399 89.7141 15.8535 89.7358C16.0347 89.7685 16.2106 89.744 16.3729 89.6569C16.5893 89.54 16.7434 89.2979 16.8922 89.1048C17.1302 88.7975 17.371 88.4875 17.609 88.1801C19.4348 85.8167 21.2633 83.4532 23.0919 81.0897C24.0061 79.9066 24.9204 78.7262 25.8347 77.5432C24.9339 77.4208 24.0413 77.1977 23.2217 76.8387C22.4995 76.5205 21.78 76.0283 21.4094 75.3048C20.8847 74.2822 21.074 73.0311 21.8151 72.1662C22.6266 71.2197 24.09 70.8716 25.2829 70.8716C26.473 70.8743 27.6848 71.217 28.6992 71.8453C33.5734 74.8696 31.0741 82.2103 27.5387 85.2809ZM23.8844 75.5577C23.7789 75.5088 23.8519 75.5441 23.8844 75.5577V75.5577ZM23.1135 75.1171C23.0324 75.0519 23.0838 75.0981 23.1135 75.1171V75.1171ZM96.7629 50.2667C96.7629 49.8424 96.7629 49.4209 96.7629 48.9966C96.7629 48.2024 96.4248 47.4545 95.589 47.2342C95.2401 47.1417 94.8289 47.1852 94.4746 47.1852C93.7605 47.1852 93.0491 47.1852 92.335 47.1852C88.5373 47.1852 84.7396 47.1852 80.9419 47.1852C80.6741 47.1852 80.409 47.1852 80.1412 47.1852C79.2161 47.1852 79.2161 48.6376 80.1412 48.6376C83.187 48.6376 86.2327 48.6376 89.2784 48.6376C90.9636 48.6376 92.6488 48.6376 94.3366 48.6376C94.5909 48.6376 94.9587 48.5669 95.2049 48.6376C95.3753 48.6838 95.3239 48.9313 95.3239 49.1244C95.3239 52.2521 95.3239 55.3771 95.3239 58.5049C95.3239 62.3343 95.3239 66.1664 95.3239 69.9958C95.3239 70.5099 95.3239 71.0212 95.3239 71.5352C95.3239 71.6875 95.3672 71.935 95.3266 72.0792C95.2833 72.2342 95.1292 72.1988 94.9669 72.1988C94.6856 72.1988 94.4069 72.1988 94.1283 72.1988C91.3801 72.1988 88.632 72.1988 85.8838 72.1988C81.7723 72.1988 77.6581 72.1988 73.5466 72.1988C69.6272 72.1988 65.7051 72.1988 61.7857 72.1988C59.6245 72.1988 57.4605 72.1988 55.2993 72.1988C55.1532 72.1988 54.9639 72.2396 54.9179 72.0846C54.9017 72.0302 54.9287 71.8317 54.9287 71.761C54.9287 71.4427 54.9287 71.1218 54.9287 70.8036C54.9287 68.8291 54.9287 66.8518 54.9287 64.8773C54.9287 64.4421 54.9287 64.0096 54.9287 63.5745C54.9287 62.6416 53.4897 62.6389 53.4897 63.5745C53.4897 65.0894 53.4897 66.6016 53.4897 68.1165C53.4897 69.082 53.4897 70.0475 53.4897 71.013C53.4897 71.625 53.3977 72.3511 53.7196 72.8978C54.2309 73.7681 55.1965 73.6485 56.0377 73.6485C57.1359 73.6485 58.2368 73.6485 59.335 73.6485C63.0299 73.6485 66.7249 73.6485 70.4225 73.6485C74.6989 73.6485 78.9754 73.6485 83.2519 73.6485C86.4924 73.6485 89.7301 73.6485 92.9706 73.6485C93.6685 73.6485 94.3664 73.6539 95.0642 73.6485C95.8189 73.643 96.5141 73.2432 96.7142 72.4654C96.7873 72.1798 96.7629 71.8534 96.7629 71.557C96.7629 68.2307 96.7629 64.9017 96.7629 61.5755C96.7629 57.8059 96.7629 54.0363 96.7629 50.2667ZM85.4131 76.768C86.2922 76.768 87.1713 76.768 88.0531 76.768C88.4805 76.768 88.9106 76.768 89.3379 76.768C90.831 76.768 92.3269 76.768 93.82 76.768C93.847 76.768 93.8741 76.768 93.9011 76.768C94.9615 76.768 96.1868 76.8959 97.2038 76.5532C98.6185 76.0799 99.6247 74.9594 100.033 73.5914C100.039 73.5723 100.044 73.5506 100.049 73.5288C100.079 73.4254 100.104 73.3221 100.128 73.216C100.139 73.1616 100.147 73.1072 100.158 73.0556C100.171 72.974 100.182 72.8951 100.193 72.8135C100.201 72.7564 100.206 72.6993 100.212 72.6394C100.223 72.5252 100.228 72.411 100.231 72.2967C100.231 72.2777 100.233 72.2587 100.233 72.2396C100.233 72.2342 100.233 72.2288 100.233 72.2233C100.233 71.0783 100.233 69.9333 100.233 68.7855C100.233 68.6577 100.233 68.5299 100.233 68.4021C100.233 68.0458 100.233 67.6868 100.233 67.3278C100.233 65.6388 100.233 63.9498 100.233 62.2581C100.233 59.8783 100.233 57.4958 100.233 55.1133C100.233 53.3428 100.233 51.5722 100.233 49.7989C100.233 49.3964 100.233 48.9966 100.233 48.5941C100.231 47.4545 99.8601 46.3883 99.1108 45.5316C98.2642 44.5607 97.0253 44.0684 95.7567 44.0657C95.2319 44.0657 94.7045 44.0657 94.177 44.0657C92.0266 44.0657 89.8762 44.0657 87.7258 44.0657C85.7215 44.0657 83.7198 44.0657 81.7182 44.0657C81.3936 44.0657 81.0663 44.0657 80.7417 44.0657C79.8139 44.0657 79.8139 45.518 80.7417 45.518C84.2175 45.518 87.6961 45.518 91.1746 45.518C92.6866 45.518 94.2014 45.5153 95.7161 45.518C96.6791 45.518 97.5825 45.8798 98.183 46.6658C98.6401 47.2559 98.7943 47.9549 98.7943 48.6865C98.7943 52.0672 98.7943 55.4451 98.7943 58.8258C98.7943 61.6598 98.7943 64.4938 98.7943 67.3278C98.7943 68.4048 98.7943 69.4818 98.7943 70.5588C98.7943 70.7111 98.7943 70.8634 98.7943 71.0157C98.7943 71.421 98.7943 71.8262 98.7943 72.2288C98.7943 72.2995 98.7889 72.3702 98.7835 72.4409C98.7564 72.7564 98.7024 73.0664 98.6023 73.3656C98.5915 73.3955 98.5806 73.4254 98.5698 73.4554C98.559 73.4853 98.5482 73.5152 98.5346 73.5424C98.3913 73.8824 98.1803 74.1924 97.9071 74.4698C97.8557 74.5188 97.807 74.5705 97.7556 74.6167C97.4905 74.837 97.1876 75.0083 96.863 75.1226C96.2787 75.3184 95.6431 75.3184 94.9993 75.3184C94.8668 75.3184 94.7342 75.3184 94.6044 75.3184C92.903 75.3184 91.2016 75.3184 89.5002 75.3184C88.3777 75.3184 87.2579 75.3184 86.1353 75.3184C84.6828 75.3184 83.2302 75.3184 81.7777 75.3184C78.8429 75.3184 75.908 75.3184 72.9732 75.3184C72.7947 75.3184 72.6162 75.3184 72.4376 75.3184C69.8003 75.3184 67.1603 75.3184 64.523 75.3184C62.9704 75.3184 61.4205 75.3184 59.8679 75.3184C59.2106 75.3184 58.5506 75.3184 57.8933 75.3184C57.209 75.3184 56.5273 75.3184 55.843 75.3184C55.4129 75.3184 54.9801 75.3184 54.5473 75.3184C53.9441 75.3184 53.3653 75.177 52.8649 74.8805C52.8649 74.8778 52.8622 74.8778 52.8595 74.8751C52.7945 74.837 52.7323 74.7908 52.6728 74.7472C52.3239 74.4889 52.0318 74.1543 51.8208 73.7736C51.434 73.0229 51.4583 72.1961 51.4583 71.3448C51.4583 71.2197 51.4583 71.0946 51.4583 70.9695C51.4583 68.7828 51.4583 66.5961 51.4583 64.4095C51.4583 64.132 51.4583 63.8546 51.4583 63.5745C51.4583 63.3732 51.4583 63.172 51.4583 62.9707C51.4583 62.0378 50.0193 62.0351 50.0193 62.9707C50.0193 64.6325 50.0193 66.2915 50.0193 67.9533C50.0193 68.5489 50.0193 69.1418 50.0193 69.7375C50.0193 70.3222 50.0193 70.907 50.0193 71.4917C50.0193 71.7501 50.0193 72.0085 50.0193 72.2668C50.0193 72.2913 50.0193 72.3185 50.0193 72.343C50.022 72.5415 50.0409 72.7374 50.0707 72.9305C50.0815 73.0338 50.0923 73.1399 50.1113 73.2432C50.3168 74.3257 50.9714 75.2994 51.8532 75.9439C51.8695 75.9548 51.8857 75.963 51.8992 75.9739C51.9749 76.0283 52.0534 76.0799 52.1345 76.1289C52.1724 76.1561 52.2157 76.1778 52.2563 76.2023C52.3158 76.235 52.3753 76.2703 52.4375 76.3002C52.4835 76.3247 52.5268 76.3465 52.5727 76.3682C52.6404 76.3981 52.7107 76.4281 52.781 76.4553C52.8189 76.4716 52.8568 76.4879 52.8973 76.5015C52.9974 76.5396 53.1002 76.5722 53.2057 76.6021C53.2165 76.6048 53.2246 76.6076 53.2327 76.6103C53.3436 76.6402 53.4518 76.6647 53.5654 76.6864C53.5736 76.6864 53.5817 76.6892 53.5925 76.6892C53.5979 76.6919 53.606 76.6919 53.6114 76.6946C53.6682 76.7028 53.7277 76.7109 53.7845 76.7191C53.8089 76.7218 53.8332 76.7245 53.8576 76.7272C54.7394 76.8387 55.6726 76.768 56.5517 76.768C56.8492 76.768 57.144 76.768 57.4416 76.768C59.1159 76.768 60.7876 76.768 62.4619 76.768C62.4917 76.768 62.5187 76.768 62.5485 76.768C64.6853 76.768 66.8195 76.768 68.9564 76.768C69.2323 76.768 69.5082 76.768 69.7814 76.768C71.0744 78.3509 72.3646 79.9338 73.6575 81.5167C73.8415 81.7425 74.0254 81.9682 74.2094 82.1939C74.4555 82.4986 74.9694 82.4523 75.2264 82.1939C75.5239 81.8948 75.4753 81.4732 75.2264 81.1686C74.0308 79.7026 72.8326 78.234 71.637 76.768C73.1355 76.768 74.634 76.768 76.1325 76.768C77.366 76.768 78.6021 76.768 79.8356 76.768C80.9446 76.768 82.0563 76.768 83.1653 76.768C83.2952 76.768 83.425 76.768 83.5548 76.768C85.1075 78.6719 86.6601 80.5784 88.2154 82.4822C88.3155 82.6073 88.4156 82.7297 88.5183 82.8548C88.5238 82.8684 88.567 82.9337 88.5724 82.95C88.5887 82.9881 88.586 83.0942 88.5751 83.1323C88.5508 83.203 88.5129 83.2791 88.3939 83.3145C88.3831 83.3145 88.3209 83.3254 88.2938 83.3281C88.2479 83.3308 88.2019 83.3281 88.1559 83.3281C87.5121 83.3281 86.8683 83.3281 86.2219 83.3281C83.4575 83.3281 80.6903 83.3281 77.9232 83.3281C74.7639 83.3281 71.6018 83.3281 68.4398 83.3281C66.6897 83.3281 64.9315 83.2791 63.1814 83.3281C63.1571 83.3281 63.13 83.3281 63.103 83.3281C62.1779 83.3281 62.1779 84.7777 63.103 84.7777C64.6096 84.7777 66.1162 84.7777 67.6229 84.7777C70.8201 84.7777 74.0146 84.7777 77.2118 84.7777C80.1223 84.7777 83.0328 84.7777 85.9433 84.7777C86.6601 84.7777 87.3769 84.7777 88.0937 84.7777C88.4426 84.7777 88.778 84.7478 89.0972 84.5873C89.6625 84.3018 90.0277 83.6762 90.0277 83.0425C90.0304 82.591 89.841 82.2103 89.5651 81.8649C88.1965 80.1541 86.8007 78.4624 85.4131 76.768ZM96.295 87.5573C97.0064 87.8293 97.661 88.2753 98.1478 88.8601C98.6077 89.4122 99.054 90.0731 99.3678 90.7204C99.714 91.4329 99.879 92.2679 99.3299 92.9288C98.8403 93.5244 98.0451 93.6903 97.3228 93.519C95.9785 93.2008 94.7802 91.8382 94.3934 90.5354C94.2392 90.0187 94.2068 89.4693 94.269 88.9253C94.2311 88.9498 94.1933 88.9716 94.1581 88.996C94.1365 89.0124 94.0039 89.1076 93.9823 89.1212C93.5874 89.4312 93.2952 89.7494 93.0653 90.1547C92.8273 90.5735 92.6947 91.0712 92.7732 91.5934C92.7867 91.6859 92.8165 91.7756 92.8435 91.8654C92.8543 91.8953 92.8651 91.9252 92.876 91.9579C92.8787 91.966 92.8787 91.9687 92.8814 91.9742C92.8814 91.9742 92.8814 91.9742 92.8814 91.9769C92.9598 92.1428 93.0437 92.3033 93.1383 92.4583C93.4115 92.9098 93.5792 93.1138 93.9065 93.4918C94.2717 93.9161 94.6612 94.3159 95.0642 94.7048C96.5141 96.1001 98.064 97.4055 99.8574 98.3411C99.9385 98.3846 100.022 98.4227 100.104 98.4635C100.114 98.469 100.12 98.4717 100.128 98.4744C100.133 98.4771 100.136 98.4771 100.144 98.4798C100.19 98.4962 100.236 98.5125 100.282 98.5288C100.287 98.5288 100.293 98.5315 100.301 98.5315C100.331 98.5179 100.444 98.507 100.339 98.5397C100.342 98.5397 100.342 98.5397 100.344 98.5397C100.401 98.5261 100.461 98.5152 100.517 98.4989C100.547 98.4907 100.663 98.4445 100.688 98.4363C100.758 98.4037 100.828 98.371 100.896 98.3357C101.813 97.8624 102.514 97.2777 103.263 96.6005C103.642 96.2605 104.007 95.9097 104.35 95.5343C104.491 95.3848 104.621 95.2297 104.751 95.0747C104.767 95.0529 104.783 95.0312 104.797 95.0121C104.824 94.9686 104.851 94.9251 104.88 94.8816C104.87 94.8218 104.861 94.7592 104.856 94.7347C104.829 94.6341 104.797 94.5335 104.761 94.4328C104.686 94.2234 104.637 94.1201 104.496 93.8481C104.369 93.6033 104.228 93.3667 104.082 93.1328C103.393 92.0367 102.535 91.0495 101.605 90.1574C100.766 89.3551 99.6842 88.482 98.7078 88.0768C98.348 87.9272 98.0937 87.6008 98.2074 87.1847C98.2993 86.8393 98.7321 86.5292 99.0919 86.6788C99.6978 86.929 100.263 87.2418 100.801 87.6226C102.002 88.4711 103.079 89.5019 104.023 90.6333C104.875 91.656 105.695 92.7792 106.149 94.0466C106.311 94.5008 106.428 94.9849 106.217 95.4391C106.062 95.771 105.811 96.0592 105.573 96.3339C104.824 97.1988 103.947 97.9576 103.044 98.6512C102.305 99.2196 101.378 99.9322 100.412 99.9866C99.6924 100.027 98.9593 99.5215 98.3778 99.1543C96.3978 97.906 94.4827 96.3475 92.9382 94.577C92.3106 93.8562 91.5965 92.9914 91.3964 92.0231C91.1069 90.6415 91.6858 89.2789 92.6866 88.3379C93.0139 88.0278 93.3845 87.7368 93.7848 87.5328C94.0905 87.3751 94.4259 87.3016 94.7694 87.288C95.0237 86.7903 95.3564 86.3416 95.754 85.9826C97.1416 84.7342 99.0702 84.5275 100.85 84.6716C102.211 84.7804 104.64 85.2074 105.124 83.3988C105.521 81.922 104.377 80.5811 103.098 80.048C101.442 79.3572 99.622 79.67 97.9666 80.1813C96.0569 80.7742 94.2338 81.6527 92.2511 81.9845C91.867 82.0498 91.4775 81.8893 91.3666 81.4786C91.2719 81.1278 91.4856 80.6491 91.8697 80.5866C92.7407 80.4397 93.5847 80.1922 94.4205 79.9039C97.6069 78.8024 101.367 77.089 104.548 79.1859C105.841 80.0399 106.749 81.5058 106.622 83.1051C106.56 83.8612 106.29 84.571 105.768 85.1258C105.159 85.7704 104.293 86.0832 103.436 86.1947C101.743 86.415 100.044 85.8303 98.3561 86.2382C97.5122 86.4422 96.7819 86.8991 96.295 87.5573ZM100.301 98.5506C100.309 98.5478 100.317 98.5478 100.325 98.5451C100.323 98.5451 100.323 98.5451 100.32 98.5451C100.312 98.5478 100.309 98.5478 100.301 98.5506ZM98.0883 92.102C98.0261 92.1428 98.0586 92.1156 98.0883 92.102V92.102ZM95.7351 88.8845C95.7269 88.9362 95.7161 88.9879 95.708 89.0396C95.5592 90.2227 96.2111 91.3269 97.2309 91.9225C97.4419 92.0449 97.7096 92.1401 97.853 92.1401C97.8855 92.1401 97.9206 92.1374 97.9558 92.1374C97.9666 92.1292 98.0802 92.1047 98.091 92.102C98.0992 92.0966 98.1046 92.0938 98.1208 92.083C98.7916 91.6505 97.7205 92.3332 98.2425 91.9823C98.2479 91.9715 98.2587 91.9524 98.2587 91.9143C98.2615 91.8409 98.2425 91.7512 98.1938 91.6179C98.1046 91.3595 97.9396 91.0984 97.7854 90.8591C97.4365 90.3124 97.0929 89.7222 96.5628 89.3333C96.3247 89.1592 96.038 88.9988 95.7351 88.8845ZM85.5916 93.1192C86.4112 94.5253 85.5159 96.2687 83.874 96.3258C83.7604 96.3258 83.6495 96.3258 83.5359 96.3258C81.1475 96.3258 78.7617 96.3258 76.3733 96.3258C72.178 96.3258 67.9826 96.3258 63.7873 96.3258C59.5054 96.3258 55.2236 96.3258 50.9417 96.3258C48.2936 96.3258 45.6454 96.3258 43 96.3258C42.7945 96.3258 42.5916 96.3285 42.386 96.3258C41.2527 96.3149 40.287 95.4391 40.2789 94.2642C40.2735 93.3966 40.9497 92.5589 41.3717 91.8464C41.8396 91.0522 42.3049 90.2526 42.7809 89.4638C43.2029 88.7621 43.8683 88.3732 44.6852 88.3678C44.9422 88.3651 45.1964 88.3678 45.4507 88.3678C46.6003 88.3678 47.7472 88.3678 48.8968 88.3678C52.8432 88.3678 56.7897 88.3678 60.7362 88.3678C65.0613 88.3678 69.3892 88.3678 73.7143 88.3678C76.2489 88.3678 78.7834 88.3678 81.3206 88.3678C81.7263 88.3678 82.1104 88.3923 82.4945 88.5718C83.3168 88.958 83.7415 89.9915 84.1824 90.7394C84.653 91.5309 85.1264 92.3223 85.5916 93.1192ZM84.4447 94.0194C84.3582 93.8127 84.2094 93.6169 84.0985 93.4265C83.5819 92.5535 83.0652 91.6804 82.5486 90.8074C82.3106 90.4076 82.1131 89.8392 81.5884 89.8174C80.9879 89.7929 80.382 89.8174 79.7788 89.8174C76.5085 89.8174 73.2383 89.8174 69.968 89.8174C65.6294 89.8174 61.2907 89.8174 56.952 89.8174C53.5736 89.8174 50.1924 89.8174 46.814 89.8174C46.1053 89.8174 45.3939 89.812 44.6852 89.8174C44.2822 89.8201 44.1009 90.0649 43.9089 90.3858C43.4085 91.2317 42.9081 92.0775 42.4077 92.9261C42.2237 93.2334 42.0398 93.5435 41.8586 93.8535C41.7964 93.9623 41.7341 94.063 41.7179 94.1935C41.699 94.3458 41.7585 94.5416 41.8856 94.6803C42.0614 94.868 42.2778 94.8734 42.5537 94.8734C43.3084 94.8734 44.0631 94.8734 44.8177 94.8734C48.1015 94.8734 51.3853 94.8734 54.6663 94.8734C59.0131 94.8734 63.3599 94.8734 67.704 94.8734C71.472 94.8734 75.2399 94.8734 79.0079 94.8734C80.6308 94.8734 82.2511 94.8734 83.874 94.8734C84.3365 94.8598 84.6097 94.4111 84.4447 94.0194ZM4.50099 35.2292C4.50099 34.4758 4.48747 33.7252 4.50099 32.9718C4.53345 31.2774 5.87509 30.0018 7.53861 29.9937C8.98844 29.9882 10.441 29.9909 11.8908 29.9909C11.4661 29.2321 11.0793 28.4461 10.7331 27.6411C10.2787 26.5695 9.87836 25.4734 9.57271 24.3474C8.98574 24.2087 8.42312 23.9667 7.92541 23.6321C6.32681 22.5633 5.25025 20.7846 4.82558 18.9161C4.40632 17.0612 4.56861 15.0975 5.30976 13.3487C6.00492 11.7033 7.22754 10.3434 8.72607 9.39422C10.7493 8.11593 13.1567 7.59918 15.5479 7.61278C15.5479 7.41151 15.5479 7.21025 15.5479 7.00899C15.5479 5.73343 15.5479 4.46058 15.5479 3.18501C15.5479 2.32829 15.7967 1.51508 16.4107 0.894979C17.0031 0.296632 17.7902 0.0246565 18.6152 0.021937C21.1687 0.0137775 23.7248 0.021937 26.2783 0.021937C29.9948 0.021937 33.7087 0.021937 37.4252 0.021937C38.4909 0.021937 39.554 0.021937 40.6197 0.021937C40.9741 0.021937 41.3176 0.0219371 41.6719 0.10081C43.0082 0.399983 43.9197 1.65107 43.9441 3.00551C43.9576 3.68001 43.963 4.35451 43.9657 5.02901C44.8204 4.48778 45.6968 3.97646 46.6003 3.51682C50.7118 1.42261 55.9674 0.223199 60.2439 2.56763C62.7162 3.92207 64.2742 6.43784 64.8747 9.16304C66.5842 9.16304 68.2964 9.16304 70.0059 9.16304C71.5423 9.16304 73.0787 9.16304 74.6151 9.16304C75.3292 9.16304 76.0649 9.10864 76.7763 9.17936C78.1531 9.31806 79.3433 10.2945 79.7057 11.6543C79.8329 12.1303 79.822 12.6117 79.822 13.0985C79.822 14.3578 79.822 15.6143 79.822 16.8735C81.6154 16.879 83.4277 16.9062 85.1886 17.2353C86.092 17.4039 86.963 17.7058 87.6041 18.4048C88.4967 19.373 88.8673 20.809 88.4237 22.071C87.6203 24.3692 85.3211 25.7291 84.25 27.875C83.7766 28.8214 83.682 29.9284 84.1391 30.8993C84.2635 31.1631 84.4204 31.4079 84.6043 31.6255C84.7612 30.7307 85.0993 29.8767 85.7079 29.1804C87.0874 27.6057 90.1846 27.6139 91.015 29.7652C91.5154 31.0544 90.8175 32.4822 89.7978 33.2846C88.751 34.1114 87.339 34.3725 86.0461 34.1032C86.2138 35.0551 86.4788 36.0369 86.0839 36.9318C85.7891 37.5981 85.1318 38.074 84.5178 38.4113C82.9706 39.2599 81.161 39.6134 79.4407 39.8745C78.9727 39.9452 78.5021 40.0051 78.0314 40.0649C78.0206 40.2934 78.007 40.5218 77.9908 40.753C77.6906 44.6613 76.2164 48.371 73.8415 51.4634C71.4287 54.602 68.1747 56.9818 64.5447 58.4858C60.7524 60.0551 56.4137 60.7269 52.3672 59.9355C50.2438 59.5193 48.1691 58.853 46.1404 58.1105C45.7212 57.9555 45.3019 57.7977 44.8854 57.6345C44.4688 57.4714 44.0766 57.3354 43.6276 57.4496C42.9432 57.6237 42.5781 58.2356 42.1696 58.7632C41.9289 59.0733 41.4014 59.0135 41.1526 58.7632C40.855 58.4613 40.9146 58.0452 41.1526 57.7352C41.5746 57.1912 41.9614 56.6282 42.5916 56.3046C43.0866 56.0489 43.6519 55.9129 44.2091 55.9619C44.6798 56.0027 45.0909 56.1686 45.5291 56.3372C47.4009 57.058 49.3052 57.708 51.25 58.1975C52.2346 58.445 53.2354 58.6653 54.2444 58.766C55.2127 58.8639 56.1892 58.834 57.1576 58.7605C60.985 58.4777 64.7259 57.2021 67.9204 55.0562C70.9121 53.0436 73.3735 50.2477 74.9099 46.9622C75.9026 44.849 76.4544 42.5453 76.5816 40.2172C75.5726 40.3124 74.561 40.3777 73.5493 40.4239C73.4574 41.7376 73.2112 43.043 72.7974 44.2996C71.5585 48.0556 68.9997 51.2785 65.7024 53.4108C62.4322 55.524 58.5452 56.427 54.6853 56.1332C52.2346 55.9456 49.7894 55.4587 47.474 54.6156C44.7366 53.6202 42.148 52.1243 40.1193 49.9947C37.7606 47.517 36.3378 44.3132 35.8699 40.9216C35.3127 36.9018 35.832 32.7651 37.6119 29.107C39.2537 25.7291 41.9451 22.9223 45.1586 21.0321C48.5586 19.033 52.5024 18.0594 56.4299 18.0594C60.4846 18.0594 64.5393 19.1119 68.0151 21.2388C71.2339 23.2106 73.9145 26.0663 75.6565 29.4361C77.1171 32.2565 77.9475 35.4277 78.0395 38.6153C79.0755 38.4902 80.1034 38.3215 81.1177 38.0849C81.5586 37.9816 81.9941 37.8646 82.4242 37.7259C82.6325 37.6606 82.838 37.5872 83.0409 37.5083C83.26 37.424 83.1978 37.4512 83.425 37.3452C83.7334 37.1983 84.0255 37.0297 84.3041 36.8366C84.3365 36.8148 84.3528 36.8039 84.3609 36.7985C84.369 36.793 84.3825 36.7794 84.4096 36.7522C84.461 36.706 84.5097 36.6625 84.5583 36.6163C84.699 36.4776 84.7369 36.4558 84.8018 36.2926C84.9776 35.8357 84.772 35.2129 84.6855 34.7587C84.6043 34.3344 84.5475 33.9047 84.5178 33.4749C82.7596 32.3082 81.9373 29.9393 82.6947 27.8695C83.122 26.7 83.8902 25.7209 84.6963 24.7908C85.4834 23.8851 86.4247 22.9984 86.9468 21.8969C87.4202 20.8961 87.0929 19.6123 86.1191 19.0412C86.0488 18.9977 85.973 18.9623 85.9 18.927C85.8973 18.927 85.8973 18.927 85.8946 18.9242C85.854 18.9106 85.8134 18.8943 85.7729 18.8807C85.5808 18.8127 85.3888 18.7611 85.1913 18.7148C84.7261 18.606 84.3176 18.5489 83.8686 18.5C82.5243 18.3613 81.1718 18.3368 79.822 18.3259C79.822 19.6042 79.822 20.8797 79.822 22.1553C79.822 22.7074 79.8139 23.2487 79.6165 23.7736C79.1188 25.1035 77.8826 25.963 76.4761 25.9902C75.5483 26.0092 75.5537 24.5569 76.4761 24.5405C76.9684 24.5297 77.4336 24.3583 77.7907 24.0102C78.5859 23.2378 78.383 21.9867 78.383 20.9749C78.383 20.0883 78.383 19.2017 78.383 18.3177C78.0314 18.315 77.677 18.3096 77.3254 18.3014C76.4003 18.2824 76.4003 16.83 77.3254 16.8518C77.677 16.8599 78.0314 16.8599 78.383 16.8627C78.383 16.5907 78.383 16.316 78.383 16.044C78.383 14.9017 78.3884 13.7594 78.383 12.6171C78.3776 11.8638 78.0341 11.211 77.3714 10.8384C77.0116 10.6371 76.6329 10.6154 76.2353 10.6154C73.663 10.6154 71.0879 10.6154 68.5128 10.6154C67.3767 10.6154 66.2407 10.6154 65.1019 10.6154C65.1641 11.279 65.1776 11.9481 65.1262 12.6063C65.0965 12.9979 64.8206 13.3324 64.4067 13.3324C64.0389 13.3324 63.6575 12.9979 63.6872 12.6063C63.7386 11.9426 63.7251 11.2763 63.6548 10.6154C62.4619 10.6154 61.2663 10.6154 60.0708 10.6154C59.8733 10.6154 59.6758 10.6099 59.4784 10.6154C58.5776 10.629 57.8067 11.2409 57.6066 12.1357C57.4795 12.7123 57.566 13.395 57.566 13.9824C57.566 14.5862 57.566 15.1873 57.566 15.7884C57.566 16.724 56.127 16.724 56.127 15.7884C56.127 15.5817 56.127 15.375 56.127 15.1683C56.127 14.3659 56.127 13.5663 56.127 12.764C56.127 11.706 56.4597 10.6943 57.2793 9.99256C57.9312 9.43229 58.7237 9.16576 59.5731 9.16304C59.8922 9.16304 60.2114 9.16304 60.5333 9.16304C61.4881 9.16304 62.4457 9.16304 63.4005 9.16304C63.2031 8.37975 62.919 7.61822 62.5268 6.90564C61.6558 5.31458 60.3061 4.03902 58.6047 3.39715C56.6004 2.63834 54.385 2.58939 52.2968 3.00279C49.2538 3.60114 46.5381 5.05893 43.963 6.75061C43.9603 8.41783 43.9441 10.0823 43.9441 11.7468C43.9441 13.2998 43.9441 14.8555 43.9441 16.4085C43.9441 16.6804 43.9549 16.9551 43.9414 17.2271C43.8683 18.8318 42.5781 20.0665 40.9957 20.1019C40.8415 20.1019 40.6873 20.1019 40.5332 20.1019C37.6281 20.1019 34.723 20.1019 31.8179 20.1019C28.2177 20.1019 24.6201 20.1019 21.0226 20.1019C20.203 20.1019 19.3834 20.1046 18.5638 20.1019C17.5684 20.0937 16.6731 19.6504 16.0861 18.8345C15.6615 18.247 15.5479 17.5535 15.5479 16.8464C15.5479 14.249 15.5479 11.6516 15.5479 9.05425C13.3109 9.04337 11.055 9.55468 9.20484 10.8112C6.72984 12.4947 5.54779 15.5953 6.2132 18.5299C6.5432 19.9795 7.31951 21.4563 8.55836 22.3185C8.77746 22.4708 9.01549 22.6014 9.26164 22.7101C9.20213 22.0574 9.2373 21.3992 9.45369 20.7791C10.0352 19.1173 12.2046 17.9043 13.722 19.1853C14.401 19.7592 14.6093 20.6866 14.4821 21.5379C14.3469 22.4545 13.8113 23.2187 13.0702 23.7464C12.4724 24.1707 11.788 24.3964 11.082 24.4589C11.4499 25.7372 11.972 26.9883 12.5508 28.1605C12.8592 28.7861 13.2027 29.3953 13.5597 29.9937C16.1024 29.9937 18.645 29.9937 21.1876 29.9937C21.8692 29.9937 22.5536 29.9909 23.2352 29.9937C24.9069 29.9991 26.2756 31.2529 26.308 32.9691C26.3459 35.0742 26.308 37.1847 26.308 39.2898C26.308 40.307 26.308 41.3242 26.308 42.3441C26.308 42.8989 26.2188 43.432 25.9645 43.9351C25.4641 44.9142 24.4308 45.4935 23.357 45.518C23.2379 45.518 23.1216 45.518 23.0026 45.518C20.863 45.518 18.7261 45.518 16.5865 45.518C14.0277 45.518 11.4661 45.518 8.9073 45.518C8.42312 45.518 7.93623 45.5262 7.45205 45.518C5.72632 45.4854 4.50099 44.0847 4.50099 42.3849C4.50099 39.9996 4.50099 37.6144 4.50099 35.2292ZM76.6032 38.7649C76.5843 37.9462 76.5166 37.1276 76.3949 36.3198C75.8566 32.7923 74.396 29.4225 72.1212 26.6837C69.8057 23.8987 66.7492 21.7936 63.3329 20.6323C59.6975 19.3975 55.7104 19.1745 51.956 19.9632C48.4613 20.6975 45.1504 22.3158 42.551 24.7908C39.9895 27.2249 38.2313 30.3826 37.4901 33.8584C36.7328 37.4077 36.9627 41.3486 38.3584 44.713C39.4485 47.3375 41.4096 49.5977 43.7331 51.1452C44.3092 51.5287 44.907 51.8795 45.521 52.195C46.1323 52.5132 46.6923 52.7635 47.2251 52.9756C48.418 53.4516 49.6514 53.8242 50.9011 54.107C51.4664 54.2348 52.0372 54.3436 52.6106 54.4361C52.7621 54.4606 52.9109 54.4851 53.0623 54.5068C53.0786 54.5068 53.1462 54.5177 53.1868 54.5231C53.2246 54.5286 53.2977 54.5395 53.3112 54.5395C53.5681 54.5721 53.8251 54.602 54.0821 54.6265C55.5779 54.7761 57.0926 54.806 58.5831 54.5775C62.3077 54.0091 65.7457 52.1542 68.2667 49.3284C70.4495 46.8806 71.8398 43.742 72.1076 40.4702C70.9689 40.4974 69.8328 40.4974 68.6967 40.4783C68.694 40.5789 68.694 40.6796 68.694 40.7802C68.694 41.9415 68.694 43.1029 68.694 44.2642C68.694 44.7211 68.6805 45.1726 68.5182 45.6105C68.0827 46.7936 66.9926 47.5551 65.7457 47.5823C65.6158 47.5823 65.4887 47.5823 65.3589 47.5823C63.0002 47.5823 60.6415 47.5823 58.2801 47.5823C55.421 47.5823 52.5619 47.5823 49.7001 47.5823C49.1213 47.5823 48.5424 47.5932 47.9636 47.5823C46.9465 47.566 46.0187 47.0656 45.4615 46.2034C45.1126 45.6622 45.0017 45.0421 45.0017 44.4111C45.0017 41.7702 45.0017 39.1266 45.0017 36.4857C45.0017 35.58 44.9882 34.6716 45.0017 33.766C45.026 32.0525 46.3623 30.7606 48.0474 30.7552C50.1167 30.747 52.1859 30.7552 54.2552 30.7552C57.2333 30.7552 60.2114 30.7552 63.1895 30.7552C63.9821 30.7552 64.7746 30.7552 65.5644 30.7552C67.2577 30.7552 68.6616 31.9736 68.694 33.7306C68.7265 35.493 68.7103 37.2581 68.6994 39.0205C69.8517 39.0341 71.004 39.0287 72.1536 39.0015C72.0887 35.5909 70.885 32.232 68.6994 29.6183C66.3489 26.8061 63.084 24.9539 59.5271 24.2142C55.8592 23.4526 52.0047 23.8742 48.7426 25.7835C45.7239 27.5513 43.4004 30.4424 42.3319 33.7959C41.1364 37.5464 41.5691 41.5961 43.2408 45.1373C43.4085 45.4935 43.3409 45.9178 42.9838 46.13C42.6673 46.3149 42.1669 46.2224 41.9992 45.8689C41.0714 43.9106 40.4628 41.8355 40.2654 39.6705C39.9137 35.7867 41.0255 31.805 43.3679 28.699C45.6887 25.6203 49.0753 23.4309 52.8513 22.6993C56.8492 21.9241 61.1662 22.6557 64.7557 24.5732C68.0908 26.3573 70.8066 29.2702 72.2834 32.7787C73.1057 34.7315 73.5466 36.8393 73.5872 38.9525C73.9578 38.9362 74.3284 38.9226 74.7016 38.9009C75.3346 38.8655 75.9675 38.8193 76.6032 38.7649ZM67.2658 40.4457C66.8574 40.4348 66.4517 40.4239 66.0459 40.4076C65.1208 40.3722 65.1208 38.9199 66.0459 38.9552C66.449 38.9716 66.8547 38.9824 67.2577 38.9933C67.2577 38.6561 67.255 38.3188 67.255 37.9816C67.255 36.7631 67.255 35.5447 67.255 34.3262C67.255 34.1277 67.2577 33.9291 67.255 33.7306C67.2388 32.8848 66.5842 32.2211 65.7457 32.2075C64.0713 32.1749 62.3943 32.2075 60.7226 32.2075C57.7797 32.2075 54.8395 32.2075 51.8965 32.2075C50.8605 32.2075 49.8218 32.2075 48.7831 32.2075C48.1069 32.2075 47.4063 32.1232 46.8816 32.6536C46.2811 33.2601 46.4407 34.2637 46.4407 35.0524C46.4407 36.4368 46.4407 37.8211 46.4407 39.2055C46.4407 40.5817 46.4407 41.9579 46.4407 43.3341C46.4407 44.15 46.2811 45.1481 46.9492 45.7492C47.474 46.2224 48.18 46.1327 48.8318 46.1327C49.8759 46.1327 50.9173 46.1327 51.9587 46.1327C54.9125 46.1327 57.8663 46.1327 60.82 46.1327C62.4619 46.1327 64.1038 46.1327 65.7457 46.1327C66.5842 46.1137 67.2388 45.4555 67.255 44.6069C67.2821 43.2225 67.2739 41.8328 67.2658 40.4457ZM85.9433 32.5774C86.184 32.6645 86.4383 32.727 86.7033 32.7488C87.8097 32.8412 89.0404 32.4115 89.5651 31.359C89.7599 30.9646 89.7978 30.456 89.6165 30.146C89.4515 29.8685 89.2054 29.6945 88.8943 29.5993C88.1775 29.379 87.339 29.5503 86.798 30.1269C86.1867 30.7797 85.9784 31.6908 85.9433 32.5774ZM16.9869 7.68621C17.5765 7.74061 18.1581 7.8222 18.7315 7.93371C19.1156 8.00714 19.3293 8.4695 19.2347 8.82579C19.1238 9.22287 18.7288 9.4051 18.3474 9.33166C17.9011 9.24463 17.4467 9.17936 16.9869 9.13312C16.9869 9.51389 16.9869 9.89737 16.9869 10.2781C16.9869 12.0025 16.9869 13.7241 16.9869 15.4484C16.9869 16.365 16.757 17.6895 17.5657 18.3286C18.1392 18.7828 19.0453 18.6495 19.7378 18.6495C21.0767 18.6495 22.4156 18.6495 23.7519 18.6495C27.463 18.6495 31.1742 18.6495 34.8826 18.6495C36.9194 18.6495 38.9589 18.6495 40.9957 18.6495C41.8532 18.6305 42.4942 17.9533 42.505 17.0938C42.5429 14.2136 42.505 11.328 42.505 8.44774C42.505 8.21112 42.505 7.97722 42.505 7.74061C41.8505 8.19753 41.204 8.65988 40.5602 9.12224C40.241 9.3507 39.7596 9.17664 39.5756 8.86115C39.3673 8.50214 39.5188 8.09417 39.8353 7.86843C40.7171 7.23473 41.6043 6.60103 42.505 5.98908C42.505 5.26563 42.505 4.54217 42.505 3.82144C42.505 3.54674 42.5105 3.27477 42.505 3.00279C42.4888 2.14607 41.8315 1.48789 40.9849 1.47429C38.8209 1.43621 36.6543 1.47429 34.4931 1.47429C30.8009 1.47429 27.1087 1.47429 23.4165 1.47429C22.1235 1.47429 20.8279 1.47429 19.5349 1.47429C18.7099 1.47429 17.7875 1.34646 17.2493 2.13519C16.9842 2.52411 16.9869 2.94024 16.9869 3.38628C16.9869 3.91663 16.9869 4.44698 16.9869 4.98005C16.9869 5.88029 16.9869 6.78325 16.9869 7.68621ZM10.7466 23.0311C11.312 23.0229 11.8665 22.8597 12.3507 22.4871C12.8267 22.12 13.1134 21.5651 13.0864 20.9722C13.062 20.5071 12.7537 20.1264 12.3344 20.1046C11.8475 20.0801 11.2822 20.4038 10.9901 20.8634C10.5979 21.489 10.6249 22.3212 10.7466 23.0311ZM5.94001 34.0298C5.94001 35.2591 5.94001 36.4884 5.94001 37.7205C5.94001 38.9661 5.94001 40.2118 5.94001 41.4574C5.94001 42.2217 5.81558 43.073 6.41607 43.6523C6.91107 44.1309 7.55484 44.0657 8.18238 44.0657C9.11287 44.0657 10.0407 44.0657 10.9711 44.0657C13.622 44.0657 16.2701 44.0657 18.9209 44.0657C20.4005 44.0657 21.8801 44.0657 23.357 44.0657C24.1062 44.0494 24.7608 43.5054 24.8582 42.7439C24.9447 42.0938 24.869 41.3894 24.869 40.7367C24.869 39.4067 24.869 38.0768 24.869 36.7468C24.869 35.6562 24.869 34.5628 24.869 33.4722C24.869 33.2574 24.8825 33.0343 24.8636 32.8195C24.7933 32.0661 24.1549 31.4678 23.4083 31.446C21.9261 31.4025 20.4356 31.446 18.9534 31.446C17.4684 31.446 15.9834 31.446 14.4984 31.446C14.7851 31.854 15.0826 32.2565 15.3964 32.6481C15.6425 32.9527 15.6966 33.3716 15.3964 33.6735C15.1421 33.9319 14.6255 33.9781 14.3793 33.6735C13.8032 32.9582 13.2649 32.213 12.7672 31.446C12.1775 31.446 11.5906 31.446 11.0009 31.446C10.0677 31.446 9.1318 31.446 8.19861 31.446C7.59812 31.446 6.97869 31.378 6.48369 31.7941C5.81287 32.3598 5.94001 33.2438 5.94001 34.0298ZM19.0832 71.7664C19.3997 71.6957 19.5998 71.3747 19.6133 71.0647C19.635 70.4963 19.6972 69.9251 19.7702 69.3594C19.7729 69.3404 19.7729 69.3322 19.7756 69.3186C19.7783 69.3077 19.7783 69.2941 19.7838 69.2697C19.7892 69.2234 19.7973 69.1745 19.8027 69.1255C19.8243 68.9705 19.8487 68.8155 19.873 68.6632C19.9271 68.3395 19.9839 68.0159 20.0488 67.6949C20.1895 66.9796 20.3599 66.2698 20.5628 65.5681C21.0172 63.996 21.642 62.473 22.5401 61.1022C23.5328 59.5819 24.6229 58.1078 25.9726 56.8893C27.2385 55.7497 28.783 54.8549 30.4952 54.6673C32.0992 54.4905 33.6708 54.9583 34.75 56.2039C35.7157 57.3136 36.135 58.8557 36.0322 60.3135C35.9213 61.9372 35.1017 63.482 34.0251 64.6651C33.0784 65.7068 30.8874 67.714 29.5133 66.2752C28.1176 64.8147 29.2969 62.5927 30.0705 61.1566C30.5114 60.3353 29.2699 59.6009 28.8263 60.425C27.8363 62.2663 26.9085 64.3306 27.866 66.384C28.2583 67.2244 29.0156 67.9207 29.9245 68.1274C30.9929 68.3667 32.0776 68.0023 32.9837 67.4365C36.1918 65.4321 38.3855 61.3198 37.1141 57.5502C36.5055 55.7443 35.2315 54.2648 33.4517 53.5739C31.5718 52.8451 29.4322 53.1877 27.6469 54.0145C25.7751 54.8821 24.236 56.4106 22.9756 58.018C21.7367 59.5982 20.6493 61.2573 19.8865 63.123C19.2536 64.6733 18.8262 66.3051 18.5395 67.9506C18.3961 68.7801 18.2663 69.6287 18.2095 70.4745C14.3604 71.3367 10.5005 72.1472 6.62705 72.8815C5.14206 73.1616 3.65435 73.4309 2.16124 73.6621C1.77714 73.7219 1.56345 74.2087 1.65813 74.5541C1.77173 74.9703 2.15853 75.1226 2.54534 75.0627C7.63599 74.274 12.6861 73.1752 17.7172 72.0683C18.1716 71.9677 18.6288 71.867 19.0832 71.7664ZM14.3496 68.6604C14.7661 68.6604 15.0393 68.3259 15.0691 67.9343C15.4451 63.1937 17.4548 58.3716 20.533 54.7679C21.3391 53.8242 22.2317 52.943 23.2352 52.2113C23.549 51.9829 23.7032 51.5804 23.4922 51.2186C23.311 50.9059 22.8268 50.7264 22.5103 50.9575C18.4232 53.9411 15.702 58.7632 14.3847 63.6044C14.0007 65.0214 13.7464 66.471 13.6301 67.9343C13.6003 68.3259 13.9844 68.6604 14.3496 68.6604ZM16.7434 53.166C17.0356 52.9049 17.0058 52.4044 16.7434 52.1379C16.454 51.8469 16.0185 51.8795 15.7264 52.1379C14.4416 53.2775 13.4488 54.7679 12.6293 56.2665C11.6366 58.0806 10.8575 60.0361 10.349 62.0405C10.065 63.1611 9.87025 64.3088 9.78639 65.462C9.75664 65.8536 10.138 66.1882 10.5059 66.1882C10.9198 66.1882 11.1957 65.8536 11.2254 65.462C11.4039 63.036 12.137 60.6263 13.1513 58.4287C14.0385 56.514 15.1529 54.5775 16.7434 53.166ZM8.31222 50.3021C8.69631 50.245 8.9073 49.7554 8.81533 49.41C8.70172 48.9939 8.31492 48.8443 7.92812 48.9041C5.73173 49.2359 3.17558 48.9476 1.16854 47.9576C0.819602 47.7863 0.392226 47.8625 0.183947 48.2187C1.23307e-05 48.537 0.0919798 49.0374 0.443619 49.2115C2.82935 50.3891 5.70197 50.6992 8.31222 50.3021ZM8.27976 52.7199C6.23484 53.2884 4.20616 54.0145 2.29378 54.9393C1.94214 55.1079 1.85018 55.611 2.03411 55.932C2.24509 56.291 2.66706 56.3617 3.0187 56.1903C4.82017 55.32 6.73796 54.6537 8.66115 54.1179C9.55377 53.8704 9.17508 52.4697 8.27976 52.7199ZM30.5087 46.6005H30.5114C30.5114 46.6005 30.5114 46.6005 30.5087 46.6005ZM31.9883 48.0882C31.9883 48.0882 31.9883 48.0909 31.9883 48.0936C31.9883 48.0909 31.9883 48.0909 31.9883 48.0909V48.0882ZM29.4376 47.5252C29.4484 47.4898 29.4592 47.4572 29.4701 47.4219C29.4755 47.4137 29.4782 47.4028 29.4809 47.3947C29.5242 47.3294 29.5539 47.2532 29.5972 47.1852C29.6161 47.1553 29.6351 47.1254 29.6567 47.0955C29.6567 47.0928 29.6567 47.0928 29.6594 47.09C29.6648 47.0846 29.6675 47.0846 29.6729 47.0764C29.7351 47.0112 29.7974 46.9513 29.8596 46.8888C29.865 46.8833 29.8704 46.8779 29.8785 46.8725C29.9001 46.8561 29.9218 46.8398 29.9461 46.8235C30.0137 46.78 30.0841 46.7446 30.1544 46.7038C30.1571 46.7038 30.1598 46.7011 30.1625 46.6984C30.2004 46.6848 30.241 46.6712 30.2788 46.6576C30.2951 46.6522 30.4384 46.6168 30.5087 46.6005C30.4168 46.6059 30.4655 46.6032 30.5087 46.6005C30.5304 46.595 30.5439 46.5923 30.5466 46.595C30.5466 46.5978 30.5304 46.5978 30.5114 46.6005C30.5142 46.6005 30.5169 46.6005 30.5196 46.6005C30.5764 46.5978 30.6305 46.5923 30.6873 46.5923C31.0633 46.5869 31.4257 46.2632 31.4068 45.8662C31.3905 45.4772 31.0903 45.1345 30.6873 45.1427C29.7378 45.1536 28.8642 45.6404 28.3529 46.4509C27.839 47.275 27.8282 48.3221 28.2501 49.1815C28.6694 50.0383 29.5377 50.5741 30.4628 50.6665C31.4149 50.7644 32.3319 50.2994 32.8999 49.5433C33.5761 48.6403 33.6005 47.3457 32.9892 46.4019C32.7836 46.0837 32.3427 45.9233 32.0046 46.1409C31.6908 46.3448 31.5285 46.7936 31.7476 47.1336C31.7963 47.207 31.8369 47.2831 31.8801 47.362C31.8828 47.3702 31.8883 47.3756 31.891 47.3838C31.9099 47.43 31.9261 47.479 31.9396 47.5279C31.9505 47.5714 31.964 47.615 31.9721 47.6585C31.9748 47.6666 31.9802 47.702 31.9856 47.7292C31.9883 47.7564 31.991 47.7972 31.991 47.8053C31.9937 47.8597 31.9964 47.9141 31.9937 47.9685C31.9937 48.0066 31.991 48.042 31.9883 48.08C31.9883 48.0828 31.9883 48.0855 31.9883 48.0882C31.9883 48.0692 31.991 48.0556 31.9937 48.0556C31.9937 48.0556 31.991 48.0692 31.9883 48.0909C31.9829 48.1834 31.9829 48.1344 31.9883 48.0936C31.9721 48.1589 31.9396 48.2895 31.9369 48.2949C31.9288 48.3303 31.9153 48.3656 31.9045 48.401C31.9018 48.4091 31.891 48.4336 31.8828 48.4499C31.8774 48.4608 31.8747 48.469 31.872 48.4744C31.8504 48.5125 31.8314 48.5533 31.8071 48.5914C31.7828 48.6321 31.753 48.6729 31.726 48.7137C31.7178 48.7192 31.6313 48.8225 31.6124 48.8416C31.588 48.8688 31.561 48.8905 31.5366 48.915C31.5339 48.9177 31.5285 48.9232 31.5231 48.9286C31.5069 48.9395 31.4852 48.9612 31.4744 48.9667C31.4365 48.9912 31.4014 49.0156 31.3635 49.0401C31.3175 49.0673 31.2715 49.0891 31.2228 49.1135C31.2769 49.0836 31.1092 49.1598 31.0714 49.1707C31.0037 49.1924 30.9334 49.2033 30.8658 49.2196C30.8252 49.2223 30.7846 49.2278 30.7441 49.2278C30.6656 49.2305 30.5872 49.2223 30.506 49.2196C30.4736 49.2115 30.4438 49.206 30.4114 49.2006C30.341 49.1815 30.2734 49.1598 30.2031 49.138C30.1923 49.1353 30.1706 49.1244 30.1544 49.1163C30.1328 49.1054 30.1138 49.0945 30.1057 49.0918C30.0354 49.0537 29.9678 49.0129 29.9028 48.9667C29.8893 48.9585 29.8812 48.9531 29.8731 48.9476C29.8677 48.9422 29.8569 48.9313 29.8406 48.915C29.7892 48.866 29.7405 48.8171 29.6919 48.7654C29.6919 48.7654 29.6892 48.7627 29.6865 48.76C29.6783 48.7491 29.6351 48.6947 29.6242 48.6811C29.581 48.6131 29.5431 48.5451 29.5052 48.4744C29.4944 48.4554 29.4863 48.4418 29.4809 48.4336C29.4782 48.4254 29.4755 48.4146 29.4701 48.3982C29.4484 48.3303 29.4268 48.2623 29.4105 48.1888C29.4024 48.1562 29.397 48.1236 29.3889 48.0909C29.3889 48.0773 29.3862 48.0664 29.3862 48.0528C29.3808 47.9767 29.3808 47.9005 29.3835 47.8244C29.3835 47.7945 29.3889 47.7618 29.3889 47.7319C29.4051 47.6639 29.4187 47.5932 29.4376 47.5252ZM45.6022 82.4115C44.9882 81.6826 44.7555 80.7144 45.0206 79.787C45.1315 79.398 45.521 79.1913 45.9051 79.2811C46.2811 79.3681 46.511 79.8087 46.4082 80.1732C46.392 80.2248 46.3785 80.2792 46.365 80.3336C46.365 80.3363 46.3595 80.3663 46.3541 80.3935C46.3514 80.4179 46.3487 80.4506 46.3487 80.4587C46.346 80.4941 46.346 80.5294 46.346 80.5648C46.346 80.6192 46.3487 80.6709 46.3514 80.7225C46.3514 80.7769 46.3514 80.7851 46.3487 80.7769C46.3623 80.8341 46.3866 80.8993 46.3974 80.9401C46.4109 80.9891 46.4299 81.038 46.4461 81.087C46.4515 81.106 46.4542 81.1196 46.4542 81.1251C46.4813 81.1822 46.53 81.2475 46.5516 81.2828C46.5624 81.3019 46.5759 81.3291 46.5922 81.3563C46.5976 81.3617 46.6057 81.3699 46.6192 81.3862C46.676 81.4487 46.7328 81.514 46.7977 81.5711C46.8032 81.5766 46.8221 81.5929 46.8383 81.6092C46.8545 81.6201 46.8681 81.631 46.8762 81.6364C46.9411 81.6799 47.0087 81.7207 47.0791 81.7588C47.0872 81.7615 47.1142 81.7778 47.1386 81.7887C47.144 81.7914 47.1467 81.7914 47.1521 81.7941C47.2224 81.8159 47.2927 81.8404 47.3631 81.8567C47.3712 81.8594 47.4145 81.8649 47.4523 81.873C47.4388 81.8757 47.4415 81.8812 47.4875 81.8839C47.4929 81.8839 47.4983 81.8839 47.5037 81.8839C47.5118 81.8866 47.52 81.8893 47.5227 81.8893C47.52 81.8893 47.5173 81.8866 47.5145 81.8839C47.5768 81.8893 47.6363 81.892 47.6985 81.8893C47.7363 81.8893 47.7769 81.8866 47.8148 81.8839C47.8824 81.8676 47.95 81.8567 48.0177 81.8377C48.0582 81.8268 48.0988 81.8132 48.1394 81.7996C48.1475 81.7969 48.1637 81.7887 48.18 81.7805C48.2016 81.7724 48.2205 81.7615 48.2232 81.7588C48.253 81.7425 48.2827 81.7261 48.3125 81.7098C48.3423 81.6935 48.3963 81.6663 48.4396 81.6391C48.4423 81.631 48.4477 81.6255 48.4586 81.6146C48.4829 81.5902 48.51 81.5684 48.5343 81.5466C48.5695 81.514 48.6344 81.4623 48.6777 81.4107C48.6777 81.4025 48.6831 81.3916 48.6939 81.378C48.7155 81.3399 48.7426 81.3046 48.7642 81.2665C48.7994 81.2067 48.8291 81.1441 48.8616 81.0816C48.8643 81.0788 48.8643 81.0788 48.8643 81.0761C48.8751 81.0408 48.8886 81.0054 48.8995 80.97C48.9103 80.9293 48.9373 80.8585 48.9536 80.7933C48.9509 80.7905 48.9509 80.7742 48.9536 80.7389C48.9563 80.7035 48.959 80.6682 48.959 80.6328C48.9617 80.5621 48.9563 80.4914 48.9536 80.4207C48.9536 80.4098 48.9536 80.4043 48.9536 80.3962C48.9509 80.3799 48.9454 80.3663 48.9454 80.3554C48.9265 80.2711 48.9049 80.1895 48.8778 80.1079C48.8724 80.0943 48.8643 80.0644 48.8562 80.0399C48.8508 80.0317 48.8454 80.0263 48.8427 80.0209C48.8075 79.9583 48.7777 79.8985 48.7399 79.8414C48.7318 79.8278 48.7209 79.806 48.7101 79.7842C48.702 79.7788 48.6966 79.7706 48.6858 79.7598C48.629 79.6945 48.5722 79.6319 48.5073 79.5721C48.4991 79.5639 48.4856 79.5503 48.4694 79.5367C48.464 79.5313 48.4586 79.5286 48.4504 79.5231C48.3936 79.4851 48.3341 79.447 48.2719 79.4116C48.2422 79.3953 48.2097 79.379 48.18 79.3627C48.1394 79.3409 48.1286 79.3355 48.1313 79.3355C48.0582 79.3083 47.969 79.2947 47.9068 79.2784C47.8851 79.2729 47.8716 79.2675 47.8608 79.2648C47.8094 79.2593 47.758 79.2566 47.7066 79.2539C47.6606 79.2539 47.6146 79.2539 47.5659 79.2566C47.5578 79.2566 47.5254 79.2593 47.501 79.262C47.4632 79.2675 47.3739 79.2838 47.3793 79.2838C47.336 79.292 47.29 79.3056 47.2468 79.3192C46.86 79.4334 46.4813 79.1832 46.3623 78.8133C46.2405 78.4352 46.5029 78.0246 46.8627 77.9185C48.0393 77.5758 49.2781 78.049 49.9544 79.0662C50.4818 79.8577 50.517 80.8803 50.141 81.737C49.7867 82.5366 49.005 83.1513 48.1475 83.2927C47.2197 83.445 46.2243 83.1486 45.6022 82.4115ZM47.1467 81.7914C47.1602 81.7996 47.1737 81.8077 47.1764 81.805C47.1764 81.805 47.1629 81.7996 47.1467 81.7914ZM47.5145 81.8839C47.4956 81.873 47.4659 81.8703 47.4523 81.873C47.474 81.8757 47.4929 81.8812 47.5037 81.8839C47.5091 81.8839 47.5118 81.8839 47.5145 81.8839ZM93.8714 38.2046C95.8974 35.8085 97.3959 33.0071 98.2425 29.9773C98.4941 29.0771 97.1037 28.6909 96.8549 29.5911C96.0759 32.3734 94.7153 34.9762 92.8543 37.1765C92.6001 37.4757 92.5622 37.9109 92.8543 38.2046C93.1113 38.463 93.6171 38.5038 93.8714 38.2046ZM95.8351 39.5346C96.0488 39.9017 96.4654 39.9588 96.8197 39.7957C98.9701 38.8057 100.918 37.3642 102.508 35.5991C102.768 35.3108 102.792 34.8593 102.508 34.5737C102.243 34.3072 101.753 34.2827 101.491 34.5737C99.9737 36.2573 98.1451 37.5981 96.0948 38.5418C95.7405 38.705 95.6539 39.2218 95.8351 39.5346ZM22.4075 7.01443C24.0629 7.01443 25.7183 7.01443 27.3737 7.01443C30.0002 7.01443 32.6294 7.01443 35.2559 7.01443C35.8645 7.01443 36.4731 7.01443 37.0844 7.01443C38.0095 7.01443 38.0095 5.56208 37.0844 5.56208C35.429 5.56208 33.7736 5.56208 32.1182 5.56208C29.489 5.56208 26.8625 5.56208 24.236 5.56208C23.6274 5.56208 23.0161 5.56208 22.4075 5.56208C21.4824 5.56208 21.4797 7.01443 22.4075 7.01443ZM22.4075 10.7867C24.0629 10.7867 25.7183 10.7867 27.3737 10.7867C30.0002 10.7867 32.6294 10.7867 35.2559 10.7867C35.8645 10.7867 36.4731 10.7867 37.0844 10.7867C38.0095 10.7867 38.0095 9.3371 37.0844 9.3371C35.429 9.3371 33.7736 9.3371 32.1182 9.3371C29.489 9.3371 26.8625 9.3371 24.236 9.3371C23.6274 9.3371 23.0161 9.3371 22.4075 9.3371C21.4824 9.3371 21.4797 10.7867 22.4075 10.7867ZM22.4075 14.5618C24.0629 14.5618 25.7183 14.5618 27.3737 14.5618C30.0002 14.5618 32.6294 14.5618 35.2559 14.5618C35.8645 14.5618 36.4731 14.5618 37.0844 14.5618C38.0095 14.5618 38.0095 13.1094 37.0844 13.1094C35.429 13.1094 33.7736 13.1094 32.1182 13.1094C29.489 13.1094 26.8625 13.1094 24.236 13.1094C23.6274 13.1094 23.0161 13.1094 22.4075 13.1094C21.4824 13.1094 21.4797 14.5618 22.4075 14.5618ZM9.50508 38.0713C12.9538 38.0713 16.3999 38.0713 19.846 38.0713C20.3329 38.0713 20.817 38.0713 21.3039 38.0713C22.229 38.0713 22.229 36.619 21.3039 36.619C17.8552 36.619 14.4091 36.619 10.9603 36.619C10.4761 36.619 9.99197 36.619 9.50508 36.619C8.58 36.619 8.5773 38.0713 9.50508 38.0713ZM9.50508 41.5553C12.9538 41.5553 16.3999 41.5553 19.846 41.5553C20.3329 41.5553 20.817 41.5553 21.3039 41.5553C22.229 41.5553 22.229 40.103 21.3039 40.103C17.8552 40.103 14.4091 40.103 10.9603 40.103C10.4761 40.103 9.99197 40.103 9.50508 40.103C8.58 40.103 8.5773 41.5553 9.50508 41.5553ZM73.8739 14.9697C70.4252 14.9697 66.9791 14.9697 63.5331 14.9697C63.0462 14.9697 62.562 14.9697 62.0751 14.9697C61.15 14.9697 61.15 16.4221 62.0751 16.4221C65.5239 16.4221 68.9699 16.4221 72.4187 16.4221C72.9029 16.4221 73.3871 16.4221 73.8739 16.4221C74.799 16.4221 74.8017 14.9697 73.8739 14.9697ZM73.8739 18.742C72.8407 18.742 71.8047 18.742 70.7714 18.742C70.6253 18.742 70.4793 18.742 70.3332 18.742C69.9572 18.742 69.5975 19.0766 69.6137 19.4682C69.6326 19.8626 69.9302 20.1944 70.3332 20.1944C71.3665 20.1944 72.3998 20.1944 73.4357 20.1944C73.5818 20.1944 73.7279 20.1944 73.8739 20.1944C74.2499 20.1944 74.6097 19.8598 74.5934 19.4682C74.5745 19.0766 74.277 18.742 73.8739 18.742ZM64.1849 37.1439C62.5295 37.1439 60.8741 37.1439 59.2187 37.1439C56.5922 37.1439 53.9658 37.1439 51.3366 37.1439C50.728 37.1439 50.1194 37.1439 49.5108 37.1439C48.5857 37.1439 48.583 38.5962 49.5108 38.5962C51.1662 38.5962 52.8216 38.5962 54.477 38.5962C57.1035 38.5962 59.7299 38.5962 62.3591 38.5962C62.9677 38.5962 63.5763 38.5962 64.1849 38.5962C65.11 38.5962 65.1127 37.1439 64.1849 37.1439ZM64.1849 40.9189C62.5295 40.9189 60.8741 40.9189 59.2187 40.9189C56.5922 40.9189 53.9658 40.9189 51.3366 40.9189C50.728 40.9189 50.1194 40.9189 49.5108 40.9189C48.5857 40.9189 48.583 42.3685 49.5108 42.3685C51.1662 42.3685 52.8216 42.3685 54.477 42.3685C57.1035 42.3685 59.7299 42.3685 62.3591 42.3685C62.9677 42.3685 63.5763 42.3685 64.1849 42.3685C65.11 42.3685 65.1127 40.9189 64.1849 40.9189Z" fill="#9AD4EA"/>
</g>
<path d="M96.7142 72.4651C96.5141 73.2429 95.8189 73.6427 95.0642 73.6482C94.3664 73.6536 93.6685 73.6482 92.9706 73.6482C89.7329 73.6482 86.4924 73.6482 83.2519 73.6482C78.9754 73.6482 74.6989 73.6482 70.4225 73.6482C66.7248 73.6482 63.0299 73.6482 59.335 73.6482C58.2368 73.6482 57.1359 73.6482 56.0377 73.6482C55.1965 73.6482 54.2308 73.7678 53.7196 72.8975C53.3977 72.3508 53.4897 71.6247 53.4897 71.0127C53.4897 70.0472 53.4897 69.0817 53.4897 68.1162C53.4897 66.6013 53.4897 65.0891 53.4897 63.5742C53.4897 62.6386 54.9287 62.6413 54.9287 63.5742C54.9287 64.0093 54.9287 64.4418 54.9287 64.877C54.9287 66.8515 54.9287 68.8288 54.9287 70.8033C54.9287 71.1242 54.9287 71.4424 54.9287 71.7607C54.9287 71.8314 54.9017 72.0299 54.9179 72.0843C54.9639 72.2393 55.1532 72.1985 55.2993 72.1985C57.4605 72.1985 59.6244 72.1985 61.7857 72.1985C65.7051 72.1985 69.6272 72.1985 73.5466 72.1985C77.6581 72.1985 81.7723 72.1985 85.8838 72.1985C88.632 72.1985 91.3801 72.1985 94.1283 72.1985C94.407 72.1985 94.6856 72.1985 94.9669 72.1985C95.1292 72.1985 95.2833 72.2339 95.3266 72.0789C95.3672 71.9347 95.3239 71.6872 95.3239 71.5349C95.3239 71.0209 95.3239 70.5096 95.3239 69.9955C95.3239 66.1661 95.3239 62.334 95.3239 58.5046C95.3239 55.3768 95.3239 52.2518 95.3239 49.1241C95.3239 48.931 95.3753 48.6862 95.2049 48.6373C94.9587 48.5666 94.5909 48.6373 94.3366 48.6373C92.6488 48.6373 90.9636 48.6373 89.2784 48.6373C86.2327 48.6373 83.187 48.6373 80.1412 48.6373C79.2161 48.6373 79.2161 47.1849 80.1412 47.1849C80.409 47.1849 80.6768 47.1849 80.9419 47.1849C84.7396 47.1849 88.5373 47.1849 92.335 47.1849C93.0491 47.1849 93.7605 47.1849 94.4746 47.1849C94.8289 47.1849 95.2401 47.1414 95.589 47.2339C96.4248 47.4542 96.7629 48.2021 96.7629 48.9963C96.7629 49.4206 96.7629 49.8421 96.7629 50.2664C96.7629 54.036 96.7629 57.8056 96.7629 61.5752C96.7629 64.9014 96.7629 68.2304 96.7629 71.5567C96.7629 71.8531 96.7873 72.1795 96.7142 72.4651ZM19.232 8.82549C19.1238 9.22258 18.7288 9.4048 18.3474 9.33137C17.9011 9.24433 17.4467 9.17906 16.9869 9.13282C16.5108 9.08387 16.0293 9.05667 15.5479 9.05395C13.3109 9.04307 11.055 9.55439 9.20483 10.8109C6.72984 12.4944 5.54779 15.595 6.2132 18.5296C6.5432 19.9792 7.31951 21.456 8.55836 22.3182C8.77746 22.4705 9.01549 22.6011 9.26164 22.7098C9.20213 22.0571 9.23729 21.3989 9.45368 20.7788C10.0352 19.117 12.2046 17.904 13.722 19.185C14.401 19.7562 14.6093 20.6863 14.4821 21.5376C14.3469 22.4542 13.8113 23.2184 13.0702 23.7461C12.4724 24.1704 11.788 24.3961 11.082 24.4587C11.4499 25.7369 11.972 26.988 12.5508 28.1602C12.8592 28.7858 13.2027 29.395 13.5597 29.9934C13.8573 30.4883 14.1684 30.9725 14.4984 31.4457C14.7878 31.8537 15.0826 32.2562 15.3964 32.6478C15.6425 32.9524 15.6966 33.3713 15.3964 33.6732C15.1421 33.9316 14.6255 33.9778 14.3793 33.6732C13.8032 32.9579 13.2649 32.2127 12.7672 31.4457C12.4588 30.9697 12.1667 30.4856 11.8908 29.9906C11.4661 29.2318 11.0793 28.4458 10.7331 27.6408C10.2787 26.5692 9.87836 25.4731 9.5727 24.3471C8.98573 24.2084 8.42311 23.9664 7.92541 23.6318C6.3268 22.563 5.25025 20.7843 4.82558 18.9158C4.40631 17.0609 4.56861 15.0972 5.30976 13.3484C6.00492 11.703 7.22754 10.3431 8.72606 9.39392C10.7493 8.11563 13.1567 7.59888 15.5479 7.61248C16.0293 7.6152 16.5081 7.6424 16.9869 7.68591C17.5765 7.74031 18.1581 7.8219 18.7315 7.93341C19.1129 8.00684 19.3293 8.4692 19.232 8.82549ZM10.7466 23.0308C11.312 23.0226 11.8665 22.8594 12.3506 22.4868C12.8267 22.1197 13.1134 21.5648 13.0864 20.9719C13.062 20.5068 12.7537 20.1261 12.3344 20.1043C11.8475 20.0798 11.2822 20.4035 10.9901 20.8631C10.5979 21.4887 10.6249 22.3209 10.7466 23.0308ZM58.6047 3.39686C60.3061 4.03872 61.6558 5.31428 62.5268 6.90534C62.919 7.61792 63.203 8.37945 63.4005 9.16274C63.5195 9.6387 63.6061 10.1255 63.6575 10.6151C63.7251 11.276 63.7386 11.9423 63.6872 12.606C63.6575 12.9976 64.0389 13.3321 64.4067 13.3321C64.8206 13.3321 65.0965 12.9976 65.1262 12.606C65.1776 11.9478 65.1641 11.2787 65.1019 10.6151C65.0559 10.1255 64.9802 9.64142 64.8747 9.16274C64.2742 6.43754 62.7162 3.92177 60.2439 2.56733C55.9674 0.2229 50.7118 1.42231 46.6003 3.51653C45.6968 3.97617 44.8204 4.48748 43.963 5.02871C43.4734 5.33876 42.9865 5.65969 42.505 5.98878C41.6043 6.60073 40.7171 7.23443 39.8353 7.86814C39.5188 8.09388 39.3673 8.50184 39.5756 8.86085C39.7595 9.17634 40.241 9.3504 40.5602 9.12194C41.204 8.65959 41.8504 8.19723 42.505 7.74031C42.9865 7.40578 43.4734 7.07397 43.963 6.75032C46.5381 5.05863 49.2538 3.60084 52.2995 3.00249C54.385 2.58909 56.6004 2.63804 58.6047 3.39686Z" fill="white"/>
<mask id="mask1_34_1727" style="mask-type:luminance" maskUnits="userSpaceOnUse" x="15" y="0" width="84" height="97">
<path d="M15.4451 0H98.54V96.5187H15.4451V0Z" fill="white"/>
</mask>
<g mask="url(#mask1_34_1727)">
<path d="M39.3781 51.0718C39.5106 51.1942 39.5891 51.4063 39.5891 51.5858C39.5891 51.7952 39.5025 51.9394 39.3781 52.0971C39.3051 52.1923 39.232 52.2902 39.1563 52.3854C38.6342 53.0626 38.1095 53.7398 37.5847 54.4171C37.4711 54.5639 37.252 54.621 37.0762 54.6292C36.8842 54.6374 36.7056 54.5449 36.5677 54.4171C36.4351 54.2947 36.3567 54.0825 36.3567 53.903C36.3567 53.6936 36.446 53.5495 36.5677 53.3917C36.6407 53.2938 36.7164 53.1986 36.7895 53.1034C37.3142 52.4262 37.8363 51.749 38.361 51.0718C38.4746 50.9249 38.6937 50.8678 38.8696 50.8596C39.0616 50.8515 39.2428 50.9439 39.3781 51.0718ZM54.6852 56.1332C58.5451 56.427 62.4321 55.524 65.7023 53.4108C68.9996 51.2785 71.5585 48.0555 72.7973 44.2996C73.2112 43.043 73.4573 41.7376 73.5493 40.4239C73.0705 40.443 72.589 40.4593 72.1076 40.4701C71.8371 43.742 70.4494 46.8806 68.2666 49.3284C65.7456 52.1542 62.3076 54.0091 58.583 54.5775C57.0926 54.806 55.5778 54.7761 54.082 54.6265C53.825 54.602 53.5681 54.5721 53.3111 54.5395C53.2976 54.5395 53.2245 54.5286 53.1867 54.5231C53.1461 54.5177 53.0785 54.5095 53.0622 54.5068C52.9108 54.4851 52.7593 54.4606 52.6105 54.4361C52.0371 54.3436 51.4664 54.2348 50.901 54.107C49.6514 53.8242 48.4179 53.4515 47.225 52.9756C46.6922 52.7635 46.1323 52.5132 45.5209 52.195C44.9069 51.8795 44.3091 51.5287 43.733 51.1452C41.4095 49.5977 39.4484 47.3375 38.3583 44.713C36.9626 41.3486 36.7327 37.4077 37.4901 33.8584C38.2312 30.3826 39.9894 27.2249 42.551 24.7908C45.1504 22.3185 48.4612 20.6975 51.9559 19.9632C55.7104 19.1745 59.6974 19.3975 63.3328 20.6322C66.7491 21.7936 69.8057 23.9014 72.1211 26.6837C74.3959 29.4225 75.8566 32.7923 76.3948 36.3198C76.5166 37.1276 76.5842 37.9462 76.6031 38.7649C77.0819 38.7213 77.5607 38.6751 78.0394 38.6153C77.9475 35.4304 77.1171 32.2565 75.6564 29.4361C73.9144 26.0663 71.2339 23.2106 68.015 21.2388C64.5392 19.1119 60.4845 18.0594 56.4299 18.0594C52.5023 18.0594 48.5586 19.033 45.1585 21.0321C41.9451 22.9223 39.2537 25.7291 37.6118 29.107C35.8319 32.7678 35.3126 36.9018 35.8698 40.9216C36.3378 44.3132 37.7605 47.517 40.1192 49.9947C42.1479 52.1243 44.7365 53.6202 47.4739 54.6156C49.7893 55.4587 52.2345 55.9456 54.6852 56.1332ZM48.7425 25.7835C52.0046 23.8742 55.8591 23.4526 59.527 24.2142C63.084 24.9539 66.3488 26.8061 68.6994 29.6183C70.8849 32.232 72.0886 35.5909 72.1535 39.0015C72.6323 38.9879 73.1084 38.9716 73.5871 38.9525C73.5466 36.8393 73.1057 34.7315 72.2834 32.7787C70.8065 29.2702 68.0908 26.3573 64.7556 24.5732C61.1662 22.6557 56.8491 21.9241 52.8513 22.6993C49.0752 23.4309 45.6887 25.6203 43.3678 28.699C41.0254 31.805 39.9137 35.7867 40.2653 39.6705C40.4628 41.8355 41.0714 43.9106 41.9991 45.8689C42.1669 46.2224 42.6673 46.3149 42.9837 46.13C43.3408 45.9178 43.4084 45.4935 43.2407 45.1373C41.5691 41.5961 41.1363 37.5464 42.3319 33.7959C43.4003 30.4424 45.7238 27.5513 48.7425 25.7835ZM74.9098 46.9622C73.3735 50.2477 70.912 53.0436 67.9203 55.0562C64.7258 57.2021 60.9849 58.4777 57.1575 58.7605C56.1891 58.8339 55.2127 58.8639 54.2443 58.766C53.2354 58.6653 52.2345 58.445 51.25 58.1975C49.3051 57.708 47.4009 57.0579 45.5291 56.3372C45.0909 56.1686 44.6797 56.0027 44.2091 55.9619C43.6519 55.9129 43.0865 56.0489 42.5915 56.3046C41.9613 56.6282 41.5745 57.1912 41.1525 57.7352C40.9145 58.0452 40.855 58.4613 41.1525 58.7632C41.4014 59.0135 41.9288 59.0733 42.1696 58.7632C42.578 58.2329 42.9432 57.6237 43.6275 57.4496C44.0765 57.3354 44.4687 57.4713 44.8853 57.6345C45.3018 57.7977 45.7211 57.9555 46.1404 58.1105C48.1691 58.853 50.2437 59.5193 52.3671 59.9354C56.4136 60.7269 60.7523 60.0551 64.5446 58.4858C68.1746 56.9818 71.4286 54.602 73.8414 51.4634C76.2163 48.371 77.6905 44.6613 77.9907 40.753C78.007 40.5218 78.0205 40.2934 78.0313 40.0649C77.5471 40.122 77.0657 40.1737 76.5815 40.2172C76.4543 42.5453 75.9025 44.849 74.9098 46.9622ZM85.5916 93.1192C86.4111 94.5253 85.5158 96.2687 83.8739 96.3258C83.7603 96.3258 83.6494 96.3258 83.5358 96.3258C81.1474 96.3258 78.7616 96.3258 76.3732 96.3258C72.1779 96.3258 67.9826 96.3258 63.7872 96.3258C59.5054 96.3258 55.2235 96.3258 50.9416 96.3258C48.2935 96.3258 45.6454 96.3258 43 96.3258C42.7944 96.3258 42.5915 96.3285 42.386 96.3258C41.2526 96.3149 40.2869 95.4391 40.2788 94.2642C40.2734 93.3966 40.9496 92.5589 41.3716 91.8463C41.8396 91.0522 42.3048 90.2526 42.7809 89.4638C43.2028 88.7621 43.8682 88.3732 44.6851 88.3678C44.9421 88.3651 45.1964 88.3678 45.4506 88.3678C46.6002 88.3678 47.7471 88.3678 48.8967 88.3678C52.8432 88.3678 56.7896 88.3678 60.7361 88.3678C65.0612 88.3678 69.3891 88.3678 73.7143 88.3678C76.2488 88.3678 78.7833 88.3678 81.3205 88.3678C81.7262 88.3678 82.1103 88.3923 82.4944 88.5718C83.3167 88.958 83.7414 89.9915 84.1823 90.7394C84.6529 91.5309 85.1263 92.3223 85.5916 93.1192ZM84.4447 94.0194C84.3581 93.8127 84.2093 93.6169 84.0984 93.4265C83.5818 92.5535 83.0652 91.6804 82.5485 90.8074C82.3105 90.4076 82.113 89.8392 81.5883 89.8174C80.9878 89.7929 80.3819 89.8174 79.7787 89.8174C76.5084 89.8174 73.2382 89.8174 69.968 89.8174C65.6293 89.8174 61.2906 89.8174 56.9519 89.8174C53.5735 89.8174 50.1923 89.8174 46.8139 89.8174C46.1052 89.8174 45.3938 89.812 44.6851 89.8174C44.2821 89.8201 44.1009 90.0649 43.9088 90.3858C43.4084 91.2317 42.908 92.0775 42.4076 92.9261C42.2237 93.2334 42.0397 93.5435 41.8585 93.8535C41.7963 93.9623 41.7341 94.0629 41.7178 94.1935C41.6989 94.3458 41.7584 94.5416 41.8855 94.6803C42.0614 94.868 42.2778 94.8734 42.5537 94.8734C43.3083 94.8734 44.063 94.8734 44.8177 94.8734C48.1014 94.8734 51.3852 94.8734 54.6663 94.8734C59.0131 94.8734 63.3599 94.8734 67.7039 94.8734C71.4719 94.8734 75.2398 94.8734 79.0078 94.8734C80.6307 94.8734 82.251 94.8734 83.8739 94.8734C84.3365 94.8598 84.6097 94.4111 84.4447 94.0194ZM16.9868 4.98005C16.9868 4.44698 16.9868 3.91663 16.9868 3.38628C16.9868 2.94024 16.9841 2.52411 17.2492 2.13519C17.7875 1.34646 18.7098 1.47429 19.5348 1.47429C20.8278 1.47429 22.1234 1.47429 23.4164 1.47429C27.1086 1.47429 30.8008 1.47429 34.493 1.47429C36.6542 1.47429 38.8209 1.43621 40.9848 1.47429C41.8314 1.48789 42.4887 2.14607 42.505 3.00279C42.5104 3.27477 42.505 3.54674 42.505 3.82144C42.505 4.54217 42.505 5.26563 42.505 5.98908C42.9864 5.65999 43.4733 5.33906 43.9629 5.02901C43.9602 4.35451 43.9548 3.68001 43.944 3.00551C43.9196 1.65107 43.0081 0.399983 41.6719 0.10081C41.3175 0.0219371 40.974 0.021937 40.6196 0.021937C39.5539 0.021937 38.4909 0.021937 37.4251 0.021937C33.7086 0.021937 29.9947 0.021937 26.2782 0.021937C23.7247 0.021937 21.1686 0.0137775 18.6152 0.021937C17.7902 0.0246565 17.003 0.296632 16.4107 0.894979C15.7966 1.51508 15.5478 2.32829 15.5478 3.18501C15.5478 4.46058 15.5478 5.73342 15.5478 7.00899C15.5478 7.21025 15.5478 7.41151 15.5478 7.61278C16.0293 7.6155 16.508 7.64269 16.9868 7.68621C16.9868 6.78325 16.9868 5.88029 16.9868 4.98005ZM40.9956 20.1019C42.578 20.0665 43.8682 18.8318 43.9413 17.2271C43.9548 16.9551 43.944 16.6804 43.944 16.4085C43.944 14.8555 43.944 13.2998 43.944 11.7468C43.944 10.0823 43.9602 8.41782 43.9629 6.75061C43.4733 7.07426 42.9864 7.40607 42.505 7.7406C42.505 7.97722 42.505 8.21112 42.505 8.44774C42.505 11.328 42.5428 14.2136 42.505 17.0938C42.4941 17.9533 41.8531 18.6305 40.9956 18.6495C38.9588 18.6495 36.9193 18.6495 34.8825 18.6495C31.1741 18.6495 27.4629 18.6495 23.7518 18.6495C22.4156 18.6495 21.0766 18.6495 19.7377 18.6495C19.0452 18.6495 18.1391 18.7828 17.5657 18.3286C16.7569 17.6895 16.9868 16.365 16.9868 15.4484C16.9868 13.7241 16.9868 12.0025 16.9868 10.2781C16.9868 9.89737 16.9868 9.51389 16.9868 9.13312C16.5107 9.08416 16.0293 9.05697 15.5478 9.05425C15.5478 11.6516 15.5478 14.249 15.5478 16.8463C15.5478 17.5535 15.6614 18.247 16.0861 18.8345C16.673 19.6504 17.5684 20.0937 18.5638 20.1019C19.3834 20.1046 20.2029 20.1019 21.0225 20.1019C24.6201 20.1019 28.2203 20.1019 31.8179 20.1019C34.7229 20.1019 37.628 20.1019 40.5331 20.1019C40.6873 20.1019 40.8414 20.1019 40.9956 20.1019ZM96.8548 29.5911C96.0758 32.3734 94.7152 34.9762 92.8542 37.1765C92.6 37.4757 92.5621 37.9109 92.8542 38.2046C93.1112 38.463 93.617 38.5038 93.8713 38.2046C95.8973 35.8085 97.3958 33.0071 98.2424 29.9773C98.494 29.0744 97.1037 28.6909 96.8548 29.5911Z" fill="#F8AC7A"/>
</g>
<path d="M42.478 61.6434C44.8529 63.9824 45.4399 67.518 44.788 70.7002C44.7068 71.0836 44.2578 71.3039 43.9008 71.206C43.5113 71.0972 43.3219 70.6974 43.4004 70.3139C43.5464 69.5932 43.6114 68.9785 43.6059 68.1735C43.5978 66.7864 43.3057 65.3993 42.6132 64.1755C41.7936 62.7258 40.4845 61.7032 38.9589 61.0423C38.5991 60.8873 38.5234 60.3569 38.7019 60.0496C38.9129 59.6824 39.3295 59.6362 39.6865 59.7912C40.7144 60.2372 41.6746 60.8519 42.478 61.6434ZM36.96 65.4211C36.0782 65.1274 35.6995 66.528 36.5759 66.8218C38.0582 67.3141 38.9454 68.5978 39.3214 70.11C39.7866 71.9839 39.5269 73.9883 38.9995 75.816C38.7425 76.7163 40.1301 77.0997 40.3871 76.2022C41.4718 72.4381 41.3825 66.8952 36.96 65.4211ZM33.0865 68.9514C32.7268 68.8045 32.2967 69.1118 32.202 69.4572C32.0884 69.8733 32.3427 70.2052 32.7051 70.352C32.5185 70.2759 32.816 70.4146 32.881 70.4527C32.9324 70.4853 32.9837 70.5206 33.0351 70.556C33.0514 70.5669 33.0622 70.5723 33.0703 70.5778C33.0784 70.5859 33.0892 70.5941 33.1082 70.6104C33.3246 70.8062 33.5247 71.0102 33.706 71.2359C33.7114 71.2414 33.7141 71.2441 33.7168 71.2468C33.7168 71.2495 33.7168 71.2495 33.7168 71.2495C33.7384 71.2767 33.7573 71.3039 33.779 71.3339C33.825 71.3991 33.8737 71.4671 33.9169 71.5351C34.0197 71.6901 34.1117 71.8479 34.201 72.0084C34.3849 72.3429 34.5039 72.6094 34.6175 72.9249C35.2288 74.603 35.2856 76.4225 34.7933 78.1523C34.4471 79.3653 33.8385 80.4967 33.0622 81.484C32.8214 81.7913 32.7646 82.2102 33.0622 82.5093C33.3137 82.7623 33.8358 82.8194 34.0792 82.5093C35.6156 80.5593 36.5894 78.2203 36.5623 75.7045C36.5434 73.8823 36.0322 71.9621 34.9394 70.488C34.4444 69.8244 33.8601 69.2641 33.0865 68.9514ZM27.5387 85.2808C27.2412 85.5364 26.8111 85.5745 26.519 85.2808C26.2593 85.017 26.2242 84.5084 26.519 84.2527C28.2772 82.7296 29.5783 80.3526 29.9056 78.0326C30.057 76.9529 29.9732 75.6827 29.4944 74.7308C29.067 73.8795 28.361 73.2649 27.5063 72.8379C26.6624 72.419 25.7021 72.2504 24.7527 72.3483C24.3875 72.3864 23.8709 72.5224 23.522 72.691C23.0242 72.9358 22.7213 73.2404 22.5698 73.7789C22.5644 73.798 22.559 73.8252 22.5563 73.8442C22.5536 73.8768 22.5509 73.9095 22.5482 73.9448C22.5455 74.0264 22.5455 74.1053 22.5482 74.1869C22.5482 74.2195 22.5482 74.2386 22.5482 74.2522C22.5509 74.2549 22.5536 74.2603 22.559 74.2821C22.5806 74.3609 22.6023 74.4398 22.6266 74.5214C22.6266 74.5214 22.6266 74.5214 22.6266 74.5241C22.6456 74.554 22.6591 74.5867 22.678 74.6193C22.7105 74.6792 22.7483 74.7363 22.7862 74.7961C22.8133 74.826 22.8376 74.8559 22.8674 74.8859C22.9188 74.9403 22.9701 74.9892 23.0242 75.0409C23.054 75.0708 23.0865 75.0953 23.1189 75.1225C23.192 75.1742 23.2623 75.2231 23.3353 75.2693C23.4706 75.3537 23.6112 75.4271 23.7546 75.4978C23.7979 75.5168 23.8438 75.5386 23.8871 75.5576H23.8898C23.9764 75.593 24.0629 75.6256 24.1495 75.6583C24.3064 75.7127 24.4633 75.7616 24.6229 75.8079C24.9501 75.9003 25.2829 75.9738 25.6183 76.0336C25.7102 76.0499 25.8022 76.0662 25.8942 76.0798C25.9104 76.0826 25.997 76.0934 26.0402 76.1016C26.0835 76.107 26.1538 76.1152 26.1674 76.1179C26.2377 76.1261 26.3053 76.1315 26.3756 76.1397C26.6569 76.1696 26.9383 76.1913 27.2196 76.1968C27.4333 76.1995 27.601 76.2784 27.7173 76.4008C27.463 76.1587 26.9491 76.1016 26.711 76.4089C26.4189 76.787 26.1268 77.165 25.8347 77.5431C24.9339 77.4234 24.0413 77.1977 23.2217 76.8386C22.4995 76.5204 21.78 76.0282 21.4094 75.3047C20.8847 74.2821 21.074 73.031 21.8152 72.1661C22.6266 71.2196 24.09 70.8715 25.2829 70.8715C26.473 70.8742 27.6848 71.2169 28.6992 71.8452C33.5734 74.8695 31.0741 82.2102 27.5387 85.2808ZM23.8844 75.5576C23.7789 75.5087 23.852 75.544 23.8844 75.5576V75.5576ZM23.1135 75.117C23.0324 75.0518 23.0838 75.098 23.1135 75.117V75.117ZM85.4131 76.7679C84.7937 76.7679 84.1742 76.7679 83.5548 76.7679C85.1074 78.6718 86.6601 80.5783 88.2154 82.4821C88.3155 82.6073 88.4156 82.7296 88.5183 82.8547C88.5238 82.8683 88.567 82.9336 88.5724 82.9499C88.5887 82.988 88.586 83.0941 88.5724 83.1322C88.5481 83.2029 88.5129 83.279 88.3939 83.3144C88.3804 83.3144 88.3209 83.3253 88.2938 83.328C88.2478 83.3307 88.2019 83.328 88.1559 83.328C87.5121 83.328 86.8656 83.328 86.2219 83.328C83.4574 83.328 80.6903 83.328 77.9232 83.328C74.7611 83.328 71.6018 83.328 68.4398 83.328C66.6897 83.328 64.9315 83.279 63.1814 83.328C63.1544 83.328 63.13 83.328 63.103 83.328C62.1779 83.328 62.1779 84.7803 63.103 84.7803C64.6096 84.7803 66.1162 84.7803 67.6229 84.7803C70.8201 84.7803 74.0146 84.7803 77.2118 84.7803C80.1223 84.7803 83.0328 84.7803 85.9433 84.7803C86.6601 84.7803 87.3769 84.7803 88.0937 84.7803C88.4399 84.7803 88.7753 84.7477 89.0972 84.5872C89.6625 84.3017 90.0277 83.6761 90.0277 83.0424C90.0277 82.5909 89.841 82.2102 89.5651 81.8648C88.1965 80.154 86.8007 78.4623 85.4131 76.7679ZM74.2093 82.1938C74.4555 82.4985 74.9694 82.4522 75.2264 82.1938C75.5239 81.8947 75.4752 81.4731 75.2264 81.1685C74.0308 79.7025 72.8325 78.2339 71.637 76.7679C71.3584 76.7679 71.0825 76.7679 70.8039 76.7679C70.463 76.7679 70.1222 76.7679 69.7814 76.7679C71.0743 78.3508 72.3646 79.9337 73.6548 81.5166C73.8415 81.7424 74.0254 81.9681 74.2093 82.1938ZM65.7457 47.5822C66.9926 47.555 68.0827 46.7935 68.5182 45.6104C68.6805 45.1725 68.694 44.721 68.694 44.2641C68.694 43.1028 68.694 41.9414 68.694 40.7801C68.694 40.6795 68.694 40.5789 68.694 40.4782C68.218 40.4701 67.7419 40.4592 67.2658 40.4456C67.2739 41.8327 67.2821 43.2225 67.255 44.6068C67.2388 45.4554 66.5842 46.1136 65.7457 46.1326C64.1038 46.1326 62.4619 46.1326 60.82 46.1326C57.8663 46.1326 54.9125 46.1326 51.9587 46.1326C50.9173 46.1326 49.8759 46.1326 48.8318 46.1326C48.18 46.1326 47.474 46.2223 46.9492 45.7491C46.2811 45.148 46.4407 44.1499 46.4407 43.334C46.4407 41.9578 46.4407 40.5816 46.4407 39.2054C46.4407 37.821 46.4407 36.4367 46.4407 35.0523C46.4407 34.2636 46.2811 33.26 46.8816 32.6535C47.4063 32.1231 48.1069 32.2074 48.7831 32.2074C49.8218 32.2074 50.8605 32.2074 51.8965 32.2074C54.8395 32.2074 57.7797 32.2074 60.7226 32.2074C62.3943 32.2074 64.0713 32.1748 65.7457 32.2074C66.5842 32.221 67.2388 32.8847 67.255 33.7305C67.2604 33.929 67.255 34.1276 67.255 34.3261C67.255 35.5446 67.255 36.763 67.255 37.9815C67.255 38.3187 67.2577 38.656 67.2577 38.9932C67.3903 38.996 67.5228 39.0014 67.6526 39.0041C68.0016 39.0123 68.3505 39.015 68.6994 39.0204C68.7103 37.258 68.7265 35.4929 68.694 33.7305C68.6616 31.9735 67.2577 30.7551 65.5644 30.7551C64.7746 30.7551 63.9821 30.7551 63.1895 30.7551C60.2114 30.7551 57.2333 30.7551 54.2552 30.7551C52.1859 30.7551 50.1167 30.7469 48.0474 30.7551C46.3623 30.7605 45.026 32.0524 45.0017 33.7659C44.9882 34.6715 45.0017 35.5799 45.0017 36.4856C45.0017 39.1265 45.0017 41.7701 45.0017 44.411C45.0017 45.042 45.1126 45.6621 45.4615 46.2033C46.0187 47.0655 46.9465 47.5659 47.9636 47.5822C48.5424 47.5931 49.1213 47.5822 49.7001 47.5822C52.5619 47.5822 55.421 47.5822 58.2801 47.5822C60.6415 47.5822 63.0002 47.5822 65.3589 47.5822C65.4887 47.5822 65.6158 47.5822 65.7457 47.5822ZM25.9726 56.8892C27.2385 55.7497 28.783 54.8549 30.4952 54.6672C32.0992 54.4904 33.6708 54.9582 34.7501 56.2039C35.7157 57.3135 36.135 58.8556 36.0322 60.3107C35.9213 61.9371 35.1017 63.4819 34.0251 64.665C33.0784 65.7067 30.8874 67.7139 29.5133 66.2751C28.1176 64.8146 29.2969 62.5926 30.0706 61.1565C30.5115 60.3352 29.2699 59.6008 28.8263 60.4249C27.8363 62.2662 26.9085 64.3305 27.866 66.3839C28.2583 67.2243 29.0156 67.9206 29.9245 68.1273C30.9929 68.3666 32.0776 68.0022 32.9837 67.4364C36.1918 65.432 38.3855 61.3197 37.1141 57.5501C36.5055 55.7442 35.2315 54.2647 33.4517 53.5738C31.5718 52.845 29.4322 53.1876 27.6469 54.0144C25.7751 54.882 24.236 56.4106 22.9756 58.0179C21.7367 59.5981 20.6493 61.2572 19.8865 63.1229C19.2536 64.6732 18.8262 66.3023 18.5395 67.9505C18.3961 68.78 18.2663 69.6286 18.2095 70.4744C14.3604 71.3366 10.5005 72.1471 6.62706 72.8814C5.14206 73.1615 3.65436 73.4308 2.16124 73.662C1.77715 73.7218 1.56346 74.2086 1.65813 74.554C1.77174 74.9702 2.15854 75.1225 2.54534 75.0626C7.63599 74.2739 12.6861 73.1751 17.7172 72.0682C18.1716 71.9676 18.6288 71.8669 19.0832 71.7663C19.3997 71.6956 19.5998 71.3747 19.6134 71.0646C19.635 70.4962 19.6972 69.925 19.7702 69.3593C19.7729 69.3403 19.7729 69.3321 19.7756 69.3185C19.7784 69.3076 19.7784 69.294 19.7838 69.2696C19.7892 69.2233 19.7973 69.1744 19.8027 69.1254C19.8243 68.9704 19.8487 68.8154 19.873 68.6631C19.9271 68.3394 19.9839 68.0158 20.0488 67.6948C20.1895 66.9795 20.3599 66.2697 20.5628 65.568C21.0172 63.996 21.642 62.4729 22.5401 61.1021C23.5328 59.5818 24.6229 58.1077 25.9726 56.8892ZM10.5059 66.1881C10.9198 66.1881 11.1957 65.8535 11.2254 65.4619C11.4039 63.0359 12.137 60.6262 13.1513 58.4286C14.0385 56.5139 15.1529 54.5774 16.7434 53.1659C17.0356 52.9048 17.0058 52.4044 16.7434 52.1378C16.454 51.8468 16.0185 51.8794 15.7264 52.1378C14.4416 53.2774 13.4489 54.7678 12.6293 56.2664C11.6366 58.0805 10.8575 60.036 10.349 62.0404C10.065 63.161 9.87025 64.3087 9.7864 65.4619C9.75664 65.8535 10.138 66.1881 10.5059 66.1881ZM52.6728 74.7472C52.3239 74.4888 52.0317 74.1542 51.8208 73.7735C51.8911 73.9067 51.9695 74.04 52.0669 74.1678C52.2454 74.399 52.4483 74.5867 52.6728 74.7472ZM95.7296 75.3183C96.1219 75.3156 96.506 75.2503 96.863 75.1225C96.2787 75.3183 95.6431 75.3183 94.9993 75.3183C95.2428 75.3183 95.4862 75.3183 95.7296 75.3183ZM53.5654 76.6863C53.5736 76.6863 53.5817 76.6891 53.5925 76.6891C53.4708 76.6673 53.349 76.6428 53.2327 76.6102C53.3409 76.6401 53.4518 76.6646 53.5654 76.6863ZM100.233 72.2395C100.233 72.2341 100.233 72.2287 100.233 72.2232C100.233 72.2477 100.231 72.2722 100.231 72.2966C100.231 72.2776 100.233 72.2586 100.233 72.2395ZM50.068 72.9304C50.0815 73.0337 50.0923 73.1398 50.1113 73.2431C50.3168 74.3256 50.9687 75.2993 51.8532 75.9438C50.8957 75.2367 50.2411 74.1379 50.068 72.9304ZM98.7943 71.0156C98.7943 71.4209 98.7943 71.8261 98.7943 72.2287C98.7943 72.2994 98.7889 72.3701 98.7835 72.4408C98.8376 71.818 98.7943 71.1734 98.7943 70.5587C98.7943 70.711 98.7943 70.8633 98.7943 71.0156ZM99.1108 45.5315C98.2641 44.5606 97.0226 44.0683 95.7567 44.0656C95.2292 44.0656 94.7045 44.0656 94.177 44.0656C92.0266 44.0656 89.8762 44.0656 87.7258 44.0656C85.7215 44.0656 83.7198 44.0656 81.7182 44.0656C81.3936 44.0656 81.0663 44.0656 80.7417 44.0656C79.8139 44.0656 79.8139 45.5179 80.7417 45.5179C84.2175 45.5179 87.696 45.5179 91.1746 45.5179C92.6866 45.5179 94.2014 45.5152 95.7161 45.5179C96.6791 45.5179 97.5825 45.8797 98.183 46.6657C98.6401 47.2586 98.7943 47.9548 98.7943 48.6864C98.7943 52.0671 98.7943 55.445 98.7943 58.8257C98.7943 61.6597 98.7943 64.4937 98.7943 67.3277C98.7943 66.3948 100.233 66.3948 100.233 67.3277C100.233 65.6387 100.233 63.9497 100.233 62.258C100.233 59.8782 100.233 57.4957 100.233 55.1132C100.233 53.3427 100.233 51.5721 100.233 49.7988C100.233 49.3963 100.233 48.9965 100.233 48.594C100.231 47.4544 99.86 46.391 99.1108 45.5315ZM98.2939 74.0101C98.3913 73.8605 98.4697 73.7028 98.5346 73.5423C98.3913 73.8823 98.1803 74.1923 97.9071 74.4697C98.0478 74.331 98.1803 74.1842 98.2939 74.0101ZM97.7989 74.5785C97.8368 74.5432 97.8692 74.5051 97.9071 74.4697C97.8557 74.5187 97.807 74.5704 97.7556 74.6166C97.7691 74.603 97.7827 74.5921 97.7989 74.5785Z" fill="white"/>
<mask id="mask2_34_1727" style="mask-type:luminance" maskUnits="userSpaceOnUse" x="0" y="5" width="104" height="79">
<path d="M0 5.30908H103.387V83.9862H0V5.30908Z" fill="white"/>
</mask>
<g mask="url(#mask2_34_1727)">
<path d="M49.5108 40.9186C50.1194 40.9186 50.728 40.9186 51.3366 40.9186C53.9658 40.9186 56.5922 40.9186 59.2187 40.9186C60.8741 40.9186 62.5295 40.9186 64.1849 40.9186C65.1127 40.9186 65.11 42.3682 64.1849 42.3682C63.5763 42.3682 62.9677 42.3682 62.3591 42.3682C59.7299 42.3682 57.1035 42.3682 54.477 42.3682C52.8216 42.3682 51.1662 42.3682 49.5108 42.3682C48.583 42.3682 48.583 40.9186 49.5108 40.9186ZM8.31222 50.3018C8.69631 50.2446 8.9073 49.7551 8.81533 49.4097C8.70172 48.9936 8.31492 48.844 7.92812 48.9038C5.73173 49.2356 3.17558 48.9473 1.16854 47.9573C0.819602 47.786 0.392226 47.8621 0.183947 48.2184C1.23307e-05 48.5366 0.0919798 49.0371 0.443619 49.2111C2.82935 50.3888 5.70197 50.6988 8.31222 50.3018ZM8.27976 52.7196C6.23484 53.2881 4.20616 54.0142 2.29378 54.9389C1.94214 55.1076 1.85018 55.6107 2.03411 55.9317C2.24509 56.2907 2.66706 56.3614 3.0187 56.19C4.82017 55.3197 6.73796 54.6534 8.66115 54.1176C9.55377 53.8701 9.17508 52.4694 8.27976 52.7196ZM57.566 15.7881C57.566 15.187 57.566 14.5859 57.566 13.9821C57.566 13.3947 57.4795 12.712 57.6066 12.1354C57.8067 11.2406 58.5776 10.6287 59.4784 10.6151C59.6758 10.6096 59.8733 10.6151 60.0708 10.6151C61.2663 10.6151 62.4619 10.6151 63.6575 10.6151C63.6061 10.1255 63.5195 9.63868 63.4005 9.16273C62.4457 9.16273 61.4881 9.16273 60.5333 9.16273C60.2141 9.16273 59.8922 9.16273 59.5731 9.16273C58.7237 9.16545 57.9312 9.43198 57.2793 9.99225C56.4597 10.6939 56.127 11.7057 56.127 12.7637C56.127 13.566 56.127 14.3656 56.127 15.1679C56.127 15.3747 56.127 15.5814 56.127 15.7881C56.127 16.7236 57.566 16.7236 57.566 15.7881ZM76.4788 24.5402C75.5537 24.5565 75.551 26.0089 76.4788 25.9899C77.8826 25.9627 79.1188 25.1032 79.6165 23.7733C79.8139 23.2483 79.822 22.7071 79.822 22.155C79.822 20.8794 79.822 19.6039 79.822 18.3256C79.3406 18.3229 78.8618 18.3201 78.383 18.3174C78.383 19.2013 78.383 20.088 78.383 20.9746C78.383 21.9891 78.5859 23.2375 77.7907 24.0099C77.4336 24.358 76.9684 24.5294 76.4788 24.5402ZM68.5128 10.6151C71.0879 10.6151 73.663 10.6151 76.2353 10.6151C76.6329 10.6151 77.0116 10.6368 77.3714 10.8381C78.0341 11.2107 78.3803 11.8634 78.383 12.6168C78.3884 13.7591 78.383 14.9014 78.383 16.0437C78.383 16.3157 78.383 16.5904 78.383 16.8624C78.4912 16.8651 78.5967 16.8678 78.7049 16.8678C79.0755 16.8705 79.4488 16.8705 79.822 16.8732C79.822 15.614 79.822 14.3575 79.822 13.0982C79.822 12.6114 79.8329 12.13 79.7057 11.654C79.3433 10.2941 78.1531 9.31775 76.7763 9.17904C76.0649 9.10833 75.3292 9.16273 74.6151 9.16273C73.0787 9.16273 71.5423 9.16273 70.0059 9.16273C68.2964 9.16273 66.5842 9.16273 64.8747 9.16273C64.9802 9.6414 65.0559 10.1255 65.1019 10.6151C66.2407 10.6151 67.3767 10.6151 68.5128 10.6151ZM70.3332 20.1941C71.3665 20.1941 72.4025 20.1941 73.4357 20.1941C73.5818 20.1941 73.7279 20.1941 73.8739 20.1941C74.2499 20.1941 74.6097 19.8595 74.5934 19.4679C74.5745 19.0762 74.277 18.7417 73.8739 18.7417C72.8407 18.7417 71.8047 18.7417 70.7714 18.7417C70.6253 18.7417 70.4793 18.7417 70.3332 18.7417C69.9572 18.7417 69.5975 19.0762 69.6137 19.4679C69.6326 19.8622 69.9302 20.1941 70.3332 20.1941ZM21.3039 40.1027C17.8552 40.1027 14.4091 40.1027 10.9603 40.1027C10.4761 40.1027 9.99197 40.1027 9.50508 40.1027C8.58 40.1027 8.5773 41.555 9.50508 41.555C12.9538 41.555 16.3999 41.555 19.846 41.555C20.3329 41.555 20.817 41.555 21.3039 41.555C22.229 41.555 22.229 40.1027 21.3039 40.1027ZM73.8739 16.4218C74.799 16.4218 74.8017 14.9694 73.8739 14.9694C70.4252 14.9694 66.9791 14.9694 63.5331 14.9694C63.0462 14.9694 62.562 14.9694 62.0751 14.9694C61.15 14.9694 61.15 16.4218 62.0751 16.4218C65.5239 16.4218 68.9699 16.4218 72.4187 16.4218C72.9029 16.4218 73.3871 16.4218 73.8739 16.4218ZM49.5108 38.5959C51.1662 38.5959 52.8216 38.5959 54.477 38.5959C57.1035 38.5959 59.7299 38.5959 62.3591 38.5959C62.9677 38.5959 63.5763 38.5959 64.1849 38.5959C65.11 38.5959 65.1127 37.1436 64.1849 37.1436C62.5295 37.1436 60.8741 37.1436 59.2187 37.1436C56.5922 37.1436 53.9658 37.1436 51.3366 37.1436C50.728 37.1436 50.1194 37.1436 49.5108 37.1436C48.583 37.1436 48.583 38.5959 49.5108 38.5959ZM47.5145 81.8836C47.4956 81.8727 47.4659 81.87 47.4523 81.8727C47.474 81.8754 47.4929 81.8809 47.5037 81.8836C47.5091 81.8836 47.5118 81.8836 47.5145 81.8836ZM37.0844 5.56177C35.429 5.56177 33.7736 5.56177 32.1182 5.56177C29.489 5.56177 26.8625 5.56177 24.236 5.56177C23.6274 5.56177 23.0161 5.56177 22.4075 5.56177C21.4824 5.56177 21.4797 7.01412 22.4075 7.01412C24.0629 7.01412 25.7183 7.01412 27.3737 7.01412C30.0002 7.01412 32.6294 7.01412 35.2559 7.01412C35.8645 7.01412 36.4731 7.01412 37.0844 7.01412C38.0095 7.01412 38.0095 5.56177 37.0844 5.56177ZM21.3039 36.6187C17.8552 36.6187 14.4091 36.6187 10.9603 36.6187C10.4761 36.6187 9.99197 36.6187 9.50508 36.6187C8.58 36.6187 8.5773 38.071 9.50508 38.071C12.9538 38.071 16.3999 38.071 19.846 38.071C20.3329 38.071 20.817 38.071 21.3039 38.071C22.229 38.071 22.229 36.6187 21.3039 36.6187ZM102.508 34.5734C102.243 34.3069 101.753 34.2824 101.491 34.5734C99.9737 36.2569 98.1451 37.5978 96.0948 38.5415C95.7405 38.7047 95.6539 39.2215 95.8351 39.5342C96.0488 39.9014 96.4654 39.9585 96.8197 39.7953C98.9701 38.8054 100.918 37.3639 102.508 35.5988C102.771 35.3105 102.792 34.859 102.508 34.5734ZM98.7943 67.3274C98.7943 68.4045 98.7943 69.4815 98.7943 70.5585C98.7943 71.1732 98.8376 71.8178 98.7835 72.4406C98.7564 72.7561 98.7024 73.0661 98.6023 73.3653C98.5915 73.3952 98.5806 73.4251 98.5698 73.4551C98.559 73.485 98.5482 73.5149 98.5346 73.5421C98.4697 73.7026 98.3913 73.8603 98.2939 74.0099C98.1397 74.2465 97.9585 74.445 97.7556 74.6164C97.4905 74.8367 97.1876 75.008 96.863 75.1223C96.506 75.2501 96.1219 75.3154 95.7297 75.3181C95.4862 75.3181 95.2428 75.3181 94.9966 75.3181C94.8668 75.3181 94.7342 75.3181 94.6044 75.3181C92.903 75.3181 91.2016 75.3181 89.5002 75.3181C88.3777 75.3181 87.2579 75.3181 86.1353 75.3181C84.6828 75.3181 83.2302 75.3181 81.7777 75.3181C78.8429 75.3181 75.908 75.3181 72.9732 75.3181C72.7947 75.3181 72.6162 75.3181 72.4376 75.3181C69.7976 75.3181 67.1603 75.3181 64.523 75.3181C62.9704 75.3181 61.4205 75.3181 59.8679 75.3181C59.2106 75.3181 58.5506 75.3181 57.8933 75.3181C57.209 75.3181 56.5273 75.3181 55.843 75.3181C55.4129 75.3181 54.9801 75.3181 54.5473 75.3181C53.9441 75.3181 53.3653 75.1767 52.8649 74.8802C52.8622 74.8775 52.8622 74.8775 52.8595 74.8748C52.7945 74.8367 52.7323 74.7905 52.6728 74.7469C52.4483 74.5865 52.2454 74.3988 52.0669 74.1676C51.9695 74.0398 51.8911 73.9065 51.8208 73.7733C51.434 73.0226 51.4583 72.1958 51.4583 71.3445C51.4583 71.2194 51.4583 71.0943 51.4583 70.9692C51.4583 68.7825 51.4583 66.5958 51.4583 64.4091C51.4583 64.1317 51.4583 63.8543 51.4583 63.5742C51.4583 63.3729 51.4583 63.1717 51.4583 62.9704C51.4583 62.0375 50.0193 62.0348 50.0193 62.9704C50.0193 64.6322 50.0193 66.2912 50.0193 67.953C50.0193 68.5486 50.0193 69.1415 50.0193 69.7371C50.0193 70.3219 50.0193 70.9066 50.0193 71.4914C50.0193 71.7498 50.0193 72.0081 50.0193 72.2665C50.0193 72.291 50.0193 72.3182 50.0193 72.3427C50.022 72.5412 50.0409 72.737 50.068 72.9301C50.2411 74.1377 50.8957 75.2365 51.8532 75.9436C51.8695 75.9545 51.8857 75.9627 51.8992 75.9735C51.9749 76.0279 52.0534 76.0796 52.1345 76.1286C52.1724 76.1558 52.213 76.1775 52.2563 76.202C52.3158 76.2346 52.3753 76.27 52.4375 76.2999C52.4835 76.3244 52.5268 76.3462 52.5727 76.3679C52.6404 76.3978 52.7107 76.4277 52.7783 76.4549C52.8189 76.4713 52.8568 76.4876 52.8946 76.5012C52.9974 76.5393 53.1002 76.5719 53.2057 76.6018C53.2138 76.6045 53.2246 76.6073 53.2327 76.61C53.349 76.6426 53.4708 76.6671 53.5925 76.6888C53.5979 76.6916 53.606 76.6916 53.6114 76.6943C53.6682 76.7024 53.7277 76.7106 53.7845 76.7188C53.8089 76.7215 53.8332 76.7242 53.8576 76.7269C54.7394 76.8384 55.6726 76.7677 56.5517 76.7677C56.8492 76.7677 57.144 76.7677 57.4416 76.7677C59.1132 76.7677 60.7876 76.7677 62.4619 76.7677C62.4917 76.7677 62.5187 76.7677 62.5485 76.7677C64.6853 76.7677 66.8195 76.7677 68.9564 76.7677C69.2323 76.7677 69.5082 76.7677 69.7814 76.7677C70.1222 76.7677 70.463 76.7677 70.8066 76.7677C71.0825 76.7677 71.3611 76.7677 71.637 76.7677C73.1355 76.7677 74.634 76.7677 76.1325 76.7677C77.366 76.7677 78.5994 76.7677 79.8356 76.7677C80.9446 76.7677 82.0563 76.7677 83.1653 76.7677C83.2952 76.7677 83.425 76.7677 83.5548 76.7677C84.1743 76.7677 84.7937 76.7677 85.4131 76.7677C86.2922 76.7677 87.1713 76.7677 88.0531 76.7677C88.4805 76.7677 88.9106 76.7677 89.3379 76.7677C90.831 76.7677 92.3269 76.7677 93.82 76.7677C93.847 76.7677 93.8741 76.7677 93.9011 76.7677C94.9615 76.7677 96.1868 76.8955 97.2038 76.5529C98.6185 76.0796 99.6274 74.9591 100.033 73.591C100.039 73.572 100.044 73.5502 100.049 73.5285C100.079 73.4251 100.106 73.3218 100.128 73.2157C100.139 73.1613 100.149 73.1069 100.158 73.0553C100.171 72.9737 100.182 72.8948 100.193 72.8132C100.201 72.7561 100.209 72.699 100.212 72.6391C100.223 72.5249 100.228 72.4107 100.231 72.2964C100.231 72.272 100.233 72.2475 100.233 72.223C100.236 71.078 100.233 69.933 100.233 68.7852C100.233 68.6574 100.233 68.5296 100.233 68.4017C100.233 68.0455 100.233 67.6865 100.233 67.3274C100.233 66.3946 98.7943 66.3946 98.7943 67.3274ZM37.0844 9.33679C35.429 9.33679 33.7736 9.33679 32.1182 9.33679C29.489 9.33679 26.8625 9.33679 24.236 9.33679C23.6274 9.33679 23.0161 9.33679 22.4075 9.33679C21.4824 9.33679 21.4797 10.7864 22.4075 10.7864C24.0629 10.7864 25.7183 10.7864 27.3737 10.7864C30.0002 10.7864 32.6294 10.7864 35.2559 10.7864C35.8645 10.7864 36.4731 10.7864 37.0844 10.7864C38.0095 10.7864 38.0095 9.33679 37.0844 9.33679ZM49.9544 79.0659C50.4818 79.8574 50.517 80.88 50.1383 81.7367C49.7867 82.5363 49.005 83.151 48.1475 83.2924C47.2197 83.4447 46.2243 83.1483 45.6022 82.4112C44.9882 81.6823 44.7555 80.7141 45.0206 79.7866C45.1315 79.3977 45.521 79.191 45.9051 79.2808C46.2811 79.3678 46.511 79.8084 46.4082 80.1729C46.392 80.2245 46.3785 80.2789 46.365 80.3333C46.365 80.336 46.3595 80.366 46.3541 80.3932C46.3514 80.4176 46.3487 80.4503 46.3487 80.4584C46.346 80.4938 46.346 80.5291 46.346 80.5645C46.346 80.6189 46.3487 80.6706 46.3514 80.7222C46.3514 80.7766 46.3514 80.7848 46.3487 80.7766C46.3623 80.8338 46.3866 80.899 46.3974 80.9398C46.4109 80.9888 46.4299 81.0377 46.4461 81.0867C46.4515 81.1057 46.4542 81.1193 46.4542 81.1248C46.4813 81.1819 46.53 81.2472 46.5516 81.2825C46.5624 81.3016 46.5759 81.3288 46.5922 81.3559C46.5976 81.3614 46.6057 81.3695 46.6192 81.3859C46.676 81.4484 46.7328 81.5137 46.7977 81.5708C46.8032 81.5762 46.8221 81.5926 46.8383 81.6089C46.8545 81.6198 46.8681 81.6306 46.8762 81.6361C46.9411 81.6796 47.0087 81.7204 47.0791 81.7585C47.0872 81.7612 47.1142 81.7775 47.1386 81.7884C47.144 81.7911 47.1467 81.7911 47.1521 81.7938C47.2224 81.8156 47.2927 81.8401 47.3631 81.8564C47.3712 81.8591 47.4145 81.8645 47.4523 81.8727C47.4388 81.8754 47.4415 81.8809 47.4875 81.8836C47.4929 81.8836 47.4983 81.8836 47.5037 81.8836C47.5118 81.8863 47.52 81.889 47.52 81.889C47.52 81.889 47.5173 81.8863 47.5145 81.8836C47.5768 81.889 47.6363 81.8917 47.6985 81.889C47.7363 81.889 47.7769 81.8863 47.8148 81.8836C47.8824 81.8673 47.95 81.8564 48.015 81.8373C48.0582 81.8265 48.0988 81.8129 48.1367 81.7993C48.1475 81.7965 48.1637 81.7884 48.18 81.7802C48.2016 81.7721 48.2205 81.7612 48.2232 81.7585C48.253 81.7421 48.2827 81.7258 48.3125 81.7095C48.3423 81.6932 48.3964 81.666 48.4369 81.6388C48.4423 81.6306 48.4477 81.6252 48.4586 81.6143C48.4829 81.5898 48.51 81.5681 48.5343 81.5463C48.5695 81.5137 48.6344 81.462 48.6777 81.4103C48.6777 81.4022 48.6831 81.3913 48.6939 81.3777C48.7155 81.3396 48.7426 81.3043 48.7642 81.2662C48.7994 81.2064 48.8291 81.1438 48.8616 81.0813C48.8643 81.0785 48.8643 81.0785 48.8643 81.0758C48.8751 81.0405 48.8886 81.0051 48.8995 80.9697C48.9103 80.9289 48.9373 80.8582 48.9509 80.793C48.9509 80.7902 48.9509 80.7739 48.9536 80.7386C48.9563 80.7032 48.959 80.6678 48.959 80.6325C48.9617 80.5618 48.9563 80.4911 48.9536 80.4203C48.9536 80.4095 48.9536 80.404 48.9536 80.3959C48.9509 80.3796 48.9454 80.366 48.9454 80.3551C48.9265 80.2708 48.9049 80.1892 48.8778 80.1076C48.8724 80.094 48.8643 80.0641 48.8535 80.0396C48.8508 80.0314 48.8454 80.026 48.8427 80.0205C48.8075 79.958 48.7777 79.8982 48.7399 79.841C48.7318 79.8274 48.7209 79.8057 48.7074 79.7839C48.702 79.7785 48.6966 79.7703 48.6858 79.7595C48.629 79.6942 48.5722 79.6316 48.5073 79.5718C48.4991 79.5636 48.4856 79.55 48.4694 79.5364C48.464 79.531 48.4586 79.5283 48.4504 79.5228C48.3936 79.4848 48.3341 79.4467 48.2719 79.4113C48.2422 79.395 48.2097 79.3787 48.18 79.3624C48.1394 79.3406 48.1286 79.3352 48.1313 79.3352C48.0582 79.308 47.969 79.2944 47.9068 79.2781C47.8851 79.2726 47.8716 79.2672 47.8608 79.2645C47.8094 79.259 47.758 79.2563 47.7066 79.2536C47.6606 79.2536 47.6146 79.2536 47.5659 79.2563C47.5578 79.2563 47.5254 79.259 47.4983 79.2617C47.4632 79.2672 47.3739 79.2835 47.3793 79.2835C47.336 79.2916 47.29 79.3053 47.2468 79.3188C46.86 79.4331 46.4813 79.1829 46.3623 78.813C46.2405 78.4349 46.5029 78.0242 46.8627 77.9182C48.0366 77.5755 49.2781 78.0514 49.9544 79.0659ZM47.1764 81.8047C47.1764 81.8047 47.1629 81.7993 47.1467 81.7911C47.1602 81.7993 47.1737 81.8074 47.1764 81.8047ZM31.9883 48.0879C31.9883 48.0879 31.9883 48.0906 31.9883 48.0933C31.9883 48.0906 31.9883 48.0906 31.9883 48.0906V48.0879ZM30.5087 46.6002H30.5114C30.5114 46.6002 30.5114 46.6002 30.5087 46.6002ZM32.0046 46.1405C31.6908 46.3445 31.5258 46.7933 31.7476 47.1332C31.7963 47.2067 31.8369 47.2828 31.8801 47.3617C31.8828 47.3699 31.8883 47.3753 31.891 47.3835C31.9072 47.4297 31.9234 47.4787 31.9396 47.5276C31.9505 47.5711 31.9613 47.6146 31.9721 47.6582C31.9748 47.6663 31.9802 47.7017 31.9856 47.7289C31.9883 47.7561 31.991 47.7969 31.991 47.805C31.9937 47.8594 31.9964 47.9138 31.9937 47.9682C31.9937 48.0063 31.991 48.0444 31.9883 48.0797C31.9883 48.0852 31.9883 48.0852 31.9883 48.0879C31.9883 48.0688 31.991 48.0552 31.9937 48.0552C31.9937 48.0552 31.991 48.0688 31.9883 48.0906C31.9829 48.1831 31.9829 48.1341 31.9883 48.0933C31.9721 48.1586 31.9396 48.2891 31.9369 48.2946C31.9288 48.3299 31.9153 48.3653 31.9045 48.4007C31.9018 48.4088 31.891 48.4333 31.8828 48.4523C31.8774 48.4605 31.8747 48.4686 31.872 48.4741C31.8504 48.5122 31.8314 48.553 31.8071 48.591C31.7828 48.6318 31.753 48.6726 31.726 48.7134C31.7178 48.7189 31.6313 48.8222 31.6124 48.8413C31.588 48.8685 31.561 48.8902 31.5366 48.9147C31.5339 48.9174 31.5285 48.9228 31.5231 48.9283C31.5069 48.9392 31.4852 48.9609 31.4744 48.9664C31.4365 48.9908 31.4014 49.018 31.3635 49.0398C31.3175 49.067 31.2688 49.0888 31.2228 49.1132C31.2769 49.0833 31.1092 49.1595 31.0714 49.1703C31.0037 49.1921 30.9334 49.203 30.8658 49.2193C30.8252 49.222 30.7846 49.2275 30.7441 49.2275C30.6656 49.2302 30.5845 49.222 30.506 49.2193C30.4736 49.2111 30.4411 49.2057 30.4114 49.2003C30.341 49.1812 30.2734 49.1595 30.2031 49.1377C30.1923 49.135 30.1706 49.1241 30.1544 49.116C30.1328 49.1051 30.1111 49.0942 30.1057 49.0915C30.0354 49.0534 29.9678 49.0126 29.9028 48.9664C29.8893 48.9582 29.8812 48.9528 29.8731 48.95C29.8677 48.9419 29.8569 48.931 29.8406 48.9147C29.7892 48.8657 29.7405 48.8168 29.6919 48.7651C29.6919 48.7651 29.6892 48.7624 29.6865 48.7597C29.6783 48.7488 29.6351 48.6944 29.6242 48.6808C29.581 48.6128 29.5431 48.5448 29.5052 48.4741C29.4944 48.4551 29.4863 48.4442 29.4809 48.4333C29.4782 48.4251 29.4755 48.417 29.4701 48.4007C29.4484 48.3299 29.4268 48.2619 29.4105 48.1912C29.4024 48.1559 29.397 48.1232 29.3889 48.0906C29.3889 48.077 29.3862 48.0661 29.3862 48.0525C29.3808 47.9764 29.3808 47.9002 29.3835 47.8241C29.3835 47.7941 29.3862 47.7615 29.3889 47.7316C29.4051 47.6636 29.4187 47.5929 29.4376 47.5249C29.4484 47.4895 29.4592 47.4569 29.4701 47.4215C29.4755 47.4134 29.4782 47.4025 29.4809 47.3943C29.5242 47.3291 29.5539 47.2529 29.5972 47.1849C29.6161 47.155 29.6351 47.1251 29.6567 47.0952C29.6567 47.0925 29.6567 47.0925 29.6594 47.0897C29.6648 47.0843 29.6675 47.0843 29.6729 47.0761C29.7351 47.0109 29.7974 46.951 29.8596 46.8885C29.865 46.883 29.8704 46.8776 29.8785 46.8722C29.9001 46.8558 29.9218 46.8395 29.9461 46.8232C30.0137 46.7797 30.0841 46.7443 30.1544 46.7035C30.1571 46.7035 30.1598 46.7008 30.1625 46.6981C30.2004 46.6845 30.241 46.6709 30.2788 46.6573C30.2951 46.6519 30.4384 46.6165 30.5087 46.6002C30.4168 46.6056 30.4655 46.6029 30.5087 46.6002C30.5304 46.5947 30.5439 46.592 30.5466 46.5947C30.5466 46.5975 30.5304 46.5975 30.5114 46.6002C30.5142 46.6002 30.5169 46.6002 30.5196 46.6002C30.5764 46.5975 30.6305 46.592 30.6873 46.592C31.0633 46.5866 31.4257 46.2629 31.4068 45.8658C31.3905 45.4769 31.0903 45.1342 30.6873 45.1397C29.7378 45.1533 28.8642 45.6401 28.3529 46.4506C27.839 47.2747 27.8282 48.3218 28.2501 49.1812C28.6694 50.0379 29.5377 50.5737 30.4628 50.6662C31.4149 50.7641 32.3319 50.299 32.8999 49.543C33.5761 48.64 33.6005 47.3454 32.9892 46.4016C32.7836 46.0834 32.3427 45.923 32.0046 46.1405ZM37.0844 13.1091C35.429 13.1091 33.7736 13.1091 32.1182 13.1091C29.489 13.1091 26.8625 13.1091 24.236 13.1091C23.6274 13.1091 23.0161 13.1091 22.4075 13.1091C21.4824 13.1091 21.4797 14.5614 22.4075 14.5614C24.0629 14.5614 25.7183 14.5614 27.3737 14.5614C30.0002 14.5614 32.6294 14.5614 35.2559 14.5614C35.8645 14.5614 36.4731 14.5614 37.0844 14.5614C38.0095 14.5614 38.0095 13.1091 37.0844 13.1091Z" fill="white"/>
</g>
</svg>
