<svg width="114" height="100" viewBox="0 0 114 100" fill="none" xmlns="http://www.w3.org/2000/svg">
<mask id="mask0_34_1674" style="mask-type:luminance" maskUnits="userSpaceOnUse" x="0" y="0" width="114" height="100">
<path d="M0 0H113.877V100H0V0Z" fill="white"/>
</mask>
<g mask="url(#mask0_34_1674)">
<path d="M27.033 51.1315C25.7308 53.6452 25.58 56.608 25.8816 59.4629C25.899 59.6232 25.9193 59.7807 25.9397 59.9411C25.9426 59.9673 25.9426 59.979 25.9426 59.9878C25.9455 59.9965 25.9455 60.0053 25.9484 60.0198C25.9571 60.0898 25.9687 60.1598 25.9774 60.2298C26.0209 60.5185 26.0673 60.8043 26.1195 61.0901C26.2036 61.5596 26.3022 62.0261 26.4153 62.4898C26.5197 62.9243 26.6705 63.353 26.772 63.7875C26.8648 64.1899 26.6212 64.6448 26.4733 65.0152C26.308 65.4234 26.134 65.8288 25.9397 66.2254C25.5771 66.969 25.1653 67.6893 24.7158 68.3833C23.7558 69.8764 22.6421 71.2761 21.4646 72.6C19.3011 75.0262 16.8823 77.225 14.3591 79.2634C13.1642 80.2286 11.949 81.1793 10.6816 82.0454C9.84924 82.614 9.07198 81.258 9.89564 80.6952C10.438 80.3249 10.9658 79.9312 11.4908 79.5346C11.7286 79.3567 11.9635 79.1788 12.1984 78.998C12.2071 78.9893 12.2535 78.9543 12.2796 78.9309C12.2912 78.9222 12.3028 78.9135 12.3057 78.9135C12.3695 78.861 12.4362 78.8114 12.5 78.7618C12.6334 78.6568 12.7669 78.5489 12.9003 78.444C13.518 77.9511 14.13 77.4466 14.7332 76.9334C16.1688 75.7115 17.5609 74.4314 18.8805 73.0783C21.4269 70.4713 23.9878 67.4297 25.2001 63.9799C24.1937 60.6526 23.8428 56.92 24.5649 53.5081C25.0812 51.0906 26.2819 48.7898 28.2076 47.2093C30.5423 45.2905 33.457 44.5118 36.4326 44.9551C39.0805 45.3517 41.5805 46.6756 43.5672 48.4574C45.1855 49.9067 46.8154 51.9713 46.8879 54.2488C46.9575 56.5117 45.2029 58.1798 43.2714 59.0079C41.421 59.804 39.0312 60.224 37.0852 59.5095C36.0556 59.1304 34.8636 58.4626 34.5156 57.3341C34.2314 56.4126 34.6548 55.5261 35.2349 54.8262C36.0382 53.858 37.2099 53.0999 38.3352 52.5516C38.7151 52.3679 39.1763 52.4437 39.4025 52.8345C39.6026 53.1786 39.5011 53.721 39.1211 53.9047C38.95 53.9893 38.7818 54.0797 38.6136 54.1759C38.2105 54.4004 37.8189 54.6483 37.4448 54.9166C37.3868 54.9603 37.3288 55.0041 37.2679 55.0478C37.2534 55.0595 37.2447 55.0653 37.2389 55.0682C37.2302 55.077 37.2186 55.0857 37.2012 55.1032C37.0997 55.1849 37.0011 55.2665 36.9054 55.3511C36.7024 55.5319 36.5168 55.7302 36.334 55.9343C36.3224 55.9489 36.3166 55.9577 36.3079 55.9635C36.305 55.9693 36.2992 55.9781 36.2934 55.9897C36.2615 56.0393 36.2267 56.086 36.1948 56.1355C36.1455 56.2143 36.102 56.2959 36.0614 56.3805C36.0817 56.3513 36.0034 56.5555 35.986 56.6196C35.9831 56.6284 35.9802 56.6284 35.9802 56.6342C35.9802 56.6371 35.9802 56.6371 35.9802 56.64C35.986 56.6838 35.986 56.7509 35.9802 56.7946C35.9802 56.7975 35.9802 56.7975 35.9802 56.7975C35.9831 56.8033 35.986 56.8092 35.9889 56.815C36.0063 56.8617 36.0179 56.9142 36.0324 56.9608C36.0382 56.9696 36.044 56.9754 36.0498 56.9871C36.0817 57.0308 36.1078 57.0804 36.1397 57.1241C36.1426 57.127 36.1426 57.127 36.1455 57.1299C36.1687 57.1562 36.189 57.1824 36.2122 57.2058C36.2731 57.267 36.334 57.3253 36.3978 57.3807C36.4877 57.4595 36.5487 57.5003 36.7111 57.5994C37.2621 57.9406 37.7493 58.1185 38.4164 58.2264C38.4222 58.2293 38.4251 58.2293 38.4309 58.2293C38.4599 58.2352 38.4918 58.2381 38.5237 58.241C38.5933 58.2468 38.6658 58.2556 38.7383 58.2585C38.8978 58.2702 39.0573 58.276 39.2169 58.2789C39.5388 58.2818 39.8607 58.2643 40.1826 58.2322C40.3943 58.2118 40.3682 58.2147 40.609 58.1739C40.7685 58.1477 40.928 58.1156 41.0846 58.0806C41.4297 58.0048 41.769 57.9086 42.1055 57.7948C42.6826 57.5965 43.2308 57.3399 43.805 56.9433C44.008 56.8004 44.1878 56.6604 44.4314 56.4126C44.4924 56.3543 44.5504 56.2901 44.6084 56.2259C44.6258 56.2055 44.707 56.1064 44.7302 56.0801C44.7476 56.0568 44.8056 55.9781 44.8201 55.9577C44.8607 55.8964 44.8984 55.8352 44.9361 55.7739C45.0086 55.6544 45.0753 55.529 45.1304 55.3978C45.1391 55.3773 45.1652 55.3103 45.1739 55.284C45.1971 55.214 45.2203 55.147 45.2377 55.077C45.2638 54.9837 45.2841 54.8874 45.3044 54.7941C45.3073 54.7708 45.3102 54.7562 45.3131 54.7504C45.3131 54.7416 45.3131 54.7271 45.316 54.7096C45.3305 54.555 45.3363 54.4034 45.3305 54.2488C45.3247 54.0388 45.316 53.9747 45.2899 53.8551C45.2551 53.6889 45.2203 53.5227 45.171 53.3623C45.1246 53.2136 45.0724 53.0678 45.0173 52.922C45.0086 52.9016 44.9999 52.8811 44.9912 52.8607C44.9912 52.8549 44.9883 52.852 44.9796 52.8374C44.9506 52.7674 44.9187 52.6974 44.8839 52.6304C44.5939 52.0267 44.1849 51.4114 43.8079 50.9565C41.7603 48.4632 38.5991 46.6056 35.3567 46.4015C31.8793 46.1828 28.6224 48.0724 27.033 51.1315ZM51.6675 38.4055C51.6646 38.42 51.6617 38.4346 51.6588 38.4609C51.6472 38.5396 51.6327 38.6183 51.6153 38.6942C51.5892 38.8283 51.5602 38.9566 51.5254 39.0878C51.4471 39.397 51.3456 39.7002 51.2238 39.9948C51.2093 40.0239 51.1571 40.1435 51.16 40.1376C51.131 40.1989 51.0991 40.263 51.07 40.3243C51.0004 40.4613 50.9279 40.5984 50.8525 40.7325C50.6901 41.0154 50.5132 41.3012 50.3044 41.552C49.327 42.733 47.9407 43.2929 46.4674 43.5554C46.4152 43.5641 46.363 43.5729 46.3137 43.5816C46.2934 43.5845 46.1426 43.6049 46.1078 43.6108C45.9831 43.6253 45.8584 43.6399 45.7336 43.6516C45.4813 43.672 45.229 43.6866 44.9767 43.6895C44.7447 43.6953 44.5127 43.6953 44.2835 43.6749C43.863 43.6399 43.5034 44.0598 43.5034 44.4564C43.5034 44.9114 43.863 45.2059 44.2835 45.2409C46.5022 45.4275 48.9819 44.783 50.7046 43.3571C52.8334 41.5928 53.9558 38.1051 52.7986 35.5097C51.5399 32.6928 47.7812 31.9637 45.0898 32.8415C42.3984 33.7222 40.2261 35.8334 38.4918 38.0089C37.3317 39.4611 36.247 41.0242 35.3915 42.6805C34.9332 43.5758 36.276 44.369 36.7372 43.4708C37.3549 42.2723 38.1061 41.1262 38.8949 40.0356C39.2749 39.5107 39.533 39.1753 39.9593 38.665C40.3827 38.1605 40.8236 37.6706 41.2876 37.204C42.2128 36.2767 43.1089 35.5272 44.2545 34.9003C45.2928 34.3345 46.3862 33.9992 47.5724 34.0546C48.2336 34.0867 49.0051 34.25 49.5619 34.4804C50.1797 34.737 50.5712 35.0228 50.9888 35.5127C51.0062 35.5331 51.0178 35.5447 51.0265 35.5535C51.0323 35.5652 51.0381 35.5739 51.0527 35.5914C51.0816 35.6322 51.1078 35.673 51.1368 35.7139C51.218 35.8393 51.2934 35.9676 51.3601 36.1017C51.3891 36.16 51.4152 36.2184 51.4413 36.2767C51.4471 36.2884 51.45 36.3029 51.4587 36.3204C51.5167 36.4837 51.566 36.647 51.6066 36.8162C51.6327 36.9299 51.6559 37.0436 51.6733 37.1574C51.6704 37.1632 51.6965 37.4111 51.6994 37.4665C51.7139 37.761 51.7052 38.0584 51.6733 38.3559C51.6704 38.3792 51.6704 38.3909 51.6675 38.4055ZM48.3728 48.6761C50.084 48.8394 51.9778 48.6178 53.57 47.9762C54.8751 47.4513 56.0439 46.6027 56.7197 45.3371C57.3403 44.1707 57.5491 42.8147 57.4969 41.5053C57.4679 40.7238 57.3722 39.9102 57.1547 39.1578C56.8763 38.1926 55.374 38.6008 55.6524 39.5719C55.6959 39.7177 55.7278 39.8635 55.7568 40.0093C55.7916 40.1756 55.8235 40.3418 55.8496 40.508C55.8525 40.5342 55.867 40.6451 55.8728 40.68C55.8873 40.8054 55.9018 40.9279 55.9134 41.0504C56.0033 42.1323 55.9569 43.1792 55.5509 44.1823C55.1072 45.27 54.211 46.0224 53.1495 46.4715C52.2098 46.8681 51.1542 47.0489 50.1942 47.113C49.5909 47.1539 48.9761 47.1684 48.3728 47.1101C47.9523 47.0693 47.5927 47.498 47.5927 47.8946C47.5927 48.3495 47.9523 48.6353 48.3728 48.6761ZM51.3717 52.957C53.0828 53.1203 54.9766 52.9016 56.5689 52.2571C57.874 51.7322 59.0428 50.8865 59.7185 49.618C60.342 48.4515 60.548 47.0955 60.4958 45.7862C60.4668 45.0047 60.3711 44.1911 60.1535 43.4387C59.8751 42.4735 58.3728 42.8846 58.6512 43.8557C58.6947 43.9986 58.7266 44.1444 58.7585 44.2931C58.7904 44.4564 58.8223 44.6227 58.8484 44.7889C58.8513 44.8151 58.8658 44.9289 58.8716 44.9609C58.8861 45.0863 58.9006 45.2088 58.9122 45.3342C59.0021 46.4132 58.9557 47.4601 58.5497 48.4632C58.106 49.5509 57.2098 50.3033 56.1483 50.7524C55.2087 51.149 54.153 51.3298 53.193 51.3939C52.5898 51.4347 51.9749 51.4493 51.3717 51.391C50.9511 51.3502 50.5944 51.7818 50.5944 52.1754C50.5915 52.6304 50.9511 52.9161 51.3717 52.957ZM54.2574 56.8296C55.9685 56.9929 57.8624 56.7713 59.4575 56.1297C60.7626 55.6048 61.9285 54.7562 62.6042 53.4877C63.2278 52.3212 63.4337 50.9682 63.3815 49.6559C63.3525 48.8744 63.2568 48.0637 63.0393 47.3084C62.7608 46.3432 61.2585 46.7544 61.5398 47.7254C61.5804 47.8683 61.6123 48.017 61.6442 48.1628C61.6791 48.3261 61.7081 48.4924 61.7342 48.6586C61.7371 48.6848 61.7545 48.7986 61.7603 48.8335C61.7748 48.956 61.7864 49.0814 61.798 49.2039C61.8879 50.2829 61.8415 51.3327 61.4354 52.3329C60.9946 53.4235 60.0955 54.1759 59.034 54.6221C58.0944 55.0216 57.0416 55.2024 56.0816 55.2665C55.4784 55.3074 54.8606 55.3219 54.2574 55.2636C53.8398 55.2228 53.4801 55.6515 53.4801 56.0451C53.4801 56.503 53.8369 56.7888 54.2574 56.8296ZM56.9836 61.5187C58.6947 61.6849 60.5857 61.4633 62.1808 60.8189C63.4859 60.2939 64.6518 59.4483 65.3304 58.1798C65.9511 57.0133 66.1599 55.6573 66.1077 54.348C66.0758 53.5664 65.983 52.7557 65.7655 52.0005C65.487 51.0352 63.9847 51.4464 64.2631 52.4175C64.3037 52.5604 64.3386 52.7062 64.3676 52.8549C64.4024 53.0182 64.4314 53.1844 64.4575 53.3506C64.4633 53.3769 64.4778 53.4906 64.4836 53.5227C64.4981 53.6481 64.5126 53.7706 64.5213 53.896C64.6141 54.9749 64.5648 56.0247 64.1587 57.025C63.7179 58.1127 62.8217 58.868 61.7603 59.3141C60.8177 59.7107 59.7649 59.8915 58.8049 59.9586C58.2017 59.9965 57.5868 60.0111 56.9836 59.9528C56.5631 59.9149 56.2034 60.3435 56.2034 60.7372C56.2034 61.1921 56.5631 61.4779 56.9836 61.5187ZM45.635 76.6914C44.3966 77.2396 43.0973 77.6449 41.769 77.8841C41.7951 78.1115 41.8154 78.339 41.827 78.5664C41.9924 81.6867 40.7337 84.5562 39.1443 87.1603C37.5753 89.7323 35.6989 92.1177 33.7354 94.3923C32.7813 95.4975 31.8039 96.591 30.7772 97.6263C30.0667 98.3407 28.9675 97.2326 29.6751 96.5211C29.7418 96.454 29.8056 96.3869 29.8723 96.3198C31.1455 95.0047 32.3636 93.6312 33.5353 92.2227C35.3393 90.0502 37.0504 87.7697 38.428 85.2939C39.6548 83.0835 40.5162 80.634 40.2348 78.0882C38.805 78.2048 37.3607 78.1232 35.9454 77.8112C33.3149 77.2338 30.8236 75.7582 29.4518 73.3699C28.5469 71.7923 27.9147 69.0219 29.9971 68.0421C31.1687 67.491 32.5638 67.7855 33.7296 68.2083C35.2958 68.7799 36.7546 69.6285 38.0104 70.7308C39.707 72.2209 40.9164 74.1893 41.4819 76.356C43.7934 75.939 45.9744 74.9504 47.8972 73.5623C50.374 71.7689 52.6014 69.611 54.7156 67.4035C55.8032 66.2691 56.8734 65.1085 57.8856 63.9012C58.1553 63.5746 58.7063 63.6213 58.9847 63.9012C59.3009 64.2191 59.2545 64.6856 58.9847 65.0064C58.9006 65.1085 58.8136 65.2105 58.7266 65.3097C57.1837 67.1089 55.5538 68.8382 53.8514 70.4917C52.6391 71.6698 51.3833 72.8071 50.0608 73.8598C48.6832 74.9592 47.2476 75.9711 45.635 76.6914ZM39.9274 76.5456C39.2807 74.303 37.8334 72.3667 35.8903 71.0545C34.7128 70.2555 33.3439 69.5672 31.9286 69.3427C31.5313 69.2785 31.1165 69.3048 30.7598 69.4098C30.7482 69.4127 30.7424 69.4127 30.7337 69.4156C30.7337 69.4156 30.7337 69.4185 30.7308 69.4185C30.6989 69.436 30.6641 69.4506 30.6322 69.4681C30.5916 69.4914 30.4901 69.576 30.4756 69.5818C30.4495 69.6081 30.4263 69.6314 30.4002 69.6576C30.3828 69.681 30.3277 69.751 30.3074 69.786C30.2842 69.8239 30.2639 69.8676 30.2436 69.9084C30.2175 69.9959 30.1943 70.0805 30.1711 70.168C30.1653 70.1942 30.1595 70.2146 30.1566 70.2263C30.1566 70.238 30.1566 70.2496 30.1566 70.2671C30.1537 70.3575 30.145 70.445 30.145 70.5354C30.1479 70.6404 30.1566 70.7483 30.1682 70.8533C30.174 70.8795 30.2001 71.0516 30.2088 71.0895C30.2523 71.2936 30.3103 71.4977 30.3799 71.696C30.4785 71.976 30.4785 71.9731 30.6264 72.2676C30.7482 72.5038 30.8845 72.7342 31.0295 72.9587C31.3225 73.402 31.6328 73.7665 32.0591 74.1718C33.9066 75.9215 36.6328 76.601 39.1618 76.5776C39.417 76.5747 39.6722 76.563 39.9274 76.5456ZM113.541 45.2438C113.541 49.4722 113.541 53.7006 113.541 57.929C113.541 62.7931 113.541 67.6601 113.541 72.5242C113.541 76.5718 113.541 80.6165 113.541 84.6611C113.541 86.3467 113.541 88.0322 113.541 89.7177C113.541 90.7267 111.983 90.7238 111.983 89.7177C111.983 89.6886 111.983 89.6623 111.983 89.6332C111.92 87.586 111.983 85.5272 111.983 83.4801C111.983 79.2517 111.983 75.0204 111.983 70.792C111.983 65.9279 111.983 61.0609 111.983 56.1968C111.983 52.1521 111.983 48.1045 111.983 44.0598C111.983 42.6339 111.983 41.2108 111.983 39.7877C111.514 39.7877 111.044 39.7877 110.574 39.7877C107.401 39.7877 104.231 39.7877 101.061 39.7877C99.3326 39.7877 97.6012 39.7877 95.8726 39.7877C95.8726 42.5289 95.8726 45.27 95.8726 48.0141C95.8726 49.026 95.861 50.0379 95.8813 51.0498C95.8958 51.7934 95.9277 52.5866 96.0147 53.3827C96.0872 53.3915 96.1597 53.3944 96.2294 53.4002C97.5693 53.5344 98.9846 53.7327 100.182 54.3859C102.036 55.3948 104.28 58.2381 102.343 60.224C101.586 60.9997 100.44 61.1659 99.4254 60.9297C98.1029 60.6235 96.9776 59.6641 96.1917 58.5909C95.3912 57.4974 94.933 56.2085 94.669 54.8612C93.7526 54.8233 92.8332 54.8233 91.9167 54.8233C90.5188 54.8233 89.1238 54.8233 87.7259 54.8233C85.4608 54.8233 83.1958 54.8233 80.9278 54.8233C80.9307 57.5732 80.9336 60.326 80.9365 63.0759C80.9365 64.0908 80.922 65.1085 80.9452 66.1233C80.9626 66.8494 80.9974 67.6222 81.0815 68.395C81.1337 68.4008 81.183 68.4037 81.2352 68.4066C82.5809 68.5379 83.9962 68.7332 85.2085 69.3777C87.0821 70.3721 89.3529 73.2387 87.4069 75.2362C86.6615 76.0032 85.5362 76.1723 84.5299 75.9507C83.2132 75.6649 82.0763 74.7084 81.2874 73.6469C80.4725 72.5446 80.0026 71.2382 79.7358 69.8734C78.8106 69.8355 77.8855 69.8355 76.9603 69.8355C75.5595 69.8355 74.1558 69.8355 72.7521 69.8355C70.4986 69.8355 68.2422 69.8355 65.9888 69.8355C65.9888 72.5767 65.9888 75.3149 65.9888 78.0561C65.9888 79.068 65.9743 80.0828 65.9946 81.0947C66.012 81.8383 66.0439 82.6315 66.1309 83.4276C66.2005 83.4335 66.273 83.4393 66.3455 83.4451C67.6854 83.5763 69.0978 83.7746 70.2985 84.4279C72.1517 85.4398 74.3965 88.283 72.4592 90.2689C71.7022 91.0446 70.5566 91.2108 69.5415 90.9746C68.219 90.6655 67.0938 89.709 66.3078 88.6329C65.5073 87.5423 65.0491 86.2534 64.7823 84.9032C63.8658 84.8682 62.9493 84.8682 62.03 84.8682C60.635 84.8682 59.2371 84.8682 57.8421 84.8682C55.577 84.8682 53.309 84.8682 51.0439 84.8682C51.0439 85.2298 51.0439 85.5914 51.0439 85.953C51.0439 88.6446 51.0439 91.3333 51.0439 94.0219C51.0439 95.4538 51.0439 96.8827 51.0439 98.3116C51.6327 98.3057 52.2243 98.3291 52.8102 98.3291C54.5242 98.3291 56.2382 98.3291 57.9494 98.3291C60.3304 98.3291 62.7115 98.3291 65.0926 98.3291C67.9087 98.3291 70.7248 98.3291 73.5409 98.3291C76.5746 98.3291 79.6082 98.3291 82.6418 98.3291C85.632 98.3291 88.625 98.3291 91.618 98.3291C94.35 98.3291 97.082 98.3291 99.814 98.3291C102.053 98.3291 104.292 98.3291 106.534 98.3291C108.048 98.3291 109.565 98.3291 111.081 98.3291C111.641 98.3291 112.201 98.3291 112.761 98.3291C113.764 98.3291 113.764 99.895 112.761 99.895C112.726 99.895 112.691 99.8921 112.653 99.895C111.841 99.9125 111.026 99.895 110.214 99.895C108.503 99.895 106.789 99.895 105.075 99.895C102.697 99.895 100.316 99.895 97.9347 99.895C95.1186 99.895 92.3025 99.895 89.4864 99.895C86.4527 99.895 83.4191 99.895 80.3855 99.895C77.3924 99.895 74.3994 99.895 71.4093 99.895C68.6773 99.895 65.9453 99.895 63.2133 99.895C60.9714 99.895 58.7324 99.895 56.4935 99.895C54.9766 99.895 53.4627 99.895 51.9459 99.895C51.3862 99.895 50.8264 99.895 50.2638 99.895C49.8433 99.895 49.4865 99.5334 49.4865 99.1106C49.4865 98.4865 49.4865 97.8654 49.4865 97.2413C49.4865 94.5527 49.4865 91.8611 49.4865 89.1724C49.4865 87.4752 49.4865 85.7809 49.4865 84.0838C49.4865 83.6609 49.8433 83.3022 50.2638 83.3022C50.3305 83.3022 50.3972 83.3022 50.4639 83.3022C53.5149 83.3022 56.5689 83.3022 59.6199 83.3022C60.6466 83.3022 61.6732 83.3022 62.7028 83.3022C63.3206 83.3022 63.9383 83.3081 64.5561 83.3314C64.4546 82.3137 64.4314 81.293 64.4314 80.3249C64.4314 79.3567 64.4314 78.3915 64.4314 77.4233C64.4314 74.6326 64.4314 71.8389 64.4314 69.0482C64.4314 68.7711 64.5503 68.5728 64.7185 68.4475C64.8432 68.3396 65.0056 68.2696 65.2144 68.2696C65.2811 68.2696 65.3449 68.2696 65.4116 68.2696C68.454 68.2696 71.4934 68.2696 74.5357 68.2696C75.5711 68.2696 76.6094 68.2696 77.6477 68.2696C78.2654 68.2696 78.886 68.2783 79.5067 68.2987C79.411 67.3218 79.3849 66.342 79.382 65.4118C79.3762 64.4115 79.3791 63.4113 79.3791 62.4111C79.3762 59.6203 79.3733 56.8296 79.3704 54.0418C79.3704 53.616 79.73 53.2573 80.1505 53.2573C80.2143 53.2573 80.2811 53.2573 80.3478 53.2573C83.3988 53.2573 86.4527 53.2573 89.5038 53.2573C90.5304 53.2573 91.56 53.2573 92.5867 53.2573C93.2044 53.2573 93.8222 53.2661 94.4399 53.2865C94.3413 52.2688 94.3181 51.2481 94.3152 50.28C94.3152 49.3147 94.3152 48.3466 94.3152 47.3813C94.3152 44.5877 94.3152 41.7969 94.3152 39.0033C94.3152 38.5804 94.6748 38.2217 95.0954 38.2217C95.8233 38.2217 96.5542 38.2217 97.2821 38.2217C100.452 38.2217 103.625 38.2217 106.795 38.2217C108.784 38.2217 110.771 38.2217 112.761 38.2217C113.039 38.2217 113.239 38.3442 113.364 38.5192C113.471 38.6533 113.541 38.8225 113.541 39.0033C113.541 39.0324 113.538 39.0587 113.541 39.0878C113.602 41.135 113.541 43.1938 113.541 45.2438ZM66.3948 85.0169C66.6819 86.2534 67.1779 87.414 68.0508 88.3005C68.4656 88.7204 68.9499 89.1024 69.498 89.327C69.8693 89.4786 70.284 89.5428 70.6001 89.5078C70.6262 89.5048 70.7161 89.4903 70.7277 89.4873C70.7741 89.4757 70.8176 89.464 70.864 89.4524C70.9133 89.4378 70.9627 89.4203 71.012 89.4028C71.0149 89.3999 71.0178 89.3999 71.0236 89.3969C71.099 89.3532 71.1744 89.3124 71.2469 89.2628C71.2469 89.2628 71.2469 89.2628 71.2498 89.2628C71.2846 89.2307 71.3223 89.1957 71.3571 89.1607C71.3658 89.152 71.4035 89.1112 71.4267 89.0849C71.4354 89.0703 71.447 89.0558 71.4499 89.0499C71.4615 89.0295 71.5195 88.9245 71.5427 88.8866C71.5543 88.8429 71.5978 88.7146 71.6065 88.6767C71.6152 88.6475 71.621 88.6154 71.6239 88.5863C71.6239 88.5746 71.6239 88.5658 71.6268 88.5513C71.6268 88.4988 71.6181 88.3005 71.6239 88.2946C71.6094 88.2042 71.5891 88.1138 71.563 88.0234C71.4992 87.7931 71.4673 87.726 71.3339 87.4985C71.041 86.9911 70.6088 86.5654 70.1506 86.2067C69.1993 85.4631 68.0218 85.2152 66.8269 85.0636C66.6848 85.0461 66.5398 85.0315 66.3948 85.0169ZM81.3454 69.9843C81.6413 71.2528 82.1604 72.4455 83.0769 73.3466C83.4655 73.7286 83.9701 74.1018 84.4371 74.2885C84.5734 74.3439 84.7184 74.3876 84.8605 74.4226C84.9069 74.4343 85.078 74.4634 85.0838 74.4693C85.1795 74.478 85.2781 74.4838 85.3767 74.4838C85.4144 74.4838 85.5711 74.4693 85.5827 74.4722C85.6842 74.4547 85.7828 74.4284 85.8785 74.3993C85.9104 74.3905 85.9423 74.3789 85.9713 74.3672C85.98 74.3614 85.9887 74.3555 86.0003 74.3497C86.0612 74.3147 86.1192 74.2797 86.1772 74.2418C86.1859 74.2301 86.2787 74.1543 86.3077 74.131C86.3193 74.1164 86.3715 74.0552 86.386 74.0406C86.3976 74.0231 86.4092 74.0085 86.4179 73.991C86.4353 73.9619 86.4846 73.8569 86.4962 73.8423C86.5194 73.7752 86.5397 73.7111 86.5571 73.644C86.5629 73.6207 86.5658 73.5973 86.5716 73.574C86.5716 73.5478 86.5774 73.504 86.5745 73.4836C86.5658 73.2153 86.5948 73.2824 86.5136 72.9937C86.4469 72.7604 86.4034 72.6642 86.2613 72.4251C85.9452 71.8972 85.4811 71.454 84.991 71.0924C84.0629 70.4129 82.9202 70.1738 81.7776 70.0338C81.6326 70.0134 81.4904 69.9988 81.3454 69.9843ZM96.2787 54.972C96.5658 56.2085 97.0646 57.3691 97.9347 58.2585C98.3494 58.6784 98.8337 59.0575 99.3819 59.2821C99.7531 59.4337 100.168 59.5008 100.484 59.4658C100.51 59.4599 100.6 59.4454 100.614 59.4424C100.658 59.4308 100.704 59.422 100.748 59.4074C100.8 59.3929 100.849 59.3754 100.896 59.3579C100.902 59.355 100.902 59.355 100.907 59.352C100.986 59.3112 101.058 59.2675 101.131 59.2208C101.134 59.2208 101.134 59.2208 101.134 59.2179C101.171 59.1858 101.206 59.1508 101.241 59.1187C101.25 59.11 101.29 59.0663 101.311 59.0429C101.322 59.0283 101.331 59.0109 101.337 59.005C101.348 58.9846 101.403 58.8825 101.427 58.8446C101.438 58.8009 101.482 58.6697 101.493 58.6318C101.499 58.6026 101.505 58.5734 101.511 58.5414C101.511 58.5326 101.511 58.5209 101.511 58.5064C101.511 58.4568 101.502 58.2556 101.508 58.2497C101.493 58.1593 101.473 58.0689 101.45 57.9815C101.383 57.7511 101.351 57.6811 101.221 57.4536C100.925 56.9462 100.496 56.5234 100.037 56.1647C99.0832 55.4182 97.9057 55.1703 96.7137 55.0216C96.5687 55.0012 96.4237 54.9866 96.2787 54.972ZM67.0039 42.2343C66.2672 42.9196 67.3693 44.0249 68.1059 43.3396C69.1471 42.3743 70.1883 41.4091 71.2295 40.4409C73.7295 38.1226 76.2294 35.8014 78.7323 33.4801C81.7573 30.6719 84.7822 27.8636 87.81 25.0554C90.426 22.6263 93.042 20.2001 95.6609 17.7709C96.5281 16.9661 97.3952 16.1612 98.2624 15.3564C98.4915 15.1435 98.7322 14.9364 98.9672 14.7236C101.145 16.9602 103.323 19.1998 105.504 21.4365C105.835 21.7777 106.168 22.1189 106.502 22.4601C106.911 22.8829 107.648 22.6788 107.801 22.116C108.445 19.751 109.086 17.3831 109.73 15.0181C110.754 11.2475 111.78 7.47406 112.804 3.70058C113.039 2.83157 113.277 1.96257 113.512 1.09356C113.677 0.489919 113.126 0.0145896 112.555 0.131235C110.084 0.641558 107.616 1.15188 105.145 1.6622C101.244 2.46706 97.3401 3.27191 93.4393 4.07676C92.5461 4.26339 91.6528 4.44711 90.7595 4.63083C90.3477 4.71539 90.1099 5.2053 90.2143 5.59315C90.3332 6.02474 90.7595 6.22595 91.1743 6.14138C93.6424 5.63106 96.1133 5.12074 98.5814 4.61041C102.485 3.80556 106.386 3.00071 110.287 2.19294C110.751 2.09962 111.212 2.00339 111.676 1.90716C111.145 3.86388 110.614 5.81769 110.084 7.77442C109.057 11.5479 108.033 15.3214 107.009 19.0919C106.891 19.5235 106.775 19.9551 106.659 20.3838C104.617 18.2871 102.575 16.1904 100.533 14.0937C100.2 13.7496 99.8662 13.4084 99.5356 13.0672C99.2311 12.7581 98.7409 12.7843 98.4335 13.0672C97.3923 14.0354 96.3512 15.0006 95.31 15.9658C92.81 18.2871 90.3071 20.6083 87.8071 22.9296C84.7822 25.7378 81.7544 28.546 78.7294 31.3543C76.1134 33.7805 73.4945 36.2096 70.8785 38.6388C69.6082 39.8169 68.28 40.9542 67.059 42.1819C67.0416 42.1994 67.0213 42.2169 67.0039 42.2343ZM12.3405 57.3312C12.239 53.546 11.0325 49.8192 9.00237 46.6348C6.96932 43.4445 4.0662 40.855 0.59754 39.3445C0.217611 39.1607 0.119004 38.6183 0.319119 38.2742C0.548236 37.8776 0.99777 37.8252 1.3835 37.9943C1.52851 38.0643 1.67352 38.1284 1.82143 38.1926C1.89104 38.2218 1.96354 38.248 2.03315 38.2772C2.10855 38.3063 2.18106 38.3355 2.25646 38.3617C2.34927 38.3967 2.44498 38.4288 2.54069 38.4609C2.58999 38.4784 2.63929 38.4959 2.6886 38.5104C2.79591 38.5454 2.90321 38.5775 3.01052 38.6067C3.05113 38.6183 3.08883 38.63 3.12943 38.6388C3.24544 38.6708 3.36435 38.7029 3.48326 38.7292C3.53256 38.7408 3.58186 38.7525 3.62827 38.7612C3.73268 38.7846 3.83708 38.8079 3.94439 38.8254C4.0227 38.84 4.1039 38.8545 4.18511 38.8662C4.25472 38.8779 4.32722 38.8895 4.39683 38.9012C4.72165 38.945 5.04648 38.977 5.3713 38.9916C6.77501 39.0558 8.17581 38.8662 9.51861 38.4667C9.55052 38.455 9.58532 38.4463 9.62012 38.4346C9.66362 38.423 9.70713 38.4084 9.75063 38.3938C11.9954 37.6677 14.0807 36.3525 15.7338 34.6786C15.7425 34.6728 15.7483 34.6641 15.757 34.6582C15.8382 34.5737 15.9194 34.4891 15.9977 34.4045C16.7518 33.5909 17.413 32.6957 17.9524 31.7363C17.9844 31.6809 18.0163 31.6313 18.054 31.5905C20.2117 27.7033 20.5249 22.9208 19.7361 18.5379C19.1067 18.3541 18.4861 18.1354 17.877 17.8788C16.3747 17.2431 14.9855 16.4091 13.7152 15.3768C12.4449 14.3445 11.2355 13.0643 10.7715 11.4458C10.322 9.87695 10.9223 8.15935 12.4623 7.48864C13.9066 6.85584 15.5627 7.19702 16.775 8.15351C18.083 9.18582 18.8312 10.7343 19.4635 12.239C20.145 13.8546 20.6932 15.5255 21.0673 17.2402C21.0702 17.2548 21.0731 17.2693 21.076 17.281C23.808 17.8846 26.6937 17.7447 29.2865 16.7357C33.863 14.9539 37.1983 10.3231 37.4709 5.4211C37.4303 4.87578 37.4216 4.32755 37.4506 3.77932C37.4999 2.76159 38.921 2.78491 39.0051 3.77932C39.0544 4.33046 39.066 4.88453 39.0399 5.43568C39.2198 7.49447 39.9187 9.48035 41.0266 11.2417C42.2534 13.1955 43.979 14.8285 46.015 15.9104C48.0364 16.9865 50.316 17.4006 52.5898 17.1964C57.0474 16.7969 61.2411 13.9916 63.1785 9.92361C63.3728 9.54742 63.8919 9.43661 64.2428 9.64366C64.6257 9.8682 64.704 10.3319 64.5213 10.7139C63.9354 11.8366 63.5497 13.0526 63.3438 14.3036C62.6158 18.7099 64.3241 23.4574 67.7753 26.2773C68.103 26.5456 68.0508 27.1084 67.7753 27.3825C67.4563 27.7033 67.001 27.6508 66.6761 27.3825C65.5943 26.4989 64.6663 25.4316 63.9151 24.2506C62.0996 21.3986 61.3426 17.8992 61.7574 14.5544C60.8844 15.4059 59.907 16.1495 58.8571 16.7619C54.4372 19.3398 48.8601 19.5556 44.4576 16.8203C41.6443 15.0706 39.4431 12.3294 38.3004 9.21207C36.627 14.0937 32.3578 18.0013 27.2302 18.9461C25.2929 19.3019 23.3063 19.2844 21.3776 18.9286C22.0766 23.5186 21.5748 28.4235 19.3301 32.4478C19.3185 32.4741 19.3127 32.5003 19.2952 32.5265C18.6978 33.5909 17.9641 34.5882 17.1288 35.4835C17.0853 35.5302 17.0389 35.5768 16.9925 35.6235C16.8968 35.7226 16.8011 35.8247 16.7025 35.9209C16.688 35.9355 16.6764 35.9472 16.6648 35.9617C16.5806 36.0434 16.4965 36.1221 16.4095 36.2009C16.3776 36.2329 16.3457 36.265 16.3109 36.2971C16.3051 36.3029 16.2993 36.3059 16.2935 36.3117C16.2065 36.3933 16.1137 36.475 16.0238 36.5537C15.9832 36.5887 15.9426 36.6266 15.902 36.6616C15.7918 36.7579 15.6787 36.8541 15.5627 36.9474C15.5424 36.9649 15.5192 36.9824 15.4989 36.9999C15.3742 37.102 15.2465 37.2011 15.1189 37.2973C15.1044 37.309 15.0928 37.3177 15.0812 37.3265C14.9478 37.4286 14.8086 37.5277 14.6723 37.6269C14.6665 37.6327 14.6607 37.6356 14.6549 37.6414C14.5128 37.7406 14.3707 37.8368 14.2257 37.9331C14.2228 37.936 14.2199 37.9389 14.2141 37.9418C14.0691 38.038 13.924 38.1314 13.7761 38.2217C13.7732 38.2247 13.7674 38.2247 13.7645 38.2276C13.6166 38.318 13.4687 38.4055 13.3208 38.493C13.315 38.4959 13.3092 38.4988 13.3034 38.5017C13.1555 38.5863 13.0076 38.6679 12.8568 38.7467C12.8481 38.7525 12.8423 38.7554 12.8336 38.7612C12.6857 38.8371 12.5377 38.9129 12.3869 38.9887C12.3753 38.9916 12.3666 38.9974 12.355 39.0033C12.2071 39.0762 12.0592 39.1432 11.9113 39.2103C11.8968 39.2191 11.8823 39.2249 11.8649 39.2307C11.7228 39.2978 11.5749 39.359 11.4299 39.4174C11.4096 39.4261 11.3893 39.4349 11.369 39.4436C11.2268 39.5019 11.0847 39.5573 10.9426 39.6098C10.9165 39.6186 10.8904 39.6302 10.8643 39.639C10.7251 39.6886 10.5859 39.7381 10.4467 39.7848C10.4148 39.7965 10.3858 39.8052 10.3539 39.8169C10.2205 39.8606 10.0842 39.9044 9.94785 39.9452C9.91014 39.9539 9.87244 39.9656 9.83764 39.9773C9.70713 40.0152 9.57372 40.0502 9.44321 40.0852C9.3997 40.0968 9.3562 40.1056 9.3156 40.1172C9.18799 40.1493 9.06038 40.1785 8.93277 40.2076C8.88347 40.2193 8.83416 40.2281 8.78776 40.2397C8.66305 40.266 8.54124 40.2893 8.41943 40.3126C8.36433 40.3243 8.30922 40.333 8.25412 40.3418C8.13811 40.3622 8.0192 40.3826 7.90029 40.4001C7.83939 40.4088 7.78138 40.4147 7.72048 40.4234C7.60737 40.438 7.49426 40.4526 7.37825 40.4672C7.31445 40.473 7.24774 40.4788 7.18394 40.4847C7.07373 40.4963 6.96352 40.5051 6.85621 40.5138C6.78371 40.5167 6.7141 40.5226 6.6445 40.5255C6.54009 40.5313 6.43568 40.5372 6.32837 40.5401C6.25587 40.543 6.18046 40.543 6.10506 40.543C6.00355 40.5459 5.90204 40.5459 5.80343 40.5459C5.73383 40.5459 5.66712 40.543 5.60042 40.5401C6.08475 40.925 6.55459 41.3303 7.00412 41.759C9.92754 44.5439 12.0447 48.1891 13.1149 52.088C14.1851 55.9897 14.1996 60.2065 12.9177 64.0587C12.6015 65.0123 11.0992 64.6011 11.4183 63.6446C12.094 61.6033 12.3985 59.4803 12.3405 57.3312ZM19.3649 16.7998C19.3185 16.622 19.272 16.4441 19.2227 16.2691C18.8167 14.7877 18.2976 13.3267 17.6363 11.9416C17.0766 10.7693 16.308 9.40453 15.0348 8.91462C14.0981 8.55302 12.764 8.65509 12.3057 9.67282C11.7634 10.883 12.8017 12.3323 13.5963 13.1605C15.1798 14.814 17.1868 16.0504 19.3649 16.7998ZM75.5914 12.7989C76.7979 13.2101 78.1407 12.8981 79.1065 12.0874C80.2782 11.1017 80.7016 9.36079 80.1186 7.94064C79.9591 7.54987 79.6024 7.27284 79.1616 7.39532C78.7932 7.49738 78.4568 7.96397 78.6192 8.35764C78.8106 8.82714 78.8918 9.28789 78.77 9.78655C78.7439 9.88861 78.7091 9.98776 78.6772 10.0898C78.625 10.2385 78.6511 10.1511 78.6656 10.119C78.6424 10.1656 78.6221 10.2123 78.596 10.259C78.5496 10.3494 78.4916 10.4339 78.4394 10.5214C78.4278 10.5418 78.4249 10.5477 78.4162 10.5593C78.3727 10.6147 78.3263 10.6701 78.277 10.7226C78.0276 10.9909 77.7144 11.195 77.433 11.2913C77.3373 11.3233 77.2387 11.3496 77.1401 11.3729C77.0995 11.3817 77.0589 11.3904 77.0154 11.3963C76.998 11.3992 76.9777 11.4021 76.969 11.4021C76.8646 11.4108 76.7631 11.4167 76.6587 11.4137C76.6065 11.4108 76.5543 11.4079 76.5021 11.405C76.476 11.405 76.4586 11.405 76.447 11.405C76.4325 11.4021 76.418 11.3963 76.3919 11.3904C76.2875 11.3671 76.183 11.3467 76.0815 11.3146C76.038 11.3 75.8814 11.2388 75.8814 11.2417C75.7944 11.2009 75.7103 11.1571 75.6291 11.1076C75.5856 11.0813 75.545 11.0521 75.5015 11.0259C75.4783 11.0113 75.4638 11.0055 75.4522 10.9997C75.4435 10.9909 75.4348 10.9792 75.4145 10.9647C75.3391 10.8976 75.2666 10.8305 75.197 10.7576C75.1593 10.7197 75.1274 10.6818 75.0955 10.6468C75.0897 10.641 75.0723 10.6206 75.0607 10.606C75.0056 10.5302 74.9563 10.4543 74.9099 10.3756C74.8838 10.3319 74.8576 10.2881 74.8344 10.2444C74.8344 10.2415 74.7909 10.1452 74.7764 10.119C74.7126 9.95277 74.6662 9.78071 74.6343 9.60575C74.6401 9.61158 74.6169 9.4162 74.614 9.39287C74.6111 9.27331 74.6169 9.15375 74.6256 9.0371C74.6285 9.0196 74.6285 9.01086 74.6285 9.00502C74.6314 8.99336 74.6343 8.98461 74.6372 8.96711C74.6488 8.91171 74.6575 8.85922 74.672 8.80673C74.6952 8.70466 74.73 8.6026 74.7648 8.50345C74.7677 8.4947 74.7793 8.46846 74.788 8.44804C74.8054 8.41013 74.8228 8.37222 74.8431 8.33431C74.8953 8.23225 74.9592 8.13602 75.023 8.03978C75.0288 8.02812 75.0346 8.01937 75.0375 8.01354C75.0781 7.96397 75.1187 7.91731 75.1622 7.87065C75.2434 7.78316 75.3333 7.70151 75.4232 7.62278C75.4377 7.61111 75.4522 7.60236 75.458 7.59945C75.5189 7.55571 75.5827 7.51488 75.6465 7.47406C75.69 7.45073 75.7335 7.42448 75.777 7.40115C75.7857 7.39824 75.8582 7.36324 75.893 7.34575C75.9191 7.33408 75.9626 7.3195 75.9713 7.31658C76.0322 7.29325 76.0902 7.27576 76.1511 7.25826C76.2004 7.24368 76.2497 7.23202 76.2991 7.22035C76.3165 7.21744 76.4006 7.20286 76.4296 7.19702C76.5456 7.18244 76.6645 7.17661 76.7805 7.17953C76.8327 7.17953 76.8849 7.18536 76.9371 7.18827C76.9632 7.18827 76.9748 7.18827 76.9864 7.18827C76.9951 7.19119 77.0096 7.19411 77.0473 7.20285C77.462 7.27576 77.8884 7.08913 78.0073 6.65462C78.1088 6.27844 77.8797 5.7652 77.462 5.6923C76.2207 5.47359 74.936 5.82352 74.0601 6.76544C73.1929 7.6986 72.8478 9.04877 73.19 10.2852C73.5206 11.4721 74.4342 12.4081 75.5914 12.7989ZM6.31967 70.0572C5.95134 70.1592 5.61492 70.6258 5.77443 71.0195C5.96584 71.489 6.04705 71.9497 5.92524 72.4455C5.89914 72.5505 5.86724 72.6496 5.83243 72.7517C5.78313 72.9004 5.80633 72.8129 5.82083 72.7808C5.80053 72.8275 5.77733 72.8741 5.75413 72.9208C5.70482 73.0112 5.64972 73.0958 5.59462 73.1833C5.58592 73.2037 5.58012 73.2095 5.57432 73.2212C5.53081 73.2766 5.48151 73.332 5.4351 73.3815C5.18569 73.6527 4.86956 73.8569 4.58824 73.9502C4.49253 73.9852 4.39683 74.0114 4.29822 74.0348C4.25472 74.0435 4.21411 74.0493 4.17351 74.0581C4.15611 74.061 4.13291 74.0639 4.12711 74.0639C4.0227 74.0727 3.91829 74.0756 3.81388 74.0756C3.76168 74.0727 3.70947 74.0698 3.65727 74.0668C3.63117 74.0668 3.61377 74.0639 3.60217 74.0639C3.59057 74.061 3.57316 74.0581 3.54706 74.0523C3.44265 74.0289 3.33825 74.0056 3.23674 73.9764C3.19614 73.9619 3.03662 73.9006 3.03662 73.9035C2.95252 73.8627 2.86551 73.819 2.7843 73.7694C2.7408 73.7431 2.7002 73.714 2.6567 73.6877C2.63639 73.6732 2.62189 73.6644 2.61029 73.6586C2.60159 73.6498 2.58999 73.6411 2.57259 73.6265C2.49718 73.5594 2.42178 73.4924 2.35217 73.4195C2.31737 73.3815 2.28547 73.3436 2.25066 73.3057C2.24486 73.2999 2.22746 73.2824 2.21586 73.2649C2.16076 73.192 2.11145 73.1162 2.06505 73.0374C2.03895 72.9937 2.01575 72.95 1.99255 72.9062C1.98964 72.9004 1.94614 72.8042 1.93164 72.7808C1.86784 72.6146 1.82143 72.4426 1.78953 72.2676C1.79533 72.2734 1.77213 72.078 1.77213 72.0518C1.76923 71.9352 1.77213 71.8156 1.78373 71.6989C1.78373 71.6814 1.78373 71.6727 1.78373 71.6669C1.78663 71.6552 1.78953 71.6435 1.79243 71.626C1.80403 71.5735 1.81563 71.5211 1.82723 71.4686C1.85334 71.3665 1.88524 71.2644 1.92004 71.1653C1.92294 71.1565 1.93454 71.1274 1.94324 71.1099C1.96064 71.072 1.97804 71.0312 1.99835 70.9962C2.05345 70.8912 2.11435 70.7949 2.17816 70.6987C2.18686 70.687 2.18976 70.6812 2.19266 70.6754C2.23326 70.6258 2.27387 70.5791 2.31737 70.5325C2.39857 70.445 2.48848 70.3604 2.58129 70.2846C2.59289 70.2729 2.60739 70.2642 2.61319 70.2584C2.677 70.2175 2.7379 70.1738 2.80171 70.1359C2.84521 70.1096 2.88871 70.0863 2.93512 70.063C2.94382 70.0572 3.01342 70.0251 3.04822 70.0076C3.07723 69.9959 3.11783 69.9784 3.12653 69.9755C3.18743 69.9551 3.24834 69.9347 3.30924 69.9172C3.35565 69.9055 3.40495 69.8909 3.45426 69.8822C3.47456 69.8764 3.55866 69.8618 3.58767 69.8559C3.70367 69.8443 3.81968 69.8384 3.93859 69.8414C3.9908 69.8414 4.043 69.8472 4.0952 69.8472C4.11841 69.8501 4.13291 69.8501 4.14161 69.8501C4.15031 69.853 4.16771 69.8559 4.20541 69.8618C4.61724 69.9347 5.04357 69.751 5.16248 69.3165C5.26689 68.9374 5.03487 68.427 4.62014 68.3541C3.37595 68.1354 2.09405 68.4824 1.21529 69.4244C0.348121 70.3575 0.00299473 71.7106 0.348121 72.9441C0.678746 74.1339 1.59232 75.0671 2.7466 75.4608C3.95599 75.869 5.29589 75.5599 6.26167 74.7492C7.43626 73.7636 7.85679 72.0226 7.27674 70.6025C7.11723 70.2117 6.7605 69.9347 6.31967 70.0572Z" fill="white"/>
</g>
<path d="M27.0332 51.1311C25.731 53.6448 25.5802 56.6076 25.8818 59.4625C25.8992 59.6229 25.9195 59.7803 25.9398 59.9407C25.9427 59.967 25.9427 59.9786 25.9427 59.9874C25.9456 59.9961 25.9456 60.0049 25.9485 60.0195C25.9572 60.0894 25.9688 60.1594 25.9775 60.2294C26.021 60.5181 26.0674 60.8039 26.1197 61.0897C26.2038 61.5592 26.3024 62.0258 26.4155 62.4894C26.5199 62.9239 26.6707 63.3526 26.7722 63.7871C26.865 64.1895 26.6214 64.6444 26.4735 65.0148C26.3082 65.423 26.1342 65.8284 25.9398 66.225C25.5773 66.9686 25.1655 67.6889 24.7159 68.3829C23.756 69.876 22.6423 71.2757 21.4648 72.5996C19.3012 75.0259 16.8825 77.2246 14.3593 79.263C13.1644 80.2282 11.9492 81.1789 10.6818 82.045C9.84943 82.6136 9.07217 81.2576 9.89583 80.6948C10.4382 80.3245 10.966 79.9308 11.491 79.5342C11.7288 79.3563 11.9637 79.1784 12.1986 78.9976C12.2073 78.9889 12.2537 78.9539 12.2798 78.9306C12.2914 78.9218 12.303 78.9131 12.3059 78.9131C12.3697 78.8606 12.4364 78.811 12.5002 78.7614C12.6336 78.6565 12.767 78.5486 12.9005 78.4436C13.5182 77.9507 14.1302 77.4463 14.7334 76.933C16.169 75.7112 17.5611 74.431 18.8807 73.0779C21.4271 70.4709 23.988 67.4293 25.2003 63.9796C24.1939 60.6523 23.843 56.9196 24.5651 53.5077C25.0814 51.0903 26.2821 48.7894 28.2078 47.2089C30.5425 45.2901 33.4572 44.5115 36.4328 44.9547C39.0807 45.3513 41.5807 46.6752 43.5674 48.457C45.1857 49.9063 46.8156 51.9709 46.8881 54.2484C46.9577 56.5113 45.2031 58.1794 43.2715 59.0076C41.4212 59.8037 39.0314 60.2236 37.0854 59.5091C36.0558 59.13 34.8638 58.4622 34.5158 57.3337C34.2316 56.4122 34.655 55.5257 35.235 54.8258C36.0384 53.8577 37.2101 53.0995 38.3354 52.5512C38.7153 52.3675 39.1764 52.4433 39.4027 52.8341C39.6028 53.1782 39.5013 53.7206 39.1213 53.9043C38.9502 53.9889 38.782 54.0793 38.6138 54.1755C38.2107 54.4001 37.8191 54.6479 37.445 54.9162C37.387 54.96 37.329 55.0037 37.2681 55.0474C37.2536 55.0591 37.2449 55.0649 37.2391 55.0679C37.2304 55.0766 37.2188 55.0854 37.2014 55.1029C37.0999 55.1845 37.0013 55.2662 36.9056 55.3507C36.7026 55.5315 36.5169 55.7298 36.3342 55.934C36.3226 55.9485 36.3168 55.9573 36.3081 55.9631C36.3052 55.9689 36.2994 55.9777 36.2936 55.9894C36.2617 56.0389 36.2269 56.0856 36.195 56.1352C36.1457 56.2139 36.1022 56.2955 36.0616 56.3801C36.0819 56.351 36.0036 56.5551 35.9862 56.6192C35.9833 56.628 35.9804 56.628 35.9804 56.6338C35.9804 56.6367 35.9804 56.6367 35.9804 56.6397C35.9862 56.6834 35.9862 56.7505 35.9804 56.7942C35.9804 56.7971 35.9804 56.7971 35.9804 56.7971C35.9833 56.803 35.9862 56.8088 35.9891 56.8146C36.0065 56.8613 36.0181 56.9138 36.0326 56.9604C36.0384 56.9692 36.0442 56.975 36.05 56.9867C36.0819 57.0304 36.108 57.08 36.1399 57.1237C36.1428 57.1266 36.1428 57.1266 36.1457 57.1296C36.1689 57.1558 36.1892 57.1821 36.2124 57.2054C36.2733 57.2666 36.3342 57.3249 36.398 57.3804C36.4879 57.4591 36.5488 57.4999 36.7113 57.5991C37.2623 57.9402 37.7495 58.1181 38.4166 58.226C38.4224 58.2289 38.4253 58.2289 38.4311 58.2289C38.4601 58.2348 38.492 58.2377 38.5239 58.2406C38.5935 58.2464 38.666 58.2552 38.7385 58.2581C38.898 58.2698 39.0575 58.2756 39.217 58.2785C39.539 58.2814 39.8609 58.2639 40.1828 58.2319C40.3945 58.2114 40.3684 58.2144 40.6091 58.1735C40.7687 58.1473 40.9282 58.1152 41.0848 58.0802C41.4299 58.0044 41.7692 57.9082 42.1057 57.7944C42.6828 57.5961 43.2309 57.3395 43.8052 56.9429C44.0082 56.8 44.188 56.6601 44.4316 56.4122C44.4925 56.3539 44.5505 56.2897 44.6085 56.2256C44.6259 56.2052 44.7072 56.106 44.7304 56.0798C44.7478 56.0564 44.8058 55.9777 44.8203 55.9573C44.8609 55.896 44.8986 55.8348 44.9363 55.7736C45.0088 55.654 45.0755 55.5286 45.1306 55.3974C45.1393 55.377 45.1654 55.3099 45.1741 55.2837C45.1973 55.2137 45.2205 55.1466 45.2379 55.0766C45.264 54.9833 45.2843 54.8871 45.3046 54.7937C45.3075 54.7704 45.3104 54.7558 45.3133 54.75C45.3133 54.7413 45.3133 54.7267 45.3162 54.7092C45.3307 54.5546 45.3365 54.403 45.3307 54.2484C45.3249 54.0385 45.3162 53.9743 45.2901 53.8547C45.2553 53.6885 45.2205 53.5223 45.1712 53.3619C45.1248 53.2132 45.0726 53.0674 45.0175 52.9216C45.0088 52.9012 45.0001 52.8808 44.9914 52.8603C44.9914 52.8545 44.9885 52.8516 44.9798 52.837C44.9508 52.767 44.9189 52.697 44.8841 52.63C44.594 52.0263 44.1851 51.411 43.8081 50.9561C41.7605 48.4628 38.5993 46.6052 35.3568 46.4011C31.8795 46.1824 28.6225 48.0721 27.0332 51.1311ZM36.7374 43.4704C37.3551 42.2719 38.1063 41.1258 38.8951 40.0352C39.275 39.5103 39.5332 39.1749 39.9595 38.6646C40.38 38.1601 40.8238 37.6702 41.2878 37.2036C42.213 36.2763 43.1091 35.5269 44.2547 34.8999C45.293 34.3342 46.3864 33.9988 47.5726 34.0542C48.2338 34.0863 49.0053 34.2496 49.5621 34.48C50.1799 34.7366 50.5714 35.0224 50.989 35.5123C51.0064 35.5327 51.018 35.5444 51.0267 35.5531C51.0325 35.5648 51.0383 35.5735 51.0528 35.591C51.0818 35.6318 51.1079 35.6727 51.1369 35.7135C51.2181 35.8389 51.2935 35.9672 51.3603 36.1013C51.3893 36.1597 51.4154 36.218 51.4415 36.2763C51.4473 36.288 51.4502 36.3025 51.4589 36.32C51.5169 36.4833 51.5662 36.6467 51.6068 36.8158C51.6329 36.9295 51.6561 37.0432 51.6735 37.157C51.6706 37.1628 51.6967 37.4107 51.6996 37.4661C51.7141 37.7606 51.7054 38.0581 51.6735 38.3555C51.6706 38.3788 51.6706 38.3905 51.6677 38.4051C51.6648 38.4197 51.6619 38.4342 51.659 38.4605C51.6474 38.5392 51.6329 38.618 51.6155 38.6938C51.5894 38.8279 51.5604 38.9562 51.5256 39.0875C51.4473 39.3966 51.3458 39.6998 51.2239 39.9944C51.2094 40.0235 51.1572 40.1431 51.1601 40.1373C51.1311 40.1985 51.0992 40.2627 51.0702 40.3239C51.0006 40.461 50.9281 40.598 50.8527 40.7322C50.6903 41.015 50.5134 41.3008 50.3046 41.5516C49.3272 42.7326 47.9409 43.2925 46.4676 43.555C46.4154 43.5637 46.3632 43.5725 46.3139 43.5812C46.2936 43.5841 46.1428 43.6045 46.108 43.6104C45.9832 43.625 45.8585 43.6395 45.7338 43.6512C45.4815 43.6716 45.2292 43.6862 44.9769 43.6891C44.7449 43.6949 44.5128 43.6949 44.2837 43.6745C43.8632 43.6395 43.5036 44.0595 43.5036 44.4561C43.5036 44.911 43.8632 45.2055 44.2837 45.2405C46.5024 45.4271 48.9821 44.7827 50.7048 43.3567C52.8336 41.5924 53.9559 38.1047 52.7988 35.5094C51.5401 32.6924 47.7814 31.9633 45.09 32.8411C42.3986 33.7218 40.2263 35.8331 38.492 38.0085C37.3319 39.4607 36.2472 41.0238 35.3917 42.6801C34.9334 43.5754 36.2762 44.3686 36.7374 43.4704ZM50.1944 47.1127C49.5911 47.1535 48.9763 47.1681 48.373 47.1097C47.9525 47.0689 47.5929 47.4976 47.5929 47.8942C47.5929 48.3491 47.9525 48.6349 48.373 48.6757C50.0842 48.839 51.978 48.6174 53.5702 47.9758C54.8753 47.4509 56.0441 46.6023 56.7199 45.3367C57.3405 44.1703 57.5493 42.8143 57.4971 41.5049C57.4681 40.7234 57.3724 39.9098 57.1549 39.1574C56.8765 38.1922 55.3742 38.6005 55.6526 39.5715C55.6961 39.7173 55.728 39.8631 55.757 40.009C55.7918 40.1752 55.8237 40.3414 55.8498 40.5076C55.8527 40.5339 55.8672 40.6447 55.873 40.6797C55.8875 40.8021 55.902 40.9275 55.9136 41.05C56.0035 42.1319 55.9571 43.1788 55.5511 44.179C55.1073 45.2697 54.2112 46.022 53.1497 46.4711C52.21 46.8677 51.1543 47.0485 50.1944 47.1127ZM53.1932 51.3935C52.5899 51.4344 51.9751 51.4489 51.3719 51.3906C50.9513 51.3498 50.5917 51.7785 50.5917 52.1751C50.5917 52.63 50.9513 52.9158 51.3719 52.9566C53.083 53.1199 54.9768 52.9012 56.569 52.2567C57.8741 51.7318 59.0429 50.8861 59.7187 49.6176C60.3422 48.4512 60.5481 47.0952 60.4959 45.7858C60.4669 45.0043 60.3712 44.1907 60.1537 43.4383C59.8753 42.4731 58.373 42.8813 58.6514 43.8553C58.6949 43.9982 58.7268 44.144 58.7587 44.2898C58.7906 44.4561 58.8225 44.6223 58.8486 44.7885C58.8515 44.8147 58.866 44.9256 58.8718 44.9605C58.8863 45.0859 58.9008 45.2084 58.9124 45.3309C59.0023 46.4128 58.9559 47.4597 58.5499 48.4628C58.1062 49.5505 57.21 50.3029 56.1485 50.752C55.2088 51.1486 54.1532 51.3294 53.1932 51.3935ZM59.0342 54.6217C58.0946 55.0212 57.0418 55.202 56.0818 55.2662C55.4786 55.307 54.8608 55.3216 54.2576 55.2632C53.8399 55.2224 53.4803 55.6511 53.4803 56.0448C53.4803 56.5026 53.837 56.7884 54.2576 56.8292C55.9687 56.9925 57.8625 56.7709 59.4577 56.1293C60.7628 55.6044 61.9286 54.7558 62.6044 53.4873C63.2279 52.3209 63.4339 50.9678 63.3817 49.6555C63.3527 48.874 63.2569 48.0633 63.0394 47.308C62.761 46.3428 61.2587 46.754 61.54 47.725C61.5806 47.8679 61.6125 48.0167 61.6444 48.1625C61.6792 48.3258 61.7082 48.492 61.7343 48.6582C61.7372 48.6844 61.7546 48.7982 61.7604 48.8332C61.7749 48.9556 61.7865 49.081 61.7981 49.2035C61.888 50.2825 61.8416 51.3323 61.4356 52.3325C60.9919 53.4232 60.0957 54.1755 59.0342 54.6217ZM65.7656 52.0001C65.4872 51.0348 63.9849 51.446 64.2633 52.4171C64.3039 52.56 64.3387 52.7058 64.3677 52.8545C64.4025 53.0178 64.4315 53.184 64.4576 53.3503C64.4634 53.3765 64.4779 53.4902 64.4837 53.5223C64.4982 53.6477 64.5127 53.7702 64.5214 53.8956C64.6143 54.9745 64.5649 56.0243 64.1589 57.0246C63.7181 58.1123 62.8219 58.8676 61.7604 59.3137C60.8179 59.7103 59.7651 59.8911 58.8051 59.9582C58.2019 59.9961 57.587 60.0107 56.9838 59.9524C56.5632 59.9145 56.2036 60.3431 56.2036 60.7368C56.2036 61.1917 56.5632 61.4775 56.9838 61.5183C58.6949 61.6846 60.5858 61.4629 62.181 60.8185C63.4861 60.2936 64.652 59.4479 65.3306 58.1794C65.9512 57.0129 66.1601 55.6569 66.1079 54.3476C66.076 53.5661 65.9832 52.7554 65.7656 52.0001ZM58.9849 63.9008C59.301 64.2187 59.2546 64.6853 58.9849 65.006C58.9008 65.1081 58.8138 65.2102 58.7268 65.3093C57.1839 67.1086 55.554 68.8378 53.8515 70.4913C52.6392 71.6694 51.3835 72.8067 50.061 73.8594C48.6834 74.9588 47.2477 75.9707 45.6352 76.691C44.3968 77.2392 43.0975 77.6446 41.7663 77.8837C41.7924 78.1111 41.8156 78.3386 41.8272 78.5661C41.9925 81.6863 40.7339 84.5558 39.1416 87.1599C37.5726 89.7319 35.6991 92.1173 33.7356 94.3919C32.7815 95.4971 31.8041 96.5907 30.7774 97.6259C30.0669 98.3403 28.9677 97.2322 29.6753 96.5207C29.742 96.4536 29.8058 96.3865 29.8725 96.3195C31.1457 95.0043 32.3638 93.6308 33.5355 92.2223C35.3394 90.0498 37.0506 87.7694 38.4253 85.2936C39.655 83.0831 40.5163 80.6336 40.235 78.0878C38.8052 78.2045 37.3609 78.1228 35.9456 77.8108C33.3151 77.2334 30.8238 75.7578 29.452 73.3695C28.5471 71.7919 27.9149 69.0215 29.9972 68.0417C31.1689 67.4906 32.5639 67.7851 33.7298 68.208C35.2959 68.7795 36.7548 69.6281 38.0105 70.7304C39.7072 72.2205 40.9166 74.1889 41.4821 76.3556C43.7936 75.9386 45.9745 74.95 47.8974 73.562C50.3742 71.7685 52.6015 69.6106 54.7158 67.4031C55.8034 66.2687 56.8736 65.1081 57.8828 63.9008C58.1555 63.5742 58.7065 63.6209 58.9849 63.9008ZM39.9276 76.5452C39.2808 74.3027 37.8336 72.3664 35.8905 71.0541C34.713 70.2551 33.3441 69.5669 31.9288 69.3423C31.5315 69.2782 31.1167 69.3044 30.76 69.4094C30.7484 69.4123 30.7426 69.4123 30.7339 69.4152C30.7339 69.4152 30.7339 69.4181 30.731 69.4181C30.6991 69.4356 30.6643 69.4502 30.6324 69.4677C30.5918 69.491 30.4903 69.5756 30.4758 69.5814C30.4497 69.6077 30.4265 69.631 30.4004 69.6573C30.383 69.6806 30.3279 69.7506 30.3076 69.7856C30.2844 69.8235 30.2641 69.8672 30.2438 69.9081C30.2177 69.9955 30.1945 70.0801 30.1713 70.1676C30.1655 70.1938 30.1597 70.2142 30.1568 70.2259C30.1568 70.2376 30.1568 70.2492 30.1568 70.2667C30.1539 70.3571 30.1452 70.4446 30.1452 70.535C30.1481 70.64 30.1568 70.7479 30.1684 70.8529C30.1742 70.8791 30.2003 71.0512 30.209 71.0891C30.2525 71.2932 30.3105 71.4973 30.3801 71.6956C30.4787 71.9756 30.4787 71.9727 30.6266 72.2672C30.7484 72.5034 30.8847 72.7338 31.0297 72.9583C31.3226 73.4016 31.633 73.7661 32.0593 74.1714C33.9067 75.9211 36.6329 76.6006 39.1619 76.5772C39.4172 76.5743 39.6724 76.5627 39.9276 76.5452ZM113.541 39.0875C113.538 39.0583 113.541 39.032 113.541 39.0029C113.541 38.8221 113.471 38.653 113.364 38.5188C113.683 38.9737 113.483 39.7873 112.761 39.7873C112.503 39.7873 112.242 39.7873 111.984 39.7873C111.984 41.2104 111.984 42.6335 111.984 44.0595C111.984 48.1041 111.984 52.1517 111.984 56.1964C111.984 61.0605 111.984 65.9275 111.984 70.7916C111.984 75.02 111.984 79.2484 111.984 83.4797C111.984 85.5269 111.92 87.5856 111.984 89.6328C111.984 89.6619 111.984 89.6882 111.984 89.7173C111.984 90.7234 113.541 90.7263 113.541 89.7173C113.541 88.0318 113.541 86.3463 113.541 84.6608C113.541 80.6161 113.541 76.5714 113.541 72.5238C113.541 67.6597 113.541 62.7927 113.541 57.9286C113.541 53.7002 113.541 49.4718 113.541 45.2434C113.541 43.1934 113.602 41.1346 113.541 39.0875Z" fill="#9AD4EA"/>
<mask id="mask1_34_1674" style="mask-type:luminance" maskUnits="userSpaceOnUse" x="0" y="5" width="114" height="72">
<path d="M0 5.57568H113.877V76.496H0V5.57568Z" fill="white"/>
</mask>
<g mask="url(#mask1_34_1674)">
<path d="M113.364 38.5192C113.239 38.3442 113.039 38.2218 112.761 38.2218C110.771 38.2218 108.784 38.2218 106.795 38.2218C103.625 38.2218 100.452 38.2218 97.2821 38.2218C96.5542 38.2218 95.8233 38.2218 95.0954 38.2218C94.6748 38.2218 94.3152 38.5805 94.3152 39.0033C94.3152 41.7969 94.3152 44.5877 94.3152 47.3813C94.3152 48.3466 94.3152 49.3147 94.3152 50.28C94.3181 51.2481 94.3413 52.2688 94.4399 53.2865C93.8222 53.2632 93.2044 53.2573 92.5867 53.2573C91.56 53.2573 90.5304 53.2573 89.5037 53.2573C86.4527 53.2573 83.3988 53.2573 80.3477 53.2573C80.281 53.2573 80.2143 53.2573 80.1505 53.2573C79.73 53.2573 79.3704 53.616 79.3704 54.0389C79.3733 56.8296 79.3762 59.6203 79.3791 62.4111C79.3791 63.4113 79.3762 64.4115 79.382 65.4118C79.3849 66.342 79.411 67.3218 79.5067 68.2988C78.886 68.2783 78.2654 68.2696 77.6476 68.2696C76.6094 68.2696 75.5711 68.2696 74.5357 68.2696C71.4934 68.2696 68.4539 68.2696 65.4116 68.2696C65.3449 68.2696 65.2811 68.2696 65.2144 68.2696C65.0056 68.2696 64.8432 68.3396 64.7185 68.4475C64.2573 68.8587 64.4197 69.8356 65.2144 69.8356C65.4725 69.8356 65.7306 69.8356 65.9888 69.8356C68.2422 69.8356 70.4986 69.8356 72.7521 69.8356C74.1558 69.8356 75.5595 69.8356 76.9603 69.8356C77.8855 69.8356 78.8106 69.8356 79.7358 69.8735C80.0026 71.2382 80.4725 72.5446 81.2874 73.6469C82.0763 74.7084 83.2132 75.6649 84.5299 75.9507C85.5362 76.1723 86.6615 76.0032 87.4069 75.2362C89.3529 73.2387 87.082 70.3721 85.2085 69.3777C83.9962 68.7333 82.5809 68.5379 81.2352 68.4067C81.183 68.4037 81.1337 68.4008 81.0815 68.395C80.9974 67.6222 80.9626 66.8494 80.9452 66.1233C80.9249 65.1085 80.9365 64.0908 80.9365 63.076C80.9336 60.326 80.9307 57.5732 80.9278 54.8233C83.1958 54.8233 85.4608 54.8233 87.7259 54.8233C89.1238 54.8233 90.5188 54.8233 91.9167 54.8233C92.8332 54.8233 93.7526 54.8233 94.669 54.8612C94.9329 56.2085 95.3912 57.4974 96.1916 58.591C96.9776 59.6641 98.1029 60.6235 99.4254 60.9297C100.44 61.1659 101.586 60.9997 102.343 60.224C104.28 58.2381 102.036 55.3949 100.182 54.3859C98.9845 53.7327 97.5692 53.5344 96.2293 53.4002C96.1597 53.3944 96.0872 53.3915 96.0147 53.3827C95.9277 52.5866 95.8958 51.7934 95.8813 51.0498C95.861 50.0379 95.8726 49.026 95.8726 48.0141C95.8726 45.2701 95.8726 42.5289 95.8726 39.7877C97.6011 39.7877 99.3326 39.7877 101.061 39.7877C104.231 39.7877 107.401 39.7877 110.574 39.7877C111.044 39.7877 111.513 39.7877 111.983 39.7877C112.241 39.7877 112.502 39.7877 112.761 39.7877C113.483 39.7877 113.683 38.9741 113.364 38.5192ZM81.7775 70.0309C82.9202 70.1738 84.0629 70.4129 84.991 71.0924C85.4811 71.454 85.9452 71.8973 86.2613 72.4251C86.4034 72.6642 86.4469 72.7604 86.5136 72.9937C86.5948 73.2824 86.5658 73.2154 86.5745 73.4836C86.5774 73.5041 86.5716 73.5478 86.5716 73.574C86.5658 73.5974 86.5629 73.6207 86.5571 73.644C86.5397 73.7111 86.5194 73.7753 86.4962 73.8423C86.4846 73.8569 86.4353 73.9619 86.4179 73.991C86.4092 74.0085 86.3947 74.0231 86.386 74.0406C86.3715 74.0552 86.3193 74.1164 86.3077 74.131C86.2787 74.1544 86.1859 74.2302 86.1772 74.2418C86.1192 74.2797 86.0612 74.3147 86.0003 74.3497C85.9887 74.3556 85.98 74.3614 85.9713 74.3672C85.9423 74.3789 85.9104 74.3906 85.8785 74.3993C85.7828 74.4285 85.6841 74.4547 85.5826 74.4722C85.571 74.4693 85.4144 74.4839 85.3767 74.4839C85.2781 74.4839 85.1795 74.478 85.0838 74.4693C85.078 74.4635 84.9069 74.4343 84.8605 74.4226C84.7184 74.3876 84.5734 74.3439 84.437 74.2885C83.9701 74.1019 83.4655 73.7286 83.0769 73.3466C82.1604 72.4455 81.6412 71.2528 81.3454 69.9843C81.4904 69.9989 81.6325 70.0134 81.7775 70.0309ZM96.7137 55.0187C97.9057 55.1703 99.0832 55.4182 100.037 56.1647C100.496 56.5234 100.928 56.9463 101.221 57.4537C101.351 57.6811 101.383 57.7511 101.45 57.9815C101.473 58.069 101.493 58.1594 101.508 58.2498C101.502 58.2556 101.511 58.4568 101.511 58.5064C101.511 58.521 101.511 58.5326 101.511 58.5414C101.505 58.5735 101.499 58.6026 101.493 58.6318C101.485 58.6697 101.438 58.8009 101.427 58.8447C101.403 58.8797 101.348 58.9846 101.337 59.005C101.331 59.0109 101.322 59.0284 101.311 59.043C101.29 59.0663 101.25 59.11 101.241 59.1188C101.206 59.1508 101.171 59.1858 101.134 59.2179C101.134 59.2208 101.134 59.2208 101.131 59.2208C101.058 59.2675 100.986 59.3112 100.907 59.3521C100.902 59.355 100.902 59.355 100.899 59.3579C100.849 59.3754 100.8 59.3929 100.748 59.4075C100.704 59.4221 100.658 59.4308 100.614 59.4425C100.6 59.4454 100.51 59.46 100.484 59.4658C100.168 59.5008 99.7531 59.4337 99.3819 59.2821C98.8337 59.0575 98.3494 58.6784 97.9347 58.2585C97.0646 57.3691 96.5658 56.2085 96.2786 54.972C96.4236 54.9866 96.5687 55.0012 96.7137 55.0187ZM19.33 32.4478C19.3184 32.4741 19.3126 32.5003 19.2952 32.5266C18.6978 33.591 17.964 34.5883 17.1288 35.4835C17.0824 35.5302 17.036 35.5768 16.9925 35.6235C16.8968 35.7226 16.801 35.8247 16.7024 35.9209C16.6067 36.0172 16.5081 36.1105 16.4095 36.2009C16.3776 36.233 16.3457 36.265 16.3109 36.2971C16.3051 36.303 16.2993 36.3059 16.2935 36.3117C16.2065 36.3934 16.1137 36.475 16.0238 36.5537C15.9832 36.5917 15.9426 36.6266 15.902 36.6616C15.7918 36.7579 15.6787 36.8541 15.5627 36.9474C15.5424 36.9649 15.5191 36.9824 15.4988 36.9999C15.3741 37.102 15.2465 37.2011 15.1189 37.2974C15.1044 37.309 15.0928 37.3178 15.0812 37.3265C14.9478 37.4286 14.8086 37.5277 14.6723 37.6269C14.6665 37.6327 14.6607 37.6356 14.6549 37.6415C14.5128 37.7406 14.3707 37.8368 14.2257 37.9331C14.2228 37.936 14.2199 37.9389 14.2141 37.9418C14.069 38.0381 13.924 38.1314 13.7761 38.2218C13.7732 38.2247 13.7674 38.2247 13.7645 38.2276C13.6166 38.318 13.4687 38.4055 13.3208 38.493C13.315 38.4959 13.3092 38.4988 13.3034 38.5017C13.1555 38.5863 13.0076 38.6679 12.8567 38.7467C12.848 38.7525 12.8422 38.7554 12.8335 38.7613C12.6856 38.8371 12.5377 38.9129 12.3869 38.9887C12.3753 38.9916 12.3637 38.9975 12.355 39.0033C12.2071 39.0762 12.0592 39.1433 11.9113 39.2103C11.8968 39.2191 11.8823 39.2249 11.8649 39.2308C11.7228 39.2978 11.5749 39.3591 11.4298 39.4174C11.4095 39.4261 11.3892 39.4349 11.3689 39.4436C11.2268 39.502 11.0847 39.5574 10.9426 39.6098C10.9165 39.6186 10.8904 39.6303 10.8643 39.639C10.7251 39.6886 10.5859 39.7382 10.4467 39.7848C10.4148 39.7965 10.3858 39.8052 10.3539 39.8169C10.2204 39.8606 10.0841 39.9044 9.94783 39.9452C9.91013 39.954 9.87242 39.9656 9.83762 39.9773C9.70711 40.0152 9.5737 40.0502 9.44319 40.0852C9.39969 40.0968 9.35618 40.1056 9.31268 40.1173C9.18797 40.1493 9.06036 40.1785 8.93275 40.2077C8.88345 40.2193 8.83414 40.2281 8.78774 40.2397C8.66303 40.266 8.54122 40.2893 8.41941 40.3126C8.36431 40.3243 8.30921 40.333 8.2541 40.3418C8.13809 40.3622 8.01918 40.3826 7.90027 40.4001C7.83937 40.4089 7.78136 40.4147 7.72046 40.4235C7.60735 40.438 7.49424 40.4526 7.37823 40.4672C7.31443 40.473 7.24772 40.4789 7.18392 40.4847C7.07371 40.4964 6.9635 40.5051 6.8562 40.5139C6.78369 40.5168 6.71408 40.5226 6.64448 40.5255C6.54007 40.5313 6.43566 40.5372 6.32836 40.5401C6.25585 40.543 6.18044 40.543 6.10504 40.543C6.00353 40.5459 5.90202 40.5459 5.80342 40.5459C5.73381 40.5459 5.66711 40.543 5.6004 40.5401C6.08474 40.925 6.55457 41.3304 7.00411 41.759C9.92753 44.5439 12.0447 48.1891 13.1149 52.088C14.185 55.9898 14.1996 60.2065 12.9177 64.0587C12.6015 65.0123 11.0992 64.6011 11.4182 63.6446C12.094 61.6062 12.3985 59.4804 12.3405 57.3312C12.239 53.546 11.0325 49.8192 9.00236 46.6348C6.9693 43.4446 4.06619 40.855 0.597523 39.3445C0.217595 39.1608 0.118987 38.6184 0.319102 38.2743C0.54822 37.8777 0.997754 37.8252 1.38348 37.9943C1.52849 38.0643 1.6735 38.1285 1.82142 38.1926C1.89102 38.2218 1.96353 38.248 2.03313 38.2772C2.10854 38.3063 2.18104 38.3355 2.25645 38.3617C2.34926 38.3967 2.44496 38.4288 2.54067 38.4609C2.58997 38.4784 2.63928 38.4959 2.68858 38.5105C2.79589 38.5455 2.9032 38.5775 3.01051 38.6067C3.05111 38.6184 3.08881 38.63 3.12941 38.6388C3.24542 38.6709 3.36433 38.7029 3.48324 38.7292C3.53254 38.7408 3.58185 38.7525 3.62825 38.7613C3.73266 38.7846 3.83707 38.8079 3.94438 38.8254C4.02268 38.84 4.10389 38.8546 4.18509 38.8662C4.2547 38.8779 4.32721 38.8896 4.39681 38.9012C4.72163 38.945 5.04646 38.977 5.37128 38.9916C6.77499 39.0558 8.1758 38.8662 9.5186 38.4667C9.5505 38.4551 9.5853 38.4463 9.6201 38.4346C9.66361 38.423 9.70711 38.4084 9.75061 38.3938C11.9983 37.6794 14.0777 36.3759 15.7338 34.6787C15.7425 34.6728 15.7483 34.6641 15.757 34.6583C15.8382 34.5737 15.9194 34.4891 15.9977 34.4046C16.7517 33.591 17.413 32.6957 17.9524 31.7363C17.9843 31.6809 18.0162 31.6313 18.0539 31.5905C18.5905 30.9781 19.681 31.6576 19.33 32.4478ZM73.19 10.2852C72.8478 9.04879 73.1929 7.69862 74.0601 6.76546C74.9359 5.82354 76.2207 5.47361 77.462 5.69232C77.8797 5.76522 78.1088 6.27846 78.0073 6.65464C77.8884 7.08915 77.462 7.27578 77.0473 7.20288C77.0096 7.19413 76.9922 7.19121 76.9864 7.18829C76.9748 7.18829 76.9632 7.18829 76.9371 7.18829C76.8849 7.18538 76.8327 7.17955 76.7805 7.17955C76.6645 7.17663 76.5456 7.18246 76.4295 7.19704C76.4005 7.20288 76.3164 7.21746 76.299 7.22037C76.2497 7.23204 76.2004 7.2437 76.1511 7.25828C76.0902 7.27578 76.0293 7.29328 75.9713 7.31369C75.9626 7.31952 75.9191 7.3341 75.8901 7.34577C75.8582 7.36326 75.7857 7.39826 75.777 7.40117C75.7335 7.4245 75.69 7.45075 75.6465 7.47408C75.5798 7.5149 75.5189 7.55573 75.458 7.59947C75.4522 7.60239 75.4377 7.61113 75.4232 7.6228C75.3304 7.70153 75.2434 7.78319 75.1621 7.87067C75.1186 7.91733 75.0751 7.96399 75.0374 8.01356C75.0345 8.01939 75.0287 8.02814 75.0229 8.03981C74.9591 8.13604 74.8953 8.23227 74.8431 8.33433C74.8228 8.37224 74.8054 8.41015 74.7851 8.44806C74.7793 8.46848 74.7648 8.49472 74.7619 8.50347C74.73 8.60262 74.6952 8.70468 74.672 8.80675C74.6575 8.85924 74.6488 8.91173 74.6372 8.96714C74.6314 8.98463 74.6314 8.99338 74.6285 9.00504C74.6285 9.01088 74.6285 9.01963 74.6256 9.03712C74.6169 9.15377 74.6111 9.27333 74.614 9.39289C74.6169 9.41622 74.6401 9.6116 74.6343 9.60577C74.6662 9.78074 74.7126 9.95279 74.7764 10.119C74.788 10.1453 74.8344 10.2415 74.8344 10.2444C74.8576 10.2881 74.8837 10.3319 74.9098 10.3756C74.9562 10.4544 75.0055 10.5302 75.0606 10.6031C75.0722 10.6206 75.0896 10.641 75.0925 10.6468C75.1273 10.6818 75.1592 10.7197 75.1941 10.7576C75.2666 10.8305 75.3391 10.8976 75.4145 10.9647C75.4348 10.9793 75.4435 10.9909 75.4522 10.9997C75.4638 11.0055 75.4783 11.0113 75.5015 11.0259C75.545 11.0522 75.5856 11.0813 75.6291 11.1076C75.7103 11.1572 75.7944 11.2009 75.8814 11.2417C75.8814 11.2388 76.038 11.3 76.0815 11.3146C76.183 11.3467 76.2874 11.3671 76.3918 11.3904C76.415 11.3963 76.4324 11.4021 76.4469 11.405C76.4585 11.405 76.476 11.405 76.5021 11.405C76.5543 11.4079 76.6065 11.4109 76.6587 11.4138C76.7631 11.4167 76.8646 11.4109 76.969 11.4021C76.9777 11.4021 76.998 11.3992 77.0154 11.3963C77.0589 11.3904 77.0995 11.3817 77.1401 11.3729C77.2387 11.3496 77.3373 11.3234 77.433 11.2913C77.7143 11.1951 78.0276 10.9909 78.277 10.7226C78.3263 10.6702 78.3727 10.6147 78.4162 10.5593C78.4249 10.5477 78.4278 10.5418 78.4394 10.5214C78.4916 10.4339 78.5496 10.3494 78.596 10.259C78.6221 10.2123 78.6424 10.1657 78.6656 10.119C78.6511 10.1511 78.625 10.2386 78.6772 10.0898C78.7091 9.98778 78.7439 9.88863 78.7671 9.78365C78.8918 9.28791 78.8106 8.82716 78.6192 8.35766C78.4568 7.96399 78.7932 7.4974 79.1616 7.39534C79.6024 7.27286 79.9591 7.54989 80.1186 7.94066C80.7016 9.36081 80.2781 11.1017 79.1064 12.0874C78.1407 12.8981 76.7979 13.2101 75.5914 12.7989C74.4342 12.4082 73.5206 11.4721 73.19 10.2852Z" fill="white"/>
</g>
<mask id="mask2_34_1674" style="mask-type:luminance" maskUnits="userSpaceOnUse" x="0" y="0" width="114" height="76">
<path d="M0 0H113.877V75.7495H0V0Z" fill="white"/>
</mask>
<g mask="url(#mask2_34_1674)">
<path d="M113.512 1.09356C113.277 1.96257 113.039 2.83157 112.804 3.70058C111.78 7.47406 110.754 11.2475 109.73 15.0181C109.086 17.3831 108.445 19.751 107.801 22.116C107.647 22.6788 106.911 22.8829 106.502 22.4601C106.168 22.1189 105.835 21.7777 105.504 21.4365C103.323 19.1998 101.145 16.9602 98.9671 14.7236C98.7322 14.9364 98.4915 15.1435 98.2624 15.3564C97.3952 16.1612 96.5281 16.9661 95.6609 17.7709C93.042 20.2001 90.426 22.6263 87.81 25.0554C84.7822 27.8636 81.7573 30.6719 78.7323 33.4801C76.2294 35.8014 73.7294 38.1226 71.2295 40.4409C70.1883 41.4091 69.1471 42.3743 68.1059 43.3396C67.3693 44.0249 66.2672 42.9196 67.0038 42.2343C67.0212 42.2169 67.0415 42.1994 67.0589 42.1819C68.2799 40.9542 69.6082 39.8169 70.8785 38.6388C73.4945 36.2096 76.1134 33.7805 78.7294 31.3543C81.7544 28.546 84.7822 25.7378 87.8071 22.9296C90.3071 20.6083 92.81 18.2871 95.31 15.9658C96.3511 15.0006 97.3923 14.0354 98.4335 13.0672C98.7409 12.7843 99.2311 12.7581 99.5356 13.0672C99.8662 13.4084 100.2 13.7496 100.533 14.0937C102.575 16.1904 104.617 18.2871 106.659 20.3838C106.775 19.9522 106.891 19.5235 107.009 19.0919C108.033 15.3184 109.057 11.5479 110.084 7.77442C110.614 5.81769 111.145 3.86388 111.676 1.90716C111.212 2.00339 110.751 2.09962 110.287 2.19294C106.386 3.00071 102.485 3.80556 98.5814 4.61041C96.1133 5.12074 93.6423 5.63106 91.1743 6.14138C90.7595 6.22595 90.3332 6.02474 90.2143 5.59315C90.1099 5.2053 90.3477 4.71539 90.7595 4.63083C91.6528 4.44711 92.5461 4.26339 93.4393 4.07676C97.3401 3.27191 101.244 2.46706 105.145 1.6622C107.616 1.15188 110.084 0.641558 112.555 0.131235C113.123 0.0145896 113.677 0.489919 113.512 1.09356ZM6.31967 70.0572C5.95134 70.1592 5.61492 70.6258 5.77443 71.0195C5.96584 71.489 6.04705 71.9497 5.92524 72.4455C5.89914 72.5505 5.86724 72.6496 5.83243 72.7517C5.78313 72.9004 5.80633 72.8129 5.82083 72.7808C5.80053 72.8275 5.77733 72.8741 5.75413 72.9208C5.70482 73.0112 5.64972 73.0958 5.59462 73.1833C5.58592 73.2037 5.58011 73.2095 5.57431 73.2212C5.53081 73.2766 5.48151 73.332 5.4351 73.3815C5.18569 73.6527 4.86956 73.8569 4.58824 73.9502C4.49253 73.9852 4.39683 74.0114 4.29822 74.0348C4.25471 74.0435 4.21411 74.0493 4.17351 74.0581C4.15611 74.061 4.13291 74.0639 4.12711 74.0639C4.0227 74.0727 3.91829 74.0756 3.81388 74.0756C3.76168 74.0727 3.70947 74.0698 3.65727 74.0668C3.63117 74.0668 3.61377 74.0639 3.60217 74.0639C3.59056 74.061 3.57316 74.0581 3.54706 74.0523C3.44265 74.0289 3.33825 74.0056 3.23674 73.9764C3.19613 73.9619 3.03662 73.9006 3.03662 73.9035C2.95252 73.8627 2.86551 73.819 2.7843 73.7694C2.7408 73.7431 2.7002 73.714 2.65669 73.6877C2.63639 73.6732 2.62189 73.6644 2.61029 73.6586C2.60159 73.6498 2.58999 73.6411 2.57259 73.6265C2.49718 73.5594 2.42178 73.4924 2.35217 73.4195C2.31737 73.3815 2.28547 73.3436 2.25066 73.3057C2.24486 73.2999 2.22746 73.2824 2.21586 73.2649C2.16076 73.192 2.11145 73.1162 2.06505 73.0374C2.03895 72.9937 2.01575 72.95 1.99254 72.9062C1.98964 72.9004 1.94614 72.8042 1.93164 72.7808C1.86784 72.6146 1.82143 72.4426 1.78953 72.2676C1.79533 72.2734 1.77213 72.078 1.77213 72.0518C1.76923 71.9352 1.77213 71.8156 1.78373 71.6989C1.78373 71.6814 1.78373 71.6727 1.78373 71.6669C1.78663 71.6552 1.78953 71.6435 1.79243 71.626C1.80403 71.5735 1.81563 71.5211 1.82723 71.4686C1.85333 71.3665 1.88524 71.2644 1.92004 71.1653C1.92294 71.1565 1.93454 71.1274 1.94324 71.1099C1.96064 71.072 1.97804 71.0312 1.99835 70.9962C2.05345 70.8912 2.11435 70.7949 2.17816 70.6987C2.18686 70.687 2.18976 70.6812 2.19266 70.6754C2.23326 70.6258 2.27387 70.5791 2.31737 70.5325C2.39857 70.445 2.48848 70.3604 2.58129 70.2846C2.59289 70.2729 2.60739 70.2642 2.61319 70.2584C2.677 70.2175 2.7379 70.1738 2.80171 70.1359C2.84521 70.1096 2.88871 70.0863 2.93512 70.063C2.94382 70.0572 3.01342 70.0251 3.04822 70.0076C3.07723 69.9959 3.11783 69.9784 3.12653 69.9755C3.18743 69.9551 3.24834 69.9347 3.30924 69.9172C3.35565 69.9055 3.40495 69.8909 3.45425 69.8822C3.47456 69.8764 3.55866 69.8618 3.58766 69.8559C3.70367 69.8443 3.81968 69.8384 3.93859 69.8414C3.9908 69.8414 4.043 69.8472 4.0952 69.8472C4.1184 69.8501 4.13291 69.8501 4.14161 69.8501C4.15031 69.853 4.16771 69.8559 4.20541 69.8618C4.61724 69.9347 5.04357 69.751 5.16248 69.3165C5.26689 68.9374 5.03487 68.427 4.62014 68.3541C3.37595 68.1354 2.09405 68.4824 1.21529 69.4244C0.348121 70.3575 0.00299476 71.7106 0.348121 72.9441C0.678745 74.1339 1.59231 75.0671 2.7466 75.4608C3.95599 75.869 5.29589 75.5599 6.26167 74.7492C7.43625 73.7636 7.85679 72.0226 7.27674 70.6025C7.11723 70.2117 6.7605 69.9347 6.31967 70.0572Z" fill="#F8AC7A"/>
</g>
</svg>
