<svg width="154" height="41" viewBox="0 0 154 41" fill="none" xmlns="http://www.w3.org/2000/svg">
<g clip-path="url(#clip0_20_473)">
<path fill-rule="evenodd" clip-rule="evenodd" d="M148.477 8.23259C149.003 5.52618 147.912 4.17297 145.208 4.17297H60.8538C58.1476 4.17297 56.5324 5.52618 56.0058 8.23259L52.3786 27.4868C51.852 30.1932 52.943 31.5465 55.6917 31.5465H140.046C142.708 31.5465 144.323 30.1932 144.849 27.4868L148.477 8.23259ZM142.025 13.1566L142.601 9.84794H137.513L136.936 13.1566H134.835L133.98 17.9884H136.037L134.606 26.1265H139.647L141.123 17.9884H143.239L144.094 13.1566H142.023H142.025ZM65.664 21.2947L65.9851 19.3936H71.44L72.2618 14.9207H66.8069L67.1848 13.1731H72.9561L73.8109 8.37901H62.5682L59.2338 26.1029H71.0197L71.9336 21.2947H65.6664H65.664ZM81.2021 13.1731H74.6634L78.5574 19.7714L72.3326 26.1289H79.3224L81.3887 23.5028L82.9283 26.1289H89.4222L85.3205 19.7714L91.2571 13.1731H84.5388L82.5363 15.981L81.2045 13.1731H81.2021ZM98.4311 15.0081L98.8042 13.166H93.524L90.6029 29.3076H95.9492L96.8253 23.9326C97.8147 25.4228 98.9883 26.0061 100.386 26.0061C103.851 26.0061 106.708 22.4259 106.717 18.2269C106.731 12.7244 101.154 11.8175 98.4311 15.0104V15.0081ZM100.646 17.4972C101.591 17.8609 102.049 18.985 101.666 20.01C101.284 21.0349 100.209 21.5734 99.2623 21.2097C98.3177 20.846 97.8596 19.7218 98.2421 18.6969C98.6247 17.672 99.6991 17.1335 100.646 17.4972ZM115.181 13.1117C111.66 13.1117 107.893 15.5394 107.881 20.3973C107.872 24.3719 111.173 26.0533 113.962 26.0533C117.011 26.0533 119.318 25.2504 120.739 21.9914L116.179 21.4198C115.766 22.962 112.321 23.3658 113.041 19.9958L121.179 19.984C121.549 15.2159 118.664 13.2345 115.181 13.114V13.1117ZM116.236 17.8987H113.277C113.473 16.9446 113.924 16.0165 115.037 16.0165C116.028 16.0165 116.354 16.9517 116.236 17.8987ZM128.426 15.4332L128.896 13.1684L123.859 13.2132L121.535 26.1289H127.158L128.083 20.7704C128.412 18.7654 129.621 17.8538 132.563 17.9813L133.418 13.1636C130.506 13.1589 129.703 13.5226 128.423 15.4332H128.426Z" fill="white"/>
<path fill-rule="evenodd" clip-rule="evenodd" d="M8.60268 2.09238C5.8965 2.09238 4.28128 3.44558 3.75469 6.15199L0.127547 25.4062C-0.39905 28.1127 0.691926 29.4659 3.44062 29.4659H50.2983C52.9596 29.4659 54.5748 28.1127 55.1014 25.4062L58.7285 6.15199C59.2551 3.44558 58.1642 2.09238 55.4603 2.09238H8.60268ZM15.1249 13.1235C14.5015 12.8306 13.1461 12.3016 13.1531 11.4278C13.1579 10.9177 13.4767 10.6391 14.0623 10.6391C15.0092 10.6391 16.0152 11.0972 17.4415 12.4693L19.7675 8.04129C18.1145 6.51096 16.1356 5.72218 13.7931 5.72218C11.7646 5.72218 10.0904 6.37162 8.81521 7.57605C7.58727 8.78047 6.94024 10.358 6.92371 12.2591C6.90246 14.6231 8.23902 16.3849 10.931 17.6365C12.0527 18.1939 12.5533 18.4466 12.6313 18.9354C12.5958 21.0798 8.30751 18.5363 7.13388 17.0201L4.21989 21.6702C6.49866 23.8948 8.92384 25.0095 11.5828 25.0095C15.4602 25.0095 18.6859 22.381 18.7261 18.2387C18.7473 16.0141 17.458 14.3255 15.1249 13.1188V13.1235ZM52.2771 12.2898L52.8982 8.74268H47.8093L47.1883 12.2898H45.0866L44.2767 16.8832H46.3335L44.9024 25.0213H49.9441L51.4199 16.8832H53.5358L54.3457 12.2898H52.2748H52.2771ZM44.5695 6.17561C39.5208 5.01842 36.8382 7.36114 35.9881 12.3064H34.2076L33.3527 16.8926H35.1805L33.7494 25.0213H39.1595L40.5905 16.8926H42.6638L43.4738 12.3064H41.4453C41.4642 11.1444 42.0191 10.3722 43.8138 10.5847L44.5695 6.17561ZM31.1094 13.4754C30.0373 12.4268 28.5992 11.9025 26.7974 11.9025C24.769 11.9025 23.0475 12.6464 21.5905 14.1319C20.313 15.53 19.6659 17.2351 19.6447 19.2897C19.6282 20.9499 20.1571 22.3054 21.2268 23.354C22.3438 24.4474 23.7347 24.9717 25.4491 24.9717C27.7491 24.9717 29.65 24.0979 31.0669 22.2606C32.1626 20.9499 32.6726 19.4195 32.6892 17.757C32.7057 16.0094 32.1791 14.5664 31.1094 13.473V13.4754ZM27.5365 17.0603C27.239 16.7698 26.8423 16.6234 26.3417 16.6234C25.7797 16.6234 25.3026 16.8289 24.8988 17.2421C24.5446 17.6294 24.3652 18.1018 24.3604 18.6709C24.3557 19.1314 24.5021 19.5069 24.7997 19.7974C25.109 20.0997 25.4939 20.2461 25.9686 20.2461C26.6061 20.2461 27.1327 20.0029 27.5247 19.4951C27.8294 19.1314 27.9687 18.7087 27.9734 18.2482C27.9781 17.7641 27.8317 17.3649 27.5365 17.0603Z" fill="white"/>
<path d="M2.47265 38.0645C1.78075 37.8567 1.29194 37.6016 1.0062 37.2993C0.720473 36.997 0.609486 36.6239 0.673244 36.1776C0.746448 35.6745 1.0062 35.2589 1.45487 34.9283C1.90354 34.6 2.45139 34.4347 3.0937 34.4347C3.53292 34.4347 3.91075 34.5197 4.22954 34.6897C4.54833 34.8598 4.78211 35.0936 4.92616 35.3911C5.07257 35.6887 5.1198 36.0146 5.06785 36.3689H4.2201C4.27677 35.9816 4.19648 35.6769 3.98396 35.4549C3.76907 35.2329 3.43847 35.1219 2.99216 35.1219C2.57655 35.1219 2.23887 35.214 1.98147 35.3959C1.72171 35.5777 1.57058 35.8328 1.52336 36.1587C1.48557 36.4184 1.5635 36.6404 1.7595 36.8199C1.9555 36.9994 2.30735 37.1647 2.81505 37.3135C3.32512 37.4623 3.71475 37.6276 3.98868 37.8071C4.2626 37.9866 4.45388 38.1967 4.56486 38.4376C4.67585 38.6762 4.70655 38.9595 4.65932 39.2831C4.58612 39.8003 4.324 40.2159 3.87533 40.5277C3.42666 40.8394 2.86464 40.9953 2.18928 40.9953C1.75005 40.9953 1.35333 40.9102 0.996759 40.7426C0.640184 40.5749 0.380428 40.3435 0.21749 40.053C0.0521909 39.7601 -0.00212181 39.4295 0.0521908 39.0564H0.897579C0.840905 39.4413 0.940085 39.7483 1.19276 39.9703C1.44543 40.1947 1.81145 40.3057 2.28609 40.3057C2.73004 40.3057 3.08425 40.2159 3.34637 40.0341C3.60849 39.8522 3.76198 39.6066 3.80921 39.2925C3.85644 38.9784 3.77851 38.7376 3.58487 38.5675C3.39124 38.3975 3.01577 38.2274 2.46556 38.0598L2.47265 38.0645Z" fill="white"/>
<path d="M5.40769 38.4943C5.47381 38.0291 5.62494 37.6111 5.86344 37.2403C6.09958 36.8695 6.39476 36.5814 6.75134 36.3807C7.10555 36.1799 7.49282 36.0784 7.91079 36.0784C8.55782 36.0784 9.04664 36.3028 9.38196 36.7491C9.71728 37.1954 9.83063 37.7929 9.72436 38.5345L9.71728 38.5912C9.65116 39.054 9.50239 39.4673 9.27333 39.8357C9.04427 40.2018 8.7491 40.4899 8.39016 40.693C8.03122 40.8985 7.63923 41 7.21181 41C6.56951 41 6.07833 40.7757 5.74537 40.3293C5.41241 39.883 5.2967 39.2902 5.40296 38.5534L5.41005 38.4967L5.40769 38.4943ZM6.21057 38.5912C6.135 39.1178 6.1964 39.5405 6.39476 39.8593C6.59312 40.1782 6.89774 40.3364 7.30627 40.3364C7.71479 40.3364 8.06901 40.1758 8.35946 39.8523C8.64992 39.5287 8.83411 39.0776 8.91912 38.4943C8.99468 37.9748 8.93093 37.552 8.73021 37.2285C8.52948 36.905 8.22486 36.7444 7.81634 36.7444C7.40781 36.7444 7.07013 36.9026 6.77731 37.2214C6.48686 37.5402 6.29794 37.996 6.21293 38.5912H6.21057Z" fill="white"/>
<path d="M10.6902 40.9126L11.2829 36.794H10.532L10.6217 36.1658H11.3726L11.4435 35.6793C11.5167 35.1715 11.7103 34.7771 12.022 34.4985C12.3337 34.2198 12.7375 34.0828 13.2358 34.0828C13.4224 34.0828 13.6042 34.1064 13.7813 34.156L13.6443 34.8102C13.5097 34.7842 13.3657 34.7701 13.2122 34.7701C12.9501 34.7701 12.7352 34.848 12.5699 35.0015C12.4046 35.155 12.3007 35.377 12.2605 35.6627L12.1873 36.1634H13.2004L13.1107 36.7916H12.0976L11.5049 40.9103H10.6926L10.6902 40.9126Z" fill="white"/>
<path d="M15.2501 35.0157L15.0848 36.1658H15.9703L15.8806 36.794H14.995L14.5724 39.7412C14.544 39.9325 14.5653 40.0742 14.629 40.1687C14.6951 40.2632 14.8227 40.3104 15.0116 40.3104C15.106 40.3104 15.2359 40.2915 15.4059 40.2584L15.3115 40.9126C15.0895 40.9716 14.877 41 14.6763 41C14.3126 41 14.0552 40.8914 13.9041 40.6717C13.7506 40.4521 13.7034 40.1404 13.7624 39.7365L14.1851 36.794H13.3208L13.4105 36.1658H14.2748L14.4401 35.0157H15.2524H15.2501Z" fill="white"/>
<path d="M20.4924 39.7932L21.9258 36.1658H22.7381L20.6742 40.9126H20.0154L19.3778 37.3159L17.739 40.9126H17.0801L16.3859 36.1658H17.1935L17.6162 39.72L19.2314 36.1658H19.8855L20.4924 39.7932Z" fill="white"/>
<path d="M25.7017 40.9126C25.6687 40.8182 25.6545 40.6529 25.6592 40.412C25.2247 40.804 24.7477 41 24.2235 41C23.7559 41 23.3899 40.8678 23.1302 40.6033C22.8704 40.3388 22.7665 40.0034 22.8255 39.5972C22.8964 39.1036 23.1396 38.7187 23.5552 38.4447C23.9708 38.1708 24.5187 38.0338 25.1988 38.0338H25.9875L26.0418 37.6607C26.0819 37.3773 26.03 37.1506 25.8859 36.9829C25.7395 36.8152 25.5034 36.7302 25.1728 36.7302C24.8823 36.7302 24.6297 36.8034 24.4124 36.9499C24.1952 37.0963 24.0724 37.2734 24.0417 37.4812H23.2246C23.2577 37.2451 23.3757 37.016 23.5765 36.794C23.7772 36.572 24.0299 36.3996 24.3368 36.2697C24.6438 36.1422 24.9697 36.076 25.3145 36.076C25.8623 36.076 26.2708 36.213 26.54 36.487C26.8116 36.7609 26.9179 37.1364 26.8612 37.6158L26.5471 39.8003C26.4834 40.2372 26.4905 40.582 26.5637 40.8394L26.5542 40.9103H25.7041L25.7017 40.9126ZM24.4455 40.2939C24.7005 40.2939 24.9508 40.2278 25.1964 40.0979C25.4443 39.9656 25.6333 39.7956 25.7655 39.5854L25.9048 38.6124H25.2696C24.2754 38.6124 23.737 38.9029 23.652 39.4862C23.6166 39.7413 23.6709 39.9397 23.8197 40.0837C23.9685 40.2278 24.1763 40.2986 24.4431 40.2986L24.4455 40.2939Z" fill="white"/>
<path d="M30.4221 36.8932C30.3017 36.8719 30.1718 36.8625 30.0278 36.8625C29.4965 36.8625 29.1021 37.0892 28.8471 37.5426L28.363 40.9126H27.5507L28.2331 36.1658H29.0218L28.9557 36.7137C29.2839 36.2909 29.6901 36.0784 30.1789 36.0784C30.3371 36.0784 30.4528 36.0997 30.5284 36.1398L30.4198 36.8932H30.4221Z" fill="white"/>
<path d="M32.335 41C31.6926 41 31.1991 40.7898 30.8567 40.3671C30.5143 39.9444 30.3939 39.3799 30.4954 38.6715L30.5167 38.5227C30.5851 38.0527 30.7339 37.6323 30.9677 37.2616C31.2015 36.8908 31.4943 36.6027 31.8461 36.3925C32.2004 36.1847 32.564 36.0784 32.9418 36.0784C33.5582 36.0784 34.0092 36.2815 34.2926 36.6877C34.5759 37.0939 34.6633 37.6772 34.5547 38.4329L34.5051 38.7706H31.2888C31.2345 39.2382 31.3148 39.6161 31.5368 39.9042C31.7564 40.1923 32.0681 40.3364 32.4719 40.3364C32.7576 40.3364 33.0103 40.2773 33.2252 40.1616C33.4401 40.0435 33.6361 39.89 33.8132 39.6964L34.2524 40.0813C33.766 40.693 33.126 40.9976 32.3302 40.9976L32.335 41ZM32.845 36.7444C32.5168 36.7444 32.2263 36.8625 31.9689 37.101C31.7115 37.3395 31.5274 37.6725 31.4116 38.1023H33.7896L33.799 38.0409C33.8345 37.6276 33.7707 37.3088 33.603 37.0821C33.4377 36.8554 33.1851 36.742 32.845 36.742V36.7444Z" fill="white"/>
<path d="M37.5394 40.9126L38.1322 36.794H37.3812L37.471 36.1658H38.2219L38.2927 35.6793C38.3659 35.1715 38.5596 34.7771 38.8713 34.4985C39.183 34.2198 39.5868 34.0828 40.0851 34.0828C40.2716 34.0828 40.4534 34.1064 40.6305 34.156L40.4936 34.8102C40.359 34.7842 40.2149 34.7701 40.0614 34.7701C39.7993 34.7701 39.5844 34.848 39.4191 35.0015C39.2538 35.155 39.1499 35.377 39.1098 35.6627L39.0366 36.1634H40.0496L39.9599 36.7916H38.9468L38.3541 40.9103H37.5418L37.5394 40.9126Z" fill="white"/>
<path d="M40.2788 38.4943C40.3449 38.0291 40.496 37.6111 40.7345 37.2403C40.9707 36.8695 41.2659 36.5814 41.6224 36.3807C41.9766 36.1799 42.3639 36.0784 42.7819 36.0784C43.4289 36.0784 43.9177 36.3028 44.253 36.7491C44.5884 37.1954 44.7017 37.7929 44.5955 38.5345L44.5884 38.5912C44.5223 39.054 44.3735 39.4673 44.1444 39.8357C43.9154 40.2018 43.6202 40.4899 43.2613 40.693C42.9023 40.8985 42.5103 41 42.0829 41C41.4406 41 40.9494 40.7757 40.6165 40.3293C40.2835 39.883 40.1678 39.2902 40.2741 38.5534L40.2811 38.4967L40.2788 38.4943ZM41.0817 38.5912C41.0061 39.1178 41.0675 39.5405 41.2659 39.8593C41.4642 40.1782 41.7688 40.3364 42.1774 40.3364C42.5859 40.3364 42.9401 40.1758 43.2306 39.8523C43.521 39.5287 43.7052 39.0776 43.7902 38.4943C43.8658 37.9748 43.802 37.552 43.6013 37.2285C43.4006 36.905 43.096 36.7444 42.6874 36.7444C42.2789 36.7444 41.9412 36.9026 41.6484 37.2214C41.3579 37.5402 41.169 37.996 41.084 38.5912H41.0817Z" fill="white"/>
<path d="M48.0336 36.8932C47.9132 36.8719 47.7833 36.8625 47.6392 36.8625C47.1079 36.8625 46.7136 37.0892 46.4585 37.5426L45.9744 40.9126H45.1621L45.8446 36.1658H46.6333L46.5672 36.7137C46.8954 36.2909 47.3016 36.0784 47.7904 36.0784C47.9486 36.0784 48.0643 36.0997 48.1399 36.1398L48.0312 36.8932H48.0336Z" fill="white"/>
<path d="M51.5285 38.4117L51.1696 40.9126H50.3265L51.2451 34.5244H53.5995C54.2984 34.5244 54.8203 34.7016 55.1651 35.0605C55.5099 35.4171 55.6397 35.8895 55.5547 36.4775C55.465 37.0986 55.2029 37.5757 54.7684 37.911C54.3315 38.2463 53.753 38.414 53.0304 38.414H51.5261L51.5285 38.4117ZM51.6277 37.7221H53.1414C53.5924 37.7221 53.9513 37.6158 54.2229 37.4033C54.4944 37.1907 54.6574 36.8837 54.7141 36.4822C54.7684 36.102 54.6928 35.7974 54.485 35.5683C54.2772 35.3392 53.9655 35.2211 53.5499 35.2117H51.989L51.6277 37.7197V37.7221Z" fill="white"/>
<path d="M57.654 41C57.0117 41 56.5182 40.7898 56.1758 40.3671C55.8334 39.9444 55.713 39.3799 55.8145 38.6715L55.8358 38.5227C55.9042 38.0527 56.053 37.6323 56.2868 37.2616C56.5206 36.8908 56.8134 36.6027 57.1652 36.3925C57.5194 36.1847 57.8831 36.0784 58.2609 36.0784C58.8773 36.0784 59.3283 36.2815 59.6117 36.6877C59.895 37.0939 59.9824 37.6772 59.8738 38.4329L59.8242 38.7706H56.6079C56.5536 39.2382 56.6339 39.6161 56.8559 39.9042C57.0755 40.1923 57.3872 40.3364 57.791 40.3364C58.0767 40.3364 58.3294 40.2773 58.5443 40.1616C58.7592 40.0435 58.9552 39.89 59.1323 39.6964L59.5715 40.0813C59.0851 40.693 58.4451 40.9976 57.6493 40.9976L57.654 41ZM58.1641 36.7444C57.8359 36.7444 57.5454 36.8625 57.288 37.101C57.0306 37.3395 56.8464 37.6725 56.7307 38.1023H59.1087L59.1181 38.0409C59.1535 37.6276 59.0898 37.3088 58.9221 37.0821C58.7568 36.8554 58.5042 36.742 58.1641 36.742V36.7444Z" fill="white"/>
<path d="M63.2199 36.8932C63.0994 36.8719 62.9696 36.8625 62.8255 36.8625C62.2942 36.8625 61.8998 37.0892 61.6448 37.5426L61.1607 40.9126H60.3484L61.0308 36.1658H61.8196L61.7534 36.7137C62.0817 36.2909 62.4878 36.0784 62.9766 36.0784C63.1349 36.0784 63.2506 36.0997 63.3261 36.1398L63.2175 36.8932H63.2199Z" fill="white"/>
<path d="M63.6875 40.9126L64.2802 36.794H63.5293L63.619 36.1658H64.37L64.4408 35.6793C64.514 35.1715 64.7076 34.7771 65.0194 34.4985C65.3311 34.2198 65.7349 34.0828 66.2331 34.0828C66.4197 34.0828 66.6015 34.1064 66.7786 34.156L66.6416 34.8102C66.507 34.7842 66.363 34.7701 66.2095 34.7701C65.9474 34.7701 65.7325 34.848 65.5672 35.0015C65.4019 35.155 65.298 35.377 65.2579 35.6627L65.1847 36.1634H66.1977L66.108 36.7916H65.0949L64.5022 40.9103H63.6899L63.6875 40.9126Z" fill="white"/>
<path d="M66.4409 38.4943C66.507 38.0291 66.6581 37.6111 66.8966 37.2403C67.1328 36.8695 67.428 36.5814 67.7845 36.3807C68.1387 36.1799 68.526 36.0784 68.944 36.0784C69.591 36.0784 70.0798 36.3028 70.4152 36.7491C70.7505 37.1954 70.8638 37.7929 70.7576 38.5345L70.7505 38.5912C70.6844 39.054 70.5356 39.4673 70.3065 39.8357C70.0775 40.2018 69.7823 40.4899 69.4234 40.693C69.0644 40.8985 68.6724 41 68.245 41C67.6027 41 67.1115 40.7757 66.7786 40.3293C66.4456 39.883 66.3299 39.2902 66.4362 38.5534L66.4433 38.4967L66.4409 38.4943ZM67.2438 38.5912C67.1682 39.1178 67.2296 39.5405 67.428 39.8593C67.6263 40.1782 67.9309 40.3364 68.3395 40.3364C68.748 40.3364 69.1022 40.1758 69.3927 39.8523C69.6831 39.5287 69.8673 39.0776 69.9523 38.4943C70.0279 37.9748 69.9641 37.552 69.7634 37.2285C69.5627 36.905 69.2581 36.7444 68.8495 36.7444C68.441 36.7444 68.1033 36.9026 67.8105 37.2214C67.5201 37.5402 67.3311 37.996 67.2461 38.5912H67.2438Z" fill="white"/>
<path d="M74.2052 36.8932C74.0848 36.8719 73.9549 36.8625 73.8109 36.8625C73.2796 36.8625 72.8852 37.0892 72.6302 37.5426L72.1461 40.9126H71.3337L72.0162 36.1658H72.8049L72.7388 36.7137C73.067 36.2909 73.4732 36.0784 73.962 36.0784C74.1202 36.0784 74.2359 36.0997 74.3115 36.1398L74.2029 36.8932H74.2052Z" fill="white"/>
<path d="M75.7189 36.1658L75.6646 36.6924C76.0707 36.2839 76.569 36.0784 77.1617 36.0784C77.8253 36.0784 78.2409 36.3335 78.4062 36.8412C78.5974 36.6121 78.8289 36.4279 79.1028 36.2886C79.3767 36.1492 79.6861 36.0784 80.0308 36.0784C81.0722 36.0784 81.5209 36.6287 81.3816 37.7315L80.9234 40.9126H80.1111L80.5621 37.7811C80.6117 37.441 80.5692 37.1884 80.4394 37.0207C80.3095 36.853 80.0592 36.768 79.6955 36.768C79.3932 36.768 79.1311 36.8577 78.9068 37.0372C78.6825 37.2167 78.5313 37.4599 78.4558 37.7622L78.0024 40.9126H77.1853L77.6316 37.8024C77.7308 37.1128 77.4427 36.768 76.7673 36.768C76.236 36.768 75.8393 36.9947 75.5772 37.4481L75.0789 40.915H74.2666L74.9491 36.1681H75.7165L75.7189 36.1658Z" fill="white"/>
<path d="M84.9804 40.9126C84.9474 40.8182 84.9332 40.6529 84.9379 40.412C84.5034 40.804 84.0264 41 83.5022 41C83.0346 41 82.6686 40.8678 82.4088 40.6033C82.1491 40.3388 82.0452 40.0034 82.1042 39.5972C82.1751 39.1036 82.4183 38.7187 82.8339 38.4447C83.2495 38.1708 83.7974 38.0338 84.4774 38.0338H85.2662L85.3205 37.6607C85.3606 37.3773 85.3087 37.1506 85.1646 36.9829C85.0182 36.8152 84.7821 36.7302 84.4515 36.7302C84.161 36.7302 83.9083 36.8034 83.6911 36.9499C83.4738 37.0963 83.351 37.2734 83.3203 37.4812H82.5033C82.5364 37.2451 82.6544 37.016 82.8551 36.794C83.0559 36.572 83.3085 36.3996 83.6155 36.2697C83.9225 36.1398 84.2484 36.076 84.5932 36.076C85.141 36.076 85.5495 36.213 85.8187 36.487C86.0903 36.7609 86.1966 37.1364 86.1399 37.6158L85.8258 39.8003C85.7621 40.2372 85.7691 40.582 85.8423 40.8394L85.8329 40.9103H84.9828L84.9804 40.9126ZM83.7218 40.2939C83.9768 40.2939 84.2271 40.2278 84.4727 40.0979C84.7207 39.9656 84.9096 39.7956 85.0418 39.5854L85.1811 38.6124H84.5459C83.5518 38.6124 83.0134 38.9029 82.9284 39.4862C82.8929 39.7413 82.9472 39.9397 83.096 40.0837C83.2448 40.2278 83.4526 40.2986 83.7194 40.2986L83.7218 40.2939Z" fill="white"/>
<path d="M88.2864 36.1658L88.2273 36.7633C88.6548 36.3075 89.1625 36.0784 89.7481 36.0784C90.7517 36.0784 91.1744 36.6452 91.0209 37.7764L90.5699 40.9126H89.7575L90.2086 37.7717C90.2558 37.4292 90.2133 37.1765 90.0834 37.0136C89.9535 36.8506 89.7268 36.768 89.401 36.768C89.1365 36.768 88.898 36.8388 88.6784 36.9782C88.4588 37.1175 88.2769 37.3041 88.1329 37.5308L87.6464 40.9126H86.8341L87.5166 36.1658H88.284H88.2864Z" fill="white"/>
<path d="M93.6799 40.3364C93.9704 40.3364 94.2348 40.249 94.4757 40.0743C94.7166 39.8995 94.8677 39.6799 94.9291 39.4154H95.6966C95.6422 39.687 95.5124 39.9467 95.3046 40.1923C95.0968 40.438 94.8394 40.634 94.53 40.7804C94.2207 40.9268 93.9066 41 93.5831 41C92.9361 41 92.4543 40.7851 92.1332 40.3529C91.8144 39.9208 91.7081 39.3304 91.8144 38.5817L91.8333 38.4447C91.8994 37.9819 92.0434 37.571 92.2654 37.212C92.4874 36.853 92.7708 36.572 93.1155 36.3736C93.4603 36.1752 93.8499 36.076 94.2844 36.076C94.8157 36.076 95.2361 36.2343 95.5431 36.5531C95.8501 36.8719 95.9776 37.2852 95.928 37.7953H95.1605C95.1818 37.4883 95.1015 37.2356 94.9197 37.0372C94.7378 36.8389 94.4946 36.742 94.1876 36.742C93.7744 36.742 93.4343 36.8908 93.1651 37.186C92.8959 37.4836 92.7212 37.911 92.6409 38.4731L92.6196 38.6266C92.5417 39.1745 92.5937 39.5949 92.7755 39.8901C92.9573 40.1853 93.2596 40.334 93.6775 40.334L93.6799 40.3364Z" fill="white"/>
<path d="M98.2563 41C97.614 41 97.1205 40.7898 96.7781 40.3671C96.4357 39.9444 96.3153 39.3799 96.4168 38.6715L96.4381 38.5227C96.5065 38.0527 96.6553 37.6323 96.8891 37.2616C97.1229 36.8908 97.4157 36.6027 97.7675 36.3925C98.1217 36.1847 98.4854 36.0784 98.8632 36.0784C99.4796 36.0784 99.9306 36.2815 100.214 36.6877C100.497 37.0939 100.585 37.6772 100.476 38.4329L100.426 38.7706H97.2102C97.1536 39.2382 97.2362 39.6161 97.4582 39.9042C97.6778 40.1923 97.9895 40.3364 98.3933 40.3364C98.679 40.3364 98.9317 40.2773 99.1466 40.1616C99.3615 40.0435 99.5575 39.89 99.7346 39.6964L100.174 40.0813C99.6874 40.693 99.0474 40.9976 98.2516 40.9976L98.2563 41ZM98.7664 36.7444C98.4382 36.7444 98.1477 36.8625 97.8903 37.101C97.6329 37.3395 97.4487 37.6725 97.333 38.1023H99.711L99.7204 38.0409C99.7558 37.6276 99.6921 37.3088 99.5244 37.0821C99.3591 36.8554 99.1065 36.742 98.7664 36.742V36.7444Z" fill="white"/>
<path d="M107.19 37.9606H104.422L104.096 40.223H107.312L107.213 40.9126H103.156L104.075 34.5244H108.089L107.99 35.214H104.819L104.524 37.271H107.291L107.192 37.9606H107.19Z" fill="white"/>
<path d="M110.052 37.8992L111.353 36.1658H112.3L110.411 38.5132L111.667 40.9126H110.729L109.889 39.1367L108.538 40.9126H107.596L109.542 38.5132L108.325 36.1658H109.265L110.056 37.8992H110.052Z" fill="white"/>
<path d="M114.262 40.3364C114.553 40.3364 114.817 40.249 115.058 40.0743C115.299 39.8995 115.45 39.6799 115.511 39.4154H116.279C116.224 39.687 116.095 39.9467 115.887 40.1923C115.679 40.438 115.422 40.634 115.112 40.7804C114.803 40.9268 114.489 41 114.165 41C113.518 41 113.036 40.7851 112.715 40.3529C112.397 39.9208 112.29 39.3304 112.397 38.5817L112.415 38.4447C112.482 37.9819 112.626 37.571 112.848 37.212C113.07 36.853 113.353 36.572 113.698 36.3736C114.042 36.1752 114.432 36.076 114.867 36.076C115.398 36.076 115.818 36.2343 116.125 36.5531C116.432 36.8719 116.56 37.2852 116.51 37.7953H115.743C115.764 37.4883 115.684 37.2356 115.502 37.0372C115.32 36.8389 115.077 36.742 114.77 36.742C114.357 36.742 114.016 36.8908 113.747 37.186C113.478 37.4836 113.303 37.911 113.223 38.4731L113.202 38.6266C113.124 39.1745 113.176 39.5949 113.358 39.8901C113.539 40.1853 113.842 40.334 114.26 40.334L114.262 40.3364Z" fill="white"/>
<path d="M118.82 41C118.177 41 117.684 40.7898 117.341 40.3671C116.999 39.9444 116.878 39.3799 116.98 38.6715L117.001 38.5227C117.07 38.0527 117.219 37.6323 117.452 37.2616C117.686 36.8908 117.979 36.6027 118.331 36.3925C118.685 36.1847 119.049 36.0784 119.426 36.0784C120.043 36.0784 120.494 36.2815 120.777 36.6877C121.061 37.0939 121.148 37.6772 121.039 38.4329L120.99 38.7706H117.773C117.717 39.2382 117.799 39.6161 118.021 39.9042C118.241 40.1923 118.553 40.3364 118.957 40.3364C119.242 40.3364 119.495 40.2773 119.71 40.1616C119.925 40.0435 120.121 39.89 120.298 39.6964L120.737 40.0813C120.251 40.693 119.611 40.9976 118.815 40.9976L118.82 41ZM119.33 36.7444C119.001 36.7444 118.711 36.8625 118.454 37.101C118.196 37.3395 118.012 37.6725 117.896 38.1023H120.274L120.284 38.0409C120.319 37.6276 120.255 37.3088 120.088 37.0821C119.922 36.8554 119.67 36.742 119.33 36.742V36.7444Z" fill="white"/>
<path d="M122.385 40.9126H121.573L122.541 34.1749H123.354L122.385 40.9126Z" fill="white"/>
<path d="M124.449 40.9126H123.637L124.605 34.1749H125.417L124.449 40.9126Z" fill="white"/>
<path d="M127.588 41C126.945 41 126.452 40.7898 126.109 40.3671C125.767 39.9444 125.646 39.3799 125.748 38.6715L125.769 38.5227C125.838 38.0527 125.986 37.6323 126.22 37.2616C126.454 36.8908 126.747 36.6027 127.099 36.3925C127.453 36.1847 127.817 36.0784 128.194 36.0784C128.811 36.0784 129.262 36.2815 129.545 36.6877C129.829 37.0939 129.916 37.6772 129.807 38.4329L129.758 38.7706H126.541C126.485 39.2382 126.567 39.6161 126.789 39.9042C127.009 40.1923 127.321 40.3364 127.724 40.3364C128.01 40.3364 128.263 40.2773 128.478 40.1616C128.693 40.0435 128.889 39.89 129.066 39.6964L129.505 40.0813C129.019 40.693 128.379 40.9976 127.583 40.9976L127.588 41ZM128.1 36.7444C127.772 36.7444 127.481 36.8625 127.224 37.101C126.966 37.3395 126.782 37.6725 126.667 38.1023H129.045L129.054 38.0409C129.089 37.6276 129.026 37.3088 128.858 37.0821C128.693 36.8554 128.44 36.742 128.1 36.742V36.7444Z" fill="white"/>
<path d="M131.725 36.1658L131.666 36.7633C132.093 36.3075 132.601 36.0784 133.186 36.0784C134.19 36.0784 134.613 36.6452 134.459 37.7764L134.008 40.9126H133.196L133.647 37.7717C133.694 37.4292 133.652 37.1765 133.522 37.0136C133.392 36.8506 133.165 36.768 132.839 36.768C132.575 36.768 132.334 36.8388 132.117 36.9782C131.897 37.1175 131.715 37.3041 131.571 37.5308L131.085 40.9126H130.272L130.955 36.1658H131.722H131.725Z" fill="white"/>
<path d="M137.099 40.3364C137.39 40.3364 137.654 40.249 137.895 40.0743C138.136 39.8995 138.287 39.6799 138.349 39.4154H139.116C139.062 39.687 138.932 39.9467 138.724 40.1923C138.516 40.438 138.259 40.634 137.949 40.7804C137.64 40.9268 137.326 41 137.003 41C136.355 41 135.874 40.7851 135.553 40.3529C135.234 39.9208 135.128 39.3304 135.234 38.5817L135.253 38.4447C135.319 37.9819 135.463 37.571 135.685 37.212C135.907 36.853 136.19 36.572 136.535 36.3736C136.88 36.1752 137.269 36.076 137.704 36.076C138.235 36.076 138.656 36.2343 138.962 36.5531C139.269 36.8719 139.397 37.2852 139.347 37.7953H138.58C138.601 37.4883 138.521 37.2356 138.339 37.0372C138.157 36.8389 137.914 36.742 137.607 36.742C137.194 36.742 136.854 36.8908 136.585 37.186C136.315 37.4836 136.141 37.911 136.06 38.4731L136.039 38.6266C135.961 39.1745 136.013 39.5949 136.195 39.8901C136.377 40.1853 136.679 40.334 137.097 40.334L137.099 40.3364Z" fill="white"/>
<path d="M141.697 41C141.055 41 140.561 40.7898 140.219 40.3671C139.876 39.9444 139.756 39.3799 139.857 38.6715L139.879 38.5227C139.947 38.0527 140.096 37.6323 140.33 37.2616C140.564 36.8908 140.856 36.6027 141.208 36.3925C141.562 36.1847 141.926 36.0784 142.304 36.0784C142.92 36.0784 143.371 36.2815 143.655 36.6877C143.938 37.0939 144.025 37.6772 143.917 38.4329L143.867 38.7706H140.651C140.597 39.2382 140.677 39.6161 140.899 39.9042C141.118 40.1923 141.43 40.3364 141.834 40.3364C142.12 40.3364 142.372 40.2773 142.587 40.1616C142.802 40.0435 142.998 39.89 143.175 39.6964L143.614 40.0813C143.128 40.693 142.488 40.9976 141.692 40.9976L141.697 41ZM142.209 36.7444C141.881 36.7444 141.591 36.8625 141.333 37.101C141.076 37.3395 140.892 37.6725 140.776 38.1023H143.154L143.163 38.0409C143.199 37.6276 143.135 37.3088 142.967 37.0821C142.802 36.8554 142.549 36.742 142.209 36.742V36.7444Z" fill="white"/>
<path d="M151.228 3.18583H150.673L150.477 4.30287H149.983L150.489 1.39572H151.405C151.721 1.39572 151.962 1.47365 152.13 1.6248C152.297 1.77594 152.371 1.98849 152.347 2.25771C152.333 2.44664 152.269 2.60959 152.16 2.74657C152.052 2.88354 151.896 2.99217 151.695 3.07247L152.125 4.27217V4.30287H151.601L151.23 3.18583H151.228ZM150.741 2.77727L151.218 2.78199C151.391 2.78199 151.532 2.73712 151.648 2.64738C151.764 2.55764 151.83 2.43483 151.851 2.28133C151.87 2.13018 151.844 2.01446 151.771 1.93417C151.698 1.85387 151.587 1.81137 151.438 1.80428H150.911L150.741 2.77727Z" fill="white"/>
<path fill-rule="evenodd" clip-rule="evenodd" d="M151.138 0C152.718 0 154 1.28236 154 2.86228C154 4.4422 152.718 5.72456 151.138 5.72456C149.558 5.72456 148.276 4.4422 148.276 2.86228C148.276 1.28236 149.558 0 151.138 0ZM151.138 0.573873C152.401 0.573873 153.426 1.59881 153.426 2.86228C153.426 4.12574 152.401 5.15068 151.138 5.15068C149.875 5.15068 148.85 4.12574 148.85 2.86228C148.85 1.59881 149.875 0.573873 151.138 0.573873Z" fill="white"/>
</g>
<defs>
<clipPath id="clip0_20_473">
<rect width="154" height="41" fill="white"/>
</clipPath>
</defs>
</svg>
